G04 #@! TF.GenerationSoftware,KiCad,Pcbnew,(5.1.0-0)*
G04 #@! TF.CreationDate,2019-04-12T20:13:37-07:00*
G04 #@! TF.ProjectId,ap2112m-txb0104-module,61703231-3132-46d2-9d74-786230313034,rev?*
G04 #@! TF.SameCoordinates,Original*
G04 #@! TF.FileFunction,Legend,Top*
G04 #@! TF.FilePolarity,Positive*
%FSLAX46Y46*%
G04 Gerber Fmt 4.6, Leading zero omitted, Abs format (unit mm)*
G04 Created by KiCad (PCBNEW (5.1.0-0)) date 2019-04-12 20:13:37*
%MOMM*%
%LPD*%
G04 APERTURE LIST*
%ADD10C,0.150000*%
%ADD11C,0.101600*%
%ADD12C,0.120000*%
%ADD13C,0.076200*%
%ADD14C,0.127000*%
G04 APERTURE END LIST*
D10*
X144653000Y-93218000D02*
X144399000Y-93472000D01*
X146685000Y-93472000D02*
X146685000Y-93980000D01*
X146431000Y-93218000D02*
X146685000Y-93472000D01*
X144399000Y-93472000D02*
X144399000Y-93980000D01*
X143891000Y-93472000D02*
X143891000Y-93980000D01*
X143637000Y-93218000D02*
X143891000Y-93472000D01*
X141351000Y-93472000D02*
X141351000Y-93980000D01*
X141605000Y-93218000D02*
X141351000Y-93472000D01*
D11*
X168426190Y-84488261D02*
X168426190Y-83853261D01*
X168426190Y-84155642D02*
X168789047Y-84155642D01*
X168789047Y-84488261D02*
X168789047Y-83853261D01*
X169363571Y-84064928D02*
X169363571Y-84488261D01*
X169212380Y-83823023D02*
X169061190Y-84276595D01*
X169454285Y-84276595D01*
X165886190Y-84488261D02*
X165886190Y-83853261D01*
X165886190Y-84155642D02*
X166249047Y-84155642D01*
X166249047Y-84488261D02*
X166249047Y-83853261D01*
X166490952Y-83853261D02*
X166884047Y-83853261D01*
X166672380Y-84095166D01*
X166763095Y-84095166D01*
X166823571Y-84125404D01*
X166853809Y-84155642D01*
X166884047Y-84216119D01*
X166884047Y-84367309D01*
X166853809Y-84427785D01*
X166823571Y-84458023D01*
X166763095Y-84488261D01*
X166581666Y-84488261D01*
X166521190Y-84458023D01*
X166490952Y-84427785D01*
X163346190Y-84488261D02*
X163346190Y-83853261D01*
X163346190Y-84155642D02*
X163709047Y-84155642D01*
X163709047Y-84488261D02*
X163709047Y-83853261D01*
X163981190Y-83913738D02*
X164011428Y-83883500D01*
X164071904Y-83853261D01*
X164223095Y-83853261D01*
X164283571Y-83883500D01*
X164313809Y-83913738D01*
X164344047Y-83974214D01*
X164344047Y-84034690D01*
X164313809Y-84125404D01*
X163950952Y-84488261D01*
X164344047Y-84488261D01*
X160806190Y-84488261D02*
X160806190Y-83853261D01*
X160806190Y-84155642D02*
X161169047Y-84155642D01*
X161169047Y-84488261D02*
X161169047Y-83853261D01*
X161804047Y-84488261D02*
X161441190Y-84488261D01*
X161622619Y-84488261D02*
X161622619Y-83853261D01*
X161562142Y-83943976D01*
X161501666Y-84004452D01*
X161441190Y-84034690D01*
X156996190Y-83883500D02*
X156935714Y-83853261D01*
X156845000Y-83853261D01*
X156754285Y-83883500D01*
X156693809Y-83943976D01*
X156663571Y-84004452D01*
X156633333Y-84125404D01*
X156633333Y-84216119D01*
X156663571Y-84337071D01*
X156693809Y-84397547D01*
X156754285Y-84458023D01*
X156845000Y-84488261D01*
X156905476Y-84488261D01*
X156996190Y-84458023D01*
X157026428Y-84427785D01*
X157026428Y-84216119D01*
X156905476Y-84216119D01*
X157298571Y-84488261D02*
X157298571Y-83853261D01*
X157661428Y-84488261D01*
X157661428Y-83853261D01*
X157963809Y-84488261D02*
X157963809Y-83853261D01*
X158115000Y-83853261D01*
X158205714Y-83883500D01*
X158266190Y-83943976D01*
X158296428Y-84004452D01*
X158326666Y-84125404D01*
X158326666Y-84216119D01*
X158296428Y-84337071D01*
X158266190Y-84397547D01*
X158205714Y-84458023D01*
X158115000Y-84488261D01*
X157963809Y-84488261D01*
D10*
X159258000Y-84201000D02*
X159639000Y-83820000D01*
X151257000Y-84201000D02*
X150622000Y-84201000D01*
X153543000Y-84201000D02*
X154178000Y-84201000D01*
X150622000Y-84201000D02*
X150241000Y-83820000D01*
X154178000Y-84201000D02*
X154559000Y-83820000D01*
X156337000Y-84201000D02*
X155702000Y-84201000D01*
X155702000Y-84201000D02*
X155321000Y-83820000D01*
X158623000Y-84201000D02*
X159258000Y-84201000D01*
D11*
X152279047Y-83853261D02*
X151976666Y-83853261D01*
X151946428Y-84155642D01*
X151976666Y-84125404D01*
X152037142Y-84095166D01*
X152188333Y-84095166D01*
X152248809Y-84125404D01*
X152279047Y-84155642D01*
X152309285Y-84216119D01*
X152309285Y-84367309D01*
X152279047Y-84427785D01*
X152248809Y-84458023D01*
X152188333Y-84488261D01*
X152037142Y-84488261D01*
X151976666Y-84458023D01*
X151946428Y-84427785D01*
X152490714Y-83853261D02*
X152702380Y-84488261D01*
X152914047Y-83853261D01*
X168804166Y-93886261D02*
X168501785Y-93886261D01*
X168501785Y-93251261D01*
X169287976Y-93462928D02*
X169287976Y-93886261D01*
X169136785Y-93221023D02*
X168985595Y-93674595D01*
X169378690Y-93674595D01*
X166264166Y-93886261D02*
X165961785Y-93886261D01*
X165961785Y-93251261D01*
X166415357Y-93251261D02*
X166808452Y-93251261D01*
X166596785Y-93493166D01*
X166687500Y-93493166D01*
X166747976Y-93523404D01*
X166778214Y-93553642D01*
X166808452Y-93614119D01*
X166808452Y-93765309D01*
X166778214Y-93825785D01*
X166747976Y-93856023D01*
X166687500Y-93886261D01*
X166506071Y-93886261D01*
X166445595Y-93856023D01*
X166415357Y-93825785D01*
X163724166Y-93886261D02*
X163421785Y-93886261D01*
X163421785Y-93251261D01*
X163905595Y-93311738D02*
X163935833Y-93281500D01*
X163996309Y-93251261D01*
X164147500Y-93251261D01*
X164207976Y-93281500D01*
X164238214Y-93311738D01*
X164268452Y-93372214D01*
X164268452Y-93432690D01*
X164238214Y-93523404D01*
X163875357Y-93886261D01*
X164268452Y-93886261D01*
X161184166Y-93886261D02*
X160881785Y-93886261D01*
X160881785Y-93251261D01*
X161728452Y-93886261D02*
X161365595Y-93886261D01*
X161547023Y-93886261D02*
X161547023Y-93251261D01*
X161486547Y-93341976D01*
X161426071Y-93402452D01*
X161365595Y-93432690D01*
D10*
X155702000Y-93599000D02*
X155321000Y-93980000D01*
X158623000Y-93599000D02*
X159258000Y-93599000D01*
X159258000Y-93599000D02*
X159639000Y-93980000D01*
X156337000Y-93599000D02*
X155702000Y-93599000D01*
X150622000Y-93599000D02*
X150241000Y-93980000D01*
X151257000Y-93599000D02*
X150622000Y-93599000D01*
X154178000Y-93599000D02*
X154559000Y-93980000D01*
X153543000Y-93599000D02*
X154178000Y-93599000D01*
D11*
X156996190Y-93281500D02*
X156935714Y-93251261D01*
X156845000Y-93251261D01*
X156754285Y-93281500D01*
X156693809Y-93341976D01*
X156663571Y-93402452D01*
X156633333Y-93523404D01*
X156633333Y-93614119D01*
X156663571Y-93735071D01*
X156693809Y-93795547D01*
X156754285Y-93856023D01*
X156845000Y-93886261D01*
X156905476Y-93886261D01*
X156996190Y-93856023D01*
X157026428Y-93825785D01*
X157026428Y-93614119D01*
X156905476Y-93614119D01*
X157298571Y-93886261D02*
X157298571Y-93251261D01*
X157661428Y-93886261D01*
X157661428Y-93251261D01*
X157963809Y-93886261D02*
X157963809Y-93251261D01*
X158115000Y-93251261D01*
X158205714Y-93281500D01*
X158266190Y-93341976D01*
X158296428Y-93402452D01*
X158326666Y-93523404D01*
X158326666Y-93614119D01*
X158296428Y-93735071D01*
X158266190Y-93795547D01*
X158205714Y-93856023D01*
X158115000Y-93886261D01*
X157963809Y-93886261D01*
X151613809Y-93251261D02*
X152006904Y-93251261D01*
X151795238Y-93493166D01*
X151885952Y-93493166D01*
X151946428Y-93523404D01*
X151976666Y-93553642D01*
X152006904Y-93614119D01*
X152006904Y-93765309D01*
X151976666Y-93825785D01*
X151946428Y-93856023D01*
X151885952Y-93886261D01*
X151704523Y-93886261D01*
X151644047Y-93856023D01*
X151613809Y-93825785D01*
X152188333Y-93251261D02*
X152400000Y-93886261D01*
X152611666Y-93251261D01*
X152762857Y-93251261D02*
X153155952Y-93251261D01*
X152944285Y-93493166D01*
X153035000Y-93493166D01*
X153095476Y-93523404D01*
X153125714Y-93553642D01*
X153155952Y-93614119D01*
X153155952Y-93765309D01*
X153125714Y-93825785D01*
X153095476Y-93856023D01*
X153035000Y-93886261D01*
X152853571Y-93886261D01*
X152793095Y-93856023D01*
X152762857Y-93825785D01*
X151374928Y-88497833D02*
X151677309Y-88497833D01*
X151314452Y-88679261D02*
X151526119Y-88044261D01*
X151737785Y-88679261D01*
X151949452Y-88679261D02*
X151949452Y-88044261D01*
X152191357Y-88044261D01*
X152251833Y-88074500D01*
X152282071Y-88104738D01*
X152312309Y-88165214D01*
X152312309Y-88255928D01*
X152282071Y-88316404D01*
X152251833Y-88346642D01*
X152191357Y-88376880D01*
X151949452Y-88376880D01*
X152554214Y-88104738D02*
X152584452Y-88074500D01*
X152644928Y-88044261D01*
X152796119Y-88044261D01*
X152856595Y-88074500D01*
X152886833Y-88104738D01*
X152917071Y-88165214D01*
X152917071Y-88225690D01*
X152886833Y-88316404D01*
X152523976Y-88679261D01*
X152917071Y-88679261D01*
X153521833Y-88679261D02*
X153158976Y-88679261D01*
X153340404Y-88679261D02*
X153340404Y-88044261D01*
X153279928Y-88134976D01*
X153219452Y-88195452D01*
X153158976Y-88225690D01*
X154126595Y-88679261D02*
X153763738Y-88679261D01*
X153945166Y-88679261D02*
X153945166Y-88044261D01*
X153884690Y-88134976D01*
X153824214Y-88195452D01*
X153763738Y-88225690D01*
X154368500Y-88104738D02*
X154398738Y-88074500D01*
X154459214Y-88044261D01*
X154610404Y-88044261D01*
X154670880Y-88074500D01*
X154701119Y-88104738D01*
X154731357Y-88165214D01*
X154731357Y-88225690D01*
X154701119Y-88316404D01*
X154338261Y-88679261D01*
X154731357Y-88679261D01*
X155003500Y-88679261D02*
X155003500Y-88044261D01*
X155215166Y-88497833D01*
X155426833Y-88044261D01*
X155426833Y-88679261D01*
X161692166Y-88044261D02*
X162055023Y-88044261D01*
X161873595Y-88679261D02*
X161873595Y-88044261D01*
X162206214Y-88044261D02*
X162629547Y-88679261D01*
X162629547Y-88044261D02*
X162206214Y-88679261D01*
X163083119Y-88346642D02*
X163173833Y-88376880D01*
X163204071Y-88407119D01*
X163234309Y-88467595D01*
X163234309Y-88558309D01*
X163204071Y-88618785D01*
X163173833Y-88649023D01*
X163113357Y-88679261D01*
X162871452Y-88679261D01*
X162871452Y-88044261D01*
X163083119Y-88044261D01*
X163143595Y-88074500D01*
X163173833Y-88104738D01*
X163204071Y-88165214D01*
X163204071Y-88225690D01*
X163173833Y-88286166D01*
X163143595Y-88316404D01*
X163083119Y-88346642D01*
X162871452Y-88346642D01*
X163627404Y-88044261D02*
X163687880Y-88044261D01*
X163748357Y-88074500D01*
X163778595Y-88104738D01*
X163808833Y-88165214D01*
X163839071Y-88286166D01*
X163839071Y-88437357D01*
X163808833Y-88558309D01*
X163778595Y-88618785D01*
X163748357Y-88649023D01*
X163687880Y-88679261D01*
X163627404Y-88679261D01*
X163566928Y-88649023D01*
X163536690Y-88618785D01*
X163506452Y-88558309D01*
X163476214Y-88437357D01*
X163476214Y-88286166D01*
X163506452Y-88165214D01*
X163536690Y-88104738D01*
X163566928Y-88074500D01*
X163627404Y-88044261D01*
X164443833Y-88679261D02*
X164080976Y-88679261D01*
X164262404Y-88679261D02*
X164262404Y-88044261D01*
X164201928Y-88134976D01*
X164141452Y-88195452D01*
X164080976Y-88225690D01*
X164836928Y-88044261D02*
X164897404Y-88044261D01*
X164957880Y-88074500D01*
X164988119Y-88104738D01*
X165018357Y-88165214D01*
X165048595Y-88286166D01*
X165048595Y-88437357D01*
X165018357Y-88558309D01*
X164988119Y-88618785D01*
X164957880Y-88649023D01*
X164897404Y-88679261D01*
X164836928Y-88679261D01*
X164776452Y-88649023D01*
X164746214Y-88618785D01*
X164715976Y-88558309D01*
X164685738Y-88437357D01*
X164685738Y-88286166D01*
X164715976Y-88165214D01*
X164746214Y-88104738D01*
X164776452Y-88074500D01*
X164836928Y-88044261D01*
X165592880Y-88255928D02*
X165592880Y-88679261D01*
X165441690Y-88014023D02*
X165290500Y-88467595D01*
X165683595Y-88467595D01*
X145148904Y-92870261D02*
X145269857Y-92870261D01*
X145330333Y-92900500D01*
X145390809Y-92960976D01*
X145421047Y-93081928D01*
X145421047Y-93293595D01*
X145390809Y-93414547D01*
X145330333Y-93475023D01*
X145269857Y-93505261D01*
X145148904Y-93505261D01*
X145088428Y-93475023D01*
X145027952Y-93414547D01*
X144997714Y-93293595D01*
X144997714Y-93081928D01*
X145027952Y-92960976D01*
X145088428Y-92900500D01*
X145148904Y-92870261D01*
X145693190Y-93505261D02*
X145693190Y-92870261D01*
X146056047Y-93505261D01*
X146056047Y-92870261D01*
X142016238Y-92870261D02*
X142137190Y-92870261D01*
X142197666Y-92900500D01*
X142258142Y-92960976D01*
X142288380Y-93081928D01*
X142288380Y-93293595D01*
X142258142Y-93414547D01*
X142197666Y-93475023D01*
X142137190Y-93505261D01*
X142016238Y-93505261D01*
X141955761Y-93475023D01*
X141895285Y-93414547D01*
X141865047Y-93293595D01*
X141865047Y-93081928D01*
X141895285Y-92960976D01*
X141955761Y-92900500D01*
X142016238Y-92870261D01*
X142772190Y-93172642D02*
X142560523Y-93172642D01*
X142560523Y-93505261D02*
X142560523Y-92870261D01*
X142862904Y-92870261D01*
X143316476Y-93172642D02*
X143104809Y-93172642D01*
X143104809Y-93505261D02*
X143104809Y-92870261D01*
X143407190Y-92870261D01*
D12*
X150422000Y-85360000D02*
X150422000Y-87360000D01*
X148282000Y-87360000D02*
X148282000Y-85360000D01*
X150422000Y-90440000D02*
X150422000Y-92440000D01*
X148282000Y-92440000D02*
X148282000Y-90440000D01*
X157108000Y-87214000D02*
X157108000Y-86014000D01*
X158868000Y-86014000D02*
X158868000Y-87214000D01*
X157108000Y-91786000D02*
X157108000Y-90586000D01*
X158868000Y-90586000D02*
X158868000Y-91786000D01*
X148066000Y-83620000D02*
X145050000Y-83620000D01*
X145050000Y-81480000D02*
X148066000Y-81480000D01*
D11*
X146812000Y-83058000D02*
X146812000Y-82042000D01*
D13*
X146812000Y-82042000D02*
X146812000Y-82550000D01*
D11*
X146812000Y-82550000D02*
X146050000Y-83058000D01*
X146050000Y-83058000D02*
X146050000Y-82042000D01*
X146050000Y-82042000D02*
X146812000Y-82550000D01*
X142400000Y-86765000D02*
X142650000Y-86965000D01*
X142650000Y-86965000D02*
X142400000Y-87165000D01*
X142400000Y-87165000D02*
X142400000Y-86765000D01*
D12*
X146059000Y-86960000D02*
X146059000Y-85760000D01*
X147819000Y-85760000D02*
X147819000Y-86960000D01*
X170330000Y-90716000D02*
X169130000Y-90716000D01*
X174280000Y-90716000D02*
X176530000Y-90716000D01*
X174280000Y-90216000D02*
X176530000Y-90216000D01*
X172680000Y-87616000D02*
X172680000Y-86616000D01*
X174280000Y-87616000D02*
X172680000Y-87616000D01*
X174280000Y-86616000D02*
X174280000Y-87616000D01*
X172680000Y-86616000D02*
X174280000Y-86616000D01*
X172680000Y-90216000D02*
X172680000Y-91216000D01*
X174280000Y-90216000D02*
X172680000Y-90216000D01*
X174280000Y-91216000D02*
X174280000Y-90216000D01*
X172680000Y-91216000D02*
X174280000Y-91216000D01*
X170330000Y-85866000D02*
X170330000Y-86766000D01*
X170330000Y-91966000D02*
X170330000Y-91066000D01*
X170330000Y-86766000D02*
X170330000Y-87116000D01*
X168730000Y-86766000D02*
X170330000Y-86766000D01*
X168730000Y-85866000D02*
X168730000Y-86766000D01*
X176530000Y-85866000D02*
X168730000Y-85866000D01*
X176530000Y-91966000D02*
X176530000Y-85866000D01*
X168730000Y-91966000D02*
X176530000Y-91966000D01*
X168730000Y-91066000D02*
X168730000Y-91966000D01*
X170330000Y-91066000D02*
X168730000Y-91066000D01*
X170330000Y-90716000D02*
X170330000Y-91066000D01*
X172180000Y-88416000D02*
X176530000Y-88416000D01*
X172180000Y-89416000D02*
X172180000Y-88416000D01*
X176530000Y-89416000D02*
X172180000Y-89416000D01*
D11*
X170688000Y-91186000D02*
X171196000Y-91186000D01*
X170942000Y-91440000D02*
X170942000Y-90932000D01*
X170942000Y-86995000D02*
X170942000Y-86487000D01*
D13*
X171301210Y-91186000D02*
G75*
G03X171301210Y-91186000I-359210J0D01*
G01*
X171301210Y-86741000D02*
G75*
G03X171301210Y-86741000I-359210J0D01*
G01*
D10*
X150891000Y-90975000D02*
X150891000Y-92375000D01*
X155991000Y-90975000D02*
X155991000Y-86825000D01*
X150841000Y-90975000D02*
X150841000Y-86825000D01*
X155991000Y-90975000D02*
X155846000Y-90975000D01*
X155991000Y-86825000D02*
X155846000Y-86825000D01*
X150841000Y-86825000D02*
X150986000Y-86825000D01*
X150841000Y-90975000D02*
X150891000Y-90975000D01*
X159405000Y-90975000D02*
X159405000Y-92350000D01*
X168280000Y-90975000D02*
X168280000Y-86825000D01*
X159380000Y-90975000D02*
X159380000Y-86825000D01*
X168280000Y-90975000D02*
X168165000Y-90975000D01*
X168280000Y-86825000D02*
X168165000Y-86825000D01*
X159380000Y-86825000D02*
X159495000Y-86825000D01*
X159380000Y-90975000D02*
X159405000Y-90975000D01*
D11*
X149225000Y-86632142D02*
X149188714Y-86668428D01*
X149079857Y-86704714D01*
X149007285Y-86704714D01*
X148898428Y-86668428D01*
X148825857Y-86595857D01*
X148789571Y-86523285D01*
X148753285Y-86378142D01*
X148753285Y-86269285D01*
X148789571Y-86124142D01*
X148825857Y-86051571D01*
X148898428Y-85979000D01*
X149007285Y-85942714D01*
X149079857Y-85942714D01*
X149188714Y-85979000D01*
X149225000Y-86015285D01*
X149950714Y-86704714D02*
X149515285Y-86704714D01*
X149733000Y-86704714D02*
X149733000Y-85942714D01*
X149660428Y-86051571D01*
X149587857Y-86124142D01*
X149515285Y-86160428D01*
X149225000Y-91712142D02*
X149188714Y-91748428D01*
X149079857Y-91784714D01*
X149007285Y-91784714D01*
X148898428Y-91748428D01*
X148825857Y-91675857D01*
X148789571Y-91603285D01*
X148753285Y-91458142D01*
X148753285Y-91349285D01*
X148789571Y-91204142D01*
X148825857Y-91131571D01*
X148898428Y-91059000D01*
X149007285Y-91022714D01*
X149079857Y-91022714D01*
X149188714Y-91059000D01*
X149225000Y-91095285D01*
X149515285Y-91095285D02*
X149551571Y-91059000D01*
X149624142Y-91022714D01*
X149805571Y-91022714D01*
X149878142Y-91059000D01*
X149914428Y-91095285D01*
X149950714Y-91167857D01*
X149950714Y-91240428D01*
X149914428Y-91349285D01*
X149479000Y-91784714D01*
X149950714Y-91784714D01*
X157882166Y-86840785D02*
X157851928Y-86871023D01*
X157761214Y-86901261D01*
X157700738Y-86901261D01*
X157610023Y-86871023D01*
X157549547Y-86810547D01*
X157519309Y-86750071D01*
X157489071Y-86629119D01*
X157489071Y-86538404D01*
X157519309Y-86417452D01*
X157549547Y-86356976D01*
X157610023Y-86296500D01*
X157700738Y-86266261D01*
X157761214Y-86266261D01*
X157851928Y-86296500D01*
X157882166Y-86326738D01*
X158093833Y-86266261D02*
X158486928Y-86266261D01*
X158275261Y-86508166D01*
X158365976Y-86508166D01*
X158426452Y-86538404D01*
X158456690Y-86568642D01*
X158486928Y-86629119D01*
X158486928Y-86780309D01*
X158456690Y-86840785D01*
X158426452Y-86871023D01*
X158365976Y-86901261D01*
X158184547Y-86901261D01*
X158124071Y-86871023D01*
X158093833Y-86840785D01*
X157882166Y-91412785D02*
X157851928Y-91443023D01*
X157761214Y-91473261D01*
X157700738Y-91473261D01*
X157610023Y-91443023D01*
X157549547Y-91382547D01*
X157519309Y-91322071D01*
X157489071Y-91201119D01*
X157489071Y-91110404D01*
X157519309Y-90989452D01*
X157549547Y-90928976D01*
X157610023Y-90868500D01*
X157700738Y-90838261D01*
X157761214Y-90838261D01*
X157851928Y-90868500D01*
X157882166Y-90898738D01*
X158426452Y-91049928D02*
X158426452Y-91473261D01*
X158275261Y-90808023D02*
X158124071Y-91261595D01*
X158517166Y-91261595D01*
X145829261Y-83018690D02*
X145194261Y-83018690D01*
X145194261Y-82867500D01*
X145224500Y-82776785D01*
X145284976Y-82716309D01*
X145345452Y-82686071D01*
X145466404Y-82655833D01*
X145557119Y-82655833D01*
X145678071Y-82686071D01*
X145738547Y-82716309D01*
X145799023Y-82776785D01*
X145829261Y-82867500D01*
X145829261Y-83018690D01*
X145829261Y-82051071D02*
X145829261Y-82413928D01*
X145829261Y-82232500D02*
X145194261Y-82232500D01*
X145284976Y-82292976D01*
X145345452Y-82353452D01*
X145375690Y-82413928D01*
X146452166Y-86040080D02*
X146452166Y-86457366D01*
X146424347Y-86540823D01*
X146368709Y-86596461D01*
X146285252Y-86624280D01*
X146229614Y-86624280D01*
X146730357Y-86624280D02*
X146730357Y-86040080D01*
X146952909Y-86040080D01*
X147008547Y-86067900D01*
X147036366Y-86095719D01*
X147064185Y-86151357D01*
X147064185Y-86234814D01*
X147036366Y-86290452D01*
X147008547Y-86318271D01*
X146952909Y-86346090D01*
X146730357Y-86346090D01*
X147620566Y-86624280D02*
X147286738Y-86624280D01*
X147453652Y-86624280D02*
X147453652Y-86040080D01*
X147398014Y-86123538D01*
X147342376Y-86179176D01*
X147286738Y-86206995D01*
D14*
X151311428Y-89371714D02*
X151311428Y-89988571D01*
X151347714Y-90061142D01*
X151384000Y-90097428D01*
X151456571Y-90133714D01*
X151601714Y-90133714D01*
X151674285Y-90097428D01*
X151710571Y-90061142D01*
X151746857Y-89988571D01*
X151746857Y-89371714D01*
X152508857Y-90133714D02*
X152073428Y-90133714D01*
X152291142Y-90133714D02*
X152291142Y-89371714D01*
X152218571Y-89480571D01*
X152146000Y-89553142D01*
X152073428Y-89589428D01*
X159820428Y-89371714D02*
X159820428Y-89988571D01*
X159856714Y-90061142D01*
X159893000Y-90097428D01*
X159965571Y-90133714D01*
X160110714Y-90133714D01*
X160183285Y-90097428D01*
X160219571Y-90061142D01*
X160255857Y-89988571D01*
X160255857Y-89371714D01*
X160582428Y-89444285D02*
X160618714Y-89408000D01*
X160691285Y-89371714D01*
X160872714Y-89371714D01*
X160945285Y-89408000D01*
X160981571Y-89444285D01*
X161017857Y-89516857D01*
X161017857Y-89589428D01*
X160981571Y-89698285D01*
X160546142Y-90133714D01*
X161017857Y-90133714D01*
M02*
