G04 #@! TF.GenerationSoftware,KiCad,Pcbnew,(5.1.0-0)*
G04 #@! TF.CreationDate,2019-04-12T20:13:37-07:00*
G04 #@! TF.ProjectId,ap2112m-txb0104-module,61703231-3132-46d2-9d74-786230313034,rev?*
G04 #@! TF.SameCoordinates,Original*
G04 #@! TF.FileFunction,Copper,L2,Bot*
G04 #@! TF.FilePolarity,Positive*
%FSLAX46Y46*%
G04 Gerber Fmt 4.6, Leading zero omitted, Abs format (unit mm)*
G04 Created by KiCad (PCBNEW (5.1.0-0)) date 2019-04-12 20:13:37*
%MOMM*%
%LPD*%
G04 APERTURE LIST*
%ADD10O,1.860000X1.860000*%
%ADD11C,0.025400*%
%ADD12C,1.700000*%
%ADD13O,1.778000X1.397000*%
%ADD14C,1.397000*%
%ADD15C,1.100000*%
%ADD16C,1.651000*%
%ADD17C,0.685800*%
%ADD18C,0.304800*%
%ADD19C,0.203200*%
%ADD20C,0.406400*%
G04 APERTURE END LIST*
D10*
X140850000Y-91840000D03*
X144300000Y-91840000D03*
X140850000Y-84690000D03*
X144300000Y-84690000D03*
D11*
G36*
X154136657Y-81702046D02*
G01*
X154177913Y-81708166D01*
X154218371Y-81718300D01*
X154257640Y-81732351D01*
X154295344Y-81750183D01*
X154331117Y-81771625D01*
X154364617Y-81796471D01*
X154395520Y-81824480D01*
X154423529Y-81855383D01*
X154448375Y-81888883D01*
X154469817Y-81924656D01*
X154487649Y-81962360D01*
X154501700Y-82001629D01*
X154511834Y-82042087D01*
X154517954Y-82083343D01*
X154520000Y-82125000D01*
X154520000Y-82975000D01*
X154517954Y-83016657D01*
X154511834Y-83057913D01*
X154501700Y-83098371D01*
X154487649Y-83137640D01*
X154469817Y-83175344D01*
X154448375Y-83211117D01*
X154423529Y-83244617D01*
X154395520Y-83275520D01*
X154364617Y-83303529D01*
X154331117Y-83328375D01*
X154295344Y-83349817D01*
X154257640Y-83367649D01*
X154218371Y-83381700D01*
X154177913Y-83391834D01*
X154136657Y-83397954D01*
X154095000Y-83400000D01*
X153245000Y-83400000D01*
X153203343Y-83397954D01*
X153162087Y-83391834D01*
X153121629Y-83381700D01*
X153082360Y-83367649D01*
X153044656Y-83349817D01*
X153008883Y-83328375D01*
X152975383Y-83303529D01*
X152944480Y-83275520D01*
X152916471Y-83244617D01*
X152891625Y-83211117D01*
X152870183Y-83175344D01*
X152852351Y-83137640D01*
X152838300Y-83098371D01*
X152828166Y-83057913D01*
X152822046Y-83016657D01*
X152820000Y-82975000D01*
X152820000Y-82125000D01*
X152822046Y-82083343D01*
X152828166Y-82042087D01*
X152838300Y-82001629D01*
X152852351Y-81962360D01*
X152870183Y-81924656D01*
X152891625Y-81888883D01*
X152916471Y-81855383D01*
X152944480Y-81824480D01*
X152975383Y-81796471D01*
X153008883Y-81771625D01*
X153044656Y-81750183D01*
X153082360Y-81732351D01*
X153121629Y-81718300D01*
X153162087Y-81708166D01*
X153203343Y-81702046D01*
X153245000Y-81700000D01*
X154095000Y-81700000D01*
X154136657Y-81702046D01*
X154136657Y-81702046D01*
G37*
D12*
X153670000Y-82550000D03*
D11*
G36*
X151596657Y-81702046D02*
G01*
X151637913Y-81708166D01*
X151678371Y-81718300D01*
X151717640Y-81732351D01*
X151755344Y-81750183D01*
X151791117Y-81771625D01*
X151824617Y-81796471D01*
X151855520Y-81824480D01*
X151883529Y-81855383D01*
X151908375Y-81888883D01*
X151929817Y-81924656D01*
X151947649Y-81962360D01*
X151961700Y-82001629D01*
X151971834Y-82042087D01*
X151977954Y-82083343D01*
X151980000Y-82125000D01*
X151980000Y-82975000D01*
X151977954Y-83016657D01*
X151971834Y-83057913D01*
X151961700Y-83098371D01*
X151947649Y-83137640D01*
X151929817Y-83175344D01*
X151908375Y-83211117D01*
X151883529Y-83244617D01*
X151855520Y-83275520D01*
X151824617Y-83303529D01*
X151791117Y-83328375D01*
X151755344Y-83349817D01*
X151717640Y-83367649D01*
X151678371Y-83381700D01*
X151637913Y-83391834D01*
X151596657Y-83397954D01*
X151555000Y-83400000D01*
X150705000Y-83400000D01*
X150663343Y-83397954D01*
X150622087Y-83391834D01*
X150581629Y-83381700D01*
X150542360Y-83367649D01*
X150504656Y-83349817D01*
X150468883Y-83328375D01*
X150435383Y-83303529D01*
X150404480Y-83275520D01*
X150376471Y-83244617D01*
X150351625Y-83211117D01*
X150330183Y-83175344D01*
X150312351Y-83137640D01*
X150298300Y-83098371D01*
X150288166Y-83057913D01*
X150282046Y-83016657D01*
X150280000Y-82975000D01*
X150280000Y-82125000D01*
X150282046Y-82083343D01*
X150288166Y-82042087D01*
X150298300Y-82001629D01*
X150312351Y-81962360D01*
X150330183Y-81924656D01*
X150351625Y-81888883D01*
X150376471Y-81855383D01*
X150404480Y-81824480D01*
X150435383Y-81796471D01*
X150468883Y-81771625D01*
X150504656Y-81750183D01*
X150542360Y-81732351D01*
X150581629Y-81718300D01*
X150622087Y-81708166D01*
X150663343Y-81702046D01*
X150705000Y-81700000D01*
X151555000Y-81700000D01*
X151596657Y-81702046D01*
X151596657Y-81702046D01*
G37*
D12*
X151130000Y-82550000D03*
D11*
G36*
X159216657Y-81702046D02*
G01*
X159257913Y-81708166D01*
X159298371Y-81718300D01*
X159337640Y-81732351D01*
X159375344Y-81750183D01*
X159411117Y-81771625D01*
X159444617Y-81796471D01*
X159475520Y-81824480D01*
X159503529Y-81855383D01*
X159528375Y-81888883D01*
X159549817Y-81924656D01*
X159567649Y-81962360D01*
X159581700Y-82001629D01*
X159591834Y-82042087D01*
X159597954Y-82083343D01*
X159600000Y-82125000D01*
X159600000Y-82975000D01*
X159597954Y-83016657D01*
X159591834Y-83057913D01*
X159581700Y-83098371D01*
X159567649Y-83137640D01*
X159549817Y-83175344D01*
X159528375Y-83211117D01*
X159503529Y-83244617D01*
X159475520Y-83275520D01*
X159444617Y-83303529D01*
X159411117Y-83328375D01*
X159375344Y-83349817D01*
X159337640Y-83367649D01*
X159298371Y-83381700D01*
X159257913Y-83391834D01*
X159216657Y-83397954D01*
X159175000Y-83400000D01*
X158325000Y-83400000D01*
X158283343Y-83397954D01*
X158242087Y-83391834D01*
X158201629Y-83381700D01*
X158162360Y-83367649D01*
X158124656Y-83349817D01*
X158088883Y-83328375D01*
X158055383Y-83303529D01*
X158024480Y-83275520D01*
X157996471Y-83244617D01*
X157971625Y-83211117D01*
X157950183Y-83175344D01*
X157932351Y-83137640D01*
X157918300Y-83098371D01*
X157908166Y-83057913D01*
X157902046Y-83016657D01*
X157900000Y-82975000D01*
X157900000Y-82125000D01*
X157902046Y-82083343D01*
X157908166Y-82042087D01*
X157918300Y-82001629D01*
X157932351Y-81962360D01*
X157950183Y-81924656D01*
X157971625Y-81888883D01*
X157996471Y-81855383D01*
X158024480Y-81824480D01*
X158055383Y-81796471D01*
X158088883Y-81771625D01*
X158124656Y-81750183D01*
X158162360Y-81732351D01*
X158201629Y-81718300D01*
X158242087Y-81708166D01*
X158283343Y-81702046D01*
X158325000Y-81700000D01*
X159175000Y-81700000D01*
X159216657Y-81702046D01*
X159216657Y-81702046D01*
G37*
D12*
X158750000Y-82550000D03*
D11*
G36*
X156676657Y-81702046D02*
G01*
X156717913Y-81708166D01*
X156758371Y-81718300D01*
X156797640Y-81732351D01*
X156835344Y-81750183D01*
X156871117Y-81771625D01*
X156904617Y-81796471D01*
X156935520Y-81824480D01*
X156963529Y-81855383D01*
X156988375Y-81888883D01*
X157009817Y-81924656D01*
X157027649Y-81962360D01*
X157041700Y-82001629D01*
X157051834Y-82042087D01*
X157057954Y-82083343D01*
X157060000Y-82125000D01*
X157060000Y-82975000D01*
X157057954Y-83016657D01*
X157051834Y-83057913D01*
X157041700Y-83098371D01*
X157027649Y-83137640D01*
X157009817Y-83175344D01*
X156988375Y-83211117D01*
X156963529Y-83244617D01*
X156935520Y-83275520D01*
X156904617Y-83303529D01*
X156871117Y-83328375D01*
X156835344Y-83349817D01*
X156797640Y-83367649D01*
X156758371Y-83381700D01*
X156717913Y-83391834D01*
X156676657Y-83397954D01*
X156635000Y-83400000D01*
X155785000Y-83400000D01*
X155743343Y-83397954D01*
X155702087Y-83391834D01*
X155661629Y-83381700D01*
X155622360Y-83367649D01*
X155584656Y-83349817D01*
X155548883Y-83328375D01*
X155515383Y-83303529D01*
X155484480Y-83275520D01*
X155456471Y-83244617D01*
X155431625Y-83211117D01*
X155410183Y-83175344D01*
X155392351Y-83137640D01*
X155378300Y-83098371D01*
X155368166Y-83057913D01*
X155362046Y-83016657D01*
X155360000Y-82975000D01*
X155360000Y-82125000D01*
X155362046Y-82083343D01*
X155368166Y-82042087D01*
X155378300Y-82001629D01*
X155392351Y-81962360D01*
X155410183Y-81924656D01*
X155431625Y-81888883D01*
X155456471Y-81855383D01*
X155484480Y-81824480D01*
X155515383Y-81796471D01*
X155548883Y-81771625D01*
X155584656Y-81750183D01*
X155622360Y-81732351D01*
X155661629Y-81718300D01*
X155702087Y-81708166D01*
X155743343Y-81702046D01*
X155785000Y-81700000D01*
X156635000Y-81700000D01*
X156676657Y-81702046D01*
X156676657Y-81702046D01*
G37*
D12*
X156210000Y-82550000D03*
D11*
G36*
X154136657Y-94402046D02*
G01*
X154177913Y-94408166D01*
X154218371Y-94418300D01*
X154257640Y-94432351D01*
X154295344Y-94450183D01*
X154331117Y-94471625D01*
X154364617Y-94496471D01*
X154395520Y-94524480D01*
X154423529Y-94555383D01*
X154448375Y-94588883D01*
X154469817Y-94624656D01*
X154487649Y-94662360D01*
X154501700Y-94701629D01*
X154511834Y-94742087D01*
X154517954Y-94783343D01*
X154520000Y-94825000D01*
X154520000Y-95675000D01*
X154517954Y-95716657D01*
X154511834Y-95757913D01*
X154501700Y-95798371D01*
X154487649Y-95837640D01*
X154469817Y-95875344D01*
X154448375Y-95911117D01*
X154423529Y-95944617D01*
X154395520Y-95975520D01*
X154364617Y-96003529D01*
X154331117Y-96028375D01*
X154295344Y-96049817D01*
X154257640Y-96067649D01*
X154218371Y-96081700D01*
X154177913Y-96091834D01*
X154136657Y-96097954D01*
X154095000Y-96100000D01*
X153245000Y-96100000D01*
X153203343Y-96097954D01*
X153162087Y-96091834D01*
X153121629Y-96081700D01*
X153082360Y-96067649D01*
X153044656Y-96049817D01*
X153008883Y-96028375D01*
X152975383Y-96003529D01*
X152944480Y-95975520D01*
X152916471Y-95944617D01*
X152891625Y-95911117D01*
X152870183Y-95875344D01*
X152852351Y-95837640D01*
X152838300Y-95798371D01*
X152828166Y-95757913D01*
X152822046Y-95716657D01*
X152820000Y-95675000D01*
X152820000Y-94825000D01*
X152822046Y-94783343D01*
X152828166Y-94742087D01*
X152838300Y-94701629D01*
X152852351Y-94662360D01*
X152870183Y-94624656D01*
X152891625Y-94588883D01*
X152916471Y-94555383D01*
X152944480Y-94524480D01*
X152975383Y-94496471D01*
X153008883Y-94471625D01*
X153044656Y-94450183D01*
X153082360Y-94432351D01*
X153121629Y-94418300D01*
X153162087Y-94408166D01*
X153203343Y-94402046D01*
X153245000Y-94400000D01*
X154095000Y-94400000D01*
X154136657Y-94402046D01*
X154136657Y-94402046D01*
G37*
D12*
X153670000Y-95250000D03*
D11*
G36*
X151596657Y-94402046D02*
G01*
X151637913Y-94408166D01*
X151678371Y-94418300D01*
X151717640Y-94432351D01*
X151755344Y-94450183D01*
X151791117Y-94471625D01*
X151824617Y-94496471D01*
X151855520Y-94524480D01*
X151883529Y-94555383D01*
X151908375Y-94588883D01*
X151929817Y-94624656D01*
X151947649Y-94662360D01*
X151961700Y-94701629D01*
X151971834Y-94742087D01*
X151977954Y-94783343D01*
X151980000Y-94825000D01*
X151980000Y-95675000D01*
X151977954Y-95716657D01*
X151971834Y-95757913D01*
X151961700Y-95798371D01*
X151947649Y-95837640D01*
X151929817Y-95875344D01*
X151908375Y-95911117D01*
X151883529Y-95944617D01*
X151855520Y-95975520D01*
X151824617Y-96003529D01*
X151791117Y-96028375D01*
X151755344Y-96049817D01*
X151717640Y-96067649D01*
X151678371Y-96081700D01*
X151637913Y-96091834D01*
X151596657Y-96097954D01*
X151555000Y-96100000D01*
X150705000Y-96100000D01*
X150663343Y-96097954D01*
X150622087Y-96091834D01*
X150581629Y-96081700D01*
X150542360Y-96067649D01*
X150504656Y-96049817D01*
X150468883Y-96028375D01*
X150435383Y-96003529D01*
X150404480Y-95975520D01*
X150376471Y-95944617D01*
X150351625Y-95911117D01*
X150330183Y-95875344D01*
X150312351Y-95837640D01*
X150298300Y-95798371D01*
X150288166Y-95757913D01*
X150282046Y-95716657D01*
X150280000Y-95675000D01*
X150280000Y-94825000D01*
X150282046Y-94783343D01*
X150288166Y-94742087D01*
X150298300Y-94701629D01*
X150312351Y-94662360D01*
X150330183Y-94624656D01*
X150351625Y-94588883D01*
X150376471Y-94555383D01*
X150404480Y-94524480D01*
X150435383Y-94496471D01*
X150468883Y-94471625D01*
X150504656Y-94450183D01*
X150542360Y-94432351D01*
X150581629Y-94418300D01*
X150622087Y-94408166D01*
X150663343Y-94402046D01*
X150705000Y-94400000D01*
X151555000Y-94400000D01*
X151596657Y-94402046D01*
X151596657Y-94402046D01*
G37*
D12*
X151130000Y-95250000D03*
D11*
G36*
X159216657Y-94402046D02*
G01*
X159257913Y-94408166D01*
X159298371Y-94418300D01*
X159337640Y-94432351D01*
X159375344Y-94450183D01*
X159411117Y-94471625D01*
X159444617Y-94496471D01*
X159475520Y-94524480D01*
X159503529Y-94555383D01*
X159528375Y-94588883D01*
X159549817Y-94624656D01*
X159567649Y-94662360D01*
X159581700Y-94701629D01*
X159591834Y-94742087D01*
X159597954Y-94783343D01*
X159600000Y-94825000D01*
X159600000Y-95675000D01*
X159597954Y-95716657D01*
X159591834Y-95757913D01*
X159581700Y-95798371D01*
X159567649Y-95837640D01*
X159549817Y-95875344D01*
X159528375Y-95911117D01*
X159503529Y-95944617D01*
X159475520Y-95975520D01*
X159444617Y-96003529D01*
X159411117Y-96028375D01*
X159375344Y-96049817D01*
X159337640Y-96067649D01*
X159298371Y-96081700D01*
X159257913Y-96091834D01*
X159216657Y-96097954D01*
X159175000Y-96100000D01*
X158325000Y-96100000D01*
X158283343Y-96097954D01*
X158242087Y-96091834D01*
X158201629Y-96081700D01*
X158162360Y-96067649D01*
X158124656Y-96049817D01*
X158088883Y-96028375D01*
X158055383Y-96003529D01*
X158024480Y-95975520D01*
X157996471Y-95944617D01*
X157971625Y-95911117D01*
X157950183Y-95875344D01*
X157932351Y-95837640D01*
X157918300Y-95798371D01*
X157908166Y-95757913D01*
X157902046Y-95716657D01*
X157900000Y-95675000D01*
X157900000Y-94825000D01*
X157902046Y-94783343D01*
X157908166Y-94742087D01*
X157918300Y-94701629D01*
X157932351Y-94662360D01*
X157950183Y-94624656D01*
X157971625Y-94588883D01*
X157996471Y-94555383D01*
X158024480Y-94524480D01*
X158055383Y-94496471D01*
X158088883Y-94471625D01*
X158124656Y-94450183D01*
X158162360Y-94432351D01*
X158201629Y-94418300D01*
X158242087Y-94408166D01*
X158283343Y-94402046D01*
X158325000Y-94400000D01*
X159175000Y-94400000D01*
X159216657Y-94402046D01*
X159216657Y-94402046D01*
G37*
D12*
X158750000Y-95250000D03*
D11*
G36*
X156676657Y-94402046D02*
G01*
X156717913Y-94408166D01*
X156758371Y-94418300D01*
X156797640Y-94432351D01*
X156835344Y-94450183D01*
X156871117Y-94471625D01*
X156904617Y-94496471D01*
X156935520Y-94524480D01*
X156963529Y-94555383D01*
X156988375Y-94588883D01*
X157009817Y-94624656D01*
X157027649Y-94662360D01*
X157041700Y-94701629D01*
X157051834Y-94742087D01*
X157057954Y-94783343D01*
X157060000Y-94825000D01*
X157060000Y-95675000D01*
X157057954Y-95716657D01*
X157051834Y-95757913D01*
X157041700Y-95798371D01*
X157027649Y-95837640D01*
X157009817Y-95875344D01*
X156988375Y-95911117D01*
X156963529Y-95944617D01*
X156935520Y-95975520D01*
X156904617Y-96003529D01*
X156871117Y-96028375D01*
X156835344Y-96049817D01*
X156797640Y-96067649D01*
X156758371Y-96081700D01*
X156717913Y-96091834D01*
X156676657Y-96097954D01*
X156635000Y-96100000D01*
X155785000Y-96100000D01*
X155743343Y-96097954D01*
X155702087Y-96091834D01*
X155661629Y-96081700D01*
X155622360Y-96067649D01*
X155584656Y-96049817D01*
X155548883Y-96028375D01*
X155515383Y-96003529D01*
X155484480Y-95975520D01*
X155456471Y-95944617D01*
X155431625Y-95911117D01*
X155410183Y-95875344D01*
X155392351Y-95837640D01*
X155378300Y-95798371D01*
X155368166Y-95757913D01*
X155362046Y-95716657D01*
X155360000Y-95675000D01*
X155360000Y-94825000D01*
X155362046Y-94783343D01*
X155368166Y-94742087D01*
X155378300Y-94701629D01*
X155392351Y-94662360D01*
X155410183Y-94624656D01*
X155431625Y-94588883D01*
X155456471Y-94555383D01*
X155484480Y-94524480D01*
X155515383Y-94496471D01*
X155548883Y-94471625D01*
X155584656Y-94450183D01*
X155622360Y-94432351D01*
X155661629Y-94418300D01*
X155702087Y-94408166D01*
X155743343Y-94402046D01*
X155785000Y-94400000D01*
X156635000Y-94400000D01*
X156676657Y-94402046D01*
X156676657Y-94402046D01*
G37*
D12*
X156210000Y-95250000D03*
D11*
G36*
X169376657Y-81702046D02*
G01*
X169417913Y-81708166D01*
X169458371Y-81718300D01*
X169497640Y-81732351D01*
X169535344Y-81750183D01*
X169571117Y-81771625D01*
X169604617Y-81796471D01*
X169635520Y-81824480D01*
X169663529Y-81855383D01*
X169688375Y-81888883D01*
X169709817Y-81924656D01*
X169727649Y-81962360D01*
X169741700Y-82001629D01*
X169751834Y-82042087D01*
X169757954Y-82083343D01*
X169760000Y-82125000D01*
X169760000Y-82975000D01*
X169757954Y-83016657D01*
X169751834Y-83057913D01*
X169741700Y-83098371D01*
X169727649Y-83137640D01*
X169709817Y-83175344D01*
X169688375Y-83211117D01*
X169663529Y-83244617D01*
X169635520Y-83275520D01*
X169604617Y-83303529D01*
X169571117Y-83328375D01*
X169535344Y-83349817D01*
X169497640Y-83367649D01*
X169458371Y-83381700D01*
X169417913Y-83391834D01*
X169376657Y-83397954D01*
X169335000Y-83400000D01*
X168485000Y-83400000D01*
X168443343Y-83397954D01*
X168402087Y-83391834D01*
X168361629Y-83381700D01*
X168322360Y-83367649D01*
X168284656Y-83349817D01*
X168248883Y-83328375D01*
X168215383Y-83303529D01*
X168184480Y-83275520D01*
X168156471Y-83244617D01*
X168131625Y-83211117D01*
X168110183Y-83175344D01*
X168092351Y-83137640D01*
X168078300Y-83098371D01*
X168068166Y-83057913D01*
X168062046Y-83016657D01*
X168060000Y-82975000D01*
X168060000Y-82125000D01*
X168062046Y-82083343D01*
X168068166Y-82042087D01*
X168078300Y-82001629D01*
X168092351Y-81962360D01*
X168110183Y-81924656D01*
X168131625Y-81888883D01*
X168156471Y-81855383D01*
X168184480Y-81824480D01*
X168215383Y-81796471D01*
X168248883Y-81771625D01*
X168284656Y-81750183D01*
X168322360Y-81732351D01*
X168361629Y-81718300D01*
X168402087Y-81708166D01*
X168443343Y-81702046D01*
X168485000Y-81700000D01*
X169335000Y-81700000D01*
X169376657Y-81702046D01*
X169376657Y-81702046D01*
G37*
D12*
X168910000Y-82550000D03*
D11*
G36*
X166836657Y-81702046D02*
G01*
X166877913Y-81708166D01*
X166918371Y-81718300D01*
X166957640Y-81732351D01*
X166995344Y-81750183D01*
X167031117Y-81771625D01*
X167064617Y-81796471D01*
X167095520Y-81824480D01*
X167123529Y-81855383D01*
X167148375Y-81888883D01*
X167169817Y-81924656D01*
X167187649Y-81962360D01*
X167201700Y-82001629D01*
X167211834Y-82042087D01*
X167217954Y-82083343D01*
X167220000Y-82125000D01*
X167220000Y-82975000D01*
X167217954Y-83016657D01*
X167211834Y-83057913D01*
X167201700Y-83098371D01*
X167187649Y-83137640D01*
X167169817Y-83175344D01*
X167148375Y-83211117D01*
X167123529Y-83244617D01*
X167095520Y-83275520D01*
X167064617Y-83303529D01*
X167031117Y-83328375D01*
X166995344Y-83349817D01*
X166957640Y-83367649D01*
X166918371Y-83381700D01*
X166877913Y-83391834D01*
X166836657Y-83397954D01*
X166795000Y-83400000D01*
X165945000Y-83400000D01*
X165903343Y-83397954D01*
X165862087Y-83391834D01*
X165821629Y-83381700D01*
X165782360Y-83367649D01*
X165744656Y-83349817D01*
X165708883Y-83328375D01*
X165675383Y-83303529D01*
X165644480Y-83275520D01*
X165616471Y-83244617D01*
X165591625Y-83211117D01*
X165570183Y-83175344D01*
X165552351Y-83137640D01*
X165538300Y-83098371D01*
X165528166Y-83057913D01*
X165522046Y-83016657D01*
X165520000Y-82975000D01*
X165520000Y-82125000D01*
X165522046Y-82083343D01*
X165528166Y-82042087D01*
X165538300Y-82001629D01*
X165552351Y-81962360D01*
X165570183Y-81924656D01*
X165591625Y-81888883D01*
X165616471Y-81855383D01*
X165644480Y-81824480D01*
X165675383Y-81796471D01*
X165708883Y-81771625D01*
X165744656Y-81750183D01*
X165782360Y-81732351D01*
X165821629Y-81718300D01*
X165862087Y-81708166D01*
X165903343Y-81702046D01*
X165945000Y-81700000D01*
X166795000Y-81700000D01*
X166836657Y-81702046D01*
X166836657Y-81702046D01*
G37*
D12*
X166370000Y-82550000D03*
D11*
G36*
X164296657Y-81702046D02*
G01*
X164337913Y-81708166D01*
X164378371Y-81718300D01*
X164417640Y-81732351D01*
X164455344Y-81750183D01*
X164491117Y-81771625D01*
X164524617Y-81796471D01*
X164555520Y-81824480D01*
X164583529Y-81855383D01*
X164608375Y-81888883D01*
X164629817Y-81924656D01*
X164647649Y-81962360D01*
X164661700Y-82001629D01*
X164671834Y-82042087D01*
X164677954Y-82083343D01*
X164680000Y-82125000D01*
X164680000Y-82975000D01*
X164677954Y-83016657D01*
X164671834Y-83057913D01*
X164661700Y-83098371D01*
X164647649Y-83137640D01*
X164629817Y-83175344D01*
X164608375Y-83211117D01*
X164583529Y-83244617D01*
X164555520Y-83275520D01*
X164524617Y-83303529D01*
X164491117Y-83328375D01*
X164455344Y-83349817D01*
X164417640Y-83367649D01*
X164378371Y-83381700D01*
X164337913Y-83391834D01*
X164296657Y-83397954D01*
X164255000Y-83400000D01*
X163405000Y-83400000D01*
X163363343Y-83397954D01*
X163322087Y-83391834D01*
X163281629Y-83381700D01*
X163242360Y-83367649D01*
X163204656Y-83349817D01*
X163168883Y-83328375D01*
X163135383Y-83303529D01*
X163104480Y-83275520D01*
X163076471Y-83244617D01*
X163051625Y-83211117D01*
X163030183Y-83175344D01*
X163012351Y-83137640D01*
X162998300Y-83098371D01*
X162988166Y-83057913D01*
X162982046Y-83016657D01*
X162980000Y-82975000D01*
X162980000Y-82125000D01*
X162982046Y-82083343D01*
X162988166Y-82042087D01*
X162998300Y-82001629D01*
X163012351Y-81962360D01*
X163030183Y-81924656D01*
X163051625Y-81888883D01*
X163076471Y-81855383D01*
X163104480Y-81824480D01*
X163135383Y-81796471D01*
X163168883Y-81771625D01*
X163204656Y-81750183D01*
X163242360Y-81732351D01*
X163281629Y-81718300D01*
X163322087Y-81708166D01*
X163363343Y-81702046D01*
X163405000Y-81700000D01*
X164255000Y-81700000D01*
X164296657Y-81702046D01*
X164296657Y-81702046D01*
G37*
D12*
X163830000Y-82550000D03*
D11*
G36*
X161756657Y-81702046D02*
G01*
X161797913Y-81708166D01*
X161838371Y-81718300D01*
X161877640Y-81732351D01*
X161915344Y-81750183D01*
X161951117Y-81771625D01*
X161984617Y-81796471D01*
X162015520Y-81824480D01*
X162043529Y-81855383D01*
X162068375Y-81888883D01*
X162089817Y-81924656D01*
X162107649Y-81962360D01*
X162121700Y-82001629D01*
X162131834Y-82042087D01*
X162137954Y-82083343D01*
X162140000Y-82125000D01*
X162140000Y-82975000D01*
X162137954Y-83016657D01*
X162131834Y-83057913D01*
X162121700Y-83098371D01*
X162107649Y-83137640D01*
X162089817Y-83175344D01*
X162068375Y-83211117D01*
X162043529Y-83244617D01*
X162015520Y-83275520D01*
X161984617Y-83303529D01*
X161951117Y-83328375D01*
X161915344Y-83349817D01*
X161877640Y-83367649D01*
X161838371Y-83381700D01*
X161797913Y-83391834D01*
X161756657Y-83397954D01*
X161715000Y-83400000D01*
X160865000Y-83400000D01*
X160823343Y-83397954D01*
X160782087Y-83391834D01*
X160741629Y-83381700D01*
X160702360Y-83367649D01*
X160664656Y-83349817D01*
X160628883Y-83328375D01*
X160595383Y-83303529D01*
X160564480Y-83275520D01*
X160536471Y-83244617D01*
X160511625Y-83211117D01*
X160490183Y-83175344D01*
X160472351Y-83137640D01*
X160458300Y-83098371D01*
X160448166Y-83057913D01*
X160442046Y-83016657D01*
X160440000Y-82975000D01*
X160440000Y-82125000D01*
X160442046Y-82083343D01*
X160448166Y-82042087D01*
X160458300Y-82001629D01*
X160472351Y-81962360D01*
X160490183Y-81924656D01*
X160511625Y-81888883D01*
X160536471Y-81855383D01*
X160564480Y-81824480D01*
X160595383Y-81796471D01*
X160628883Y-81771625D01*
X160664656Y-81750183D01*
X160702360Y-81732351D01*
X160741629Y-81718300D01*
X160782087Y-81708166D01*
X160823343Y-81702046D01*
X160865000Y-81700000D01*
X161715000Y-81700000D01*
X161756657Y-81702046D01*
X161756657Y-81702046D01*
G37*
D12*
X161290000Y-82550000D03*
D11*
G36*
X161756657Y-94402046D02*
G01*
X161797913Y-94408166D01*
X161838371Y-94418300D01*
X161877640Y-94432351D01*
X161915344Y-94450183D01*
X161951117Y-94471625D01*
X161984617Y-94496471D01*
X162015520Y-94524480D01*
X162043529Y-94555383D01*
X162068375Y-94588883D01*
X162089817Y-94624656D01*
X162107649Y-94662360D01*
X162121700Y-94701629D01*
X162131834Y-94742087D01*
X162137954Y-94783343D01*
X162140000Y-94825000D01*
X162140000Y-95675000D01*
X162137954Y-95716657D01*
X162131834Y-95757913D01*
X162121700Y-95798371D01*
X162107649Y-95837640D01*
X162089817Y-95875344D01*
X162068375Y-95911117D01*
X162043529Y-95944617D01*
X162015520Y-95975520D01*
X161984617Y-96003529D01*
X161951117Y-96028375D01*
X161915344Y-96049817D01*
X161877640Y-96067649D01*
X161838371Y-96081700D01*
X161797913Y-96091834D01*
X161756657Y-96097954D01*
X161715000Y-96100000D01*
X160865000Y-96100000D01*
X160823343Y-96097954D01*
X160782087Y-96091834D01*
X160741629Y-96081700D01*
X160702360Y-96067649D01*
X160664656Y-96049817D01*
X160628883Y-96028375D01*
X160595383Y-96003529D01*
X160564480Y-95975520D01*
X160536471Y-95944617D01*
X160511625Y-95911117D01*
X160490183Y-95875344D01*
X160472351Y-95837640D01*
X160458300Y-95798371D01*
X160448166Y-95757913D01*
X160442046Y-95716657D01*
X160440000Y-95675000D01*
X160440000Y-94825000D01*
X160442046Y-94783343D01*
X160448166Y-94742087D01*
X160458300Y-94701629D01*
X160472351Y-94662360D01*
X160490183Y-94624656D01*
X160511625Y-94588883D01*
X160536471Y-94555383D01*
X160564480Y-94524480D01*
X160595383Y-94496471D01*
X160628883Y-94471625D01*
X160664656Y-94450183D01*
X160702360Y-94432351D01*
X160741629Y-94418300D01*
X160782087Y-94408166D01*
X160823343Y-94402046D01*
X160865000Y-94400000D01*
X161715000Y-94400000D01*
X161756657Y-94402046D01*
X161756657Y-94402046D01*
G37*
D12*
X161290000Y-95250000D03*
D11*
G36*
X164296657Y-94402046D02*
G01*
X164337913Y-94408166D01*
X164378371Y-94418300D01*
X164417640Y-94432351D01*
X164455344Y-94450183D01*
X164491117Y-94471625D01*
X164524617Y-94496471D01*
X164555520Y-94524480D01*
X164583529Y-94555383D01*
X164608375Y-94588883D01*
X164629817Y-94624656D01*
X164647649Y-94662360D01*
X164661700Y-94701629D01*
X164671834Y-94742087D01*
X164677954Y-94783343D01*
X164680000Y-94825000D01*
X164680000Y-95675000D01*
X164677954Y-95716657D01*
X164671834Y-95757913D01*
X164661700Y-95798371D01*
X164647649Y-95837640D01*
X164629817Y-95875344D01*
X164608375Y-95911117D01*
X164583529Y-95944617D01*
X164555520Y-95975520D01*
X164524617Y-96003529D01*
X164491117Y-96028375D01*
X164455344Y-96049817D01*
X164417640Y-96067649D01*
X164378371Y-96081700D01*
X164337913Y-96091834D01*
X164296657Y-96097954D01*
X164255000Y-96100000D01*
X163405000Y-96100000D01*
X163363343Y-96097954D01*
X163322087Y-96091834D01*
X163281629Y-96081700D01*
X163242360Y-96067649D01*
X163204656Y-96049817D01*
X163168883Y-96028375D01*
X163135383Y-96003529D01*
X163104480Y-95975520D01*
X163076471Y-95944617D01*
X163051625Y-95911117D01*
X163030183Y-95875344D01*
X163012351Y-95837640D01*
X162998300Y-95798371D01*
X162988166Y-95757913D01*
X162982046Y-95716657D01*
X162980000Y-95675000D01*
X162980000Y-94825000D01*
X162982046Y-94783343D01*
X162988166Y-94742087D01*
X162998300Y-94701629D01*
X163012351Y-94662360D01*
X163030183Y-94624656D01*
X163051625Y-94588883D01*
X163076471Y-94555383D01*
X163104480Y-94524480D01*
X163135383Y-94496471D01*
X163168883Y-94471625D01*
X163204656Y-94450183D01*
X163242360Y-94432351D01*
X163281629Y-94418300D01*
X163322087Y-94408166D01*
X163363343Y-94402046D01*
X163405000Y-94400000D01*
X164255000Y-94400000D01*
X164296657Y-94402046D01*
X164296657Y-94402046D01*
G37*
D12*
X163830000Y-95250000D03*
D11*
G36*
X166836657Y-94402046D02*
G01*
X166877913Y-94408166D01*
X166918371Y-94418300D01*
X166957640Y-94432351D01*
X166995344Y-94450183D01*
X167031117Y-94471625D01*
X167064617Y-94496471D01*
X167095520Y-94524480D01*
X167123529Y-94555383D01*
X167148375Y-94588883D01*
X167169817Y-94624656D01*
X167187649Y-94662360D01*
X167201700Y-94701629D01*
X167211834Y-94742087D01*
X167217954Y-94783343D01*
X167220000Y-94825000D01*
X167220000Y-95675000D01*
X167217954Y-95716657D01*
X167211834Y-95757913D01*
X167201700Y-95798371D01*
X167187649Y-95837640D01*
X167169817Y-95875344D01*
X167148375Y-95911117D01*
X167123529Y-95944617D01*
X167095520Y-95975520D01*
X167064617Y-96003529D01*
X167031117Y-96028375D01*
X166995344Y-96049817D01*
X166957640Y-96067649D01*
X166918371Y-96081700D01*
X166877913Y-96091834D01*
X166836657Y-96097954D01*
X166795000Y-96100000D01*
X165945000Y-96100000D01*
X165903343Y-96097954D01*
X165862087Y-96091834D01*
X165821629Y-96081700D01*
X165782360Y-96067649D01*
X165744656Y-96049817D01*
X165708883Y-96028375D01*
X165675383Y-96003529D01*
X165644480Y-95975520D01*
X165616471Y-95944617D01*
X165591625Y-95911117D01*
X165570183Y-95875344D01*
X165552351Y-95837640D01*
X165538300Y-95798371D01*
X165528166Y-95757913D01*
X165522046Y-95716657D01*
X165520000Y-95675000D01*
X165520000Y-94825000D01*
X165522046Y-94783343D01*
X165528166Y-94742087D01*
X165538300Y-94701629D01*
X165552351Y-94662360D01*
X165570183Y-94624656D01*
X165591625Y-94588883D01*
X165616471Y-94555383D01*
X165644480Y-94524480D01*
X165675383Y-94496471D01*
X165708883Y-94471625D01*
X165744656Y-94450183D01*
X165782360Y-94432351D01*
X165821629Y-94418300D01*
X165862087Y-94408166D01*
X165903343Y-94402046D01*
X165945000Y-94400000D01*
X166795000Y-94400000D01*
X166836657Y-94402046D01*
X166836657Y-94402046D01*
G37*
D12*
X166370000Y-95250000D03*
D11*
G36*
X169376657Y-94402046D02*
G01*
X169417913Y-94408166D01*
X169458371Y-94418300D01*
X169497640Y-94432351D01*
X169535344Y-94450183D01*
X169571117Y-94471625D01*
X169604617Y-94496471D01*
X169635520Y-94524480D01*
X169663529Y-94555383D01*
X169688375Y-94588883D01*
X169709817Y-94624656D01*
X169727649Y-94662360D01*
X169741700Y-94701629D01*
X169751834Y-94742087D01*
X169757954Y-94783343D01*
X169760000Y-94825000D01*
X169760000Y-95675000D01*
X169757954Y-95716657D01*
X169751834Y-95757913D01*
X169741700Y-95798371D01*
X169727649Y-95837640D01*
X169709817Y-95875344D01*
X169688375Y-95911117D01*
X169663529Y-95944617D01*
X169635520Y-95975520D01*
X169604617Y-96003529D01*
X169571117Y-96028375D01*
X169535344Y-96049817D01*
X169497640Y-96067649D01*
X169458371Y-96081700D01*
X169417913Y-96091834D01*
X169376657Y-96097954D01*
X169335000Y-96100000D01*
X168485000Y-96100000D01*
X168443343Y-96097954D01*
X168402087Y-96091834D01*
X168361629Y-96081700D01*
X168322360Y-96067649D01*
X168284656Y-96049817D01*
X168248883Y-96028375D01*
X168215383Y-96003529D01*
X168184480Y-95975520D01*
X168156471Y-95944617D01*
X168131625Y-95911117D01*
X168110183Y-95875344D01*
X168092351Y-95837640D01*
X168078300Y-95798371D01*
X168068166Y-95757913D01*
X168062046Y-95716657D01*
X168060000Y-95675000D01*
X168060000Y-94825000D01*
X168062046Y-94783343D01*
X168068166Y-94742087D01*
X168078300Y-94701629D01*
X168092351Y-94662360D01*
X168110183Y-94624656D01*
X168131625Y-94588883D01*
X168156471Y-94555383D01*
X168184480Y-94524480D01*
X168215383Y-94496471D01*
X168248883Y-94471625D01*
X168284656Y-94450183D01*
X168322360Y-94432351D01*
X168361629Y-94418300D01*
X168402087Y-94408166D01*
X168443343Y-94402046D01*
X168485000Y-94400000D01*
X169335000Y-94400000D01*
X169376657Y-94402046D01*
X169376657Y-94402046D01*
G37*
D12*
X168910000Y-95250000D03*
D13*
X170180000Y-87916000D03*
D11*
G36*
X170753982Y-89219182D02*
G01*
X170787885Y-89224211D01*
X170821132Y-89232539D01*
X170853402Y-89244085D01*
X170884385Y-89258739D01*
X170913783Y-89276359D01*
X170941312Y-89296776D01*
X170966707Y-89319793D01*
X170989724Y-89345188D01*
X171010141Y-89372717D01*
X171027761Y-89402115D01*
X171042415Y-89433098D01*
X171053961Y-89465368D01*
X171062289Y-89498615D01*
X171067318Y-89532518D01*
X171069000Y-89566750D01*
X171069000Y-90265250D01*
X171067318Y-90299482D01*
X171062289Y-90333385D01*
X171053961Y-90366632D01*
X171042415Y-90398902D01*
X171027761Y-90429885D01*
X171010141Y-90459283D01*
X170989724Y-90486812D01*
X170966707Y-90512207D01*
X170941312Y-90535224D01*
X170913783Y-90555641D01*
X170884385Y-90573261D01*
X170853402Y-90587915D01*
X170821132Y-90599461D01*
X170787885Y-90607789D01*
X170753982Y-90612818D01*
X170719750Y-90614500D01*
X169640250Y-90614500D01*
X169606018Y-90612818D01*
X169572115Y-90607789D01*
X169538868Y-90599461D01*
X169506598Y-90587915D01*
X169475615Y-90573261D01*
X169446217Y-90555641D01*
X169418688Y-90535224D01*
X169393293Y-90512207D01*
X169370276Y-90486812D01*
X169349859Y-90459283D01*
X169332239Y-90429885D01*
X169317585Y-90398902D01*
X169306039Y-90366632D01*
X169297711Y-90333385D01*
X169292682Y-90299482D01*
X169291000Y-90265250D01*
X169291000Y-89566750D01*
X169292682Y-89532518D01*
X169297711Y-89498615D01*
X169306039Y-89465368D01*
X169317585Y-89433098D01*
X169332239Y-89402115D01*
X169349859Y-89372717D01*
X169370276Y-89345188D01*
X169393293Y-89319793D01*
X169418688Y-89296776D01*
X169446217Y-89276359D01*
X169475615Y-89258739D01*
X169506598Y-89244085D01*
X169538868Y-89232539D01*
X169572115Y-89224211D01*
X169606018Y-89219182D01*
X169640250Y-89217500D01*
X170719750Y-89217500D01*
X170753982Y-89219182D01*
X170753982Y-89219182D01*
G37*
D14*
X170180000Y-89916000D03*
D11*
G36*
X165267955Y-87743324D02*
G01*
X165294650Y-87747284D01*
X165320828Y-87753841D01*
X165346238Y-87762933D01*
X165370634Y-87774472D01*
X165393782Y-87788346D01*
X165415458Y-87804422D01*
X165435454Y-87822546D01*
X165453578Y-87842542D01*
X165469654Y-87864218D01*
X165483528Y-87887366D01*
X165495067Y-87911762D01*
X165504159Y-87937172D01*
X165510716Y-87963350D01*
X165514676Y-87990045D01*
X165516000Y-88017000D01*
X165516000Y-88767000D01*
X165514676Y-88793955D01*
X165510716Y-88820650D01*
X165504159Y-88846828D01*
X165495067Y-88872238D01*
X165483528Y-88896634D01*
X165469654Y-88919782D01*
X165453578Y-88941458D01*
X165435454Y-88961454D01*
X165415458Y-88979578D01*
X165393782Y-88995654D01*
X165370634Y-89009528D01*
X165346238Y-89021067D01*
X165320828Y-89030159D01*
X165294650Y-89036716D01*
X165267955Y-89040676D01*
X165241000Y-89042000D01*
X164691000Y-89042000D01*
X164664045Y-89040676D01*
X164637350Y-89036716D01*
X164611172Y-89030159D01*
X164585762Y-89021067D01*
X164561366Y-89009528D01*
X164538218Y-88995654D01*
X164516542Y-88979578D01*
X164496546Y-88961454D01*
X164478422Y-88941458D01*
X164462346Y-88919782D01*
X164448472Y-88896634D01*
X164436933Y-88872238D01*
X164427841Y-88846828D01*
X164421284Y-88820650D01*
X164417324Y-88793955D01*
X164416000Y-88767000D01*
X164416000Y-88017000D01*
X164417324Y-87990045D01*
X164421284Y-87963350D01*
X164427841Y-87937172D01*
X164436933Y-87911762D01*
X164448472Y-87887366D01*
X164462346Y-87864218D01*
X164478422Y-87842542D01*
X164496546Y-87822546D01*
X164516542Y-87804422D01*
X164538218Y-87788346D01*
X164561366Y-87774472D01*
X164585762Y-87762933D01*
X164611172Y-87753841D01*
X164637350Y-87747284D01*
X164664045Y-87743324D01*
X164691000Y-87742000D01*
X165241000Y-87742000D01*
X165267955Y-87743324D01*
X165267955Y-87743324D01*
G37*
D15*
X164966000Y-88392000D03*
D11*
G36*
X167567955Y-87743324D02*
G01*
X167594650Y-87747284D01*
X167620828Y-87753841D01*
X167646238Y-87762933D01*
X167670634Y-87774472D01*
X167693782Y-87788346D01*
X167715458Y-87804422D01*
X167735454Y-87822546D01*
X167753578Y-87842542D01*
X167769654Y-87864218D01*
X167783528Y-87887366D01*
X167795067Y-87911762D01*
X167804159Y-87937172D01*
X167810716Y-87963350D01*
X167814676Y-87990045D01*
X167816000Y-88017000D01*
X167816000Y-88767000D01*
X167814676Y-88793955D01*
X167810716Y-88820650D01*
X167804159Y-88846828D01*
X167795067Y-88872238D01*
X167783528Y-88896634D01*
X167769654Y-88919782D01*
X167753578Y-88941458D01*
X167735454Y-88961454D01*
X167715458Y-88979578D01*
X167693782Y-88995654D01*
X167670634Y-89009528D01*
X167646238Y-89021067D01*
X167620828Y-89030159D01*
X167594650Y-89036716D01*
X167567955Y-89040676D01*
X167541000Y-89042000D01*
X166991000Y-89042000D01*
X166964045Y-89040676D01*
X166937350Y-89036716D01*
X166911172Y-89030159D01*
X166885762Y-89021067D01*
X166861366Y-89009528D01*
X166838218Y-88995654D01*
X166816542Y-88979578D01*
X166796546Y-88961454D01*
X166778422Y-88941458D01*
X166762346Y-88919782D01*
X166748472Y-88896634D01*
X166736933Y-88872238D01*
X166727841Y-88846828D01*
X166721284Y-88820650D01*
X166717324Y-88793955D01*
X166716000Y-88767000D01*
X166716000Y-88017000D01*
X166717324Y-87990045D01*
X166721284Y-87963350D01*
X166727841Y-87937172D01*
X166736933Y-87911762D01*
X166748472Y-87887366D01*
X166762346Y-87864218D01*
X166778422Y-87842542D01*
X166796546Y-87822546D01*
X166816542Y-87804422D01*
X166838218Y-87788346D01*
X166861366Y-87774472D01*
X166885762Y-87762933D01*
X166911172Y-87753841D01*
X166937350Y-87747284D01*
X166964045Y-87743324D01*
X166991000Y-87742000D01*
X167541000Y-87742000D01*
X167567955Y-87743324D01*
X167567955Y-87743324D01*
G37*
D15*
X167266000Y-88392000D03*
D16*
X141605000Y-95250000D03*
X144145000Y-95250000D03*
X146685000Y-95250000D03*
D17*
X168529000Y-91821000D03*
X148082000Y-89789000D03*
X156972000Y-91567000D03*
X158876972Y-91567000D03*
X157099000Y-86233000D03*
X158877000Y-86233000D03*
X150622000Y-88011000D03*
X150622000Y-89027002D03*
X153924006Y-87376000D03*
X152781000Y-87376000D03*
X149352000Y-86868000D03*
X168402000Y-88392000D03*
X145884900Y-93853000D03*
X147574000Y-93853000D03*
X155321000Y-89026987D03*
X155321000Y-87376000D03*
D18*
X157480000Y-94107000D02*
X157480000Y-95123000D01*
X157480000Y-82550000D02*
X157480000Y-83947000D01*
D19*
X167266000Y-89288000D02*
X167266000Y-88392000D01*
X167894000Y-89916000D02*
X167266000Y-89288000D01*
X170180000Y-89916000D02*
X167894000Y-89916000D01*
X167266000Y-88392000D02*
X168402000Y-88392000D01*
X145884900Y-93853000D02*
X147574000Y-93853000D01*
X155321000Y-89026987D02*
X155321000Y-87376000D01*
D20*
G36*
X149687387Y-81922584D02*
G01*
X149667451Y-82125000D01*
X149667451Y-82975000D01*
X149687387Y-83177416D01*
X149746430Y-83372053D01*
X149842310Y-83551431D01*
X149971342Y-83708658D01*
X150128569Y-83837690D01*
X150307947Y-83933570D01*
X150502584Y-83992613D01*
X150705000Y-84012549D01*
X151555000Y-84012549D01*
X151757416Y-83992613D01*
X151952053Y-83933570D01*
X152131431Y-83837690D01*
X152288658Y-83708658D01*
X152400000Y-83572986D01*
X152511342Y-83708658D01*
X152668569Y-83837690D01*
X152847947Y-83933570D01*
X153042584Y-83992613D01*
X153245000Y-84012549D01*
X154095000Y-84012549D01*
X154297416Y-83992613D01*
X154492053Y-83933570D01*
X154671431Y-83837690D01*
X154828658Y-83708658D01*
X154901514Y-83619882D01*
X154935570Y-83683595D01*
X154999052Y-83760948D01*
X155076405Y-83824430D01*
X155164656Y-83871602D01*
X155260415Y-83900650D01*
X155360000Y-83910458D01*
X156032200Y-83908000D01*
X156159200Y-83781000D01*
X156159200Y-82600800D01*
X156260800Y-82600800D01*
X156260800Y-83781000D01*
X156387800Y-83908000D01*
X157060000Y-83910458D01*
X157159585Y-83900650D01*
X157255344Y-83871602D01*
X157343595Y-83824430D01*
X157420948Y-83760948D01*
X157480000Y-83688993D01*
X157539052Y-83760948D01*
X157616405Y-83824430D01*
X157704656Y-83871602D01*
X157800415Y-83900650D01*
X157900000Y-83910458D01*
X158572200Y-83908000D01*
X158699200Y-83781000D01*
X158699200Y-82600800D01*
X157519000Y-82600800D01*
X157480000Y-82639800D01*
X157441000Y-82600800D01*
X156260800Y-82600800D01*
X156159200Y-82600800D01*
X156139200Y-82600800D01*
X156139200Y-82499200D01*
X156159200Y-82499200D01*
X156159200Y-82479200D01*
X156260800Y-82479200D01*
X156260800Y-82499200D01*
X157441000Y-82499200D01*
X157480000Y-82460200D01*
X157519000Y-82499200D01*
X158699200Y-82499200D01*
X158699200Y-82479200D01*
X158800800Y-82479200D01*
X158800800Y-82499200D01*
X158820800Y-82499200D01*
X158820800Y-82600800D01*
X158800800Y-82600800D01*
X158800800Y-83781000D01*
X158927800Y-83908000D01*
X159600000Y-83910458D01*
X159699585Y-83900650D01*
X159795344Y-83871602D01*
X159883595Y-83824430D01*
X159960948Y-83760948D01*
X160024430Y-83683595D01*
X160058486Y-83619882D01*
X160131342Y-83708658D01*
X160288569Y-83837690D01*
X160467947Y-83933570D01*
X160662584Y-83992613D01*
X160865000Y-84012549D01*
X161715000Y-84012549D01*
X161917416Y-83992613D01*
X162112053Y-83933570D01*
X162291431Y-83837690D01*
X162448658Y-83708658D01*
X162560000Y-83572986D01*
X162671342Y-83708658D01*
X162828569Y-83837690D01*
X163007947Y-83933570D01*
X163202584Y-83992613D01*
X163405000Y-84012549D01*
X164255000Y-84012549D01*
X164457416Y-83992613D01*
X164652053Y-83933570D01*
X164831431Y-83837690D01*
X164988658Y-83708658D01*
X165100000Y-83572986D01*
X165211342Y-83708658D01*
X165368569Y-83837690D01*
X165547947Y-83933570D01*
X165742584Y-83992613D01*
X165945000Y-84012549D01*
X166795000Y-84012549D01*
X166997416Y-83992613D01*
X167192053Y-83933570D01*
X167371431Y-83837690D01*
X167528658Y-83708658D01*
X167640000Y-83572986D01*
X167751342Y-83708658D01*
X167908569Y-83837690D01*
X168087947Y-83933570D01*
X168282584Y-83992613D01*
X168485000Y-84012549D01*
X169335000Y-84012549D01*
X169537416Y-83992613D01*
X169732053Y-83933570D01*
X169911431Y-83837690D01*
X170068658Y-83708658D01*
X170197690Y-83551431D01*
X170293570Y-83372053D01*
X170352613Y-83177416D01*
X170372549Y-82975000D01*
X170372549Y-82125000D01*
X170353556Y-81932154D01*
X170425679Y-81953930D01*
X170536780Y-82013003D01*
X170634288Y-82092528D01*
X170714494Y-82189481D01*
X170774341Y-82300165D01*
X170811548Y-82420361D01*
X170827700Y-82574041D01*
X170827700Y-86802779D01*
X170655700Y-86742593D01*
X170421300Y-86709500D01*
X170230800Y-86709500D01*
X170230800Y-87865200D01*
X170250800Y-87865200D01*
X170250800Y-87966800D01*
X170230800Y-87966800D01*
X170230800Y-87986800D01*
X170129200Y-87986800D01*
X170129200Y-87966800D01*
X170109200Y-87966800D01*
X170109200Y-87865200D01*
X170129200Y-87865200D01*
X170129200Y-86709500D01*
X169938700Y-86709500D01*
X169704300Y-86742593D01*
X169480860Y-86820779D01*
X169276966Y-86941054D01*
X169100455Y-87098796D01*
X168958109Y-87287942D01*
X168855399Y-87501224D01*
X168843618Y-87543945D01*
X168679834Y-87476104D01*
X168495813Y-87439500D01*
X168308187Y-87439500D01*
X168223522Y-87456341D01*
X168168592Y-87389408D01*
X168034096Y-87279030D01*
X167880650Y-87197012D01*
X167714152Y-87146505D01*
X167541000Y-87129451D01*
X166991000Y-87129451D01*
X166817848Y-87146505D01*
X166651350Y-87197012D01*
X166497904Y-87279030D01*
X166363408Y-87389408D01*
X166253030Y-87523904D01*
X166171012Y-87677350D01*
X166120505Y-87843848D01*
X166103451Y-88017000D01*
X166103451Y-88767000D01*
X166120505Y-88940152D01*
X166171012Y-89106650D01*
X166253030Y-89260096D01*
X166363408Y-89394592D01*
X166497904Y-89504970D01*
X166606610Y-89563074D01*
X166671798Y-89685032D01*
X166760673Y-89793326D01*
X166787810Y-89815597D01*
X167366402Y-90394190D01*
X167388673Y-90421327D01*
X167496967Y-90510202D01*
X167620519Y-90576242D01*
X167754580Y-90616909D01*
X167859064Y-90627200D01*
X167859073Y-90627200D01*
X167893999Y-90630640D01*
X167928925Y-90627200D01*
X168749809Y-90627200D01*
X168751664Y-90633315D01*
X168840543Y-90799597D01*
X168960155Y-90945345D01*
X169105903Y-91064957D01*
X169272185Y-91153836D01*
X169452612Y-91208568D01*
X169640250Y-91227049D01*
X170719750Y-91227049D01*
X170827701Y-91216417D01*
X170827701Y-95219554D01*
X170812437Y-95375228D01*
X170776070Y-95495679D01*
X170716997Y-95606780D01*
X170637472Y-95704288D01*
X170540519Y-95784494D01*
X170429835Y-95844341D01*
X170353545Y-95867957D01*
X170372549Y-95675000D01*
X170372549Y-94825000D01*
X170352613Y-94622584D01*
X170293570Y-94427947D01*
X170197690Y-94248569D01*
X170068658Y-94091342D01*
X169911431Y-93962310D01*
X169732053Y-93866430D01*
X169537416Y-93807387D01*
X169335000Y-93787451D01*
X168485000Y-93787451D01*
X168282584Y-93807387D01*
X168087947Y-93866430D01*
X167908569Y-93962310D01*
X167751342Y-94091342D01*
X167640000Y-94227014D01*
X167528658Y-94091342D01*
X167371431Y-93962310D01*
X167192053Y-93866430D01*
X166997416Y-93807387D01*
X166795000Y-93787451D01*
X165945000Y-93787451D01*
X165742584Y-93807387D01*
X165547947Y-93866430D01*
X165368569Y-93962310D01*
X165211342Y-94091342D01*
X165100000Y-94227014D01*
X164988658Y-94091342D01*
X164831431Y-93962310D01*
X164652053Y-93866430D01*
X164457416Y-93807387D01*
X164255000Y-93787451D01*
X163405000Y-93787451D01*
X163202584Y-93807387D01*
X163007947Y-93866430D01*
X162828569Y-93962310D01*
X162671342Y-94091342D01*
X162560000Y-94227014D01*
X162448658Y-94091342D01*
X162291431Y-93962310D01*
X162112053Y-93866430D01*
X161917416Y-93807387D01*
X161715000Y-93787451D01*
X160865000Y-93787451D01*
X160662584Y-93807387D01*
X160467947Y-93866430D01*
X160288569Y-93962310D01*
X160131342Y-94091342D01*
X160058486Y-94180118D01*
X160024430Y-94116405D01*
X159960948Y-94039052D01*
X159883595Y-93975570D01*
X159795344Y-93928398D01*
X159699585Y-93899350D01*
X159600000Y-93889542D01*
X158927800Y-93892000D01*
X158800800Y-94019000D01*
X158800800Y-95199200D01*
X158820800Y-95199200D01*
X158820800Y-95300800D01*
X158800800Y-95300800D01*
X158800800Y-95320800D01*
X158699200Y-95320800D01*
X158699200Y-95300800D01*
X157519000Y-95300800D01*
X157480000Y-95339800D01*
X157441000Y-95300800D01*
X156260800Y-95300800D01*
X156260800Y-95320800D01*
X156159200Y-95320800D01*
X156159200Y-95300800D01*
X156139200Y-95300800D01*
X156139200Y-95199200D01*
X156159200Y-95199200D01*
X156159200Y-94019000D01*
X156260800Y-94019000D01*
X156260800Y-95199200D01*
X157441000Y-95199200D01*
X157480000Y-95160200D01*
X157519000Y-95199200D01*
X158699200Y-95199200D01*
X158699200Y-94019000D01*
X158572200Y-93892000D01*
X157900000Y-93889542D01*
X157800415Y-93899350D01*
X157704656Y-93928398D01*
X157616405Y-93975570D01*
X157539052Y-94039052D01*
X157480000Y-94111007D01*
X157420948Y-94039052D01*
X157343595Y-93975570D01*
X157255344Y-93928398D01*
X157159585Y-93899350D01*
X157060000Y-93889542D01*
X156387800Y-93892000D01*
X156260800Y-94019000D01*
X156159200Y-94019000D01*
X156032200Y-93892000D01*
X155360000Y-93889542D01*
X155260415Y-93899350D01*
X155164656Y-93928398D01*
X155076405Y-93975570D01*
X154999052Y-94039052D01*
X154935570Y-94116405D01*
X154901514Y-94180118D01*
X154828658Y-94091342D01*
X154671431Y-93962310D01*
X154492053Y-93866430D01*
X154297416Y-93807387D01*
X154095000Y-93787451D01*
X153245000Y-93787451D01*
X153042584Y-93807387D01*
X152847947Y-93866430D01*
X152668569Y-93962310D01*
X152511342Y-94091342D01*
X152400000Y-94227014D01*
X152288658Y-94091342D01*
X152131431Y-93962310D01*
X151952053Y-93866430D01*
X151757416Y-93807387D01*
X151555000Y-93787451D01*
X150705000Y-93787451D01*
X150502584Y-93807387D01*
X150307947Y-93866430D01*
X150128569Y-93962310D01*
X149971342Y-94091342D01*
X149842310Y-94248569D01*
X149746430Y-94427947D01*
X149687387Y-94622584D01*
X149667451Y-94825000D01*
X149667451Y-95675000D01*
X149687387Y-95877416D01*
X149693540Y-95897700D01*
X147970055Y-95897700D01*
X148064950Y-95668603D01*
X148120100Y-95391345D01*
X148120100Y-95108655D01*
X148064950Y-94831397D01*
X148011643Y-94702702D01*
X148025178Y-94697095D01*
X148181184Y-94592855D01*
X148313855Y-94460184D01*
X148418095Y-94304178D01*
X148489896Y-94130834D01*
X148526500Y-93946813D01*
X148526500Y-93759187D01*
X148489896Y-93575166D01*
X148418095Y-93401822D01*
X148313855Y-93245816D01*
X148181184Y-93113145D01*
X148025178Y-93008905D01*
X147851834Y-92937104D01*
X147667813Y-92900500D01*
X147480187Y-92900500D01*
X147296166Y-92937104D01*
X147122822Y-93008905D01*
X146966816Y-93113145D01*
X146938161Y-93141800D01*
X146520739Y-93141800D01*
X146492084Y-93113145D01*
X146336078Y-93008905D01*
X146162734Y-92937104D01*
X145978713Y-92900500D01*
X145791087Y-92900500D01*
X145607066Y-92937104D01*
X145433722Y-93008905D01*
X145277716Y-93113145D01*
X145145045Y-93245816D01*
X145040805Y-93401822D01*
X144969004Y-93575166D01*
X144932400Y-93759187D01*
X144932400Y-93946813D01*
X144956104Y-94065982D01*
X144824775Y-93978231D01*
X144563603Y-93870050D01*
X144286345Y-93814900D01*
X144003655Y-93814900D01*
X143726397Y-93870050D01*
X143465225Y-93978231D01*
X143230177Y-94135285D01*
X143030285Y-94335177D01*
X142873231Y-94570225D01*
X142820984Y-94696360D01*
X142720132Y-94507066D01*
X142718125Y-94504060D01*
X142497855Y-94428987D01*
X141676842Y-95250000D01*
X141690985Y-95264143D01*
X141619143Y-95335985D01*
X141605000Y-95321842D01*
X141590858Y-95335985D01*
X141519016Y-95264143D01*
X141533158Y-95250000D01*
X140712145Y-94428987D01*
X140491875Y-94504060D01*
X140367738Y-94735553D01*
X140322300Y-94884618D01*
X140322300Y-94357145D01*
X140783987Y-94357145D01*
X141605000Y-95178158D01*
X142426013Y-94357145D01*
X142350940Y-94136875D01*
X142119447Y-94012738D01*
X141868184Y-93936148D01*
X141606808Y-93910049D01*
X141345362Y-93935443D01*
X141093893Y-94011355D01*
X140862066Y-94134868D01*
X140859060Y-94136875D01*
X140783987Y-94357145D01*
X140322300Y-94357145D01*
X140322300Y-93174924D01*
X140563911Y-93249256D01*
X140575013Y-93251462D01*
X140799200Y-93150015D01*
X140799200Y-91890800D01*
X140900800Y-91890800D01*
X140900800Y-93150015D01*
X141124987Y-93251462D01*
X141136089Y-93249256D01*
X141405524Y-93166364D01*
X141653611Y-93032501D01*
X141870815Y-92852811D01*
X142048790Y-92634199D01*
X142180696Y-92385066D01*
X142261464Y-92114987D01*
X142888536Y-92114987D01*
X142969304Y-92385066D01*
X143101210Y-92634199D01*
X143279185Y-92852811D01*
X143496389Y-93032501D01*
X143744476Y-93166364D01*
X144013911Y-93249256D01*
X144025013Y-93251462D01*
X144249200Y-93150015D01*
X144249200Y-91890800D01*
X144350800Y-91890800D01*
X144350800Y-93150015D01*
X144574987Y-93251462D01*
X144586089Y-93249256D01*
X144855524Y-93166364D01*
X145103611Y-93032501D01*
X145320815Y-92852811D01*
X145498790Y-92634199D01*
X145630696Y-92385066D01*
X145711464Y-92114987D01*
X145610104Y-91890800D01*
X144350800Y-91890800D01*
X144249200Y-91890800D01*
X142989896Y-91890800D01*
X142888536Y-92114987D01*
X142261464Y-92114987D01*
X142160104Y-91890800D01*
X140900800Y-91890800D01*
X140799200Y-91890800D01*
X140779200Y-91890800D01*
X140779200Y-91789200D01*
X140799200Y-91789200D01*
X140799200Y-90529985D01*
X140900800Y-90529985D01*
X140900800Y-91789200D01*
X142160104Y-91789200D01*
X142261464Y-91565013D01*
X142180696Y-91294934D01*
X142048790Y-91045801D01*
X141870815Y-90827189D01*
X141653611Y-90647499D01*
X141405524Y-90513636D01*
X141136089Y-90430744D01*
X141124987Y-90428538D01*
X140900800Y-90529985D01*
X140799200Y-90529985D01*
X140575013Y-90428538D01*
X140563911Y-90430744D01*
X140322300Y-90505076D01*
X140322300Y-90265000D01*
X142035878Y-90265000D01*
X142053923Y-90448214D01*
X142107364Y-90624386D01*
X142194149Y-90786748D01*
X142310940Y-90929060D01*
X142453252Y-91045851D01*
X142615614Y-91132636D01*
X142791786Y-91186077D01*
X142929087Y-91199600D01*
X143019780Y-91199600D01*
X142969304Y-91294934D01*
X142888536Y-91565013D01*
X142989896Y-91789200D01*
X144249200Y-91789200D01*
X144249200Y-90529985D01*
X144350800Y-90529985D01*
X144350800Y-91789200D01*
X145610104Y-91789200D01*
X145711464Y-91565013D01*
X145630696Y-91294934D01*
X145498790Y-91045801D01*
X145320815Y-90827189D01*
X145103611Y-90647499D01*
X144855524Y-90513636D01*
X144586089Y-90430744D01*
X144574987Y-90428538D01*
X144350800Y-90529985D01*
X144249200Y-90529985D01*
X144025013Y-90428538D01*
X144013911Y-90430744D01*
X143889793Y-90468929D01*
X143896077Y-90448214D01*
X143914122Y-90265000D01*
X143896077Y-90081786D01*
X143842636Y-89905614D01*
X143755851Y-89743252D01*
X143639060Y-89600940D01*
X143496748Y-89484149D01*
X143334386Y-89397364D01*
X143158214Y-89343923D01*
X143020913Y-89330400D01*
X142929087Y-89330400D01*
X142791786Y-89343923D01*
X142615614Y-89397364D01*
X142453252Y-89484149D01*
X142310940Y-89600940D01*
X142194149Y-89743252D01*
X142107364Y-89905614D01*
X142053923Y-90081786D01*
X142035878Y-90265000D01*
X140322300Y-90265000D01*
X140322300Y-87282187D01*
X154368500Y-87282187D01*
X154368500Y-87469813D01*
X154405104Y-87653834D01*
X154476905Y-87827178D01*
X154581145Y-87983184D01*
X154609801Y-88011840D01*
X154609800Y-88391148D01*
X154581145Y-88419803D01*
X154476905Y-88575809D01*
X154405104Y-88749153D01*
X154368500Y-88933174D01*
X154368500Y-89120800D01*
X154405104Y-89304821D01*
X154476905Y-89478165D01*
X154581145Y-89634171D01*
X154713816Y-89766842D01*
X154869822Y-89871082D01*
X155043166Y-89942883D01*
X155227187Y-89979487D01*
X155414813Y-89979487D01*
X155598834Y-89942883D01*
X155772178Y-89871082D01*
X155928184Y-89766842D01*
X156060855Y-89634171D01*
X156165095Y-89478165D01*
X156236896Y-89304821D01*
X156273500Y-89120800D01*
X156273500Y-89042000D01*
X163905542Y-89042000D01*
X163915350Y-89141585D01*
X163944398Y-89237344D01*
X163991570Y-89325595D01*
X164055052Y-89402948D01*
X164132405Y-89466430D01*
X164220656Y-89513602D01*
X164316415Y-89542650D01*
X164416000Y-89552458D01*
X164788200Y-89550000D01*
X164915200Y-89423000D01*
X164915200Y-88442800D01*
X165016800Y-88442800D01*
X165016800Y-89423000D01*
X165143800Y-89550000D01*
X165516000Y-89552458D01*
X165615585Y-89542650D01*
X165711344Y-89513602D01*
X165799595Y-89466430D01*
X165876948Y-89402948D01*
X165940430Y-89325595D01*
X165987602Y-89237344D01*
X166016650Y-89141585D01*
X166026458Y-89042000D01*
X166024000Y-88569800D01*
X165897000Y-88442800D01*
X165016800Y-88442800D01*
X164915200Y-88442800D01*
X164035000Y-88442800D01*
X163908000Y-88569800D01*
X163905542Y-89042000D01*
X156273500Y-89042000D01*
X156273500Y-88933174D01*
X156236896Y-88749153D01*
X156165095Y-88575809D01*
X156060855Y-88419803D01*
X156032200Y-88391148D01*
X156032200Y-88011839D01*
X156060855Y-87983184D01*
X156165095Y-87827178D01*
X156200376Y-87742000D01*
X163905542Y-87742000D01*
X163908000Y-88214200D01*
X164035000Y-88341200D01*
X164915200Y-88341200D01*
X164915200Y-87361000D01*
X165016800Y-87361000D01*
X165016800Y-88341200D01*
X165897000Y-88341200D01*
X166024000Y-88214200D01*
X166026458Y-87742000D01*
X166016650Y-87642415D01*
X165987602Y-87546656D01*
X165940430Y-87458405D01*
X165876948Y-87381052D01*
X165799595Y-87317570D01*
X165711344Y-87270398D01*
X165615585Y-87241350D01*
X165516000Y-87231542D01*
X165143800Y-87234000D01*
X165016800Y-87361000D01*
X164915200Y-87361000D01*
X164788200Y-87234000D01*
X164416000Y-87231542D01*
X164316415Y-87241350D01*
X164220656Y-87270398D01*
X164132405Y-87317570D01*
X164055052Y-87381052D01*
X163991570Y-87458405D01*
X163944398Y-87546656D01*
X163915350Y-87642415D01*
X163905542Y-87742000D01*
X156200376Y-87742000D01*
X156236896Y-87653834D01*
X156273500Y-87469813D01*
X156273500Y-87282187D01*
X156236896Y-87098166D01*
X156165095Y-86924822D01*
X156060855Y-86768816D01*
X155928184Y-86636145D01*
X155772178Y-86531905D01*
X155598834Y-86460104D01*
X155414813Y-86423500D01*
X155227187Y-86423500D01*
X155043166Y-86460104D01*
X154869822Y-86531905D01*
X154713816Y-86636145D01*
X154581145Y-86768816D01*
X154476905Y-86924822D01*
X154405104Y-87098166D01*
X154368500Y-87282187D01*
X140322300Y-87282187D01*
X140322300Y-86265000D01*
X142035878Y-86265000D01*
X142053923Y-86448214D01*
X142107364Y-86624386D01*
X142194149Y-86786748D01*
X142310940Y-86929060D01*
X142453252Y-87045851D01*
X142615614Y-87132636D01*
X142791786Y-87186077D01*
X142929087Y-87199600D01*
X143020913Y-87199600D01*
X143158214Y-87186077D01*
X143334386Y-87132636D01*
X143496748Y-87045851D01*
X143639060Y-86929060D01*
X143755851Y-86786748D01*
X143842636Y-86624386D01*
X143896077Y-86448214D01*
X143914122Y-86265000D01*
X143896077Y-86081786D01*
X143889793Y-86061071D01*
X144013911Y-86099256D01*
X144025013Y-86101462D01*
X144249200Y-86000015D01*
X144249200Y-84740800D01*
X144350800Y-84740800D01*
X144350800Y-86000015D01*
X144574987Y-86101462D01*
X144586089Y-86099256D01*
X144855524Y-86016364D01*
X145103611Y-85882501D01*
X145320815Y-85702811D01*
X145498790Y-85484199D01*
X145630696Y-85235066D01*
X145711464Y-84964987D01*
X145610104Y-84740800D01*
X144350800Y-84740800D01*
X144249200Y-84740800D01*
X142989896Y-84740800D01*
X142888536Y-84964987D01*
X142969304Y-85235066D01*
X143019780Y-85330400D01*
X142929087Y-85330400D01*
X142791786Y-85343923D01*
X142615614Y-85397364D01*
X142453252Y-85484149D01*
X142310940Y-85600940D01*
X142194149Y-85743252D01*
X142107364Y-85905614D01*
X142053923Y-86081786D01*
X142035878Y-86265000D01*
X140322300Y-86265000D01*
X140322300Y-86024924D01*
X140563911Y-86099256D01*
X140575013Y-86101462D01*
X140799200Y-86000015D01*
X140799200Y-84740800D01*
X140900800Y-84740800D01*
X140900800Y-86000015D01*
X141124987Y-86101462D01*
X141136089Y-86099256D01*
X141405524Y-86016364D01*
X141653611Y-85882501D01*
X141870815Y-85702811D01*
X142048790Y-85484199D01*
X142180696Y-85235066D01*
X142261464Y-84964987D01*
X142160104Y-84740800D01*
X140900800Y-84740800D01*
X140799200Y-84740800D01*
X140779200Y-84740800D01*
X140779200Y-84639200D01*
X140799200Y-84639200D01*
X140799200Y-83379985D01*
X140900800Y-83379985D01*
X140900800Y-84639200D01*
X142160104Y-84639200D01*
X142261464Y-84415013D01*
X142888536Y-84415013D01*
X142989896Y-84639200D01*
X144249200Y-84639200D01*
X144249200Y-83379985D01*
X144350800Y-83379985D01*
X144350800Y-84639200D01*
X145610104Y-84639200D01*
X145711464Y-84415013D01*
X145630696Y-84144934D01*
X145498790Y-83895801D01*
X145320815Y-83677189D01*
X145103611Y-83497499D01*
X144855524Y-83363636D01*
X144586089Y-83280744D01*
X144574987Y-83278538D01*
X144350800Y-83379985D01*
X144249200Y-83379985D01*
X144025013Y-83278538D01*
X144013911Y-83280744D01*
X143744476Y-83363636D01*
X143496389Y-83497499D01*
X143279185Y-83677189D01*
X143101210Y-83895801D01*
X142969304Y-84144934D01*
X142888536Y-84415013D01*
X142261464Y-84415013D01*
X142180696Y-84144934D01*
X142048790Y-83895801D01*
X141870815Y-83677189D01*
X141653611Y-83497499D01*
X141405524Y-83363636D01*
X141136089Y-83280744D01*
X141124987Y-83278538D01*
X140900800Y-83379985D01*
X140799200Y-83379985D01*
X140575013Y-83278538D01*
X140563911Y-83280744D01*
X140322300Y-83355076D01*
X140322300Y-82580436D01*
X140337563Y-82424772D01*
X140373930Y-82304321D01*
X140433003Y-82193220D01*
X140512528Y-82095712D01*
X140609481Y-82015506D01*
X140720165Y-81955659D01*
X140840361Y-81918452D01*
X140994041Y-81902300D01*
X149693540Y-81902300D01*
X149687387Y-81922584D01*
X149687387Y-81922584D01*
G37*
X149687387Y-81922584D02*
X149667451Y-82125000D01*
X149667451Y-82975000D01*
X149687387Y-83177416D01*
X149746430Y-83372053D01*
X149842310Y-83551431D01*
X149971342Y-83708658D01*
X150128569Y-83837690D01*
X150307947Y-83933570D01*
X150502584Y-83992613D01*
X150705000Y-84012549D01*
X151555000Y-84012549D01*
X151757416Y-83992613D01*
X151952053Y-83933570D01*
X152131431Y-83837690D01*
X152288658Y-83708658D01*
X152400000Y-83572986D01*
X152511342Y-83708658D01*
X152668569Y-83837690D01*
X152847947Y-83933570D01*
X153042584Y-83992613D01*
X153245000Y-84012549D01*
X154095000Y-84012549D01*
X154297416Y-83992613D01*
X154492053Y-83933570D01*
X154671431Y-83837690D01*
X154828658Y-83708658D01*
X154901514Y-83619882D01*
X154935570Y-83683595D01*
X154999052Y-83760948D01*
X155076405Y-83824430D01*
X155164656Y-83871602D01*
X155260415Y-83900650D01*
X155360000Y-83910458D01*
X156032200Y-83908000D01*
X156159200Y-83781000D01*
X156159200Y-82600800D01*
X156260800Y-82600800D01*
X156260800Y-83781000D01*
X156387800Y-83908000D01*
X157060000Y-83910458D01*
X157159585Y-83900650D01*
X157255344Y-83871602D01*
X157343595Y-83824430D01*
X157420948Y-83760948D01*
X157480000Y-83688993D01*
X157539052Y-83760948D01*
X157616405Y-83824430D01*
X157704656Y-83871602D01*
X157800415Y-83900650D01*
X157900000Y-83910458D01*
X158572200Y-83908000D01*
X158699200Y-83781000D01*
X158699200Y-82600800D01*
X157519000Y-82600800D01*
X157480000Y-82639800D01*
X157441000Y-82600800D01*
X156260800Y-82600800D01*
X156159200Y-82600800D01*
X156139200Y-82600800D01*
X156139200Y-82499200D01*
X156159200Y-82499200D01*
X156159200Y-82479200D01*
X156260800Y-82479200D01*
X156260800Y-82499200D01*
X157441000Y-82499200D01*
X157480000Y-82460200D01*
X157519000Y-82499200D01*
X158699200Y-82499200D01*
X158699200Y-82479200D01*
X158800800Y-82479200D01*
X158800800Y-82499200D01*
X158820800Y-82499200D01*
X158820800Y-82600800D01*
X158800800Y-82600800D01*
X158800800Y-83781000D01*
X158927800Y-83908000D01*
X159600000Y-83910458D01*
X159699585Y-83900650D01*
X159795344Y-83871602D01*
X159883595Y-83824430D01*
X159960948Y-83760948D01*
X160024430Y-83683595D01*
X160058486Y-83619882D01*
X160131342Y-83708658D01*
X160288569Y-83837690D01*
X160467947Y-83933570D01*
X160662584Y-83992613D01*
X160865000Y-84012549D01*
X161715000Y-84012549D01*
X161917416Y-83992613D01*
X162112053Y-83933570D01*
X162291431Y-83837690D01*
X162448658Y-83708658D01*
X162560000Y-83572986D01*
X162671342Y-83708658D01*
X162828569Y-83837690D01*
X163007947Y-83933570D01*
X163202584Y-83992613D01*
X163405000Y-84012549D01*
X164255000Y-84012549D01*
X164457416Y-83992613D01*
X164652053Y-83933570D01*
X164831431Y-83837690D01*
X164988658Y-83708658D01*
X165100000Y-83572986D01*
X165211342Y-83708658D01*
X165368569Y-83837690D01*
X165547947Y-83933570D01*
X165742584Y-83992613D01*
X165945000Y-84012549D01*
X166795000Y-84012549D01*
X166997416Y-83992613D01*
X167192053Y-83933570D01*
X167371431Y-83837690D01*
X167528658Y-83708658D01*
X167640000Y-83572986D01*
X167751342Y-83708658D01*
X167908569Y-83837690D01*
X168087947Y-83933570D01*
X168282584Y-83992613D01*
X168485000Y-84012549D01*
X169335000Y-84012549D01*
X169537416Y-83992613D01*
X169732053Y-83933570D01*
X169911431Y-83837690D01*
X170068658Y-83708658D01*
X170197690Y-83551431D01*
X170293570Y-83372053D01*
X170352613Y-83177416D01*
X170372549Y-82975000D01*
X170372549Y-82125000D01*
X170353556Y-81932154D01*
X170425679Y-81953930D01*
X170536780Y-82013003D01*
X170634288Y-82092528D01*
X170714494Y-82189481D01*
X170774341Y-82300165D01*
X170811548Y-82420361D01*
X170827700Y-82574041D01*
X170827700Y-86802779D01*
X170655700Y-86742593D01*
X170421300Y-86709500D01*
X170230800Y-86709500D01*
X170230800Y-87865200D01*
X170250800Y-87865200D01*
X170250800Y-87966800D01*
X170230800Y-87966800D01*
X170230800Y-87986800D01*
X170129200Y-87986800D01*
X170129200Y-87966800D01*
X170109200Y-87966800D01*
X170109200Y-87865200D01*
X170129200Y-87865200D01*
X170129200Y-86709500D01*
X169938700Y-86709500D01*
X169704300Y-86742593D01*
X169480860Y-86820779D01*
X169276966Y-86941054D01*
X169100455Y-87098796D01*
X168958109Y-87287942D01*
X168855399Y-87501224D01*
X168843618Y-87543945D01*
X168679834Y-87476104D01*
X168495813Y-87439500D01*
X168308187Y-87439500D01*
X168223522Y-87456341D01*
X168168592Y-87389408D01*
X168034096Y-87279030D01*
X167880650Y-87197012D01*
X167714152Y-87146505D01*
X167541000Y-87129451D01*
X166991000Y-87129451D01*
X166817848Y-87146505D01*
X166651350Y-87197012D01*
X166497904Y-87279030D01*
X166363408Y-87389408D01*
X166253030Y-87523904D01*
X166171012Y-87677350D01*
X166120505Y-87843848D01*
X166103451Y-88017000D01*
X166103451Y-88767000D01*
X166120505Y-88940152D01*
X166171012Y-89106650D01*
X166253030Y-89260096D01*
X166363408Y-89394592D01*
X166497904Y-89504970D01*
X166606610Y-89563074D01*
X166671798Y-89685032D01*
X166760673Y-89793326D01*
X166787810Y-89815597D01*
X167366402Y-90394190D01*
X167388673Y-90421327D01*
X167496967Y-90510202D01*
X167620519Y-90576242D01*
X167754580Y-90616909D01*
X167859064Y-90627200D01*
X167859073Y-90627200D01*
X167893999Y-90630640D01*
X167928925Y-90627200D01*
X168749809Y-90627200D01*
X168751664Y-90633315D01*
X168840543Y-90799597D01*
X168960155Y-90945345D01*
X169105903Y-91064957D01*
X169272185Y-91153836D01*
X169452612Y-91208568D01*
X169640250Y-91227049D01*
X170719750Y-91227049D01*
X170827701Y-91216417D01*
X170827701Y-95219554D01*
X170812437Y-95375228D01*
X170776070Y-95495679D01*
X170716997Y-95606780D01*
X170637472Y-95704288D01*
X170540519Y-95784494D01*
X170429835Y-95844341D01*
X170353545Y-95867957D01*
X170372549Y-95675000D01*
X170372549Y-94825000D01*
X170352613Y-94622584D01*
X170293570Y-94427947D01*
X170197690Y-94248569D01*
X170068658Y-94091342D01*
X169911431Y-93962310D01*
X169732053Y-93866430D01*
X169537416Y-93807387D01*
X169335000Y-93787451D01*
X168485000Y-93787451D01*
X168282584Y-93807387D01*
X168087947Y-93866430D01*
X167908569Y-93962310D01*
X167751342Y-94091342D01*
X167640000Y-94227014D01*
X167528658Y-94091342D01*
X167371431Y-93962310D01*
X167192053Y-93866430D01*
X166997416Y-93807387D01*
X166795000Y-93787451D01*
X165945000Y-93787451D01*
X165742584Y-93807387D01*
X165547947Y-93866430D01*
X165368569Y-93962310D01*
X165211342Y-94091342D01*
X165100000Y-94227014D01*
X164988658Y-94091342D01*
X164831431Y-93962310D01*
X164652053Y-93866430D01*
X164457416Y-93807387D01*
X164255000Y-93787451D01*
X163405000Y-93787451D01*
X163202584Y-93807387D01*
X163007947Y-93866430D01*
X162828569Y-93962310D01*
X162671342Y-94091342D01*
X162560000Y-94227014D01*
X162448658Y-94091342D01*
X162291431Y-93962310D01*
X162112053Y-93866430D01*
X161917416Y-93807387D01*
X161715000Y-93787451D01*
X160865000Y-93787451D01*
X160662584Y-93807387D01*
X160467947Y-93866430D01*
X160288569Y-93962310D01*
X160131342Y-94091342D01*
X160058486Y-94180118D01*
X160024430Y-94116405D01*
X159960948Y-94039052D01*
X159883595Y-93975570D01*
X159795344Y-93928398D01*
X159699585Y-93899350D01*
X159600000Y-93889542D01*
X158927800Y-93892000D01*
X158800800Y-94019000D01*
X158800800Y-95199200D01*
X158820800Y-95199200D01*
X158820800Y-95300800D01*
X158800800Y-95300800D01*
X158800800Y-95320800D01*
X158699200Y-95320800D01*
X158699200Y-95300800D01*
X157519000Y-95300800D01*
X157480000Y-95339800D01*
X157441000Y-95300800D01*
X156260800Y-95300800D01*
X156260800Y-95320800D01*
X156159200Y-95320800D01*
X156159200Y-95300800D01*
X156139200Y-95300800D01*
X156139200Y-95199200D01*
X156159200Y-95199200D01*
X156159200Y-94019000D01*
X156260800Y-94019000D01*
X156260800Y-95199200D01*
X157441000Y-95199200D01*
X157480000Y-95160200D01*
X157519000Y-95199200D01*
X158699200Y-95199200D01*
X158699200Y-94019000D01*
X158572200Y-93892000D01*
X157900000Y-93889542D01*
X157800415Y-93899350D01*
X157704656Y-93928398D01*
X157616405Y-93975570D01*
X157539052Y-94039052D01*
X157480000Y-94111007D01*
X157420948Y-94039052D01*
X157343595Y-93975570D01*
X157255344Y-93928398D01*
X157159585Y-93899350D01*
X157060000Y-93889542D01*
X156387800Y-93892000D01*
X156260800Y-94019000D01*
X156159200Y-94019000D01*
X156032200Y-93892000D01*
X155360000Y-93889542D01*
X155260415Y-93899350D01*
X155164656Y-93928398D01*
X155076405Y-93975570D01*
X154999052Y-94039052D01*
X154935570Y-94116405D01*
X154901514Y-94180118D01*
X154828658Y-94091342D01*
X154671431Y-93962310D01*
X154492053Y-93866430D01*
X154297416Y-93807387D01*
X154095000Y-93787451D01*
X153245000Y-93787451D01*
X153042584Y-93807387D01*
X152847947Y-93866430D01*
X152668569Y-93962310D01*
X152511342Y-94091342D01*
X152400000Y-94227014D01*
X152288658Y-94091342D01*
X152131431Y-93962310D01*
X151952053Y-93866430D01*
X151757416Y-93807387D01*
X151555000Y-93787451D01*
X150705000Y-93787451D01*
X150502584Y-93807387D01*
X150307947Y-93866430D01*
X150128569Y-93962310D01*
X149971342Y-94091342D01*
X149842310Y-94248569D01*
X149746430Y-94427947D01*
X149687387Y-94622584D01*
X149667451Y-94825000D01*
X149667451Y-95675000D01*
X149687387Y-95877416D01*
X149693540Y-95897700D01*
X147970055Y-95897700D01*
X148064950Y-95668603D01*
X148120100Y-95391345D01*
X148120100Y-95108655D01*
X148064950Y-94831397D01*
X148011643Y-94702702D01*
X148025178Y-94697095D01*
X148181184Y-94592855D01*
X148313855Y-94460184D01*
X148418095Y-94304178D01*
X148489896Y-94130834D01*
X148526500Y-93946813D01*
X148526500Y-93759187D01*
X148489896Y-93575166D01*
X148418095Y-93401822D01*
X148313855Y-93245816D01*
X148181184Y-93113145D01*
X148025178Y-93008905D01*
X147851834Y-92937104D01*
X147667813Y-92900500D01*
X147480187Y-92900500D01*
X147296166Y-92937104D01*
X147122822Y-93008905D01*
X146966816Y-93113145D01*
X146938161Y-93141800D01*
X146520739Y-93141800D01*
X146492084Y-93113145D01*
X146336078Y-93008905D01*
X146162734Y-92937104D01*
X145978713Y-92900500D01*
X145791087Y-92900500D01*
X145607066Y-92937104D01*
X145433722Y-93008905D01*
X145277716Y-93113145D01*
X145145045Y-93245816D01*
X145040805Y-93401822D01*
X144969004Y-93575166D01*
X144932400Y-93759187D01*
X144932400Y-93946813D01*
X144956104Y-94065982D01*
X144824775Y-93978231D01*
X144563603Y-93870050D01*
X144286345Y-93814900D01*
X144003655Y-93814900D01*
X143726397Y-93870050D01*
X143465225Y-93978231D01*
X143230177Y-94135285D01*
X143030285Y-94335177D01*
X142873231Y-94570225D01*
X142820984Y-94696360D01*
X142720132Y-94507066D01*
X142718125Y-94504060D01*
X142497855Y-94428987D01*
X141676842Y-95250000D01*
X141690985Y-95264143D01*
X141619143Y-95335985D01*
X141605000Y-95321842D01*
X141590858Y-95335985D01*
X141519016Y-95264143D01*
X141533158Y-95250000D01*
X140712145Y-94428987D01*
X140491875Y-94504060D01*
X140367738Y-94735553D01*
X140322300Y-94884618D01*
X140322300Y-94357145D01*
X140783987Y-94357145D01*
X141605000Y-95178158D01*
X142426013Y-94357145D01*
X142350940Y-94136875D01*
X142119447Y-94012738D01*
X141868184Y-93936148D01*
X141606808Y-93910049D01*
X141345362Y-93935443D01*
X141093893Y-94011355D01*
X140862066Y-94134868D01*
X140859060Y-94136875D01*
X140783987Y-94357145D01*
X140322300Y-94357145D01*
X140322300Y-93174924D01*
X140563911Y-93249256D01*
X140575013Y-93251462D01*
X140799200Y-93150015D01*
X140799200Y-91890800D01*
X140900800Y-91890800D01*
X140900800Y-93150015D01*
X141124987Y-93251462D01*
X141136089Y-93249256D01*
X141405524Y-93166364D01*
X141653611Y-93032501D01*
X141870815Y-92852811D01*
X142048790Y-92634199D01*
X142180696Y-92385066D01*
X142261464Y-92114987D01*
X142888536Y-92114987D01*
X142969304Y-92385066D01*
X143101210Y-92634199D01*
X143279185Y-92852811D01*
X143496389Y-93032501D01*
X143744476Y-93166364D01*
X144013911Y-93249256D01*
X144025013Y-93251462D01*
X144249200Y-93150015D01*
X144249200Y-91890800D01*
X144350800Y-91890800D01*
X144350800Y-93150015D01*
X144574987Y-93251462D01*
X144586089Y-93249256D01*
X144855524Y-93166364D01*
X145103611Y-93032501D01*
X145320815Y-92852811D01*
X145498790Y-92634199D01*
X145630696Y-92385066D01*
X145711464Y-92114987D01*
X145610104Y-91890800D01*
X144350800Y-91890800D01*
X144249200Y-91890800D01*
X142989896Y-91890800D01*
X142888536Y-92114987D01*
X142261464Y-92114987D01*
X142160104Y-91890800D01*
X140900800Y-91890800D01*
X140799200Y-91890800D01*
X140779200Y-91890800D01*
X140779200Y-91789200D01*
X140799200Y-91789200D01*
X140799200Y-90529985D01*
X140900800Y-90529985D01*
X140900800Y-91789200D01*
X142160104Y-91789200D01*
X142261464Y-91565013D01*
X142180696Y-91294934D01*
X142048790Y-91045801D01*
X141870815Y-90827189D01*
X141653611Y-90647499D01*
X141405524Y-90513636D01*
X141136089Y-90430744D01*
X141124987Y-90428538D01*
X140900800Y-90529985D01*
X140799200Y-90529985D01*
X140575013Y-90428538D01*
X140563911Y-90430744D01*
X140322300Y-90505076D01*
X140322300Y-90265000D01*
X142035878Y-90265000D01*
X142053923Y-90448214D01*
X142107364Y-90624386D01*
X142194149Y-90786748D01*
X142310940Y-90929060D01*
X142453252Y-91045851D01*
X142615614Y-91132636D01*
X142791786Y-91186077D01*
X142929087Y-91199600D01*
X143019780Y-91199600D01*
X142969304Y-91294934D01*
X142888536Y-91565013D01*
X142989896Y-91789200D01*
X144249200Y-91789200D01*
X144249200Y-90529985D01*
X144350800Y-90529985D01*
X144350800Y-91789200D01*
X145610104Y-91789200D01*
X145711464Y-91565013D01*
X145630696Y-91294934D01*
X145498790Y-91045801D01*
X145320815Y-90827189D01*
X145103611Y-90647499D01*
X144855524Y-90513636D01*
X144586089Y-90430744D01*
X144574987Y-90428538D01*
X144350800Y-90529985D01*
X144249200Y-90529985D01*
X144025013Y-90428538D01*
X144013911Y-90430744D01*
X143889793Y-90468929D01*
X143896077Y-90448214D01*
X143914122Y-90265000D01*
X143896077Y-90081786D01*
X143842636Y-89905614D01*
X143755851Y-89743252D01*
X143639060Y-89600940D01*
X143496748Y-89484149D01*
X143334386Y-89397364D01*
X143158214Y-89343923D01*
X143020913Y-89330400D01*
X142929087Y-89330400D01*
X142791786Y-89343923D01*
X142615614Y-89397364D01*
X142453252Y-89484149D01*
X142310940Y-89600940D01*
X142194149Y-89743252D01*
X142107364Y-89905614D01*
X142053923Y-90081786D01*
X142035878Y-90265000D01*
X140322300Y-90265000D01*
X140322300Y-87282187D01*
X154368500Y-87282187D01*
X154368500Y-87469813D01*
X154405104Y-87653834D01*
X154476905Y-87827178D01*
X154581145Y-87983184D01*
X154609801Y-88011840D01*
X154609800Y-88391148D01*
X154581145Y-88419803D01*
X154476905Y-88575809D01*
X154405104Y-88749153D01*
X154368500Y-88933174D01*
X154368500Y-89120800D01*
X154405104Y-89304821D01*
X154476905Y-89478165D01*
X154581145Y-89634171D01*
X154713816Y-89766842D01*
X154869822Y-89871082D01*
X155043166Y-89942883D01*
X155227187Y-89979487D01*
X155414813Y-89979487D01*
X155598834Y-89942883D01*
X155772178Y-89871082D01*
X155928184Y-89766842D01*
X156060855Y-89634171D01*
X156165095Y-89478165D01*
X156236896Y-89304821D01*
X156273500Y-89120800D01*
X156273500Y-89042000D01*
X163905542Y-89042000D01*
X163915350Y-89141585D01*
X163944398Y-89237344D01*
X163991570Y-89325595D01*
X164055052Y-89402948D01*
X164132405Y-89466430D01*
X164220656Y-89513602D01*
X164316415Y-89542650D01*
X164416000Y-89552458D01*
X164788200Y-89550000D01*
X164915200Y-89423000D01*
X164915200Y-88442800D01*
X165016800Y-88442800D01*
X165016800Y-89423000D01*
X165143800Y-89550000D01*
X165516000Y-89552458D01*
X165615585Y-89542650D01*
X165711344Y-89513602D01*
X165799595Y-89466430D01*
X165876948Y-89402948D01*
X165940430Y-89325595D01*
X165987602Y-89237344D01*
X166016650Y-89141585D01*
X166026458Y-89042000D01*
X166024000Y-88569800D01*
X165897000Y-88442800D01*
X165016800Y-88442800D01*
X164915200Y-88442800D01*
X164035000Y-88442800D01*
X163908000Y-88569800D01*
X163905542Y-89042000D01*
X156273500Y-89042000D01*
X156273500Y-88933174D01*
X156236896Y-88749153D01*
X156165095Y-88575809D01*
X156060855Y-88419803D01*
X156032200Y-88391148D01*
X156032200Y-88011839D01*
X156060855Y-87983184D01*
X156165095Y-87827178D01*
X156200376Y-87742000D01*
X163905542Y-87742000D01*
X163908000Y-88214200D01*
X164035000Y-88341200D01*
X164915200Y-88341200D01*
X164915200Y-87361000D01*
X165016800Y-87361000D01*
X165016800Y-88341200D01*
X165897000Y-88341200D01*
X166024000Y-88214200D01*
X166026458Y-87742000D01*
X166016650Y-87642415D01*
X165987602Y-87546656D01*
X165940430Y-87458405D01*
X165876948Y-87381052D01*
X165799595Y-87317570D01*
X165711344Y-87270398D01*
X165615585Y-87241350D01*
X165516000Y-87231542D01*
X165143800Y-87234000D01*
X165016800Y-87361000D01*
X164915200Y-87361000D01*
X164788200Y-87234000D01*
X164416000Y-87231542D01*
X164316415Y-87241350D01*
X164220656Y-87270398D01*
X164132405Y-87317570D01*
X164055052Y-87381052D01*
X163991570Y-87458405D01*
X163944398Y-87546656D01*
X163915350Y-87642415D01*
X163905542Y-87742000D01*
X156200376Y-87742000D01*
X156236896Y-87653834D01*
X156273500Y-87469813D01*
X156273500Y-87282187D01*
X156236896Y-87098166D01*
X156165095Y-86924822D01*
X156060855Y-86768816D01*
X155928184Y-86636145D01*
X155772178Y-86531905D01*
X155598834Y-86460104D01*
X155414813Y-86423500D01*
X155227187Y-86423500D01*
X155043166Y-86460104D01*
X154869822Y-86531905D01*
X154713816Y-86636145D01*
X154581145Y-86768816D01*
X154476905Y-86924822D01*
X154405104Y-87098166D01*
X154368500Y-87282187D01*
X140322300Y-87282187D01*
X140322300Y-86265000D01*
X142035878Y-86265000D01*
X142053923Y-86448214D01*
X142107364Y-86624386D01*
X142194149Y-86786748D01*
X142310940Y-86929060D01*
X142453252Y-87045851D01*
X142615614Y-87132636D01*
X142791786Y-87186077D01*
X142929087Y-87199600D01*
X143020913Y-87199600D01*
X143158214Y-87186077D01*
X143334386Y-87132636D01*
X143496748Y-87045851D01*
X143639060Y-86929060D01*
X143755851Y-86786748D01*
X143842636Y-86624386D01*
X143896077Y-86448214D01*
X143914122Y-86265000D01*
X143896077Y-86081786D01*
X143889793Y-86061071D01*
X144013911Y-86099256D01*
X144025013Y-86101462D01*
X144249200Y-86000015D01*
X144249200Y-84740800D01*
X144350800Y-84740800D01*
X144350800Y-86000015D01*
X144574987Y-86101462D01*
X144586089Y-86099256D01*
X144855524Y-86016364D01*
X145103611Y-85882501D01*
X145320815Y-85702811D01*
X145498790Y-85484199D01*
X145630696Y-85235066D01*
X145711464Y-84964987D01*
X145610104Y-84740800D01*
X144350800Y-84740800D01*
X144249200Y-84740800D01*
X142989896Y-84740800D01*
X142888536Y-84964987D01*
X142969304Y-85235066D01*
X143019780Y-85330400D01*
X142929087Y-85330400D01*
X142791786Y-85343923D01*
X142615614Y-85397364D01*
X142453252Y-85484149D01*
X142310940Y-85600940D01*
X142194149Y-85743252D01*
X142107364Y-85905614D01*
X142053923Y-86081786D01*
X142035878Y-86265000D01*
X140322300Y-86265000D01*
X140322300Y-86024924D01*
X140563911Y-86099256D01*
X140575013Y-86101462D01*
X140799200Y-86000015D01*
X140799200Y-84740800D01*
X140900800Y-84740800D01*
X140900800Y-86000015D01*
X141124987Y-86101462D01*
X141136089Y-86099256D01*
X141405524Y-86016364D01*
X141653611Y-85882501D01*
X141870815Y-85702811D01*
X142048790Y-85484199D01*
X142180696Y-85235066D01*
X142261464Y-84964987D01*
X142160104Y-84740800D01*
X140900800Y-84740800D01*
X140799200Y-84740800D01*
X140779200Y-84740800D01*
X140779200Y-84639200D01*
X140799200Y-84639200D01*
X140799200Y-83379985D01*
X140900800Y-83379985D01*
X140900800Y-84639200D01*
X142160104Y-84639200D01*
X142261464Y-84415013D01*
X142888536Y-84415013D01*
X142989896Y-84639200D01*
X144249200Y-84639200D01*
X144249200Y-83379985D01*
X144350800Y-83379985D01*
X144350800Y-84639200D01*
X145610104Y-84639200D01*
X145711464Y-84415013D01*
X145630696Y-84144934D01*
X145498790Y-83895801D01*
X145320815Y-83677189D01*
X145103611Y-83497499D01*
X144855524Y-83363636D01*
X144586089Y-83280744D01*
X144574987Y-83278538D01*
X144350800Y-83379985D01*
X144249200Y-83379985D01*
X144025013Y-83278538D01*
X144013911Y-83280744D01*
X143744476Y-83363636D01*
X143496389Y-83497499D01*
X143279185Y-83677189D01*
X143101210Y-83895801D01*
X142969304Y-84144934D01*
X142888536Y-84415013D01*
X142261464Y-84415013D01*
X142180696Y-84144934D01*
X142048790Y-83895801D01*
X141870815Y-83677189D01*
X141653611Y-83497499D01*
X141405524Y-83363636D01*
X141136089Y-83280744D01*
X141124987Y-83278538D01*
X140900800Y-83379985D01*
X140799200Y-83379985D01*
X140575013Y-83278538D01*
X140563911Y-83280744D01*
X140322300Y-83355076D01*
X140322300Y-82580436D01*
X140337563Y-82424772D01*
X140373930Y-82304321D01*
X140433003Y-82193220D01*
X140512528Y-82095712D01*
X140609481Y-82015506D01*
X140720165Y-81955659D01*
X140840361Y-81918452D01*
X140994041Y-81902300D01*
X149693540Y-81902300D01*
X149687387Y-81922584D01*
M02*
