G04 #@! TF.GenerationSoftware,KiCad,Pcbnew,(5.1.0-0)*
G04 #@! TF.CreationDate,2019-04-12T20:13:37-07:00*
G04 #@! TF.ProjectId,ap2112m-txb0104-module,61703231-3132-46d2-9d74-786230313034,rev?*
G04 #@! TF.SameCoordinates,Original*
G04 #@! TF.FileFunction,Soldermask,Top*
G04 #@! TF.FilePolarity,Negative*
%FSLAX46Y46*%
G04 Gerber Fmt 4.6, Leading zero omitted, Abs format (unit mm)*
G04 Created by KiCad (PCBNEW (5.1.0-0)) date 2019-04-12 20:13:37*
%MOMM*%
%LPD*%
G04 APERTURE LIST*
%ADD10C,0.025400*%
G04 APERTURE END LIST*
D10*
G36*
X169468662Y-94357606D02*
G01*
X169548345Y-94381778D01*
X169621785Y-94421033D01*
X169686147Y-94473853D01*
X169738967Y-94538215D01*
X169778222Y-94611655D01*
X169802394Y-94691338D01*
X169810800Y-94776691D01*
X169810800Y-95723309D01*
X169802394Y-95808662D01*
X169778222Y-95888345D01*
X169738967Y-95961785D01*
X169686147Y-96026147D01*
X169621785Y-96078967D01*
X169548345Y-96118222D01*
X169468662Y-96142394D01*
X169383309Y-96150800D01*
X168436691Y-96150800D01*
X168351338Y-96142394D01*
X168271655Y-96118222D01*
X168198215Y-96078967D01*
X168133853Y-96026147D01*
X168081033Y-95961785D01*
X168041778Y-95888345D01*
X168017606Y-95808662D01*
X168009200Y-95723309D01*
X168009200Y-94776691D01*
X168017606Y-94691338D01*
X168041778Y-94611655D01*
X168081033Y-94538215D01*
X168133853Y-94473853D01*
X168198215Y-94421033D01*
X168271655Y-94381778D01*
X168351338Y-94357606D01*
X168436691Y-94349200D01*
X169383309Y-94349200D01*
X169468662Y-94357606D01*
X169468662Y-94357606D01*
G37*
G36*
X166928662Y-94357606D02*
G01*
X167008345Y-94381778D01*
X167081785Y-94421033D01*
X167146147Y-94473853D01*
X167198967Y-94538215D01*
X167238222Y-94611655D01*
X167262394Y-94691338D01*
X167270800Y-94776691D01*
X167270800Y-95723309D01*
X167262394Y-95808662D01*
X167238222Y-95888345D01*
X167198967Y-95961785D01*
X167146147Y-96026147D01*
X167081785Y-96078967D01*
X167008345Y-96118222D01*
X166928662Y-96142394D01*
X166843309Y-96150800D01*
X165896691Y-96150800D01*
X165811338Y-96142394D01*
X165731655Y-96118222D01*
X165658215Y-96078967D01*
X165593853Y-96026147D01*
X165541033Y-95961785D01*
X165501778Y-95888345D01*
X165477606Y-95808662D01*
X165469200Y-95723309D01*
X165469200Y-94776691D01*
X165477606Y-94691338D01*
X165501778Y-94611655D01*
X165541033Y-94538215D01*
X165593853Y-94473853D01*
X165658215Y-94421033D01*
X165731655Y-94381778D01*
X165811338Y-94357606D01*
X165896691Y-94349200D01*
X166843309Y-94349200D01*
X166928662Y-94357606D01*
X166928662Y-94357606D01*
G37*
G36*
X164388662Y-94357606D02*
G01*
X164468345Y-94381778D01*
X164541785Y-94421033D01*
X164606147Y-94473853D01*
X164658967Y-94538215D01*
X164698222Y-94611655D01*
X164722394Y-94691338D01*
X164730800Y-94776691D01*
X164730800Y-95723309D01*
X164722394Y-95808662D01*
X164698222Y-95888345D01*
X164658967Y-95961785D01*
X164606147Y-96026147D01*
X164541785Y-96078967D01*
X164468345Y-96118222D01*
X164388662Y-96142394D01*
X164303309Y-96150800D01*
X163356691Y-96150800D01*
X163271338Y-96142394D01*
X163191655Y-96118222D01*
X163118215Y-96078967D01*
X163053853Y-96026147D01*
X163001033Y-95961785D01*
X162961778Y-95888345D01*
X162937606Y-95808662D01*
X162929200Y-95723309D01*
X162929200Y-94776691D01*
X162937606Y-94691338D01*
X162961778Y-94611655D01*
X163001033Y-94538215D01*
X163053853Y-94473853D01*
X163118215Y-94421033D01*
X163191655Y-94381778D01*
X163271338Y-94357606D01*
X163356691Y-94349200D01*
X164303309Y-94349200D01*
X164388662Y-94357606D01*
X164388662Y-94357606D01*
G37*
G36*
X161848662Y-94357606D02*
G01*
X161928345Y-94381778D01*
X162001785Y-94421033D01*
X162066147Y-94473853D01*
X162118967Y-94538215D01*
X162158222Y-94611655D01*
X162182394Y-94691338D01*
X162190800Y-94776691D01*
X162190800Y-95723309D01*
X162182394Y-95808662D01*
X162158222Y-95888345D01*
X162118967Y-95961785D01*
X162066147Y-96026147D01*
X162001785Y-96078967D01*
X161928345Y-96118222D01*
X161848662Y-96142394D01*
X161763309Y-96150800D01*
X160816691Y-96150800D01*
X160731338Y-96142394D01*
X160651655Y-96118222D01*
X160578215Y-96078967D01*
X160513853Y-96026147D01*
X160461033Y-95961785D01*
X160421778Y-95888345D01*
X160397606Y-95808662D01*
X160389200Y-95723309D01*
X160389200Y-94776691D01*
X160397606Y-94691338D01*
X160421778Y-94611655D01*
X160461033Y-94538215D01*
X160513853Y-94473853D01*
X160578215Y-94421033D01*
X160651655Y-94381778D01*
X160731338Y-94357606D01*
X160816691Y-94349200D01*
X161763309Y-94349200D01*
X161848662Y-94357606D01*
X161848662Y-94357606D01*
G37*
G36*
X159308662Y-94357606D02*
G01*
X159388345Y-94381778D01*
X159461785Y-94421033D01*
X159526147Y-94473853D01*
X159578967Y-94538215D01*
X159618222Y-94611655D01*
X159642394Y-94691338D01*
X159650800Y-94776691D01*
X159650800Y-95723309D01*
X159642394Y-95808662D01*
X159618222Y-95888345D01*
X159578967Y-95961785D01*
X159526147Y-96026147D01*
X159461785Y-96078967D01*
X159388345Y-96118222D01*
X159308662Y-96142394D01*
X159223309Y-96150800D01*
X158276691Y-96150800D01*
X158191338Y-96142394D01*
X158111655Y-96118222D01*
X158038215Y-96078967D01*
X157973853Y-96026147D01*
X157921033Y-95961785D01*
X157881778Y-95888345D01*
X157857606Y-95808662D01*
X157849200Y-95723309D01*
X157849200Y-94776691D01*
X157857606Y-94691338D01*
X157881778Y-94611655D01*
X157921033Y-94538215D01*
X157973853Y-94473853D01*
X158038215Y-94421033D01*
X158111655Y-94381778D01*
X158191338Y-94357606D01*
X158276691Y-94349200D01*
X159223309Y-94349200D01*
X159308662Y-94357606D01*
X159308662Y-94357606D01*
G37*
G36*
X156768662Y-94357606D02*
G01*
X156848345Y-94381778D01*
X156921785Y-94421033D01*
X156986147Y-94473853D01*
X157038967Y-94538215D01*
X157078222Y-94611655D01*
X157102394Y-94691338D01*
X157110800Y-94776691D01*
X157110800Y-95723309D01*
X157102394Y-95808662D01*
X157078222Y-95888345D01*
X157038967Y-95961785D01*
X156986147Y-96026147D01*
X156921785Y-96078967D01*
X156848345Y-96118222D01*
X156768662Y-96142394D01*
X156683309Y-96150800D01*
X155736691Y-96150800D01*
X155651338Y-96142394D01*
X155571655Y-96118222D01*
X155498215Y-96078967D01*
X155433853Y-96026147D01*
X155381033Y-95961785D01*
X155341778Y-95888345D01*
X155317606Y-95808662D01*
X155309200Y-95723309D01*
X155309200Y-94776691D01*
X155317606Y-94691338D01*
X155341778Y-94611655D01*
X155381033Y-94538215D01*
X155433853Y-94473853D01*
X155498215Y-94421033D01*
X155571655Y-94381778D01*
X155651338Y-94357606D01*
X155736691Y-94349200D01*
X156683309Y-94349200D01*
X156768662Y-94357606D01*
X156768662Y-94357606D01*
G37*
G36*
X154228662Y-94357606D02*
G01*
X154308345Y-94381778D01*
X154381785Y-94421033D01*
X154446147Y-94473853D01*
X154498967Y-94538215D01*
X154538222Y-94611655D01*
X154562394Y-94691338D01*
X154570800Y-94776691D01*
X154570800Y-95723309D01*
X154562394Y-95808662D01*
X154538222Y-95888345D01*
X154498967Y-95961785D01*
X154446147Y-96026147D01*
X154381785Y-96078967D01*
X154308345Y-96118222D01*
X154228662Y-96142394D01*
X154143309Y-96150800D01*
X153196691Y-96150800D01*
X153111338Y-96142394D01*
X153031655Y-96118222D01*
X152958215Y-96078967D01*
X152893853Y-96026147D01*
X152841033Y-95961785D01*
X152801778Y-95888345D01*
X152777606Y-95808662D01*
X152769200Y-95723309D01*
X152769200Y-94776691D01*
X152777606Y-94691338D01*
X152801778Y-94611655D01*
X152841033Y-94538215D01*
X152893853Y-94473853D01*
X152958215Y-94421033D01*
X153031655Y-94381778D01*
X153111338Y-94357606D01*
X153196691Y-94349200D01*
X154143309Y-94349200D01*
X154228662Y-94357606D01*
X154228662Y-94357606D01*
G37*
G36*
X151688662Y-94357606D02*
G01*
X151768345Y-94381778D01*
X151841785Y-94421033D01*
X151906147Y-94473853D01*
X151958967Y-94538215D01*
X151998222Y-94611655D01*
X152022394Y-94691338D01*
X152030800Y-94776691D01*
X152030800Y-95723309D01*
X152022394Y-95808662D01*
X151998222Y-95888345D01*
X151958967Y-95961785D01*
X151906147Y-96026147D01*
X151841785Y-96078967D01*
X151768345Y-96118222D01*
X151688662Y-96142394D01*
X151603309Y-96150800D01*
X150656691Y-96150800D01*
X150571338Y-96142394D01*
X150491655Y-96118222D01*
X150418215Y-96078967D01*
X150353853Y-96026147D01*
X150301033Y-95961785D01*
X150261778Y-95888345D01*
X150237606Y-95808662D01*
X150229200Y-95723309D01*
X150229200Y-94776691D01*
X150237606Y-94691338D01*
X150261778Y-94611655D01*
X150301033Y-94538215D01*
X150353853Y-94473853D01*
X150418215Y-94421033D01*
X150491655Y-94381778D01*
X150571338Y-94357606D01*
X150656691Y-94349200D01*
X151603309Y-94349200D01*
X151688662Y-94357606D01*
X151688662Y-94357606D01*
G37*
G36*
X146940608Y-94407376D02*
G01*
X147100084Y-94473432D01*
X147243610Y-94569334D01*
X147365666Y-94691390D01*
X147461568Y-94834916D01*
X147527624Y-94994392D01*
X147561300Y-95163692D01*
X147561300Y-95336308D01*
X147527624Y-95505608D01*
X147461568Y-95665084D01*
X147365666Y-95808610D01*
X147243610Y-95930666D01*
X147100084Y-96026568D01*
X146940608Y-96092624D01*
X146771308Y-96126300D01*
X146598692Y-96126300D01*
X146429392Y-96092624D01*
X146269916Y-96026568D01*
X146126390Y-95930666D01*
X146004334Y-95808610D01*
X145908432Y-95665084D01*
X145842376Y-95505608D01*
X145808700Y-95336308D01*
X145808700Y-95163692D01*
X145842376Y-94994392D01*
X145908432Y-94834916D01*
X146004334Y-94691390D01*
X146126390Y-94569334D01*
X146269916Y-94473432D01*
X146429392Y-94407376D01*
X146598692Y-94373700D01*
X146771308Y-94373700D01*
X146940608Y-94407376D01*
X146940608Y-94407376D01*
G37*
G36*
X144400608Y-94407376D02*
G01*
X144560084Y-94473432D01*
X144703610Y-94569334D01*
X144825666Y-94691390D01*
X144921568Y-94834916D01*
X144987624Y-94994392D01*
X145021300Y-95163692D01*
X145021300Y-95336308D01*
X144987624Y-95505608D01*
X144921568Y-95665084D01*
X144825666Y-95808610D01*
X144703610Y-95930666D01*
X144560084Y-96026568D01*
X144400608Y-96092624D01*
X144231308Y-96126300D01*
X144058692Y-96126300D01*
X143889392Y-96092624D01*
X143729916Y-96026568D01*
X143586390Y-95930666D01*
X143464334Y-95808610D01*
X143368432Y-95665084D01*
X143302376Y-95505608D01*
X143268700Y-95336308D01*
X143268700Y-95163692D01*
X143302376Y-94994392D01*
X143368432Y-94834916D01*
X143464334Y-94691390D01*
X143586390Y-94569334D01*
X143729916Y-94473432D01*
X143889392Y-94407376D01*
X144058692Y-94373700D01*
X144231308Y-94373700D01*
X144400608Y-94407376D01*
X144400608Y-94407376D01*
G37*
G36*
X141860608Y-94407376D02*
G01*
X142020084Y-94473432D01*
X142163610Y-94569334D01*
X142285666Y-94691390D01*
X142381568Y-94834916D01*
X142447624Y-94994392D01*
X142481300Y-95163692D01*
X142481300Y-95336308D01*
X142447624Y-95505608D01*
X142381568Y-95665084D01*
X142285666Y-95808610D01*
X142163610Y-95930666D01*
X142020084Y-96026568D01*
X141860608Y-96092624D01*
X141691308Y-96126300D01*
X141518692Y-96126300D01*
X141349392Y-96092624D01*
X141189916Y-96026568D01*
X141046390Y-95930666D01*
X140924334Y-95808610D01*
X140828432Y-95665084D01*
X140762376Y-95505608D01*
X140728700Y-95336308D01*
X140728700Y-95163692D01*
X140762376Y-94994392D01*
X140828432Y-94834916D01*
X140924334Y-94691390D01*
X141046390Y-94569334D01*
X141189916Y-94473432D01*
X141349392Y-94407376D01*
X141518692Y-94373700D01*
X141691308Y-94373700D01*
X141860608Y-94407376D01*
X141860608Y-94407376D01*
G37*
G36*
X149991153Y-92395685D02*
G01*
X150052077Y-92414166D01*
X150108228Y-92444180D01*
X150157436Y-92484564D01*
X150197820Y-92533772D01*
X150227834Y-92589923D01*
X150246315Y-92650847D01*
X150252800Y-92716692D01*
X150252800Y-93463308D01*
X150246315Y-93529153D01*
X150227834Y-93590077D01*
X150197820Y-93646228D01*
X150157436Y-93695436D01*
X150108228Y-93735820D01*
X150052077Y-93765834D01*
X149991153Y-93784315D01*
X149925308Y-93790800D01*
X148778692Y-93790800D01*
X148712847Y-93784315D01*
X148651923Y-93765834D01*
X148595772Y-93735820D01*
X148546564Y-93695436D01*
X148506180Y-93646228D01*
X148476166Y-93590077D01*
X148457685Y-93529153D01*
X148451200Y-93463308D01*
X148451200Y-92716692D01*
X148457685Y-92650847D01*
X148476166Y-92589923D01*
X148506180Y-92533772D01*
X148546564Y-92484564D01*
X148595772Y-92444180D01*
X148651923Y-92414166D01*
X148712847Y-92395685D01*
X148778692Y-92389200D01*
X149925308Y-92389200D01*
X149991153Y-92395685D01*
X149991153Y-92395685D01*
G37*
G36*
X158467398Y-91740724D02*
G01*
X158518943Y-91756360D01*
X158566449Y-91781753D01*
X158608081Y-91815919D01*
X158642247Y-91857551D01*
X158667640Y-91905057D01*
X158683276Y-91956602D01*
X158688800Y-92012691D01*
X158688800Y-92659309D01*
X158683276Y-92715398D01*
X158667640Y-92766943D01*
X158642247Y-92814449D01*
X158608081Y-92856081D01*
X158566449Y-92890247D01*
X158518943Y-92915640D01*
X158467398Y-92931276D01*
X158411309Y-92936800D01*
X157564691Y-92936800D01*
X157508602Y-92931276D01*
X157457057Y-92915640D01*
X157409551Y-92890247D01*
X157367919Y-92856081D01*
X157333753Y-92814449D01*
X157308360Y-92766943D01*
X157292724Y-92715398D01*
X157287200Y-92659309D01*
X157287200Y-92012691D01*
X157292724Y-91956602D01*
X157308360Y-91905057D01*
X157333753Y-91857551D01*
X157367919Y-91815919D01*
X157409551Y-91781753D01*
X157457057Y-91756360D01*
X157508602Y-91740724D01*
X157564691Y-91735200D01*
X158411309Y-91735200D01*
X158467398Y-91740724D01*
X158467398Y-91740724D01*
G37*
G36*
X160250015Y-90802323D02*
G01*
X160278106Y-90810844D01*
X160303998Y-90824684D01*
X160326692Y-90843308D01*
X160345316Y-90866002D01*
X160359156Y-90891894D01*
X160367677Y-90919985D01*
X160370800Y-90951691D01*
X160370800Y-92748309D01*
X160367677Y-92780015D01*
X160359156Y-92808106D01*
X160345316Y-92833998D01*
X160326692Y-92856692D01*
X160303998Y-92875316D01*
X160278106Y-92889156D01*
X160250015Y-92897677D01*
X160218309Y-92900800D01*
X159821691Y-92900800D01*
X159789985Y-92897677D01*
X159761894Y-92889156D01*
X159736002Y-92875316D01*
X159713308Y-92856692D01*
X159694684Y-92833998D01*
X159680844Y-92808106D01*
X159672323Y-92780015D01*
X159669200Y-92748309D01*
X159669200Y-90951691D01*
X159672323Y-90919985D01*
X159680844Y-90891894D01*
X159694684Y-90866002D01*
X159713308Y-90843308D01*
X159736002Y-90824684D01*
X159761894Y-90810844D01*
X159789985Y-90802323D01*
X159821691Y-90799200D01*
X160218309Y-90799200D01*
X160250015Y-90802323D01*
X160250015Y-90802323D01*
G37*
G36*
X161520015Y-90802323D02*
G01*
X161548106Y-90810844D01*
X161573998Y-90824684D01*
X161596692Y-90843308D01*
X161615316Y-90866002D01*
X161629156Y-90891894D01*
X161637677Y-90919985D01*
X161640800Y-90951691D01*
X161640800Y-92748309D01*
X161637677Y-92780015D01*
X161629156Y-92808106D01*
X161615316Y-92833998D01*
X161596692Y-92856692D01*
X161573998Y-92875316D01*
X161548106Y-92889156D01*
X161520015Y-92897677D01*
X161488309Y-92900800D01*
X161091691Y-92900800D01*
X161059985Y-92897677D01*
X161031894Y-92889156D01*
X161006002Y-92875316D01*
X160983308Y-92856692D01*
X160964684Y-92833998D01*
X160950844Y-92808106D01*
X160942323Y-92780015D01*
X160939200Y-92748309D01*
X160939200Y-90951691D01*
X160942323Y-90919985D01*
X160950844Y-90891894D01*
X160964684Y-90866002D01*
X160983308Y-90843308D01*
X161006002Y-90824684D01*
X161031894Y-90810844D01*
X161059985Y-90802323D01*
X161091691Y-90799200D01*
X161488309Y-90799200D01*
X161520015Y-90802323D01*
X161520015Y-90802323D01*
G37*
G36*
X162790015Y-90802323D02*
G01*
X162818106Y-90810844D01*
X162843998Y-90824684D01*
X162866692Y-90843308D01*
X162885316Y-90866002D01*
X162899156Y-90891894D01*
X162907677Y-90919985D01*
X162910800Y-90951691D01*
X162910800Y-92748309D01*
X162907677Y-92780015D01*
X162899156Y-92808106D01*
X162885316Y-92833998D01*
X162866692Y-92856692D01*
X162843998Y-92875316D01*
X162818106Y-92889156D01*
X162790015Y-92897677D01*
X162758309Y-92900800D01*
X162361691Y-92900800D01*
X162329985Y-92897677D01*
X162301894Y-92889156D01*
X162276002Y-92875316D01*
X162253308Y-92856692D01*
X162234684Y-92833998D01*
X162220844Y-92808106D01*
X162212323Y-92780015D01*
X162209200Y-92748309D01*
X162209200Y-90951691D01*
X162212323Y-90919985D01*
X162220844Y-90891894D01*
X162234684Y-90866002D01*
X162253308Y-90843308D01*
X162276002Y-90824684D01*
X162301894Y-90810844D01*
X162329985Y-90802323D01*
X162361691Y-90799200D01*
X162758309Y-90799200D01*
X162790015Y-90802323D01*
X162790015Y-90802323D01*
G37*
G36*
X164060015Y-90802323D02*
G01*
X164088106Y-90810844D01*
X164113998Y-90824684D01*
X164136692Y-90843308D01*
X164155316Y-90866002D01*
X164169156Y-90891894D01*
X164177677Y-90919985D01*
X164180800Y-90951691D01*
X164180800Y-92748309D01*
X164177677Y-92780015D01*
X164169156Y-92808106D01*
X164155316Y-92833998D01*
X164136692Y-92856692D01*
X164113998Y-92875316D01*
X164088106Y-92889156D01*
X164060015Y-92897677D01*
X164028309Y-92900800D01*
X163631691Y-92900800D01*
X163599985Y-92897677D01*
X163571894Y-92889156D01*
X163546002Y-92875316D01*
X163523308Y-92856692D01*
X163504684Y-92833998D01*
X163490844Y-92808106D01*
X163482323Y-92780015D01*
X163479200Y-92748309D01*
X163479200Y-90951691D01*
X163482323Y-90919985D01*
X163490844Y-90891894D01*
X163504684Y-90866002D01*
X163523308Y-90843308D01*
X163546002Y-90824684D01*
X163571894Y-90810844D01*
X163599985Y-90802323D01*
X163631691Y-90799200D01*
X164028309Y-90799200D01*
X164060015Y-90802323D01*
X164060015Y-90802323D01*
G37*
G36*
X165330015Y-90802323D02*
G01*
X165358106Y-90810844D01*
X165383998Y-90824684D01*
X165406692Y-90843308D01*
X165425316Y-90866002D01*
X165439156Y-90891894D01*
X165447677Y-90919985D01*
X165450800Y-90951691D01*
X165450800Y-92748309D01*
X165447677Y-92780015D01*
X165439156Y-92808106D01*
X165425316Y-92833998D01*
X165406692Y-92856692D01*
X165383998Y-92875316D01*
X165358106Y-92889156D01*
X165330015Y-92897677D01*
X165298309Y-92900800D01*
X164901691Y-92900800D01*
X164869985Y-92897677D01*
X164841894Y-92889156D01*
X164816002Y-92875316D01*
X164793308Y-92856692D01*
X164774684Y-92833998D01*
X164760844Y-92808106D01*
X164752323Y-92780015D01*
X164749200Y-92748309D01*
X164749200Y-90951691D01*
X164752323Y-90919985D01*
X164760844Y-90891894D01*
X164774684Y-90866002D01*
X164793308Y-90843308D01*
X164816002Y-90824684D01*
X164841894Y-90810844D01*
X164869985Y-90802323D01*
X164901691Y-90799200D01*
X165298309Y-90799200D01*
X165330015Y-90802323D01*
X165330015Y-90802323D01*
G37*
G36*
X166600015Y-90802323D02*
G01*
X166628106Y-90810844D01*
X166653998Y-90824684D01*
X166676692Y-90843308D01*
X166695316Y-90866002D01*
X166709156Y-90891894D01*
X166717677Y-90919985D01*
X166720800Y-90951691D01*
X166720800Y-92748309D01*
X166717677Y-92780015D01*
X166709156Y-92808106D01*
X166695316Y-92833998D01*
X166676692Y-92856692D01*
X166653998Y-92875316D01*
X166628106Y-92889156D01*
X166600015Y-92897677D01*
X166568309Y-92900800D01*
X166171691Y-92900800D01*
X166139985Y-92897677D01*
X166111894Y-92889156D01*
X166086002Y-92875316D01*
X166063308Y-92856692D01*
X166044684Y-92833998D01*
X166030844Y-92808106D01*
X166022323Y-92780015D01*
X166019200Y-92748309D01*
X166019200Y-90951691D01*
X166022323Y-90919985D01*
X166030844Y-90891894D01*
X166044684Y-90866002D01*
X166063308Y-90843308D01*
X166086002Y-90824684D01*
X166111894Y-90810844D01*
X166139985Y-90802323D01*
X166171691Y-90799200D01*
X166568309Y-90799200D01*
X166600015Y-90802323D01*
X166600015Y-90802323D01*
G37*
G36*
X167870015Y-90802323D02*
G01*
X167898106Y-90810844D01*
X167923998Y-90824684D01*
X167946692Y-90843308D01*
X167965316Y-90866002D01*
X167979156Y-90891894D01*
X167987677Y-90919985D01*
X167990800Y-90951691D01*
X167990800Y-92748309D01*
X167987677Y-92780015D01*
X167979156Y-92808106D01*
X167965316Y-92833998D01*
X167946692Y-92856692D01*
X167923998Y-92875316D01*
X167898106Y-92889156D01*
X167870015Y-92897677D01*
X167838309Y-92900800D01*
X167441691Y-92900800D01*
X167409985Y-92897677D01*
X167381894Y-92889156D01*
X167356002Y-92875316D01*
X167333308Y-92856692D01*
X167314684Y-92833998D01*
X167300844Y-92808106D01*
X167292323Y-92780015D01*
X167289200Y-92748309D01*
X167289200Y-90951691D01*
X167292323Y-90919985D01*
X167300844Y-90891894D01*
X167314684Y-90866002D01*
X167333308Y-90843308D01*
X167356002Y-90824684D01*
X167381894Y-90810844D01*
X167409985Y-90802323D01*
X167441691Y-90799200D01*
X167838309Y-90799200D01*
X167870015Y-90802323D01*
X167870015Y-90802323D01*
G37*
G36*
X151741015Y-90777323D02*
G01*
X151769106Y-90785844D01*
X151794998Y-90799684D01*
X151817692Y-90818308D01*
X151836316Y-90841002D01*
X151850156Y-90866894D01*
X151858677Y-90894985D01*
X151861800Y-90926691D01*
X151861800Y-92673309D01*
X151858677Y-92705015D01*
X151850156Y-92733106D01*
X151836316Y-92758998D01*
X151817692Y-92781692D01*
X151794998Y-92800316D01*
X151769106Y-92814156D01*
X151741015Y-92822677D01*
X151709309Y-92825800D01*
X151312691Y-92825800D01*
X151280985Y-92822677D01*
X151252894Y-92814156D01*
X151227002Y-92800316D01*
X151204308Y-92781692D01*
X151185684Y-92758998D01*
X151171844Y-92733106D01*
X151163323Y-92705015D01*
X151160200Y-92673309D01*
X151160200Y-90926691D01*
X151163323Y-90894985D01*
X151171844Y-90866894D01*
X151185684Y-90841002D01*
X151204308Y-90818308D01*
X151227002Y-90799684D01*
X151252894Y-90785844D01*
X151280985Y-90777323D01*
X151312691Y-90774200D01*
X151709309Y-90774200D01*
X151741015Y-90777323D01*
X151741015Y-90777323D01*
G37*
G36*
X153011015Y-90777323D02*
G01*
X153039106Y-90785844D01*
X153064998Y-90799684D01*
X153087692Y-90818308D01*
X153106316Y-90841002D01*
X153120156Y-90866894D01*
X153128677Y-90894985D01*
X153131800Y-90926691D01*
X153131800Y-92673309D01*
X153128677Y-92705015D01*
X153120156Y-92733106D01*
X153106316Y-92758998D01*
X153087692Y-92781692D01*
X153064998Y-92800316D01*
X153039106Y-92814156D01*
X153011015Y-92822677D01*
X152979309Y-92825800D01*
X152582691Y-92825800D01*
X152550985Y-92822677D01*
X152522894Y-92814156D01*
X152497002Y-92800316D01*
X152474308Y-92781692D01*
X152455684Y-92758998D01*
X152441844Y-92733106D01*
X152433323Y-92705015D01*
X152430200Y-92673309D01*
X152430200Y-90926691D01*
X152433323Y-90894985D01*
X152441844Y-90866894D01*
X152455684Y-90841002D01*
X152474308Y-90818308D01*
X152497002Y-90799684D01*
X152522894Y-90785844D01*
X152550985Y-90777323D01*
X152582691Y-90774200D01*
X152979309Y-90774200D01*
X153011015Y-90777323D01*
X153011015Y-90777323D01*
G37*
G36*
X154281015Y-90777323D02*
G01*
X154309106Y-90785844D01*
X154334998Y-90799684D01*
X154357692Y-90818308D01*
X154376316Y-90841002D01*
X154390156Y-90866894D01*
X154398677Y-90894985D01*
X154401800Y-90926691D01*
X154401800Y-92673309D01*
X154398677Y-92705015D01*
X154390156Y-92733106D01*
X154376316Y-92758998D01*
X154357692Y-92781692D01*
X154334998Y-92800316D01*
X154309106Y-92814156D01*
X154281015Y-92822677D01*
X154249309Y-92825800D01*
X153852691Y-92825800D01*
X153820985Y-92822677D01*
X153792894Y-92814156D01*
X153767002Y-92800316D01*
X153744308Y-92781692D01*
X153725684Y-92758998D01*
X153711844Y-92733106D01*
X153703323Y-92705015D01*
X153700200Y-92673309D01*
X153700200Y-90926691D01*
X153703323Y-90894985D01*
X153711844Y-90866894D01*
X153725684Y-90841002D01*
X153744308Y-90818308D01*
X153767002Y-90799684D01*
X153792894Y-90785844D01*
X153820985Y-90777323D01*
X153852691Y-90774200D01*
X154249309Y-90774200D01*
X154281015Y-90777323D01*
X154281015Y-90777323D01*
G37*
G36*
X155551015Y-90777323D02*
G01*
X155579106Y-90785844D01*
X155604998Y-90799684D01*
X155627692Y-90818308D01*
X155646316Y-90841002D01*
X155660156Y-90866894D01*
X155668677Y-90894985D01*
X155671800Y-90926691D01*
X155671800Y-92673309D01*
X155668677Y-92705015D01*
X155660156Y-92733106D01*
X155646316Y-92758998D01*
X155627692Y-92781692D01*
X155604998Y-92800316D01*
X155579106Y-92814156D01*
X155551015Y-92822677D01*
X155519309Y-92825800D01*
X155122691Y-92825800D01*
X155090985Y-92822677D01*
X155062894Y-92814156D01*
X155037002Y-92800316D01*
X155014308Y-92781692D01*
X154995684Y-92758998D01*
X154981844Y-92733106D01*
X154973323Y-92705015D01*
X154970200Y-92673309D01*
X154970200Y-90926691D01*
X154973323Y-90894985D01*
X154981844Y-90866894D01*
X154995684Y-90841002D01*
X155014308Y-90818308D01*
X155037002Y-90799684D01*
X155062894Y-90785844D01*
X155090985Y-90777323D01*
X155122691Y-90774200D01*
X155519309Y-90774200D01*
X155551015Y-90777323D01*
X155551015Y-90777323D01*
G37*
G36*
X141042267Y-90873391D02*
G01*
X141063412Y-90879805D01*
X141227152Y-90929475D01*
X141397539Y-91020549D01*
X141546886Y-91143114D01*
X141669451Y-91292461D01*
X141760525Y-91462848D01*
X141810195Y-91626588D01*
X141816609Y-91647733D01*
X141835546Y-91840000D01*
X141816609Y-92032267D01*
X141816608Y-92032270D01*
X141760525Y-92217152D01*
X141669451Y-92387539D01*
X141546886Y-92536886D01*
X141397539Y-92659451D01*
X141227152Y-92750525D01*
X141088702Y-92792523D01*
X141042267Y-92806609D01*
X140898183Y-92820800D01*
X140801817Y-92820800D01*
X140657733Y-92806609D01*
X140611298Y-92792523D01*
X140472848Y-92750525D01*
X140302461Y-92659451D01*
X140153114Y-92536886D01*
X140030549Y-92387539D01*
X139939475Y-92217152D01*
X139883392Y-92032270D01*
X139883391Y-92032267D01*
X139864454Y-91840000D01*
X139883391Y-91647733D01*
X139889805Y-91626588D01*
X139939475Y-91462848D01*
X140030549Y-91292461D01*
X140153114Y-91143114D01*
X140302461Y-91020549D01*
X140472848Y-90929475D01*
X140636588Y-90879805D01*
X140657733Y-90873391D01*
X140801817Y-90859200D01*
X140898183Y-90859200D01*
X141042267Y-90873391D01*
X141042267Y-90873391D01*
G37*
G36*
X144492267Y-90873391D02*
G01*
X144513412Y-90879805D01*
X144677152Y-90929475D01*
X144847539Y-91020549D01*
X144996886Y-91143114D01*
X145119451Y-91292461D01*
X145210525Y-91462848D01*
X145260195Y-91626588D01*
X145266609Y-91647733D01*
X145285546Y-91840000D01*
X145266609Y-92032267D01*
X145266608Y-92032270D01*
X145210525Y-92217152D01*
X145119451Y-92387539D01*
X144996886Y-92536886D01*
X144847539Y-92659451D01*
X144677152Y-92750525D01*
X144538702Y-92792523D01*
X144492267Y-92806609D01*
X144348183Y-92820800D01*
X144251817Y-92820800D01*
X144107733Y-92806609D01*
X144061298Y-92792523D01*
X143922848Y-92750525D01*
X143752461Y-92659451D01*
X143603114Y-92536886D01*
X143480549Y-92387539D01*
X143389475Y-92217152D01*
X143333392Y-92032270D01*
X143333391Y-92032267D01*
X143314454Y-91840000D01*
X143333391Y-91647733D01*
X143339805Y-91626588D01*
X143389475Y-91462848D01*
X143480549Y-91292461D01*
X143603114Y-91143114D01*
X143752461Y-91020549D01*
X143922848Y-90929475D01*
X144086588Y-90879805D01*
X144107733Y-90873391D01*
X144251817Y-90859200D01*
X144348183Y-90859200D01*
X144492267Y-90873391D01*
X144492267Y-90873391D01*
G37*
G36*
X170838634Y-89173651D02*
G01*
X170904109Y-89193513D01*
X170964445Y-89225763D01*
X171017333Y-89269167D01*
X171060737Y-89322055D01*
X171092987Y-89382391D01*
X171112849Y-89447866D01*
X171119800Y-89518442D01*
X171119800Y-90313558D01*
X171112849Y-90384134D01*
X171092987Y-90449609D01*
X171060737Y-90509945D01*
X171017333Y-90562833D01*
X170964445Y-90606237D01*
X170904109Y-90638487D01*
X170838634Y-90658349D01*
X170768058Y-90665300D01*
X169591942Y-90665300D01*
X169521366Y-90658349D01*
X169455891Y-90638487D01*
X169395555Y-90606237D01*
X169342667Y-90562833D01*
X169299263Y-90509945D01*
X169267013Y-90449609D01*
X169247151Y-90384134D01*
X169240200Y-90313558D01*
X169240200Y-89518442D01*
X169247151Y-89447866D01*
X169267013Y-89382391D01*
X169299263Y-89322055D01*
X169342667Y-89269167D01*
X169395555Y-89225763D01*
X169455891Y-89193513D01*
X169521366Y-89173651D01*
X169591942Y-89166700D01*
X170768058Y-89166700D01*
X170838634Y-89173651D01*
X170838634Y-89173651D01*
G37*
G36*
X143048666Y-89894637D02*
G01*
X143048669Y-89894638D01*
X143048670Y-89894638D01*
X143119508Y-89916126D01*
X143184793Y-89951022D01*
X143184795Y-89951023D01*
X143184794Y-89951023D01*
X143242017Y-89997983D01*
X143284767Y-90050075D01*
X143288978Y-90055207D01*
X143323874Y-90120492D01*
X143323874Y-90120493D01*
X143345363Y-90191334D01*
X143352619Y-90265000D01*
X143345363Y-90338666D01*
X143345362Y-90338669D01*
X143345362Y-90338670D01*
X143323874Y-90409508D01*
X143288978Y-90474793D01*
X143288977Y-90474794D01*
X143242017Y-90532017D01*
X143204466Y-90562833D01*
X143184793Y-90578978D01*
X143119508Y-90613874D01*
X143048670Y-90635362D01*
X143048669Y-90635362D01*
X143048666Y-90635363D01*
X142993463Y-90640800D01*
X142956537Y-90640800D01*
X142901334Y-90635363D01*
X142901331Y-90635362D01*
X142901330Y-90635362D01*
X142830492Y-90613874D01*
X142765207Y-90578978D01*
X142745534Y-90562833D01*
X142707983Y-90532017D01*
X142661023Y-90474794D01*
X142661022Y-90474793D01*
X142626126Y-90409508D01*
X142604638Y-90338670D01*
X142604638Y-90338669D01*
X142604637Y-90338666D01*
X142597381Y-90265000D01*
X142604637Y-90191334D01*
X142626126Y-90120493D01*
X142626126Y-90120492D01*
X142661022Y-90055207D01*
X142665233Y-90050076D01*
X142707983Y-89997983D01*
X142765206Y-89951023D01*
X142765205Y-89951023D01*
X142765207Y-89951022D01*
X142830492Y-89916126D01*
X142901330Y-89894638D01*
X142901331Y-89894638D01*
X142901334Y-89894637D01*
X142956537Y-89889200D01*
X142993463Y-89889200D01*
X143048666Y-89894637D01*
X143048666Y-89894637D01*
G37*
G36*
X158467398Y-89440724D02*
G01*
X158518943Y-89456360D01*
X158566449Y-89481753D01*
X158608081Y-89515919D01*
X158642247Y-89557551D01*
X158667640Y-89605057D01*
X158683276Y-89656602D01*
X158688800Y-89712691D01*
X158688800Y-90359309D01*
X158683276Y-90415398D01*
X158667640Y-90466943D01*
X158642247Y-90514449D01*
X158608081Y-90556081D01*
X158566449Y-90590247D01*
X158518943Y-90615640D01*
X158467398Y-90631276D01*
X158411309Y-90636800D01*
X157564691Y-90636800D01*
X157508602Y-90631276D01*
X157457057Y-90615640D01*
X157409551Y-90590247D01*
X157367919Y-90556081D01*
X157333753Y-90514449D01*
X157308360Y-90466943D01*
X157292724Y-90415398D01*
X157287200Y-90359309D01*
X157287200Y-89712691D01*
X157292724Y-89656602D01*
X157308360Y-89605057D01*
X157333753Y-89557551D01*
X157367919Y-89515919D01*
X157409551Y-89481753D01*
X157457057Y-89456360D01*
X157508602Y-89440724D01*
X157564691Y-89435200D01*
X158411309Y-89435200D01*
X158467398Y-89440724D01*
X158467398Y-89440724D01*
G37*
G36*
X149991153Y-89095685D02*
G01*
X150052077Y-89114166D01*
X150108228Y-89144180D01*
X150157436Y-89184564D01*
X150197820Y-89233772D01*
X150227834Y-89289923D01*
X150246315Y-89350847D01*
X150252800Y-89416692D01*
X150252800Y-90163308D01*
X150246315Y-90229153D01*
X150227834Y-90290077D01*
X150197820Y-90346228D01*
X150157436Y-90395436D01*
X150108228Y-90435820D01*
X150052077Y-90465834D01*
X149991153Y-90484315D01*
X149925308Y-90490800D01*
X148778692Y-90490800D01*
X148712847Y-90484315D01*
X148651923Y-90465834D01*
X148595772Y-90435820D01*
X148546564Y-90395436D01*
X148506180Y-90346228D01*
X148476166Y-90290077D01*
X148457685Y-90229153D01*
X148451200Y-90163308D01*
X148451200Y-89416692D01*
X148457685Y-89350847D01*
X148476166Y-89289923D01*
X148506180Y-89233772D01*
X148546564Y-89184564D01*
X148595772Y-89144180D01*
X148651923Y-89114166D01*
X148712847Y-89095685D01*
X148778692Y-89089200D01*
X149925308Y-89089200D01*
X149991153Y-89095685D01*
X149991153Y-89095685D01*
G37*
G36*
X144548929Y-89319018D02*
G01*
X144595977Y-89333290D01*
X144639337Y-89356466D01*
X144677342Y-89387657D01*
X144708533Y-89425662D01*
X144731709Y-89469022D01*
X144745981Y-89516070D01*
X144750800Y-89564999D01*
X144750800Y-89565001D01*
X144745981Y-89613930D01*
X144731709Y-89660978D01*
X144708533Y-89704338D01*
X144677342Y-89742343D01*
X144639337Y-89773534D01*
X144595977Y-89796710D01*
X144548929Y-89810982D01*
X144500000Y-89815801D01*
X143300000Y-89815801D01*
X143251071Y-89810982D01*
X143204023Y-89796710D01*
X143160663Y-89773534D01*
X143122658Y-89742343D01*
X143091467Y-89704338D01*
X143068291Y-89660978D01*
X143054019Y-89613930D01*
X143049200Y-89565001D01*
X143049200Y-89564999D01*
X143054019Y-89516070D01*
X143068291Y-89469022D01*
X143091467Y-89425662D01*
X143122658Y-89387657D01*
X143160663Y-89356466D01*
X143204023Y-89333290D01*
X143251071Y-89319018D01*
X143300000Y-89314199D01*
X144500000Y-89314199D01*
X144548929Y-89319018D01*
X144548929Y-89319018D01*
G37*
G36*
X144670257Y-88666362D02*
G01*
X144688976Y-88672040D01*
X144706222Y-88681259D01*
X144721337Y-88693663D01*
X144733741Y-88708778D01*
X144742960Y-88726024D01*
X144748638Y-88744743D01*
X144750800Y-88766693D01*
X144750800Y-89063307D01*
X144748638Y-89085257D01*
X144742960Y-89103976D01*
X144733741Y-89121222D01*
X144721337Y-89136337D01*
X144706222Y-89148741D01*
X144688976Y-89157960D01*
X144670257Y-89163638D01*
X144648307Y-89165800D01*
X143151693Y-89165800D01*
X143129743Y-89163638D01*
X143111024Y-89157960D01*
X143093778Y-89148741D01*
X143078663Y-89136337D01*
X143066259Y-89121222D01*
X143057040Y-89103976D01*
X143051362Y-89085257D01*
X143049200Y-89063307D01*
X143049200Y-88766693D01*
X143051362Y-88744743D01*
X143057040Y-88726024D01*
X143066259Y-88708778D01*
X143078663Y-88693663D01*
X143093778Y-88681259D01*
X143111024Y-88672040D01*
X143129743Y-88666362D01*
X143151693Y-88664200D01*
X144648307Y-88664200D01*
X144670257Y-88666362D01*
X144670257Y-88666362D01*
G37*
G36*
X149991153Y-87315685D02*
G01*
X150052077Y-87334166D01*
X150108228Y-87364180D01*
X150157436Y-87404564D01*
X150197820Y-87453772D01*
X150227834Y-87509923D01*
X150246315Y-87570847D01*
X150252800Y-87636692D01*
X150252800Y-88383308D01*
X150246315Y-88449153D01*
X150227834Y-88510077D01*
X150197820Y-88566228D01*
X150157436Y-88615436D01*
X150108228Y-88655820D01*
X150052077Y-88685834D01*
X149991153Y-88704315D01*
X149925308Y-88710800D01*
X148778692Y-88710800D01*
X148712847Y-88704315D01*
X148651923Y-88685834D01*
X148595772Y-88655820D01*
X148546564Y-88615436D01*
X148506180Y-88566228D01*
X148476166Y-88510077D01*
X148457685Y-88449153D01*
X148451200Y-88383308D01*
X148451200Y-87636692D01*
X148457685Y-87570847D01*
X148476166Y-87509923D01*
X148506180Y-87453772D01*
X148546564Y-87404564D01*
X148595772Y-87364180D01*
X148651923Y-87334166D01*
X148712847Y-87315685D01*
X148778692Y-87309200D01*
X149925308Y-87309200D01*
X149991153Y-87315685D01*
X149991153Y-87315685D01*
G37*
G36*
X170517385Y-87177541D02*
G01*
X170517388Y-87177542D01*
X170658632Y-87220388D01*
X170702655Y-87243919D01*
X170788802Y-87289965D01*
X170902899Y-87383601D01*
X170996535Y-87497698D01*
X171031323Y-87562782D01*
X171066112Y-87627868D01*
X171100248Y-87740400D01*
X171108959Y-87769115D01*
X171123426Y-87916000D01*
X171108959Y-88062885D01*
X171108958Y-88062888D01*
X171066112Y-88204132D01*
X171066111Y-88204133D01*
X170996535Y-88334302D01*
X170902899Y-88448399D01*
X170788802Y-88542035D01*
X170723717Y-88576823D01*
X170658632Y-88611612D01*
X170533538Y-88649559D01*
X170517385Y-88654459D01*
X170407312Y-88665300D01*
X169952688Y-88665300D01*
X169842615Y-88654459D01*
X169826462Y-88649559D01*
X169701368Y-88611612D01*
X169636282Y-88576823D01*
X169571198Y-88542035D01*
X169457101Y-88448399D01*
X169363465Y-88334302D01*
X169293889Y-88204133D01*
X169293888Y-88204132D01*
X169251042Y-88062888D01*
X169251041Y-88062885D01*
X169236574Y-87916000D01*
X169251041Y-87769115D01*
X169259752Y-87740400D01*
X169293888Y-87627868D01*
X169328677Y-87562783D01*
X169363465Y-87497698D01*
X169457101Y-87383601D01*
X169571198Y-87289965D01*
X169657345Y-87243919D01*
X169701368Y-87220388D01*
X169842612Y-87177542D01*
X169842615Y-87177541D01*
X169952688Y-87166700D01*
X170407312Y-87166700D01*
X170517385Y-87177541D01*
X170517385Y-87177541D01*
G37*
G36*
X144670257Y-88016362D02*
G01*
X144688976Y-88022040D01*
X144706222Y-88031259D01*
X144721337Y-88043663D01*
X144733741Y-88058778D01*
X144742960Y-88076024D01*
X144748638Y-88094743D01*
X144750800Y-88116693D01*
X144750800Y-88413307D01*
X144748638Y-88435257D01*
X144742960Y-88453976D01*
X144733741Y-88471222D01*
X144721337Y-88486337D01*
X144706222Y-88498741D01*
X144688976Y-88507960D01*
X144670257Y-88513638D01*
X144648307Y-88515800D01*
X143151693Y-88515800D01*
X143129743Y-88513638D01*
X143111024Y-88507960D01*
X143093778Y-88498741D01*
X143078663Y-88486337D01*
X143066259Y-88471222D01*
X143057040Y-88453976D01*
X143051362Y-88435257D01*
X143049200Y-88413307D01*
X143049200Y-88116693D01*
X143051362Y-88094743D01*
X143057040Y-88076024D01*
X143066259Y-88058778D01*
X143078663Y-88043663D01*
X143093778Y-88031259D01*
X143111024Y-88022040D01*
X143129743Y-88016362D01*
X143151693Y-88014200D01*
X144648307Y-88014200D01*
X144670257Y-88016362D01*
X144670257Y-88016362D01*
G37*
G36*
X158467398Y-87168724D02*
G01*
X158518943Y-87184360D01*
X158566449Y-87209753D01*
X158608081Y-87243919D01*
X158642247Y-87285551D01*
X158667640Y-87333057D01*
X158683276Y-87384602D01*
X158688800Y-87440691D01*
X158688800Y-88087309D01*
X158683276Y-88143398D01*
X158667640Y-88194943D01*
X158642247Y-88242449D01*
X158608081Y-88284081D01*
X158566449Y-88318247D01*
X158518943Y-88343640D01*
X158467398Y-88359276D01*
X158411309Y-88364800D01*
X157564691Y-88364800D01*
X157508602Y-88359276D01*
X157457057Y-88343640D01*
X157409551Y-88318247D01*
X157367919Y-88284081D01*
X157333753Y-88242449D01*
X157308360Y-88194943D01*
X157292724Y-88143398D01*
X157287200Y-88087309D01*
X157287200Y-87440691D01*
X157292724Y-87384602D01*
X157308360Y-87333057D01*
X157333753Y-87285551D01*
X157367919Y-87243919D01*
X157409551Y-87209753D01*
X157457057Y-87184360D01*
X157508602Y-87168724D01*
X157564691Y-87163200D01*
X158411309Y-87163200D01*
X158467398Y-87168724D01*
X158467398Y-87168724D01*
G37*
G36*
X147418398Y-86914724D02*
G01*
X147469943Y-86930360D01*
X147517449Y-86955753D01*
X147559081Y-86989919D01*
X147593247Y-87031551D01*
X147618640Y-87079057D01*
X147634276Y-87130602D01*
X147639800Y-87186691D01*
X147639800Y-87833309D01*
X147634276Y-87889398D01*
X147618640Y-87940943D01*
X147593247Y-87988449D01*
X147559081Y-88030081D01*
X147517449Y-88064247D01*
X147469943Y-88089640D01*
X147418398Y-88105276D01*
X147362309Y-88110800D01*
X146515691Y-88110800D01*
X146459602Y-88105276D01*
X146408057Y-88089640D01*
X146360551Y-88064247D01*
X146318919Y-88030081D01*
X146284753Y-87988449D01*
X146259360Y-87940943D01*
X146243724Y-87889398D01*
X146238200Y-87833309D01*
X146238200Y-87186691D01*
X146243724Y-87130602D01*
X146259360Y-87079057D01*
X146284753Y-87031551D01*
X146318919Y-86989919D01*
X146360551Y-86955753D01*
X146408057Y-86930360D01*
X146459602Y-86914724D01*
X146515691Y-86909200D01*
X147362309Y-86909200D01*
X147418398Y-86914724D01*
X147418398Y-86914724D01*
G37*
G36*
X144670257Y-87366362D02*
G01*
X144688976Y-87372040D01*
X144706222Y-87381259D01*
X144721337Y-87393663D01*
X144733741Y-87408778D01*
X144742960Y-87426024D01*
X144748638Y-87444743D01*
X144750800Y-87466693D01*
X144750800Y-87763307D01*
X144748638Y-87785257D01*
X144742960Y-87803976D01*
X144733741Y-87821222D01*
X144721337Y-87836337D01*
X144706222Y-87848741D01*
X144688976Y-87857960D01*
X144670257Y-87863638D01*
X144648307Y-87865800D01*
X143151693Y-87865800D01*
X143129743Y-87863638D01*
X143111024Y-87857960D01*
X143093778Y-87848741D01*
X143078663Y-87836337D01*
X143066259Y-87821222D01*
X143057040Y-87803976D01*
X143051362Y-87785257D01*
X143049200Y-87763307D01*
X143049200Y-87466693D01*
X143051362Y-87444743D01*
X143057040Y-87426024D01*
X143066259Y-87408778D01*
X143078663Y-87393663D01*
X143093778Y-87381259D01*
X143111024Y-87372040D01*
X143129743Y-87366362D01*
X143151693Y-87364200D01*
X144648307Y-87364200D01*
X144670257Y-87366362D01*
X144670257Y-87366362D01*
G37*
G36*
X144548929Y-86719018D02*
G01*
X144595977Y-86733290D01*
X144639337Y-86756466D01*
X144677342Y-86787657D01*
X144708533Y-86825662D01*
X144731709Y-86869022D01*
X144745981Y-86916070D01*
X144750800Y-86964999D01*
X144750800Y-86965001D01*
X144745981Y-87013930D01*
X144731709Y-87060978D01*
X144708533Y-87104338D01*
X144677342Y-87142343D01*
X144639337Y-87173534D01*
X144595977Y-87196710D01*
X144548929Y-87210982D01*
X144500000Y-87215801D01*
X143300000Y-87215801D01*
X143251071Y-87210982D01*
X143204023Y-87196710D01*
X143160663Y-87173534D01*
X143122658Y-87142343D01*
X143091467Y-87104338D01*
X143068291Y-87060978D01*
X143054019Y-87013930D01*
X143049200Y-86965001D01*
X143049200Y-86964999D01*
X143054019Y-86916070D01*
X143068291Y-86869022D01*
X143091467Y-86825662D01*
X143122658Y-86787657D01*
X143160663Y-86756466D01*
X143204023Y-86733290D01*
X143251071Y-86719018D01*
X143300000Y-86714199D01*
X144500000Y-86714199D01*
X144548929Y-86719018D01*
X144548929Y-86719018D01*
G37*
G36*
X153011015Y-84977323D02*
G01*
X153039106Y-84985844D01*
X153064998Y-84999684D01*
X153087692Y-85018308D01*
X153106316Y-85041002D01*
X153120156Y-85066894D01*
X153128677Y-85094985D01*
X153131800Y-85126691D01*
X153131800Y-86873309D01*
X153128677Y-86905015D01*
X153120156Y-86933106D01*
X153106316Y-86958998D01*
X153087692Y-86981692D01*
X153064998Y-87000316D01*
X153039106Y-87014156D01*
X153011015Y-87022677D01*
X152979309Y-87025800D01*
X152582691Y-87025800D01*
X152550985Y-87022677D01*
X152522894Y-87014156D01*
X152497002Y-87000316D01*
X152474308Y-86981692D01*
X152455684Y-86958998D01*
X152441844Y-86933106D01*
X152433323Y-86905015D01*
X152430200Y-86873309D01*
X152430200Y-85126691D01*
X152433323Y-85094985D01*
X152441844Y-85066894D01*
X152455684Y-85041002D01*
X152474308Y-85018308D01*
X152497002Y-84999684D01*
X152522894Y-84985844D01*
X152550985Y-84977323D01*
X152582691Y-84974200D01*
X152979309Y-84974200D01*
X153011015Y-84977323D01*
X153011015Y-84977323D01*
G37*
G36*
X151741015Y-84977323D02*
G01*
X151769106Y-84985844D01*
X151794998Y-84999684D01*
X151817692Y-85018308D01*
X151836316Y-85041002D01*
X151850156Y-85066894D01*
X151858677Y-85094985D01*
X151861800Y-85126691D01*
X151861800Y-86873309D01*
X151858677Y-86905015D01*
X151850156Y-86933106D01*
X151836316Y-86958998D01*
X151817692Y-86981692D01*
X151794998Y-87000316D01*
X151769106Y-87014156D01*
X151741015Y-87022677D01*
X151709309Y-87025800D01*
X151312691Y-87025800D01*
X151280985Y-87022677D01*
X151252894Y-87014156D01*
X151227002Y-87000316D01*
X151204308Y-86981692D01*
X151185684Y-86958998D01*
X151171844Y-86933106D01*
X151163323Y-86905015D01*
X151160200Y-86873309D01*
X151160200Y-85126691D01*
X151163323Y-85094985D01*
X151171844Y-85066894D01*
X151185684Y-85041002D01*
X151204308Y-85018308D01*
X151227002Y-84999684D01*
X151252894Y-84985844D01*
X151280985Y-84977323D01*
X151312691Y-84974200D01*
X151709309Y-84974200D01*
X151741015Y-84977323D01*
X151741015Y-84977323D01*
G37*
G36*
X154281015Y-84977323D02*
G01*
X154309106Y-84985844D01*
X154334998Y-84999684D01*
X154357692Y-85018308D01*
X154376316Y-85041002D01*
X154390156Y-85066894D01*
X154398677Y-85094985D01*
X154401800Y-85126691D01*
X154401800Y-86873309D01*
X154398677Y-86905015D01*
X154390156Y-86933106D01*
X154376316Y-86958998D01*
X154357692Y-86981692D01*
X154334998Y-87000316D01*
X154309106Y-87014156D01*
X154281015Y-87022677D01*
X154249309Y-87025800D01*
X153852691Y-87025800D01*
X153820985Y-87022677D01*
X153792894Y-87014156D01*
X153767002Y-87000316D01*
X153744308Y-86981692D01*
X153725684Y-86958998D01*
X153711844Y-86933106D01*
X153703323Y-86905015D01*
X153700200Y-86873309D01*
X153700200Y-85126691D01*
X153703323Y-85094985D01*
X153711844Y-85066894D01*
X153725684Y-85041002D01*
X153744308Y-85018308D01*
X153767002Y-84999684D01*
X153792894Y-84985844D01*
X153820985Y-84977323D01*
X153852691Y-84974200D01*
X154249309Y-84974200D01*
X154281015Y-84977323D01*
X154281015Y-84977323D01*
G37*
G36*
X155551015Y-84977323D02*
G01*
X155579106Y-84985844D01*
X155604998Y-84999684D01*
X155627692Y-85018308D01*
X155646316Y-85041002D01*
X155660156Y-85066894D01*
X155668677Y-85094985D01*
X155671800Y-85126691D01*
X155671800Y-86873309D01*
X155668677Y-86905015D01*
X155660156Y-86933106D01*
X155646316Y-86958998D01*
X155627692Y-86981692D01*
X155604998Y-87000316D01*
X155579106Y-87014156D01*
X155551015Y-87022677D01*
X155519309Y-87025800D01*
X155122691Y-87025800D01*
X155090985Y-87022677D01*
X155062894Y-87014156D01*
X155037002Y-87000316D01*
X155014308Y-86981692D01*
X154995684Y-86958998D01*
X154981844Y-86933106D01*
X154973323Y-86905015D01*
X154970200Y-86873309D01*
X154970200Y-85126691D01*
X154973323Y-85094985D01*
X154981844Y-85066894D01*
X154995684Y-85041002D01*
X155014308Y-85018308D01*
X155037002Y-84999684D01*
X155062894Y-84985844D01*
X155090985Y-84977323D01*
X155122691Y-84974200D01*
X155519309Y-84974200D01*
X155551015Y-84977323D01*
X155551015Y-84977323D01*
G37*
G36*
X162790015Y-84902323D02*
G01*
X162818106Y-84910844D01*
X162843998Y-84924684D01*
X162866692Y-84943308D01*
X162885316Y-84966002D01*
X162899156Y-84991894D01*
X162907677Y-85019985D01*
X162910800Y-85051691D01*
X162910800Y-86848309D01*
X162907677Y-86880015D01*
X162899156Y-86908106D01*
X162885316Y-86933998D01*
X162866692Y-86956692D01*
X162843998Y-86975316D01*
X162818106Y-86989156D01*
X162790015Y-86997677D01*
X162758309Y-87000800D01*
X162361691Y-87000800D01*
X162329985Y-86997677D01*
X162301894Y-86989156D01*
X162276002Y-86975316D01*
X162253308Y-86956692D01*
X162234684Y-86933998D01*
X162220844Y-86908106D01*
X162212323Y-86880015D01*
X162209200Y-86848309D01*
X162209200Y-85051691D01*
X162212323Y-85019985D01*
X162220844Y-84991894D01*
X162234684Y-84966002D01*
X162253308Y-84943308D01*
X162276002Y-84924684D01*
X162301894Y-84910844D01*
X162329985Y-84902323D01*
X162361691Y-84899200D01*
X162758309Y-84899200D01*
X162790015Y-84902323D01*
X162790015Y-84902323D01*
G37*
G36*
X164060015Y-84902323D02*
G01*
X164088106Y-84910844D01*
X164113998Y-84924684D01*
X164136692Y-84943308D01*
X164155316Y-84966002D01*
X164169156Y-84991894D01*
X164177677Y-85019985D01*
X164180800Y-85051691D01*
X164180800Y-86848309D01*
X164177677Y-86880015D01*
X164169156Y-86908106D01*
X164155316Y-86933998D01*
X164136692Y-86956692D01*
X164113998Y-86975316D01*
X164088106Y-86989156D01*
X164060015Y-86997677D01*
X164028309Y-87000800D01*
X163631691Y-87000800D01*
X163599985Y-86997677D01*
X163571894Y-86989156D01*
X163546002Y-86975316D01*
X163523308Y-86956692D01*
X163504684Y-86933998D01*
X163490844Y-86908106D01*
X163482323Y-86880015D01*
X163479200Y-86848309D01*
X163479200Y-85051691D01*
X163482323Y-85019985D01*
X163490844Y-84991894D01*
X163504684Y-84966002D01*
X163523308Y-84943308D01*
X163546002Y-84924684D01*
X163571894Y-84910844D01*
X163599985Y-84902323D01*
X163631691Y-84899200D01*
X164028309Y-84899200D01*
X164060015Y-84902323D01*
X164060015Y-84902323D01*
G37*
G36*
X165330015Y-84902323D02*
G01*
X165358106Y-84910844D01*
X165383998Y-84924684D01*
X165406692Y-84943308D01*
X165425316Y-84966002D01*
X165439156Y-84991894D01*
X165447677Y-85019985D01*
X165450800Y-85051691D01*
X165450800Y-86848309D01*
X165447677Y-86880015D01*
X165439156Y-86908106D01*
X165425316Y-86933998D01*
X165406692Y-86956692D01*
X165383998Y-86975316D01*
X165358106Y-86989156D01*
X165330015Y-86997677D01*
X165298309Y-87000800D01*
X164901691Y-87000800D01*
X164869985Y-86997677D01*
X164841894Y-86989156D01*
X164816002Y-86975316D01*
X164793308Y-86956692D01*
X164774684Y-86933998D01*
X164760844Y-86908106D01*
X164752323Y-86880015D01*
X164749200Y-86848309D01*
X164749200Y-85051691D01*
X164752323Y-85019985D01*
X164760844Y-84991894D01*
X164774684Y-84966002D01*
X164793308Y-84943308D01*
X164816002Y-84924684D01*
X164841894Y-84910844D01*
X164869985Y-84902323D01*
X164901691Y-84899200D01*
X165298309Y-84899200D01*
X165330015Y-84902323D01*
X165330015Y-84902323D01*
G37*
G36*
X167870015Y-84902323D02*
G01*
X167898106Y-84910844D01*
X167923998Y-84924684D01*
X167946692Y-84943308D01*
X167965316Y-84966002D01*
X167979156Y-84991894D01*
X167987677Y-85019985D01*
X167990800Y-85051691D01*
X167990800Y-86848309D01*
X167987677Y-86880015D01*
X167979156Y-86908106D01*
X167965316Y-86933998D01*
X167946692Y-86956692D01*
X167923998Y-86975316D01*
X167898106Y-86989156D01*
X167870015Y-86997677D01*
X167838309Y-87000800D01*
X167441691Y-87000800D01*
X167409985Y-86997677D01*
X167381894Y-86989156D01*
X167356002Y-86975316D01*
X167333308Y-86956692D01*
X167314684Y-86933998D01*
X167300844Y-86908106D01*
X167292323Y-86880015D01*
X167289200Y-86848309D01*
X167289200Y-85051691D01*
X167292323Y-85019985D01*
X167300844Y-84991894D01*
X167314684Y-84966002D01*
X167333308Y-84943308D01*
X167356002Y-84924684D01*
X167381894Y-84910844D01*
X167409985Y-84902323D01*
X167441691Y-84899200D01*
X167838309Y-84899200D01*
X167870015Y-84902323D01*
X167870015Y-84902323D01*
G37*
G36*
X161520015Y-84902323D02*
G01*
X161548106Y-84910844D01*
X161573998Y-84924684D01*
X161596692Y-84943308D01*
X161615316Y-84966002D01*
X161629156Y-84991894D01*
X161637677Y-85019985D01*
X161640800Y-85051691D01*
X161640800Y-86848309D01*
X161637677Y-86880015D01*
X161629156Y-86908106D01*
X161615316Y-86933998D01*
X161596692Y-86956692D01*
X161573998Y-86975316D01*
X161548106Y-86989156D01*
X161520015Y-86997677D01*
X161488309Y-87000800D01*
X161091691Y-87000800D01*
X161059985Y-86997677D01*
X161031894Y-86989156D01*
X161006002Y-86975316D01*
X160983308Y-86956692D01*
X160964684Y-86933998D01*
X160950844Y-86908106D01*
X160942323Y-86880015D01*
X160939200Y-86848309D01*
X160939200Y-85051691D01*
X160942323Y-85019985D01*
X160950844Y-84991894D01*
X160964684Y-84966002D01*
X160983308Y-84943308D01*
X161006002Y-84924684D01*
X161031894Y-84910844D01*
X161059985Y-84902323D01*
X161091691Y-84899200D01*
X161488309Y-84899200D01*
X161520015Y-84902323D01*
X161520015Y-84902323D01*
G37*
G36*
X160250015Y-84902323D02*
G01*
X160278106Y-84910844D01*
X160303998Y-84924684D01*
X160326692Y-84943308D01*
X160345316Y-84966002D01*
X160359156Y-84991894D01*
X160367677Y-85019985D01*
X160370800Y-85051691D01*
X160370800Y-86848309D01*
X160367677Y-86880015D01*
X160359156Y-86908106D01*
X160345316Y-86933998D01*
X160326692Y-86956692D01*
X160303998Y-86975316D01*
X160278106Y-86989156D01*
X160250015Y-86997677D01*
X160218309Y-87000800D01*
X159821691Y-87000800D01*
X159789985Y-86997677D01*
X159761894Y-86989156D01*
X159736002Y-86975316D01*
X159713308Y-86956692D01*
X159694684Y-86933998D01*
X159680844Y-86908106D01*
X159672323Y-86880015D01*
X159669200Y-86848309D01*
X159669200Y-85051691D01*
X159672323Y-85019985D01*
X159680844Y-84991894D01*
X159694684Y-84966002D01*
X159713308Y-84943308D01*
X159736002Y-84924684D01*
X159761894Y-84910844D01*
X159789985Y-84902323D01*
X159821691Y-84899200D01*
X160218309Y-84899200D01*
X160250015Y-84902323D01*
X160250015Y-84902323D01*
G37*
G36*
X166600015Y-84902323D02*
G01*
X166628106Y-84910844D01*
X166653998Y-84924684D01*
X166676692Y-84943308D01*
X166695316Y-84966002D01*
X166709156Y-84991894D01*
X166717677Y-85019985D01*
X166720800Y-85051691D01*
X166720800Y-86848309D01*
X166717677Y-86880015D01*
X166709156Y-86908106D01*
X166695316Y-86933998D01*
X166676692Y-86956692D01*
X166653998Y-86975316D01*
X166628106Y-86989156D01*
X166600015Y-86997677D01*
X166568309Y-87000800D01*
X166171691Y-87000800D01*
X166139985Y-86997677D01*
X166111894Y-86989156D01*
X166086002Y-86975316D01*
X166063308Y-86956692D01*
X166044684Y-86933998D01*
X166030844Y-86908106D01*
X166022323Y-86880015D01*
X166019200Y-86848309D01*
X166019200Y-85051691D01*
X166022323Y-85019985D01*
X166030844Y-84991894D01*
X166044684Y-84966002D01*
X166063308Y-84943308D01*
X166086002Y-84924684D01*
X166111894Y-84910844D01*
X166139985Y-84902323D01*
X166171691Y-84899200D01*
X166568309Y-84899200D01*
X166600015Y-84902323D01*
X166600015Y-84902323D01*
G37*
G36*
X143048666Y-85894637D02*
G01*
X143048669Y-85894638D01*
X143048670Y-85894638D01*
X143119508Y-85916126D01*
X143184793Y-85951022D01*
X143184795Y-85951023D01*
X143184794Y-85951023D01*
X143242017Y-85997983D01*
X143279485Y-86043640D01*
X143288978Y-86055207D01*
X143323874Y-86120492D01*
X143323874Y-86120493D01*
X143345363Y-86191334D01*
X143352619Y-86265000D01*
X143345363Y-86338666D01*
X143345362Y-86338669D01*
X143345362Y-86338670D01*
X143323874Y-86409508D01*
X143288978Y-86474793D01*
X143288977Y-86474794D01*
X143242017Y-86532017D01*
X143189924Y-86574767D01*
X143184793Y-86578978D01*
X143119508Y-86613874D01*
X143048670Y-86635362D01*
X143048669Y-86635362D01*
X143048666Y-86635363D01*
X142993463Y-86640800D01*
X142956537Y-86640800D01*
X142901334Y-86635363D01*
X142901331Y-86635362D01*
X142901330Y-86635362D01*
X142830492Y-86613874D01*
X142765207Y-86578978D01*
X142760076Y-86574767D01*
X142707983Y-86532017D01*
X142661023Y-86474794D01*
X142661022Y-86474793D01*
X142626126Y-86409508D01*
X142604638Y-86338670D01*
X142604638Y-86338669D01*
X142604637Y-86338666D01*
X142597381Y-86265000D01*
X142604637Y-86191334D01*
X142626126Y-86120493D01*
X142626126Y-86120492D01*
X142661022Y-86055207D01*
X142670515Y-86043640D01*
X142707983Y-85997983D01*
X142765206Y-85951023D01*
X142765205Y-85951023D01*
X142765207Y-85951022D01*
X142830492Y-85916126D01*
X142901330Y-85894638D01*
X142901331Y-85894638D01*
X142901334Y-85894637D01*
X142956537Y-85889200D01*
X142993463Y-85889200D01*
X143048666Y-85894637D01*
X143048666Y-85894637D01*
G37*
G36*
X158467398Y-84868724D02*
G01*
X158518943Y-84884360D01*
X158566449Y-84909753D01*
X158608081Y-84943919D01*
X158642247Y-84985551D01*
X158667640Y-85033057D01*
X158683276Y-85084602D01*
X158688800Y-85140691D01*
X158688800Y-85787309D01*
X158683276Y-85843398D01*
X158667640Y-85894943D01*
X158642247Y-85942449D01*
X158608081Y-85984081D01*
X158566449Y-86018247D01*
X158518943Y-86043640D01*
X158467398Y-86059276D01*
X158411309Y-86064800D01*
X157564691Y-86064800D01*
X157508602Y-86059276D01*
X157457057Y-86043640D01*
X157409551Y-86018247D01*
X157367919Y-85984081D01*
X157333753Y-85942449D01*
X157308360Y-85894943D01*
X157292724Y-85843398D01*
X157287200Y-85787309D01*
X157287200Y-85140691D01*
X157292724Y-85084602D01*
X157308360Y-85033057D01*
X157333753Y-84985551D01*
X157367919Y-84943919D01*
X157409551Y-84909753D01*
X157457057Y-84884360D01*
X157508602Y-84868724D01*
X157564691Y-84863200D01*
X158411309Y-84863200D01*
X158467398Y-84868724D01*
X158467398Y-84868724D01*
G37*
G36*
X147418398Y-84614724D02*
G01*
X147469943Y-84630360D01*
X147517449Y-84655753D01*
X147559081Y-84689919D01*
X147593247Y-84731551D01*
X147618640Y-84779057D01*
X147634276Y-84830602D01*
X147639800Y-84886691D01*
X147639800Y-85533309D01*
X147634276Y-85589398D01*
X147618640Y-85640943D01*
X147593247Y-85688449D01*
X147559081Y-85730081D01*
X147517449Y-85764247D01*
X147469943Y-85789640D01*
X147418398Y-85805276D01*
X147362309Y-85810800D01*
X146515691Y-85810800D01*
X146459602Y-85805276D01*
X146408057Y-85789640D01*
X146360551Y-85764247D01*
X146318919Y-85730081D01*
X146284753Y-85688449D01*
X146259360Y-85640943D01*
X146243724Y-85589398D01*
X146238200Y-85533309D01*
X146238200Y-84886691D01*
X146243724Y-84830602D01*
X146259360Y-84779057D01*
X146284753Y-84731551D01*
X146318919Y-84689919D01*
X146360551Y-84655753D01*
X146408057Y-84630360D01*
X146459602Y-84614724D01*
X146515691Y-84609200D01*
X147362309Y-84609200D01*
X147418398Y-84614724D01*
X147418398Y-84614724D01*
G37*
G36*
X144492267Y-83723391D02*
G01*
X144492270Y-83723392D01*
X144677152Y-83779475D01*
X144847539Y-83870549D01*
X144996886Y-83993114D01*
X145119451Y-84142461D01*
X145210525Y-84312848D01*
X145260195Y-84476588D01*
X145266609Y-84497733D01*
X145285546Y-84690000D01*
X145266609Y-84882267D01*
X145266608Y-84882270D01*
X145210525Y-85067152D01*
X145119451Y-85237539D01*
X144996886Y-85386886D01*
X144847539Y-85509451D01*
X144677152Y-85600525D01*
X144513412Y-85650195D01*
X144492267Y-85656609D01*
X144348183Y-85670800D01*
X144251817Y-85670800D01*
X144107733Y-85656609D01*
X144086588Y-85650195D01*
X143922848Y-85600525D01*
X143752461Y-85509451D01*
X143603114Y-85386886D01*
X143480549Y-85237539D01*
X143389475Y-85067152D01*
X143333392Y-84882270D01*
X143333391Y-84882267D01*
X143314454Y-84690000D01*
X143333391Y-84497733D01*
X143339805Y-84476588D01*
X143389475Y-84312848D01*
X143480549Y-84142461D01*
X143603114Y-83993114D01*
X143752461Y-83870549D01*
X143922848Y-83779475D01*
X144107730Y-83723392D01*
X144107733Y-83723391D01*
X144251817Y-83709200D01*
X144348183Y-83709200D01*
X144492267Y-83723391D01*
X144492267Y-83723391D01*
G37*
G36*
X141042267Y-83723391D02*
G01*
X141042270Y-83723392D01*
X141227152Y-83779475D01*
X141397539Y-83870549D01*
X141546886Y-83993114D01*
X141669451Y-84142461D01*
X141760525Y-84312848D01*
X141810195Y-84476588D01*
X141816609Y-84497733D01*
X141835546Y-84690000D01*
X141816609Y-84882267D01*
X141816608Y-84882270D01*
X141760525Y-85067152D01*
X141669451Y-85237539D01*
X141546886Y-85386886D01*
X141397539Y-85509451D01*
X141227152Y-85600525D01*
X141063412Y-85650195D01*
X141042267Y-85656609D01*
X140898183Y-85670800D01*
X140801817Y-85670800D01*
X140657733Y-85656609D01*
X140636588Y-85650195D01*
X140472848Y-85600525D01*
X140302461Y-85509451D01*
X140153114Y-85386886D01*
X140030549Y-85237539D01*
X139939475Y-85067152D01*
X139883392Y-84882270D01*
X139883391Y-84882267D01*
X139864454Y-84690000D01*
X139883391Y-84497733D01*
X139889805Y-84476588D01*
X139939475Y-84312848D01*
X140030549Y-84142461D01*
X140153114Y-83993114D01*
X140302461Y-83870549D01*
X140472848Y-83779475D01*
X140657730Y-83723392D01*
X140657733Y-83723391D01*
X140801817Y-83709200D01*
X140898183Y-83709200D01*
X141042267Y-83723391D01*
X141042267Y-83723391D01*
G37*
G36*
X149991153Y-84015685D02*
G01*
X150052077Y-84034166D01*
X150108228Y-84064180D01*
X150157436Y-84104564D01*
X150197820Y-84153772D01*
X150227834Y-84209923D01*
X150246315Y-84270847D01*
X150252800Y-84336692D01*
X150252800Y-85083308D01*
X150246315Y-85149153D01*
X150227834Y-85210077D01*
X150197820Y-85266228D01*
X150157436Y-85315436D01*
X150108228Y-85355820D01*
X150052077Y-85385834D01*
X149991153Y-85404315D01*
X149925308Y-85410800D01*
X148778692Y-85410800D01*
X148712847Y-85404315D01*
X148651923Y-85385834D01*
X148595772Y-85355820D01*
X148546564Y-85315436D01*
X148506180Y-85266228D01*
X148476166Y-85210077D01*
X148457685Y-85149153D01*
X148451200Y-85083308D01*
X148451200Y-84336692D01*
X148457685Y-84270847D01*
X148476166Y-84209923D01*
X148506180Y-84153772D01*
X148546564Y-84104564D01*
X148595772Y-84064180D01*
X148651923Y-84034166D01*
X148712847Y-84015685D01*
X148778692Y-84009200D01*
X149925308Y-84009200D01*
X149991153Y-84015685D01*
X149991153Y-84015685D01*
G37*
G36*
X161848662Y-81657606D02*
G01*
X161928345Y-81681778D01*
X162001785Y-81721033D01*
X162066147Y-81773853D01*
X162118967Y-81838215D01*
X162158222Y-81911655D01*
X162182394Y-81991338D01*
X162190800Y-82076691D01*
X162190800Y-83023309D01*
X162182394Y-83108662D01*
X162158222Y-83188345D01*
X162118967Y-83261785D01*
X162066147Y-83326147D01*
X162001785Y-83378967D01*
X161928345Y-83418222D01*
X161848662Y-83442394D01*
X161763309Y-83450800D01*
X160816691Y-83450800D01*
X160731338Y-83442394D01*
X160651655Y-83418222D01*
X160578215Y-83378967D01*
X160513853Y-83326147D01*
X160461033Y-83261785D01*
X160421778Y-83188345D01*
X160397606Y-83108662D01*
X160389200Y-83023309D01*
X160389200Y-82076691D01*
X160397606Y-81991338D01*
X160421778Y-81911655D01*
X160461033Y-81838215D01*
X160513853Y-81773853D01*
X160578215Y-81721033D01*
X160651655Y-81681778D01*
X160731338Y-81657606D01*
X160816691Y-81649200D01*
X161763309Y-81649200D01*
X161848662Y-81657606D01*
X161848662Y-81657606D01*
G37*
G36*
X164388662Y-81657606D02*
G01*
X164468345Y-81681778D01*
X164541785Y-81721033D01*
X164606147Y-81773853D01*
X164658967Y-81838215D01*
X164698222Y-81911655D01*
X164722394Y-81991338D01*
X164730800Y-82076691D01*
X164730800Y-83023309D01*
X164722394Y-83108662D01*
X164698222Y-83188345D01*
X164658967Y-83261785D01*
X164606147Y-83326147D01*
X164541785Y-83378967D01*
X164468345Y-83418222D01*
X164388662Y-83442394D01*
X164303309Y-83450800D01*
X163356691Y-83450800D01*
X163271338Y-83442394D01*
X163191655Y-83418222D01*
X163118215Y-83378967D01*
X163053853Y-83326147D01*
X163001033Y-83261785D01*
X162961778Y-83188345D01*
X162937606Y-83108662D01*
X162929200Y-83023309D01*
X162929200Y-82076691D01*
X162937606Y-81991338D01*
X162961778Y-81911655D01*
X163001033Y-81838215D01*
X163053853Y-81773853D01*
X163118215Y-81721033D01*
X163191655Y-81681778D01*
X163271338Y-81657606D01*
X163356691Y-81649200D01*
X164303309Y-81649200D01*
X164388662Y-81657606D01*
X164388662Y-81657606D01*
G37*
G36*
X156768662Y-81657606D02*
G01*
X156848345Y-81681778D01*
X156921785Y-81721033D01*
X156986147Y-81773853D01*
X157038967Y-81838215D01*
X157078222Y-81911655D01*
X157102394Y-81991338D01*
X157110800Y-82076691D01*
X157110800Y-83023309D01*
X157102394Y-83108662D01*
X157078222Y-83188345D01*
X157038967Y-83261785D01*
X156986147Y-83326147D01*
X156921785Y-83378967D01*
X156848345Y-83418222D01*
X156768662Y-83442394D01*
X156683309Y-83450800D01*
X155736691Y-83450800D01*
X155651338Y-83442394D01*
X155571655Y-83418222D01*
X155498215Y-83378967D01*
X155433853Y-83326147D01*
X155381033Y-83261785D01*
X155341778Y-83188345D01*
X155317606Y-83108662D01*
X155309200Y-83023309D01*
X155309200Y-82076691D01*
X155317606Y-81991338D01*
X155341778Y-81911655D01*
X155381033Y-81838215D01*
X155433853Y-81773853D01*
X155498215Y-81721033D01*
X155571655Y-81681778D01*
X155651338Y-81657606D01*
X155736691Y-81649200D01*
X156683309Y-81649200D01*
X156768662Y-81657606D01*
X156768662Y-81657606D01*
G37*
G36*
X169468662Y-81657606D02*
G01*
X169548345Y-81681778D01*
X169621785Y-81721033D01*
X169686147Y-81773853D01*
X169738967Y-81838215D01*
X169778222Y-81911655D01*
X169802394Y-81991338D01*
X169810800Y-82076691D01*
X169810800Y-83023309D01*
X169802394Y-83108662D01*
X169778222Y-83188345D01*
X169738967Y-83261785D01*
X169686147Y-83326147D01*
X169621785Y-83378967D01*
X169548345Y-83418222D01*
X169468662Y-83442394D01*
X169383309Y-83450800D01*
X168436691Y-83450800D01*
X168351338Y-83442394D01*
X168271655Y-83418222D01*
X168198215Y-83378967D01*
X168133853Y-83326147D01*
X168081033Y-83261785D01*
X168041778Y-83188345D01*
X168017606Y-83108662D01*
X168009200Y-83023309D01*
X168009200Y-82076691D01*
X168017606Y-81991338D01*
X168041778Y-81911655D01*
X168081033Y-81838215D01*
X168133853Y-81773853D01*
X168198215Y-81721033D01*
X168271655Y-81681778D01*
X168351338Y-81657606D01*
X168436691Y-81649200D01*
X169383309Y-81649200D01*
X169468662Y-81657606D01*
X169468662Y-81657606D01*
G37*
G36*
X159308662Y-81657606D02*
G01*
X159388345Y-81681778D01*
X159461785Y-81721033D01*
X159526147Y-81773853D01*
X159578967Y-81838215D01*
X159618222Y-81911655D01*
X159642394Y-81991338D01*
X159650800Y-82076691D01*
X159650800Y-83023309D01*
X159642394Y-83108662D01*
X159618222Y-83188345D01*
X159578967Y-83261785D01*
X159526147Y-83326147D01*
X159461785Y-83378967D01*
X159388345Y-83418222D01*
X159308662Y-83442394D01*
X159223309Y-83450800D01*
X158276691Y-83450800D01*
X158191338Y-83442394D01*
X158111655Y-83418222D01*
X158038215Y-83378967D01*
X157973853Y-83326147D01*
X157921033Y-83261785D01*
X157881778Y-83188345D01*
X157857606Y-83108662D01*
X157849200Y-83023309D01*
X157849200Y-82076691D01*
X157857606Y-81991338D01*
X157881778Y-81911655D01*
X157921033Y-81838215D01*
X157973853Y-81773853D01*
X158038215Y-81721033D01*
X158111655Y-81681778D01*
X158191338Y-81657606D01*
X158276691Y-81649200D01*
X159223309Y-81649200D01*
X159308662Y-81657606D01*
X159308662Y-81657606D01*
G37*
G36*
X151688662Y-81657606D02*
G01*
X151768345Y-81681778D01*
X151841785Y-81721033D01*
X151906147Y-81773853D01*
X151958967Y-81838215D01*
X151998222Y-81911655D01*
X152022394Y-81991338D01*
X152030800Y-82076691D01*
X152030800Y-83023309D01*
X152022394Y-83108662D01*
X151998222Y-83188345D01*
X151958967Y-83261785D01*
X151906147Y-83326147D01*
X151841785Y-83378967D01*
X151768345Y-83418222D01*
X151688662Y-83442394D01*
X151603309Y-83450800D01*
X150656691Y-83450800D01*
X150571338Y-83442394D01*
X150491655Y-83418222D01*
X150418215Y-83378967D01*
X150353853Y-83326147D01*
X150301033Y-83261785D01*
X150261778Y-83188345D01*
X150237606Y-83108662D01*
X150229200Y-83023309D01*
X150229200Y-82076691D01*
X150237606Y-81991338D01*
X150261778Y-81911655D01*
X150301033Y-81838215D01*
X150353853Y-81773853D01*
X150418215Y-81721033D01*
X150491655Y-81681778D01*
X150571338Y-81657606D01*
X150656691Y-81649200D01*
X151603309Y-81649200D01*
X151688662Y-81657606D01*
X151688662Y-81657606D01*
G37*
G36*
X154228662Y-81657606D02*
G01*
X154308345Y-81681778D01*
X154381785Y-81721033D01*
X154446147Y-81773853D01*
X154498967Y-81838215D01*
X154538222Y-81911655D01*
X154562394Y-81991338D01*
X154570800Y-82076691D01*
X154570800Y-83023309D01*
X154562394Y-83108662D01*
X154538222Y-83188345D01*
X154498967Y-83261785D01*
X154446147Y-83326147D01*
X154381785Y-83378967D01*
X154308345Y-83418222D01*
X154228662Y-83442394D01*
X154143309Y-83450800D01*
X153196691Y-83450800D01*
X153111338Y-83442394D01*
X153031655Y-83418222D01*
X152958215Y-83378967D01*
X152893853Y-83326147D01*
X152841033Y-83261785D01*
X152801778Y-83188345D01*
X152777606Y-83108662D01*
X152769200Y-83023309D01*
X152769200Y-82076691D01*
X152777606Y-81991338D01*
X152801778Y-81911655D01*
X152841033Y-81838215D01*
X152893853Y-81773853D01*
X152958215Y-81721033D01*
X153031655Y-81681778D01*
X153111338Y-81657606D01*
X153196691Y-81649200D01*
X154143309Y-81649200D01*
X154228662Y-81657606D01*
X154228662Y-81657606D01*
G37*
G36*
X148139153Y-81655685D02*
G01*
X148200077Y-81674166D01*
X148256228Y-81704180D01*
X148305436Y-81744564D01*
X148345820Y-81793772D01*
X148375834Y-81849923D01*
X148394315Y-81910847D01*
X148400800Y-81976692D01*
X148400800Y-83123308D01*
X148394315Y-83189153D01*
X148375834Y-83250077D01*
X148345820Y-83306228D01*
X148305436Y-83355436D01*
X148256228Y-83395820D01*
X148200077Y-83425834D01*
X148139153Y-83444315D01*
X148073308Y-83450800D01*
X147326692Y-83450800D01*
X147260847Y-83444315D01*
X147199923Y-83425834D01*
X147143772Y-83395820D01*
X147094564Y-83355436D01*
X147054180Y-83306228D01*
X147024166Y-83250077D01*
X147005685Y-83189153D01*
X146999200Y-83123308D01*
X146999200Y-81976692D01*
X147005685Y-81910847D01*
X147024166Y-81849923D01*
X147054180Y-81793772D01*
X147094564Y-81744564D01*
X147143772Y-81704180D01*
X147199923Y-81674166D01*
X147260847Y-81655685D01*
X147326692Y-81649200D01*
X148073308Y-81649200D01*
X148139153Y-81655685D01*
X148139153Y-81655685D01*
G37*
G36*
X144839153Y-81655685D02*
G01*
X144900077Y-81674166D01*
X144956228Y-81704180D01*
X145005436Y-81744564D01*
X145045820Y-81793772D01*
X145075834Y-81849923D01*
X145094315Y-81910847D01*
X145100800Y-81976692D01*
X145100800Y-83123308D01*
X145094315Y-83189153D01*
X145075834Y-83250077D01*
X145045820Y-83306228D01*
X145005436Y-83355436D01*
X144956228Y-83395820D01*
X144900077Y-83425834D01*
X144839153Y-83444315D01*
X144773308Y-83450800D01*
X144026692Y-83450800D01*
X143960847Y-83444315D01*
X143899923Y-83425834D01*
X143843772Y-83395820D01*
X143794564Y-83355436D01*
X143754180Y-83306228D01*
X143724166Y-83250077D01*
X143705685Y-83189153D01*
X143699200Y-83123308D01*
X143699200Y-81976692D01*
X143705685Y-81910847D01*
X143724166Y-81849923D01*
X143754180Y-81793772D01*
X143794564Y-81744564D01*
X143843772Y-81704180D01*
X143899923Y-81674166D01*
X143960847Y-81655685D01*
X144026692Y-81649200D01*
X144773308Y-81649200D01*
X144839153Y-81655685D01*
X144839153Y-81655685D01*
G37*
G36*
X166928662Y-81657606D02*
G01*
X167008345Y-81681778D01*
X167081785Y-81721033D01*
X167146147Y-81773853D01*
X167198967Y-81838215D01*
X167238222Y-81911655D01*
X167262394Y-81991338D01*
X167270800Y-82076691D01*
X167270800Y-83023309D01*
X167262394Y-83108662D01*
X167238222Y-83188345D01*
X167198967Y-83261785D01*
X167146147Y-83326147D01*
X167081785Y-83378967D01*
X167008345Y-83418222D01*
X166928662Y-83442394D01*
X166843309Y-83450800D01*
X165896691Y-83450800D01*
X165811338Y-83442394D01*
X165731655Y-83418222D01*
X165658215Y-83378967D01*
X165593853Y-83326147D01*
X165541033Y-83261785D01*
X165501778Y-83188345D01*
X165477606Y-83108662D01*
X165469200Y-83023309D01*
X165469200Y-82076691D01*
X165477606Y-81991338D01*
X165501778Y-81911655D01*
X165541033Y-81838215D01*
X165593853Y-81773853D01*
X165658215Y-81721033D01*
X165731655Y-81681778D01*
X165811338Y-81657606D01*
X165896691Y-81649200D01*
X166843309Y-81649200D01*
X166928662Y-81657606D01*
X166928662Y-81657606D01*
G37*
M02*
