G04 #@! TF.GenerationSoftware,KiCad,Pcbnew,(5.1.0-0)*
G04 #@! TF.CreationDate,2019-04-12T20:13:37-07:00*
G04 #@! TF.ProjectId,ap2112m-txb0104-module,61703231-3132-46d2-9d74-786230313034,rev?*
G04 #@! TF.SameCoordinates,Original*
G04 #@! TF.FileFunction,Soldermask,Bot*
G04 #@! TF.FilePolarity,Negative*
%FSLAX46Y46*%
G04 Gerber Fmt 4.6, Leading zero omitted, Abs format (unit mm)*
G04 Created by KiCad (PCBNEW (5.1.0-0)) date 2019-04-12 20:13:37*
%MOMM*%
%LPD*%
G04 APERTURE LIST*
%ADD10C,0.025400*%
G04 APERTURE END LIST*
D10*
G36*
X169468662Y-94357606D02*
G01*
X169548345Y-94381778D01*
X169621785Y-94421033D01*
X169686147Y-94473853D01*
X169738967Y-94538215D01*
X169778222Y-94611655D01*
X169802394Y-94691338D01*
X169810800Y-94776691D01*
X169810800Y-95723309D01*
X169802394Y-95808662D01*
X169778222Y-95888345D01*
X169738967Y-95961785D01*
X169686147Y-96026147D01*
X169621785Y-96078967D01*
X169548345Y-96118222D01*
X169468662Y-96142394D01*
X169383309Y-96150800D01*
X168436691Y-96150800D01*
X168351338Y-96142394D01*
X168271655Y-96118222D01*
X168198215Y-96078967D01*
X168133853Y-96026147D01*
X168081033Y-95961785D01*
X168041778Y-95888345D01*
X168017606Y-95808662D01*
X168009200Y-95723309D01*
X168009200Y-94776691D01*
X168017606Y-94691338D01*
X168041778Y-94611655D01*
X168081033Y-94538215D01*
X168133853Y-94473853D01*
X168198215Y-94421033D01*
X168271655Y-94381778D01*
X168351338Y-94357606D01*
X168436691Y-94349200D01*
X169383309Y-94349200D01*
X169468662Y-94357606D01*
X169468662Y-94357606D01*
G37*
G36*
X166928662Y-94357606D02*
G01*
X167008345Y-94381778D01*
X167081785Y-94421033D01*
X167146147Y-94473853D01*
X167198967Y-94538215D01*
X167238222Y-94611655D01*
X167262394Y-94691338D01*
X167270800Y-94776691D01*
X167270800Y-95723309D01*
X167262394Y-95808662D01*
X167238222Y-95888345D01*
X167198967Y-95961785D01*
X167146147Y-96026147D01*
X167081785Y-96078967D01*
X167008345Y-96118222D01*
X166928662Y-96142394D01*
X166843309Y-96150800D01*
X165896691Y-96150800D01*
X165811338Y-96142394D01*
X165731655Y-96118222D01*
X165658215Y-96078967D01*
X165593853Y-96026147D01*
X165541033Y-95961785D01*
X165501778Y-95888345D01*
X165477606Y-95808662D01*
X165469200Y-95723309D01*
X165469200Y-94776691D01*
X165477606Y-94691338D01*
X165501778Y-94611655D01*
X165541033Y-94538215D01*
X165593853Y-94473853D01*
X165658215Y-94421033D01*
X165731655Y-94381778D01*
X165811338Y-94357606D01*
X165896691Y-94349200D01*
X166843309Y-94349200D01*
X166928662Y-94357606D01*
X166928662Y-94357606D01*
G37*
G36*
X164388662Y-94357606D02*
G01*
X164468345Y-94381778D01*
X164541785Y-94421033D01*
X164606147Y-94473853D01*
X164658967Y-94538215D01*
X164698222Y-94611655D01*
X164722394Y-94691338D01*
X164730800Y-94776691D01*
X164730800Y-95723309D01*
X164722394Y-95808662D01*
X164698222Y-95888345D01*
X164658967Y-95961785D01*
X164606147Y-96026147D01*
X164541785Y-96078967D01*
X164468345Y-96118222D01*
X164388662Y-96142394D01*
X164303309Y-96150800D01*
X163356691Y-96150800D01*
X163271338Y-96142394D01*
X163191655Y-96118222D01*
X163118215Y-96078967D01*
X163053853Y-96026147D01*
X163001033Y-95961785D01*
X162961778Y-95888345D01*
X162937606Y-95808662D01*
X162929200Y-95723309D01*
X162929200Y-94776691D01*
X162937606Y-94691338D01*
X162961778Y-94611655D01*
X163001033Y-94538215D01*
X163053853Y-94473853D01*
X163118215Y-94421033D01*
X163191655Y-94381778D01*
X163271338Y-94357606D01*
X163356691Y-94349200D01*
X164303309Y-94349200D01*
X164388662Y-94357606D01*
X164388662Y-94357606D01*
G37*
G36*
X161848662Y-94357606D02*
G01*
X161928345Y-94381778D01*
X162001785Y-94421033D01*
X162066147Y-94473853D01*
X162118967Y-94538215D01*
X162158222Y-94611655D01*
X162182394Y-94691338D01*
X162190800Y-94776691D01*
X162190800Y-95723309D01*
X162182394Y-95808662D01*
X162158222Y-95888345D01*
X162118967Y-95961785D01*
X162066147Y-96026147D01*
X162001785Y-96078967D01*
X161928345Y-96118222D01*
X161848662Y-96142394D01*
X161763309Y-96150800D01*
X160816691Y-96150800D01*
X160731338Y-96142394D01*
X160651655Y-96118222D01*
X160578215Y-96078967D01*
X160513853Y-96026147D01*
X160461033Y-95961785D01*
X160421778Y-95888345D01*
X160397606Y-95808662D01*
X160389200Y-95723309D01*
X160389200Y-94776691D01*
X160397606Y-94691338D01*
X160421778Y-94611655D01*
X160461033Y-94538215D01*
X160513853Y-94473853D01*
X160578215Y-94421033D01*
X160651655Y-94381778D01*
X160731338Y-94357606D01*
X160816691Y-94349200D01*
X161763309Y-94349200D01*
X161848662Y-94357606D01*
X161848662Y-94357606D01*
G37*
G36*
X159308662Y-94357606D02*
G01*
X159388345Y-94381778D01*
X159461785Y-94421033D01*
X159526147Y-94473853D01*
X159578967Y-94538215D01*
X159618222Y-94611655D01*
X159642394Y-94691338D01*
X159650800Y-94776691D01*
X159650800Y-95723309D01*
X159642394Y-95808662D01*
X159618222Y-95888345D01*
X159578967Y-95961785D01*
X159526147Y-96026147D01*
X159461785Y-96078967D01*
X159388345Y-96118222D01*
X159308662Y-96142394D01*
X159223309Y-96150800D01*
X158276691Y-96150800D01*
X158191338Y-96142394D01*
X158111655Y-96118222D01*
X158038215Y-96078967D01*
X157973853Y-96026147D01*
X157921033Y-95961785D01*
X157881778Y-95888345D01*
X157857606Y-95808662D01*
X157849200Y-95723309D01*
X157849200Y-94776691D01*
X157857606Y-94691338D01*
X157881778Y-94611655D01*
X157921033Y-94538215D01*
X157973853Y-94473853D01*
X158038215Y-94421033D01*
X158111655Y-94381778D01*
X158191338Y-94357606D01*
X158276691Y-94349200D01*
X159223309Y-94349200D01*
X159308662Y-94357606D01*
X159308662Y-94357606D01*
G37*
G36*
X156768662Y-94357606D02*
G01*
X156848345Y-94381778D01*
X156921785Y-94421033D01*
X156986147Y-94473853D01*
X157038967Y-94538215D01*
X157078222Y-94611655D01*
X157102394Y-94691338D01*
X157110800Y-94776691D01*
X157110800Y-95723309D01*
X157102394Y-95808662D01*
X157078222Y-95888345D01*
X157038967Y-95961785D01*
X156986147Y-96026147D01*
X156921785Y-96078967D01*
X156848345Y-96118222D01*
X156768662Y-96142394D01*
X156683309Y-96150800D01*
X155736691Y-96150800D01*
X155651338Y-96142394D01*
X155571655Y-96118222D01*
X155498215Y-96078967D01*
X155433853Y-96026147D01*
X155381033Y-95961785D01*
X155341778Y-95888345D01*
X155317606Y-95808662D01*
X155309200Y-95723309D01*
X155309200Y-94776691D01*
X155317606Y-94691338D01*
X155341778Y-94611655D01*
X155381033Y-94538215D01*
X155433853Y-94473853D01*
X155498215Y-94421033D01*
X155571655Y-94381778D01*
X155651338Y-94357606D01*
X155736691Y-94349200D01*
X156683309Y-94349200D01*
X156768662Y-94357606D01*
X156768662Y-94357606D01*
G37*
G36*
X154228662Y-94357606D02*
G01*
X154308345Y-94381778D01*
X154381785Y-94421033D01*
X154446147Y-94473853D01*
X154498967Y-94538215D01*
X154538222Y-94611655D01*
X154562394Y-94691338D01*
X154570800Y-94776691D01*
X154570800Y-95723309D01*
X154562394Y-95808662D01*
X154538222Y-95888345D01*
X154498967Y-95961785D01*
X154446147Y-96026147D01*
X154381785Y-96078967D01*
X154308345Y-96118222D01*
X154228662Y-96142394D01*
X154143309Y-96150800D01*
X153196691Y-96150800D01*
X153111338Y-96142394D01*
X153031655Y-96118222D01*
X152958215Y-96078967D01*
X152893853Y-96026147D01*
X152841033Y-95961785D01*
X152801778Y-95888345D01*
X152777606Y-95808662D01*
X152769200Y-95723309D01*
X152769200Y-94776691D01*
X152777606Y-94691338D01*
X152801778Y-94611655D01*
X152841033Y-94538215D01*
X152893853Y-94473853D01*
X152958215Y-94421033D01*
X153031655Y-94381778D01*
X153111338Y-94357606D01*
X153196691Y-94349200D01*
X154143309Y-94349200D01*
X154228662Y-94357606D01*
X154228662Y-94357606D01*
G37*
G36*
X151688662Y-94357606D02*
G01*
X151768345Y-94381778D01*
X151841785Y-94421033D01*
X151906147Y-94473853D01*
X151958967Y-94538215D01*
X151998222Y-94611655D01*
X152022394Y-94691338D01*
X152030800Y-94776691D01*
X152030800Y-95723309D01*
X152022394Y-95808662D01*
X151998222Y-95888345D01*
X151958967Y-95961785D01*
X151906147Y-96026147D01*
X151841785Y-96078967D01*
X151768345Y-96118222D01*
X151688662Y-96142394D01*
X151603309Y-96150800D01*
X150656691Y-96150800D01*
X150571338Y-96142394D01*
X150491655Y-96118222D01*
X150418215Y-96078967D01*
X150353853Y-96026147D01*
X150301033Y-95961785D01*
X150261778Y-95888345D01*
X150237606Y-95808662D01*
X150229200Y-95723309D01*
X150229200Y-94776691D01*
X150237606Y-94691338D01*
X150261778Y-94611655D01*
X150301033Y-94538215D01*
X150353853Y-94473853D01*
X150418215Y-94421033D01*
X150491655Y-94381778D01*
X150571338Y-94357606D01*
X150656691Y-94349200D01*
X151603309Y-94349200D01*
X151688662Y-94357606D01*
X151688662Y-94357606D01*
G37*
G36*
X146940608Y-94407376D02*
G01*
X147100084Y-94473432D01*
X147243610Y-94569334D01*
X147365666Y-94691390D01*
X147461568Y-94834916D01*
X147527624Y-94994392D01*
X147561300Y-95163692D01*
X147561300Y-95336308D01*
X147527624Y-95505608D01*
X147461568Y-95665084D01*
X147365666Y-95808610D01*
X147243610Y-95930666D01*
X147100084Y-96026568D01*
X146940608Y-96092624D01*
X146771308Y-96126300D01*
X146598692Y-96126300D01*
X146429392Y-96092624D01*
X146269916Y-96026568D01*
X146126390Y-95930666D01*
X146004334Y-95808610D01*
X145908432Y-95665084D01*
X145842376Y-95505608D01*
X145808700Y-95336308D01*
X145808700Y-95163692D01*
X145842376Y-94994392D01*
X145908432Y-94834916D01*
X146004334Y-94691390D01*
X146126390Y-94569334D01*
X146269916Y-94473432D01*
X146429392Y-94407376D01*
X146598692Y-94373700D01*
X146771308Y-94373700D01*
X146940608Y-94407376D01*
X146940608Y-94407376D01*
G37*
G36*
X144400608Y-94407376D02*
G01*
X144560084Y-94473432D01*
X144703610Y-94569334D01*
X144825666Y-94691390D01*
X144921568Y-94834916D01*
X144987624Y-94994392D01*
X145021300Y-95163692D01*
X145021300Y-95336308D01*
X144987624Y-95505608D01*
X144921568Y-95665084D01*
X144825666Y-95808610D01*
X144703610Y-95930666D01*
X144560084Y-96026568D01*
X144400608Y-96092624D01*
X144231308Y-96126300D01*
X144058692Y-96126300D01*
X143889392Y-96092624D01*
X143729916Y-96026568D01*
X143586390Y-95930666D01*
X143464334Y-95808610D01*
X143368432Y-95665084D01*
X143302376Y-95505608D01*
X143268700Y-95336308D01*
X143268700Y-95163692D01*
X143302376Y-94994392D01*
X143368432Y-94834916D01*
X143464334Y-94691390D01*
X143586390Y-94569334D01*
X143729916Y-94473432D01*
X143889392Y-94407376D01*
X144058692Y-94373700D01*
X144231308Y-94373700D01*
X144400608Y-94407376D01*
X144400608Y-94407376D01*
G37*
G36*
X141860608Y-94407376D02*
G01*
X142020084Y-94473432D01*
X142163610Y-94569334D01*
X142285666Y-94691390D01*
X142381568Y-94834916D01*
X142447624Y-94994392D01*
X142481300Y-95163692D01*
X142481300Y-95336308D01*
X142447624Y-95505608D01*
X142381568Y-95665084D01*
X142285666Y-95808610D01*
X142163610Y-95930666D01*
X142020084Y-96026568D01*
X141860608Y-96092624D01*
X141691308Y-96126300D01*
X141518692Y-96126300D01*
X141349392Y-96092624D01*
X141189916Y-96026568D01*
X141046390Y-95930666D01*
X140924334Y-95808610D01*
X140828432Y-95665084D01*
X140762376Y-95505608D01*
X140728700Y-95336308D01*
X140728700Y-95163692D01*
X140762376Y-94994392D01*
X140828432Y-94834916D01*
X140924334Y-94691390D01*
X141046390Y-94569334D01*
X141189916Y-94473432D01*
X141349392Y-94407376D01*
X141518692Y-94373700D01*
X141691308Y-94373700D01*
X141860608Y-94407376D01*
X141860608Y-94407376D01*
G37*
G36*
X144492267Y-90873391D02*
G01*
X144492270Y-90873392D01*
X144677152Y-90929475D01*
X144847539Y-91020549D01*
X144996886Y-91143114D01*
X145119451Y-91292461D01*
X145210525Y-91462848D01*
X145260195Y-91626588D01*
X145266609Y-91647733D01*
X145285546Y-91840000D01*
X145266609Y-92032267D01*
X145266608Y-92032270D01*
X145210525Y-92217152D01*
X145119451Y-92387539D01*
X144996886Y-92536886D01*
X144847539Y-92659451D01*
X144677152Y-92750525D01*
X144513412Y-92800195D01*
X144492267Y-92806609D01*
X144348183Y-92820800D01*
X144251817Y-92820800D01*
X144107733Y-92806609D01*
X144086588Y-92800195D01*
X143922848Y-92750525D01*
X143752461Y-92659451D01*
X143603114Y-92536886D01*
X143480549Y-92387539D01*
X143389475Y-92217152D01*
X143333392Y-92032270D01*
X143333391Y-92032267D01*
X143314454Y-91840000D01*
X143333391Y-91647733D01*
X143339805Y-91626588D01*
X143389475Y-91462848D01*
X143480549Y-91292461D01*
X143603114Y-91143114D01*
X143752461Y-91020549D01*
X143922848Y-90929475D01*
X144107730Y-90873392D01*
X144107733Y-90873391D01*
X144251817Y-90859200D01*
X144348183Y-90859200D01*
X144492267Y-90873391D01*
X144492267Y-90873391D01*
G37*
G36*
X141042267Y-90873391D02*
G01*
X141042270Y-90873392D01*
X141227152Y-90929475D01*
X141397539Y-91020549D01*
X141546886Y-91143114D01*
X141669451Y-91292461D01*
X141760525Y-91462848D01*
X141810195Y-91626588D01*
X141816609Y-91647733D01*
X141835546Y-91840000D01*
X141816609Y-92032267D01*
X141816608Y-92032270D01*
X141760525Y-92217152D01*
X141669451Y-92387539D01*
X141546886Y-92536886D01*
X141397539Y-92659451D01*
X141227152Y-92750525D01*
X141063412Y-92800195D01*
X141042267Y-92806609D01*
X140898183Y-92820800D01*
X140801817Y-92820800D01*
X140657733Y-92806609D01*
X140636588Y-92800195D01*
X140472848Y-92750525D01*
X140302461Y-92659451D01*
X140153114Y-92536886D01*
X140030549Y-92387539D01*
X139939475Y-92217152D01*
X139883392Y-92032270D01*
X139883391Y-92032267D01*
X139864454Y-91840000D01*
X139883391Y-91647733D01*
X139889805Y-91626588D01*
X139939475Y-91462848D01*
X140030549Y-91292461D01*
X140153114Y-91143114D01*
X140302461Y-91020549D01*
X140472848Y-90929475D01*
X140657730Y-90873392D01*
X140657733Y-90873391D01*
X140801817Y-90859200D01*
X140898183Y-90859200D01*
X141042267Y-90873391D01*
X141042267Y-90873391D01*
G37*
G36*
X170838634Y-89173651D02*
G01*
X170904109Y-89193513D01*
X170964445Y-89225763D01*
X171017333Y-89269167D01*
X171060737Y-89322055D01*
X171092987Y-89382391D01*
X171112849Y-89447866D01*
X171119800Y-89518442D01*
X171119800Y-90313558D01*
X171112849Y-90384134D01*
X171092987Y-90449609D01*
X171060737Y-90509945D01*
X171017333Y-90562833D01*
X170964445Y-90606237D01*
X170904109Y-90638487D01*
X170838634Y-90658349D01*
X170768058Y-90665300D01*
X169591942Y-90665300D01*
X169521366Y-90658349D01*
X169455891Y-90638487D01*
X169395555Y-90606237D01*
X169342667Y-90562833D01*
X169299263Y-90509945D01*
X169267013Y-90449609D01*
X169247151Y-90384134D01*
X169240200Y-90313558D01*
X169240200Y-89518442D01*
X169247151Y-89447866D01*
X169267013Y-89382391D01*
X169299263Y-89322055D01*
X169342667Y-89269167D01*
X169395555Y-89225763D01*
X169455891Y-89193513D01*
X169521366Y-89173651D01*
X169591942Y-89166700D01*
X170768058Y-89166700D01*
X170838634Y-89173651D01*
X170838634Y-89173651D01*
G37*
G36*
X143048666Y-89894637D02*
G01*
X143048669Y-89894638D01*
X143048670Y-89894638D01*
X143119508Y-89916126D01*
X143184793Y-89951022D01*
X143184795Y-89951023D01*
X143184794Y-89951023D01*
X143242017Y-89997983D01*
X143284767Y-90050075D01*
X143288978Y-90055207D01*
X143323874Y-90120492D01*
X143323874Y-90120493D01*
X143345363Y-90191334D01*
X143352619Y-90265000D01*
X143345363Y-90338666D01*
X143345362Y-90338669D01*
X143345362Y-90338670D01*
X143323874Y-90409508D01*
X143302439Y-90449609D01*
X143288977Y-90474794D01*
X143242017Y-90532017D01*
X143204466Y-90562833D01*
X143184793Y-90578978D01*
X143119508Y-90613874D01*
X143048670Y-90635362D01*
X143048669Y-90635362D01*
X143048666Y-90635363D01*
X142993463Y-90640800D01*
X142956537Y-90640800D01*
X142901334Y-90635363D01*
X142901331Y-90635362D01*
X142901330Y-90635362D01*
X142830492Y-90613874D01*
X142765207Y-90578978D01*
X142745534Y-90562833D01*
X142707983Y-90532017D01*
X142661023Y-90474794D01*
X142647561Y-90449609D01*
X142626126Y-90409508D01*
X142604638Y-90338670D01*
X142604638Y-90338669D01*
X142604637Y-90338666D01*
X142597381Y-90265000D01*
X142604637Y-90191334D01*
X142626126Y-90120493D01*
X142626126Y-90120492D01*
X142661022Y-90055207D01*
X142665233Y-90050076D01*
X142707983Y-89997983D01*
X142765206Y-89951023D01*
X142765205Y-89951023D01*
X142765207Y-89951022D01*
X142830492Y-89916126D01*
X142901330Y-89894638D01*
X142901331Y-89894638D01*
X142901334Y-89894637D01*
X142956537Y-89889200D01*
X142993463Y-89889200D01*
X143048666Y-89894637D01*
X143048666Y-89894637D01*
G37*
G36*
X167645398Y-87696724D02*
G01*
X167696943Y-87712360D01*
X167744449Y-87737753D01*
X167786081Y-87771919D01*
X167820247Y-87813551D01*
X167845640Y-87861057D01*
X167861276Y-87912602D01*
X167866800Y-87968691D01*
X167866800Y-88815309D01*
X167861276Y-88871398D01*
X167845640Y-88922943D01*
X167820247Y-88970449D01*
X167786081Y-89012081D01*
X167744449Y-89046247D01*
X167696943Y-89071640D01*
X167645398Y-89087276D01*
X167589309Y-89092800D01*
X166942691Y-89092800D01*
X166886602Y-89087276D01*
X166835057Y-89071640D01*
X166787551Y-89046247D01*
X166745919Y-89012081D01*
X166711753Y-88970449D01*
X166686360Y-88922943D01*
X166670724Y-88871398D01*
X166665200Y-88815309D01*
X166665200Y-87968691D01*
X166670724Y-87912602D01*
X166686360Y-87861057D01*
X166711753Y-87813551D01*
X166745919Y-87771919D01*
X166787551Y-87737753D01*
X166835057Y-87712360D01*
X166886602Y-87696724D01*
X166942691Y-87691200D01*
X167589309Y-87691200D01*
X167645398Y-87696724D01*
X167645398Y-87696724D01*
G37*
G36*
X165345398Y-87696724D02*
G01*
X165396943Y-87712360D01*
X165444449Y-87737753D01*
X165486081Y-87771919D01*
X165520247Y-87813551D01*
X165545640Y-87861057D01*
X165561276Y-87912602D01*
X165566800Y-87968691D01*
X165566800Y-88815309D01*
X165561276Y-88871398D01*
X165545640Y-88922943D01*
X165520247Y-88970449D01*
X165486081Y-89012081D01*
X165444449Y-89046247D01*
X165396943Y-89071640D01*
X165345398Y-89087276D01*
X165289309Y-89092800D01*
X164642691Y-89092800D01*
X164586602Y-89087276D01*
X164535057Y-89071640D01*
X164487551Y-89046247D01*
X164445919Y-89012081D01*
X164411753Y-88970449D01*
X164386360Y-88922943D01*
X164370724Y-88871398D01*
X164365200Y-88815309D01*
X164365200Y-87968691D01*
X164370724Y-87912602D01*
X164386360Y-87861057D01*
X164411753Y-87813551D01*
X164445919Y-87771919D01*
X164487551Y-87737753D01*
X164535057Y-87712360D01*
X164586602Y-87696724D01*
X164642691Y-87691200D01*
X165289309Y-87691200D01*
X165345398Y-87696724D01*
X165345398Y-87696724D01*
G37*
G36*
X170517385Y-87177541D02*
G01*
X170517388Y-87177542D01*
X170658632Y-87220388D01*
X170723718Y-87255177D01*
X170788802Y-87289965D01*
X170902899Y-87383601D01*
X170996534Y-87497697D01*
X171066112Y-87627868D01*
X171091742Y-87712360D01*
X171108959Y-87769115D01*
X171123426Y-87916000D01*
X171108959Y-88062885D01*
X171108958Y-88062888D01*
X171066112Y-88204132D01*
X171066111Y-88204133D01*
X170996535Y-88334302D01*
X170902899Y-88448399D01*
X170788802Y-88542035D01*
X170723717Y-88576823D01*
X170658632Y-88611612D01*
X170533538Y-88649559D01*
X170517385Y-88654459D01*
X170407312Y-88665300D01*
X169952688Y-88665300D01*
X169842615Y-88654459D01*
X169826462Y-88649559D01*
X169701368Y-88611612D01*
X169636282Y-88576823D01*
X169571198Y-88542035D01*
X169457101Y-88448399D01*
X169363465Y-88334302D01*
X169293889Y-88204133D01*
X169293888Y-88204132D01*
X169251042Y-88062888D01*
X169251041Y-88062885D01*
X169236574Y-87916000D01*
X169251041Y-87769115D01*
X169268258Y-87712360D01*
X169293888Y-87627868D01*
X169363466Y-87497697D01*
X169457101Y-87383601D01*
X169571198Y-87289965D01*
X169636282Y-87255177D01*
X169701368Y-87220388D01*
X169842612Y-87177542D01*
X169842615Y-87177541D01*
X169952688Y-87166700D01*
X170407312Y-87166700D01*
X170517385Y-87177541D01*
X170517385Y-87177541D01*
G37*
G36*
X143048666Y-85894637D02*
G01*
X143048669Y-85894638D01*
X143048670Y-85894638D01*
X143119508Y-85916126D01*
X143184793Y-85951022D01*
X143184795Y-85951023D01*
X143184794Y-85951023D01*
X143242017Y-85997983D01*
X143284767Y-86050075D01*
X143288978Y-86055207D01*
X143323874Y-86120492D01*
X143323874Y-86120493D01*
X143345363Y-86191334D01*
X143352619Y-86265000D01*
X143345363Y-86338666D01*
X143345362Y-86338669D01*
X143345362Y-86338670D01*
X143323874Y-86409508D01*
X143288978Y-86474793D01*
X143288977Y-86474794D01*
X143242017Y-86532017D01*
X143189924Y-86574767D01*
X143184793Y-86578978D01*
X143119508Y-86613874D01*
X143048670Y-86635362D01*
X143048669Y-86635362D01*
X143048666Y-86635363D01*
X142993463Y-86640800D01*
X142956537Y-86640800D01*
X142901334Y-86635363D01*
X142901331Y-86635362D01*
X142901330Y-86635362D01*
X142830492Y-86613874D01*
X142765207Y-86578978D01*
X142760076Y-86574767D01*
X142707983Y-86532017D01*
X142661023Y-86474794D01*
X142661022Y-86474793D01*
X142626126Y-86409508D01*
X142604638Y-86338670D01*
X142604638Y-86338669D01*
X142604637Y-86338666D01*
X142597381Y-86265000D01*
X142604637Y-86191334D01*
X142626126Y-86120493D01*
X142626126Y-86120492D01*
X142661022Y-86055207D01*
X142665233Y-86050075D01*
X142707983Y-85997983D01*
X142765206Y-85951023D01*
X142765205Y-85951023D01*
X142765207Y-85951022D01*
X142830492Y-85916126D01*
X142901330Y-85894638D01*
X142901331Y-85894638D01*
X142901334Y-85894637D01*
X142956537Y-85889200D01*
X142993463Y-85889200D01*
X143048666Y-85894637D01*
X143048666Y-85894637D01*
G37*
G36*
X144492267Y-83723391D02*
G01*
X144492270Y-83723392D01*
X144677152Y-83779475D01*
X144847539Y-83870549D01*
X144996886Y-83993114D01*
X145119451Y-84142461D01*
X145210525Y-84312848D01*
X145260195Y-84476588D01*
X145266609Y-84497733D01*
X145285546Y-84690000D01*
X145266609Y-84882267D01*
X145266608Y-84882270D01*
X145210525Y-85067152D01*
X145119451Y-85237539D01*
X144996886Y-85386886D01*
X144847539Y-85509451D01*
X144677152Y-85600525D01*
X144513412Y-85650195D01*
X144492267Y-85656609D01*
X144348183Y-85670800D01*
X144251817Y-85670800D01*
X144107733Y-85656609D01*
X144086588Y-85650195D01*
X143922848Y-85600525D01*
X143752461Y-85509451D01*
X143603114Y-85386886D01*
X143480549Y-85237539D01*
X143389475Y-85067152D01*
X143333392Y-84882270D01*
X143333391Y-84882267D01*
X143314454Y-84690000D01*
X143333391Y-84497733D01*
X143339805Y-84476588D01*
X143389475Y-84312848D01*
X143480549Y-84142461D01*
X143603114Y-83993114D01*
X143752461Y-83870549D01*
X143922848Y-83779475D01*
X144107730Y-83723392D01*
X144107733Y-83723391D01*
X144251817Y-83709200D01*
X144348183Y-83709200D01*
X144492267Y-83723391D01*
X144492267Y-83723391D01*
G37*
G36*
X141042267Y-83723391D02*
G01*
X141042270Y-83723392D01*
X141227152Y-83779475D01*
X141397539Y-83870549D01*
X141546886Y-83993114D01*
X141669451Y-84142461D01*
X141760525Y-84312848D01*
X141810195Y-84476588D01*
X141816609Y-84497733D01*
X141835546Y-84690000D01*
X141816609Y-84882267D01*
X141816608Y-84882270D01*
X141760525Y-85067152D01*
X141669451Y-85237539D01*
X141546886Y-85386886D01*
X141397539Y-85509451D01*
X141227152Y-85600525D01*
X141063412Y-85650195D01*
X141042267Y-85656609D01*
X140898183Y-85670800D01*
X140801817Y-85670800D01*
X140657733Y-85656609D01*
X140636588Y-85650195D01*
X140472848Y-85600525D01*
X140302461Y-85509451D01*
X140153114Y-85386886D01*
X140030549Y-85237539D01*
X139939475Y-85067152D01*
X139883392Y-84882270D01*
X139883391Y-84882267D01*
X139864454Y-84690000D01*
X139883391Y-84497733D01*
X139889805Y-84476588D01*
X139939475Y-84312848D01*
X140030549Y-84142461D01*
X140153114Y-83993114D01*
X140302461Y-83870549D01*
X140472848Y-83779475D01*
X140657730Y-83723392D01*
X140657733Y-83723391D01*
X140801817Y-83709200D01*
X140898183Y-83709200D01*
X141042267Y-83723391D01*
X141042267Y-83723391D01*
G37*
G36*
X154228662Y-81657606D02*
G01*
X154308345Y-81681778D01*
X154381785Y-81721033D01*
X154446147Y-81773853D01*
X154498967Y-81838215D01*
X154538222Y-81911655D01*
X154562394Y-81991338D01*
X154570800Y-82076691D01*
X154570800Y-83023309D01*
X154562394Y-83108662D01*
X154538222Y-83188345D01*
X154498967Y-83261785D01*
X154446147Y-83326147D01*
X154381785Y-83378967D01*
X154308345Y-83418222D01*
X154228662Y-83442394D01*
X154143309Y-83450800D01*
X153196691Y-83450800D01*
X153111338Y-83442394D01*
X153031655Y-83418222D01*
X152958215Y-83378967D01*
X152893853Y-83326147D01*
X152841033Y-83261785D01*
X152801778Y-83188345D01*
X152777606Y-83108662D01*
X152769200Y-83023309D01*
X152769200Y-82076691D01*
X152777606Y-81991338D01*
X152801778Y-81911655D01*
X152841033Y-81838215D01*
X152893853Y-81773853D01*
X152958215Y-81721033D01*
X153031655Y-81681778D01*
X153111338Y-81657606D01*
X153196691Y-81649200D01*
X154143309Y-81649200D01*
X154228662Y-81657606D01*
X154228662Y-81657606D01*
G37*
G36*
X151688662Y-81657606D02*
G01*
X151768345Y-81681778D01*
X151841785Y-81721033D01*
X151906147Y-81773853D01*
X151958967Y-81838215D01*
X151998222Y-81911655D01*
X152022394Y-81991338D01*
X152030800Y-82076691D01*
X152030800Y-83023309D01*
X152022394Y-83108662D01*
X151998222Y-83188345D01*
X151958967Y-83261785D01*
X151906147Y-83326147D01*
X151841785Y-83378967D01*
X151768345Y-83418222D01*
X151688662Y-83442394D01*
X151603309Y-83450800D01*
X150656691Y-83450800D01*
X150571338Y-83442394D01*
X150491655Y-83418222D01*
X150418215Y-83378967D01*
X150353853Y-83326147D01*
X150301033Y-83261785D01*
X150261778Y-83188345D01*
X150237606Y-83108662D01*
X150229200Y-83023309D01*
X150229200Y-82076691D01*
X150237606Y-81991338D01*
X150261778Y-81911655D01*
X150301033Y-81838215D01*
X150353853Y-81773853D01*
X150418215Y-81721033D01*
X150491655Y-81681778D01*
X150571338Y-81657606D01*
X150656691Y-81649200D01*
X151603309Y-81649200D01*
X151688662Y-81657606D01*
X151688662Y-81657606D01*
G37*
G36*
X156768662Y-81657606D02*
G01*
X156848345Y-81681778D01*
X156921785Y-81721033D01*
X156986147Y-81773853D01*
X157038967Y-81838215D01*
X157078222Y-81911655D01*
X157102394Y-81991338D01*
X157110800Y-82076691D01*
X157110800Y-83023309D01*
X157102394Y-83108662D01*
X157078222Y-83188345D01*
X157038967Y-83261785D01*
X156986147Y-83326147D01*
X156921785Y-83378967D01*
X156848345Y-83418222D01*
X156768662Y-83442394D01*
X156683309Y-83450800D01*
X155736691Y-83450800D01*
X155651338Y-83442394D01*
X155571655Y-83418222D01*
X155498215Y-83378967D01*
X155433853Y-83326147D01*
X155381033Y-83261785D01*
X155341778Y-83188345D01*
X155317606Y-83108662D01*
X155309200Y-83023309D01*
X155309200Y-82076691D01*
X155317606Y-81991338D01*
X155341778Y-81911655D01*
X155381033Y-81838215D01*
X155433853Y-81773853D01*
X155498215Y-81721033D01*
X155571655Y-81681778D01*
X155651338Y-81657606D01*
X155736691Y-81649200D01*
X156683309Y-81649200D01*
X156768662Y-81657606D01*
X156768662Y-81657606D01*
G37*
G36*
X169468662Y-81657606D02*
G01*
X169548345Y-81681778D01*
X169621785Y-81721033D01*
X169686147Y-81773853D01*
X169738967Y-81838215D01*
X169778222Y-81911655D01*
X169802394Y-81991338D01*
X169810800Y-82076691D01*
X169810800Y-83023309D01*
X169802394Y-83108662D01*
X169778222Y-83188345D01*
X169738967Y-83261785D01*
X169686147Y-83326147D01*
X169621785Y-83378967D01*
X169548345Y-83418222D01*
X169468662Y-83442394D01*
X169383309Y-83450800D01*
X168436691Y-83450800D01*
X168351338Y-83442394D01*
X168271655Y-83418222D01*
X168198215Y-83378967D01*
X168133853Y-83326147D01*
X168081033Y-83261785D01*
X168041778Y-83188345D01*
X168017606Y-83108662D01*
X168009200Y-83023309D01*
X168009200Y-82076691D01*
X168017606Y-81991338D01*
X168041778Y-81911655D01*
X168081033Y-81838215D01*
X168133853Y-81773853D01*
X168198215Y-81721033D01*
X168271655Y-81681778D01*
X168351338Y-81657606D01*
X168436691Y-81649200D01*
X169383309Y-81649200D01*
X169468662Y-81657606D01*
X169468662Y-81657606D01*
G37*
G36*
X166928662Y-81657606D02*
G01*
X167008345Y-81681778D01*
X167081785Y-81721033D01*
X167146147Y-81773853D01*
X167198967Y-81838215D01*
X167238222Y-81911655D01*
X167262394Y-81991338D01*
X167270800Y-82076691D01*
X167270800Y-83023309D01*
X167262394Y-83108662D01*
X167238222Y-83188345D01*
X167198967Y-83261785D01*
X167146147Y-83326147D01*
X167081785Y-83378967D01*
X167008345Y-83418222D01*
X166928662Y-83442394D01*
X166843309Y-83450800D01*
X165896691Y-83450800D01*
X165811338Y-83442394D01*
X165731655Y-83418222D01*
X165658215Y-83378967D01*
X165593853Y-83326147D01*
X165541033Y-83261785D01*
X165501778Y-83188345D01*
X165477606Y-83108662D01*
X165469200Y-83023309D01*
X165469200Y-82076691D01*
X165477606Y-81991338D01*
X165501778Y-81911655D01*
X165541033Y-81838215D01*
X165593853Y-81773853D01*
X165658215Y-81721033D01*
X165731655Y-81681778D01*
X165811338Y-81657606D01*
X165896691Y-81649200D01*
X166843309Y-81649200D01*
X166928662Y-81657606D01*
X166928662Y-81657606D01*
G37*
G36*
X164388662Y-81657606D02*
G01*
X164468345Y-81681778D01*
X164541785Y-81721033D01*
X164606147Y-81773853D01*
X164658967Y-81838215D01*
X164698222Y-81911655D01*
X164722394Y-81991338D01*
X164730800Y-82076691D01*
X164730800Y-83023309D01*
X164722394Y-83108662D01*
X164698222Y-83188345D01*
X164658967Y-83261785D01*
X164606147Y-83326147D01*
X164541785Y-83378967D01*
X164468345Y-83418222D01*
X164388662Y-83442394D01*
X164303309Y-83450800D01*
X163356691Y-83450800D01*
X163271338Y-83442394D01*
X163191655Y-83418222D01*
X163118215Y-83378967D01*
X163053853Y-83326147D01*
X163001033Y-83261785D01*
X162961778Y-83188345D01*
X162937606Y-83108662D01*
X162929200Y-83023309D01*
X162929200Y-82076691D01*
X162937606Y-81991338D01*
X162961778Y-81911655D01*
X163001033Y-81838215D01*
X163053853Y-81773853D01*
X163118215Y-81721033D01*
X163191655Y-81681778D01*
X163271338Y-81657606D01*
X163356691Y-81649200D01*
X164303309Y-81649200D01*
X164388662Y-81657606D01*
X164388662Y-81657606D01*
G37*
G36*
X161848662Y-81657606D02*
G01*
X161928345Y-81681778D01*
X162001785Y-81721033D01*
X162066147Y-81773853D01*
X162118967Y-81838215D01*
X162158222Y-81911655D01*
X162182394Y-81991338D01*
X162190800Y-82076691D01*
X162190800Y-83023309D01*
X162182394Y-83108662D01*
X162158222Y-83188345D01*
X162118967Y-83261785D01*
X162066147Y-83326147D01*
X162001785Y-83378967D01*
X161928345Y-83418222D01*
X161848662Y-83442394D01*
X161763309Y-83450800D01*
X160816691Y-83450800D01*
X160731338Y-83442394D01*
X160651655Y-83418222D01*
X160578215Y-83378967D01*
X160513853Y-83326147D01*
X160461033Y-83261785D01*
X160421778Y-83188345D01*
X160397606Y-83108662D01*
X160389200Y-83023309D01*
X160389200Y-82076691D01*
X160397606Y-81991338D01*
X160421778Y-81911655D01*
X160461033Y-81838215D01*
X160513853Y-81773853D01*
X160578215Y-81721033D01*
X160651655Y-81681778D01*
X160731338Y-81657606D01*
X160816691Y-81649200D01*
X161763309Y-81649200D01*
X161848662Y-81657606D01*
X161848662Y-81657606D01*
G37*
G36*
X159308662Y-81657606D02*
G01*
X159388345Y-81681778D01*
X159461785Y-81721033D01*
X159526147Y-81773853D01*
X159578967Y-81838215D01*
X159618222Y-81911655D01*
X159642394Y-81991338D01*
X159650800Y-82076691D01*
X159650800Y-83023309D01*
X159642394Y-83108662D01*
X159618222Y-83188345D01*
X159578967Y-83261785D01*
X159526147Y-83326147D01*
X159461785Y-83378967D01*
X159388345Y-83418222D01*
X159308662Y-83442394D01*
X159223309Y-83450800D01*
X158276691Y-83450800D01*
X158191338Y-83442394D01*
X158111655Y-83418222D01*
X158038215Y-83378967D01*
X157973853Y-83326147D01*
X157921033Y-83261785D01*
X157881778Y-83188345D01*
X157857606Y-83108662D01*
X157849200Y-83023309D01*
X157849200Y-82076691D01*
X157857606Y-81991338D01*
X157881778Y-81911655D01*
X157921033Y-81838215D01*
X157973853Y-81773853D01*
X158038215Y-81721033D01*
X158111655Y-81681778D01*
X158191338Y-81657606D01*
X158276691Y-81649200D01*
X159223309Y-81649200D01*
X159308662Y-81657606D01*
X159308662Y-81657606D01*
G37*
M02*
