M48
; DRILL file {KiCad (5.1.0-0)} date Friday, April 12, 2019 at 08:13:42 PM
; FORMAT={-:-/ absolute / inch / decimal}
; #@! TF.CreationDate,2019-04-12T20:13:42-07:00
; #@! TF.GenerationSoftware,Kicad,Pcbnew,(5.1.0-0)
FMAT,2
INCH
T1C0.0130
T2C0.0330
T3C0.0350
T4C0.0394
T5C0.0492
T6C0.0256
%
G90
G05
T1
X5.7435Y-3.695
X5.81Y-3.695
X5.83Y-3.535
X5.88Y-3.42
X5.93Y-3.465
X5.93Y-3.505
X6.015Y-3.44
X6.06Y-3.44
X6.115Y-3.44
X6.115Y-3.505
X6.18Y-3.605
X6.185Y-3.395
X6.255Y-3.605
X6.255Y-3.395
X6.63Y-3.48
X6.635Y-3.615
T2
X6.7Y-3.4613
X6.7Y-3.54
T3
X5.575Y-3.75
X5.675Y-3.75
X5.775Y-3.75
T4
X6.05Y-3.25
X5.95Y-3.25
X6.25Y-3.25
X6.15Y-3.25
X6.05Y-3.75
X5.95Y-3.75
X6.15Y-3.75
X6.25Y-3.75
X6.35Y-3.25
X6.45Y-3.25
X6.55Y-3.25
X6.65Y-3.25
X6.35Y-3.75
X6.45Y-3.75
X6.55Y-3.75
X6.65Y-3.75
T5
X5.5453Y-3.3343
X5.5453Y-3.6157
X5.6811Y-3.6157
T6
X5.6289Y-3.3963
X5.6289Y-3.5537
T5
G00X5.6811Y-3.3343
M15
G01X5.6811Y-3.3343
M16
G05
T0
M30
