G04 #@! TF.GenerationSoftware,KiCad,Pcbnew,(5.1.0-0)*
G04 #@! TF.CreationDate,2019-04-12T20:13:36-07:00*
G04 #@! TF.ProjectId,ap2112m-txb0104-module,61703231-3132-46d2-9d74-786230313034,rev?*
G04 #@! TF.SameCoordinates,Original*
G04 #@! TF.FileFunction,Copper,L1,Top*
G04 #@! TF.FilePolarity,Positive*
%FSLAX46Y46*%
G04 Gerber Fmt 4.6, Leading zero omitted, Abs format (unit mm)*
G04 Created by KiCad (PCBNEW (5.1.0-0)) date 2019-04-12 20:13:36*
%MOMM*%
%LPD*%
G04 APERTURE LIST*
%ADD10C,0.025400*%
%ADD11C,1.300000*%
%ADD12C,1.100000*%
%ADD13O,1.860000X1.860000*%
%ADD14C,0.400000*%
%ADD15C,1.700000*%
%ADD16O,1.778000X1.397000*%
%ADD17C,1.397000*%
%ADD18C,1.651000*%
%ADD19C,0.600000*%
%ADD20C,0.685800*%
%ADD21C,0.508000*%
%ADD22C,0.304800*%
%ADD23C,0.203200*%
G04 APERTURE END LIST*
D10*
G36*
X149908856Y-87361565D02*
G01*
X149940404Y-87366245D01*
X149971343Y-87373994D01*
X150001372Y-87384739D01*
X150030204Y-87398376D01*
X150057560Y-87414772D01*
X150083178Y-87433772D01*
X150106810Y-87455190D01*
X150128228Y-87478822D01*
X150147228Y-87504440D01*
X150163624Y-87531796D01*
X150177261Y-87560628D01*
X150188006Y-87590657D01*
X150195755Y-87621596D01*
X150200435Y-87653144D01*
X150202000Y-87685000D01*
X150202000Y-88335000D01*
X150200435Y-88366856D01*
X150195755Y-88398404D01*
X150188006Y-88429343D01*
X150177261Y-88459372D01*
X150163624Y-88488204D01*
X150147228Y-88515560D01*
X150128228Y-88541178D01*
X150106810Y-88564810D01*
X150083178Y-88586228D01*
X150057560Y-88605228D01*
X150030204Y-88621624D01*
X150001372Y-88635261D01*
X149971343Y-88646006D01*
X149940404Y-88653755D01*
X149908856Y-88658435D01*
X149877000Y-88660000D01*
X148827000Y-88660000D01*
X148795144Y-88658435D01*
X148763596Y-88653755D01*
X148732657Y-88646006D01*
X148702628Y-88635261D01*
X148673796Y-88621624D01*
X148646440Y-88605228D01*
X148620822Y-88586228D01*
X148597190Y-88564810D01*
X148575772Y-88541178D01*
X148556772Y-88515560D01*
X148540376Y-88488204D01*
X148526739Y-88459372D01*
X148515994Y-88429343D01*
X148508245Y-88398404D01*
X148503565Y-88366856D01*
X148502000Y-88335000D01*
X148502000Y-87685000D01*
X148503565Y-87653144D01*
X148508245Y-87621596D01*
X148515994Y-87590657D01*
X148526739Y-87560628D01*
X148540376Y-87531796D01*
X148556772Y-87504440D01*
X148575772Y-87478822D01*
X148597190Y-87455190D01*
X148620822Y-87433772D01*
X148646440Y-87414772D01*
X148673796Y-87398376D01*
X148702628Y-87384739D01*
X148732657Y-87373994D01*
X148763596Y-87366245D01*
X148795144Y-87361565D01*
X148827000Y-87360000D01*
X149877000Y-87360000D01*
X149908856Y-87361565D01*
X149908856Y-87361565D01*
G37*
D11*
X149352000Y-88010000D03*
D10*
G36*
X149908856Y-84061565D02*
G01*
X149940404Y-84066245D01*
X149971343Y-84073994D01*
X150001372Y-84084739D01*
X150030204Y-84098376D01*
X150057560Y-84114772D01*
X150083178Y-84133772D01*
X150106810Y-84155190D01*
X150128228Y-84178822D01*
X150147228Y-84204440D01*
X150163624Y-84231796D01*
X150177261Y-84260628D01*
X150188006Y-84290657D01*
X150195755Y-84321596D01*
X150200435Y-84353144D01*
X150202000Y-84385000D01*
X150202000Y-85035000D01*
X150200435Y-85066856D01*
X150195755Y-85098404D01*
X150188006Y-85129343D01*
X150177261Y-85159372D01*
X150163624Y-85188204D01*
X150147228Y-85215560D01*
X150128228Y-85241178D01*
X150106810Y-85264810D01*
X150083178Y-85286228D01*
X150057560Y-85305228D01*
X150030204Y-85321624D01*
X150001372Y-85335261D01*
X149971343Y-85346006D01*
X149940404Y-85353755D01*
X149908856Y-85358435D01*
X149877000Y-85360000D01*
X148827000Y-85360000D01*
X148795144Y-85358435D01*
X148763596Y-85353755D01*
X148732657Y-85346006D01*
X148702628Y-85335261D01*
X148673796Y-85321624D01*
X148646440Y-85305228D01*
X148620822Y-85286228D01*
X148597190Y-85264810D01*
X148575772Y-85241178D01*
X148556772Y-85215560D01*
X148540376Y-85188204D01*
X148526739Y-85159372D01*
X148515994Y-85129343D01*
X148508245Y-85098404D01*
X148503565Y-85066856D01*
X148502000Y-85035000D01*
X148502000Y-84385000D01*
X148503565Y-84353144D01*
X148508245Y-84321596D01*
X148515994Y-84290657D01*
X148526739Y-84260628D01*
X148540376Y-84231796D01*
X148556772Y-84204440D01*
X148575772Y-84178822D01*
X148597190Y-84155190D01*
X148620822Y-84133772D01*
X148646440Y-84114772D01*
X148673796Y-84098376D01*
X148702628Y-84084739D01*
X148732657Y-84073994D01*
X148763596Y-84066245D01*
X148795144Y-84061565D01*
X148827000Y-84060000D01*
X149877000Y-84060000D01*
X149908856Y-84061565D01*
X149908856Y-84061565D01*
G37*
D11*
X149352000Y-84710000D03*
D10*
G36*
X149908856Y-92441565D02*
G01*
X149940404Y-92446245D01*
X149971343Y-92453994D01*
X150001372Y-92464739D01*
X150030204Y-92478376D01*
X150057560Y-92494772D01*
X150083178Y-92513772D01*
X150106810Y-92535190D01*
X150128228Y-92558822D01*
X150147228Y-92584440D01*
X150163624Y-92611796D01*
X150177261Y-92640628D01*
X150188006Y-92670657D01*
X150195755Y-92701596D01*
X150200435Y-92733144D01*
X150202000Y-92765000D01*
X150202000Y-93415000D01*
X150200435Y-93446856D01*
X150195755Y-93478404D01*
X150188006Y-93509343D01*
X150177261Y-93539372D01*
X150163624Y-93568204D01*
X150147228Y-93595560D01*
X150128228Y-93621178D01*
X150106810Y-93644810D01*
X150083178Y-93666228D01*
X150057560Y-93685228D01*
X150030204Y-93701624D01*
X150001372Y-93715261D01*
X149971343Y-93726006D01*
X149940404Y-93733755D01*
X149908856Y-93738435D01*
X149877000Y-93740000D01*
X148827000Y-93740000D01*
X148795144Y-93738435D01*
X148763596Y-93733755D01*
X148732657Y-93726006D01*
X148702628Y-93715261D01*
X148673796Y-93701624D01*
X148646440Y-93685228D01*
X148620822Y-93666228D01*
X148597190Y-93644810D01*
X148575772Y-93621178D01*
X148556772Y-93595560D01*
X148540376Y-93568204D01*
X148526739Y-93539372D01*
X148515994Y-93509343D01*
X148508245Y-93478404D01*
X148503565Y-93446856D01*
X148502000Y-93415000D01*
X148502000Y-92765000D01*
X148503565Y-92733144D01*
X148508245Y-92701596D01*
X148515994Y-92670657D01*
X148526739Y-92640628D01*
X148540376Y-92611796D01*
X148556772Y-92584440D01*
X148575772Y-92558822D01*
X148597190Y-92535190D01*
X148620822Y-92513772D01*
X148646440Y-92494772D01*
X148673796Y-92478376D01*
X148702628Y-92464739D01*
X148732657Y-92453994D01*
X148763596Y-92446245D01*
X148795144Y-92441565D01*
X148827000Y-92440000D01*
X149877000Y-92440000D01*
X149908856Y-92441565D01*
X149908856Y-92441565D01*
G37*
D11*
X149352000Y-93090000D03*
D10*
G36*
X149908856Y-89141565D02*
G01*
X149940404Y-89146245D01*
X149971343Y-89153994D01*
X150001372Y-89164739D01*
X150030204Y-89178376D01*
X150057560Y-89194772D01*
X150083178Y-89213772D01*
X150106810Y-89235190D01*
X150128228Y-89258822D01*
X150147228Y-89284440D01*
X150163624Y-89311796D01*
X150177261Y-89340628D01*
X150188006Y-89370657D01*
X150195755Y-89401596D01*
X150200435Y-89433144D01*
X150202000Y-89465000D01*
X150202000Y-90115000D01*
X150200435Y-90146856D01*
X150195755Y-90178404D01*
X150188006Y-90209343D01*
X150177261Y-90239372D01*
X150163624Y-90268204D01*
X150147228Y-90295560D01*
X150128228Y-90321178D01*
X150106810Y-90344810D01*
X150083178Y-90366228D01*
X150057560Y-90385228D01*
X150030204Y-90401624D01*
X150001372Y-90415261D01*
X149971343Y-90426006D01*
X149940404Y-90433755D01*
X149908856Y-90438435D01*
X149877000Y-90440000D01*
X148827000Y-90440000D01*
X148795144Y-90438435D01*
X148763596Y-90433755D01*
X148732657Y-90426006D01*
X148702628Y-90415261D01*
X148673796Y-90401624D01*
X148646440Y-90385228D01*
X148620822Y-90366228D01*
X148597190Y-90344810D01*
X148575772Y-90321178D01*
X148556772Y-90295560D01*
X148540376Y-90268204D01*
X148526739Y-90239372D01*
X148515994Y-90209343D01*
X148508245Y-90178404D01*
X148503565Y-90146856D01*
X148502000Y-90115000D01*
X148502000Y-89465000D01*
X148503565Y-89433144D01*
X148508245Y-89401596D01*
X148515994Y-89370657D01*
X148526739Y-89340628D01*
X148540376Y-89311796D01*
X148556772Y-89284440D01*
X148575772Y-89258822D01*
X148597190Y-89235190D01*
X148620822Y-89213772D01*
X148646440Y-89194772D01*
X148673796Y-89178376D01*
X148702628Y-89164739D01*
X148732657Y-89153994D01*
X148763596Y-89146245D01*
X148795144Y-89141565D01*
X148827000Y-89140000D01*
X149877000Y-89140000D01*
X149908856Y-89141565D01*
X149908856Y-89141565D01*
G37*
D11*
X149352000Y-89790000D03*
D10*
G36*
X158389955Y-84915324D02*
G01*
X158416650Y-84919284D01*
X158442828Y-84925841D01*
X158468238Y-84934933D01*
X158492634Y-84946472D01*
X158515782Y-84960346D01*
X158537458Y-84976422D01*
X158557454Y-84994546D01*
X158575578Y-85014542D01*
X158591654Y-85036218D01*
X158605528Y-85059366D01*
X158617067Y-85083762D01*
X158626159Y-85109172D01*
X158632716Y-85135350D01*
X158636676Y-85162045D01*
X158638000Y-85189000D01*
X158638000Y-85739000D01*
X158636676Y-85765955D01*
X158632716Y-85792650D01*
X158626159Y-85818828D01*
X158617067Y-85844238D01*
X158605528Y-85868634D01*
X158591654Y-85891782D01*
X158575578Y-85913458D01*
X158557454Y-85933454D01*
X158537458Y-85951578D01*
X158515782Y-85967654D01*
X158492634Y-85981528D01*
X158468238Y-85993067D01*
X158442828Y-86002159D01*
X158416650Y-86008716D01*
X158389955Y-86012676D01*
X158363000Y-86014000D01*
X157613000Y-86014000D01*
X157586045Y-86012676D01*
X157559350Y-86008716D01*
X157533172Y-86002159D01*
X157507762Y-85993067D01*
X157483366Y-85981528D01*
X157460218Y-85967654D01*
X157438542Y-85951578D01*
X157418546Y-85933454D01*
X157400422Y-85913458D01*
X157384346Y-85891782D01*
X157370472Y-85868634D01*
X157358933Y-85844238D01*
X157349841Y-85818828D01*
X157343284Y-85792650D01*
X157339324Y-85765955D01*
X157338000Y-85739000D01*
X157338000Y-85189000D01*
X157339324Y-85162045D01*
X157343284Y-85135350D01*
X157349841Y-85109172D01*
X157358933Y-85083762D01*
X157370472Y-85059366D01*
X157384346Y-85036218D01*
X157400422Y-85014542D01*
X157418546Y-84994546D01*
X157438542Y-84976422D01*
X157460218Y-84960346D01*
X157483366Y-84946472D01*
X157507762Y-84934933D01*
X157533172Y-84925841D01*
X157559350Y-84919284D01*
X157586045Y-84915324D01*
X157613000Y-84914000D01*
X158363000Y-84914000D01*
X158389955Y-84915324D01*
X158389955Y-84915324D01*
G37*
D12*
X157988000Y-85464000D03*
D10*
G36*
X158389955Y-87215324D02*
G01*
X158416650Y-87219284D01*
X158442828Y-87225841D01*
X158468238Y-87234933D01*
X158492634Y-87246472D01*
X158515782Y-87260346D01*
X158537458Y-87276422D01*
X158557454Y-87294546D01*
X158575578Y-87314542D01*
X158591654Y-87336218D01*
X158605528Y-87359366D01*
X158617067Y-87383762D01*
X158626159Y-87409172D01*
X158632716Y-87435350D01*
X158636676Y-87462045D01*
X158638000Y-87489000D01*
X158638000Y-88039000D01*
X158636676Y-88065955D01*
X158632716Y-88092650D01*
X158626159Y-88118828D01*
X158617067Y-88144238D01*
X158605528Y-88168634D01*
X158591654Y-88191782D01*
X158575578Y-88213458D01*
X158557454Y-88233454D01*
X158537458Y-88251578D01*
X158515782Y-88267654D01*
X158492634Y-88281528D01*
X158468238Y-88293067D01*
X158442828Y-88302159D01*
X158416650Y-88308716D01*
X158389955Y-88312676D01*
X158363000Y-88314000D01*
X157613000Y-88314000D01*
X157586045Y-88312676D01*
X157559350Y-88308716D01*
X157533172Y-88302159D01*
X157507762Y-88293067D01*
X157483366Y-88281528D01*
X157460218Y-88267654D01*
X157438542Y-88251578D01*
X157418546Y-88233454D01*
X157400422Y-88213458D01*
X157384346Y-88191782D01*
X157370472Y-88168634D01*
X157358933Y-88144238D01*
X157349841Y-88118828D01*
X157343284Y-88092650D01*
X157339324Y-88065955D01*
X157338000Y-88039000D01*
X157338000Y-87489000D01*
X157339324Y-87462045D01*
X157343284Y-87435350D01*
X157349841Y-87409172D01*
X157358933Y-87383762D01*
X157370472Y-87359366D01*
X157384346Y-87336218D01*
X157400422Y-87314542D01*
X157418546Y-87294546D01*
X157438542Y-87276422D01*
X157460218Y-87260346D01*
X157483366Y-87246472D01*
X157507762Y-87234933D01*
X157533172Y-87225841D01*
X157559350Y-87219284D01*
X157586045Y-87215324D01*
X157613000Y-87214000D01*
X158363000Y-87214000D01*
X158389955Y-87215324D01*
X158389955Y-87215324D01*
G37*
D12*
X157988000Y-87764000D03*
D10*
G36*
X158389955Y-89487324D02*
G01*
X158416650Y-89491284D01*
X158442828Y-89497841D01*
X158468238Y-89506933D01*
X158492634Y-89518472D01*
X158515782Y-89532346D01*
X158537458Y-89548422D01*
X158557454Y-89566546D01*
X158575578Y-89586542D01*
X158591654Y-89608218D01*
X158605528Y-89631366D01*
X158617067Y-89655762D01*
X158626159Y-89681172D01*
X158632716Y-89707350D01*
X158636676Y-89734045D01*
X158638000Y-89761000D01*
X158638000Y-90311000D01*
X158636676Y-90337955D01*
X158632716Y-90364650D01*
X158626159Y-90390828D01*
X158617067Y-90416238D01*
X158605528Y-90440634D01*
X158591654Y-90463782D01*
X158575578Y-90485458D01*
X158557454Y-90505454D01*
X158537458Y-90523578D01*
X158515782Y-90539654D01*
X158492634Y-90553528D01*
X158468238Y-90565067D01*
X158442828Y-90574159D01*
X158416650Y-90580716D01*
X158389955Y-90584676D01*
X158363000Y-90586000D01*
X157613000Y-90586000D01*
X157586045Y-90584676D01*
X157559350Y-90580716D01*
X157533172Y-90574159D01*
X157507762Y-90565067D01*
X157483366Y-90553528D01*
X157460218Y-90539654D01*
X157438542Y-90523578D01*
X157418546Y-90505454D01*
X157400422Y-90485458D01*
X157384346Y-90463782D01*
X157370472Y-90440634D01*
X157358933Y-90416238D01*
X157349841Y-90390828D01*
X157343284Y-90364650D01*
X157339324Y-90337955D01*
X157338000Y-90311000D01*
X157338000Y-89761000D01*
X157339324Y-89734045D01*
X157343284Y-89707350D01*
X157349841Y-89681172D01*
X157358933Y-89655762D01*
X157370472Y-89631366D01*
X157384346Y-89608218D01*
X157400422Y-89586542D01*
X157418546Y-89566546D01*
X157438542Y-89548422D01*
X157460218Y-89532346D01*
X157483366Y-89518472D01*
X157507762Y-89506933D01*
X157533172Y-89497841D01*
X157559350Y-89491284D01*
X157586045Y-89487324D01*
X157613000Y-89486000D01*
X158363000Y-89486000D01*
X158389955Y-89487324D01*
X158389955Y-89487324D01*
G37*
D12*
X157988000Y-90036000D03*
D10*
G36*
X158389955Y-91787324D02*
G01*
X158416650Y-91791284D01*
X158442828Y-91797841D01*
X158468238Y-91806933D01*
X158492634Y-91818472D01*
X158515782Y-91832346D01*
X158537458Y-91848422D01*
X158557454Y-91866546D01*
X158575578Y-91886542D01*
X158591654Y-91908218D01*
X158605528Y-91931366D01*
X158617067Y-91955762D01*
X158626159Y-91981172D01*
X158632716Y-92007350D01*
X158636676Y-92034045D01*
X158638000Y-92061000D01*
X158638000Y-92611000D01*
X158636676Y-92637955D01*
X158632716Y-92664650D01*
X158626159Y-92690828D01*
X158617067Y-92716238D01*
X158605528Y-92740634D01*
X158591654Y-92763782D01*
X158575578Y-92785458D01*
X158557454Y-92805454D01*
X158537458Y-92823578D01*
X158515782Y-92839654D01*
X158492634Y-92853528D01*
X158468238Y-92865067D01*
X158442828Y-92874159D01*
X158416650Y-92880716D01*
X158389955Y-92884676D01*
X158363000Y-92886000D01*
X157613000Y-92886000D01*
X157586045Y-92884676D01*
X157559350Y-92880716D01*
X157533172Y-92874159D01*
X157507762Y-92865067D01*
X157483366Y-92853528D01*
X157460218Y-92839654D01*
X157438542Y-92823578D01*
X157418546Y-92805454D01*
X157400422Y-92785458D01*
X157384346Y-92763782D01*
X157370472Y-92740634D01*
X157358933Y-92716238D01*
X157349841Y-92690828D01*
X157343284Y-92664650D01*
X157339324Y-92637955D01*
X157338000Y-92611000D01*
X157338000Y-92061000D01*
X157339324Y-92034045D01*
X157343284Y-92007350D01*
X157349841Y-91981172D01*
X157358933Y-91955762D01*
X157370472Y-91931366D01*
X157384346Y-91908218D01*
X157400422Y-91886542D01*
X157418546Y-91866546D01*
X157438542Y-91848422D01*
X157460218Y-91832346D01*
X157483366Y-91818472D01*
X157507762Y-91806933D01*
X157533172Y-91797841D01*
X157559350Y-91791284D01*
X157586045Y-91787324D01*
X157613000Y-91786000D01*
X158363000Y-91786000D01*
X158389955Y-91787324D01*
X158389955Y-91787324D01*
G37*
D12*
X157988000Y-92336000D03*
D10*
G36*
X144756856Y-81701565D02*
G01*
X144788404Y-81706245D01*
X144819343Y-81713994D01*
X144849372Y-81724739D01*
X144878204Y-81738376D01*
X144905560Y-81754772D01*
X144931178Y-81773772D01*
X144954810Y-81795190D01*
X144976228Y-81818822D01*
X144995228Y-81844440D01*
X145011624Y-81871796D01*
X145025261Y-81900628D01*
X145036006Y-81930657D01*
X145043755Y-81961596D01*
X145048435Y-81993144D01*
X145050000Y-82025000D01*
X145050000Y-83075000D01*
X145048435Y-83106856D01*
X145043755Y-83138404D01*
X145036006Y-83169343D01*
X145025261Y-83199372D01*
X145011624Y-83228204D01*
X144995228Y-83255560D01*
X144976228Y-83281178D01*
X144954810Y-83304810D01*
X144931178Y-83326228D01*
X144905560Y-83345228D01*
X144878204Y-83361624D01*
X144849372Y-83375261D01*
X144819343Y-83386006D01*
X144788404Y-83393755D01*
X144756856Y-83398435D01*
X144725000Y-83400000D01*
X144075000Y-83400000D01*
X144043144Y-83398435D01*
X144011596Y-83393755D01*
X143980657Y-83386006D01*
X143950628Y-83375261D01*
X143921796Y-83361624D01*
X143894440Y-83345228D01*
X143868822Y-83326228D01*
X143845190Y-83304810D01*
X143823772Y-83281178D01*
X143804772Y-83255560D01*
X143788376Y-83228204D01*
X143774739Y-83199372D01*
X143763994Y-83169343D01*
X143756245Y-83138404D01*
X143751565Y-83106856D01*
X143750000Y-83075000D01*
X143750000Y-82025000D01*
X143751565Y-81993144D01*
X143756245Y-81961596D01*
X143763994Y-81930657D01*
X143774739Y-81900628D01*
X143788376Y-81871796D01*
X143804772Y-81844440D01*
X143823772Y-81818822D01*
X143845190Y-81795190D01*
X143868822Y-81773772D01*
X143894440Y-81754772D01*
X143921796Y-81738376D01*
X143950628Y-81724739D01*
X143980657Y-81713994D01*
X144011596Y-81706245D01*
X144043144Y-81701565D01*
X144075000Y-81700000D01*
X144725000Y-81700000D01*
X144756856Y-81701565D01*
X144756856Y-81701565D01*
G37*
D11*
X144400000Y-82550000D03*
D10*
G36*
X148056856Y-81701565D02*
G01*
X148088404Y-81706245D01*
X148119343Y-81713994D01*
X148149372Y-81724739D01*
X148178204Y-81738376D01*
X148205560Y-81754772D01*
X148231178Y-81773772D01*
X148254810Y-81795190D01*
X148276228Y-81818822D01*
X148295228Y-81844440D01*
X148311624Y-81871796D01*
X148325261Y-81900628D01*
X148336006Y-81930657D01*
X148343755Y-81961596D01*
X148348435Y-81993144D01*
X148350000Y-82025000D01*
X148350000Y-83075000D01*
X148348435Y-83106856D01*
X148343755Y-83138404D01*
X148336006Y-83169343D01*
X148325261Y-83199372D01*
X148311624Y-83228204D01*
X148295228Y-83255560D01*
X148276228Y-83281178D01*
X148254810Y-83304810D01*
X148231178Y-83326228D01*
X148205560Y-83345228D01*
X148178204Y-83361624D01*
X148149372Y-83375261D01*
X148119343Y-83386006D01*
X148088404Y-83393755D01*
X148056856Y-83398435D01*
X148025000Y-83400000D01*
X147375000Y-83400000D01*
X147343144Y-83398435D01*
X147311596Y-83393755D01*
X147280657Y-83386006D01*
X147250628Y-83375261D01*
X147221796Y-83361624D01*
X147194440Y-83345228D01*
X147168822Y-83326228D01*
X147145190Y-83304810D01*
X147123772Y-83281178D01*
X147104772Y-83255560D01*
X147088376Y-83228204D01*
X147074739Y-83199372D01*
X147063994Y-83169343D01*
X147056245Y-83138404D01*
X147051565Y-83106856D01*
X147050000Y-83075000D01*
X147050000Y-82025000D01*
X147051565Y-81993144D01*
X147056245Y-81961596D01*
X147063994Y-81930657D01*
X147074739Y-81900628D01*
X147088376Y-81871796D01*
X147104772Y-81844440D01*
X147123772Y-81818822D01*
X147145190Y-81795190D01*
X147168822Y-81773772D01*
X147194440Y-81754772D01*
X147221796Y-81738376D01*
X147250628Y-81724739D01*
X147280657Y-81713994D01*
X147311596Y-81706245D01*
X147343144Y-81701565D01*
X147375000Y-81700000D01*
X148025000Y-81700000D01*
X148056856Y-81701565D01*
X148056856Y-81701565D01*
G37*
D11*
X147700000Y-82550000D03*
D13*
X140850000Y-91840000D03*
X144300000Y-91840000D03*
D10*
G36*
X144519603Y-89365962D02*
G01*
X144539018Y-89368842D01*
X144558057Y-89373611D01*
X144576537Y-89380223D01*
X144594279Y-89388615D01*
X144611114Y-89398705D01*
X144626879Y-89410397D01*
X144641421Y-89423578D01*
X144654602Y-89438120D01*
X144666294Y-89453885D01*
X144676384Y-89470720D01*
X144684776Y-89488462D01*
X144691388Y-89506942D01*
X144696157Y-89525981D01*
X144699037Y-89545396D01*
X144700000Y-89564999D01*
X144700000Y-89565001D01*
X144699037Y-89584604D01*
X144696157Y-89604019D01*
X144691388Y-89623058D01*
X144684776Y-89641538D01*
X144676384Y-89659280D01*
X144666294Y-89676115D01*
X144654602Y-89691880D01*
X144641421Y-89706422D01*
X144626879Y-89719603D01*
X144611114Y-89731295D01*
X144594279Y-89741385D01*
X144576537Y-89749777D01*
X144558057Y-89756389D01*
X144539018Y-89761158D01*
X144519603Y-89764038D01*
X144500000Y-89765001D01*
X143300000Y-89765001D01*
X143280397Y-89764038D01*
X143260982Y-89761158D01*
X143241943Y-89756389D01*
X143223463Y-89749777D01*
X143205721Y-89741385D01*
X143188886Y-89731295D01*
X143173121Y-89719603D01*
X143158579Y-89706422D01*
X143145398Y-89691880D01*
X143133706Y-89676115D01*
X143123616Y-89659280D01*
X143115224Y-89641538D01*
X143108612Y-89623058D01*
X143103843Y-89604019D01*
X143100963Y-89584604D01*
X143100000Y-89565001D01*
X143100000Y-89564999D01*
X143100963Y-89545396D01*
X143103843Y-89525981D01*
X143108612Y-89506942D01*
X143115224Y-89488462D01*
X143123616Y-89470720D01*
X143133706Y-89453885D01*
X143145398Y-89438120D01*
X143158579Y-89423578D01*
X143173121Y-89410397D01*
X143188886Y-89398705D01*
X143205721Y-89388615D01*
X143223463Y-89380223D01*
X143241943Y-89373611D01*
X143260982Y-89368842D01*
X143280397Y-89365962D01*
X143300000Y-89364999D01*
X144500000Y-89364999D01*
X144519603Y-89365962D01*
X144519603Y-89365962D01*
G37*
D14*
X143900000Y-89565000D03*
D10*
G36*
X144609802Y-88715482D02*
G01*
X144619509Y-88716921D01*
X144629028Y-88719306D01*
X144638268Y-88722612D01*
X144647140Y-88726808D01*
X144655557Y-88731853D01*
X144663439Y-88737699D01*
X144670711Y-88744289D01*
X144677301Y-88751561D01*
X144683147Y-88759443D01*
X144688192Y-88767860D01*
X144692388Y-88776732D01*
X144695694Y-88785972D01*
X144698079Y-88795491D01*
X144699518Y-88805198D01*
X144700000Y-88815000D01*
X144700000Y-89015000D01*
X144699518Y-89024802D01*
X144698079Y-89034509D01*
X144695694Y-89044028D01*
X144692388Y-89053268D01*
X144688192Y-89062140D01*
X144683147Y-89070557D01*
X144677301Y-89078439D01*
X144670711Y-89085711D01*
X144663439Y-89092301D01*
X144655557Y-89098147D01*
X144647140Y-89103192D01*
X144638268Y-89107388D01*
X144629028Y-89110694D01*
X144619509Y-89113079D01*
X144609802Y-89114518D01*
X144600000Y-89115000D01*
X143200000Y-89115000D01*
X143190198Y-89114518D01*
X143180491Y-89113079D01*
X143170972Y-89110694D01*
X143161732Y-89107388D01*
X143152860Y-89103192D01*
X143144443Y-89098147D01*
X143136561Y-89092301D01*
X143129289Y-89085711D01*
X143122699Y-89078439D01*
X143116853Y-89070557D01*
X143111808Y-89062140D01*
X143107612Y-89053268D01*
X143104306Y-89044028D01*
X143101921Y-89034509D01*
X143100482Y-89024802D01*
X143100000Y-89015000D01*
X143100000Y-88815000D01*
X143100482Y-88805198D01*
X143101921Y-88795491D01*
X143104306Y-88785972D01*
X143107612Y-88776732D01*
X143111808Y-88767860D01*
X143116853Y-88759443D01*
X143122699Y-88751561D01*
X143129289Y-88744289D01*
X143136561Y-88737699D01*
X143144443Y-88731853D01*
X143152860Y-88726808D01*
X143161732Y-88722612D01*
X143170972Y-88719306D01*
X143180491Y-88716921D01*
X143190198Y-88715482D01*
X143200000Y-88715000D01*
X144600000Y-88715000D01*
X144609802Y-88715482D01*
X144609802Y-88715482D01*
G37*
D14*
X143900000Y-88915000D03*
D10*
G36*
X144609802Y-88065482D02*
G01*
X144619509Y-88066921D01*
X144629028Y-88069306D01*
X144638268Y-88072612D01*
X144647140Y-88076808D01*
X144655557Y-88081853D01*
X144663439Y-88087699D01*
X144670711Y-88094289D01*
X144677301Y-88101561D01*
X144683147Y-88109443D01*
X144688192Y-88117860D01*
X144692388Y-88126732D01*
X144695694Y-88135972D01*
X144698079Y-88145491D01*
X144699518Y-88155198D01*
X144700000Y-88165000D01*
X144700000Y-88365000D01*
X144699518Y-88374802D01*
X144698079Y-88384509D01*
X144695694Y-88394028D01*
X144692388Y-88403268D01*
X144688192Y-88412140D01*
X144683147Y-88420557D01*
X144677301Y-88428439D01*
X144670711Y-88435711D01*
X144663439Y-88442301D01*
X144655557Y-88448147D01*
X144647140Y-88453192D01*
X144638268Y-88457388D01*
X144629028Y-88460694D01*
X144619509Y-88463079D01*
X144609802Y-88464518D01*
X144600000Y-88465000D01*
X143200000Y-88465000D01*
X143190198Y-88464518D01*
X143180491Y-88463079D01*
X143170972Y-88460694D01*
X143161732Y-88457388D01*
X143152860Y-88453192D01*
X143144443Y-88448147D01*
X143136561Y-88442301D01*
X143129289Y-88435711D01*
X143122699Y-88428439D01*
X143116853Y-88420557D01*
X143111808Y-88412140D01*
X143107612Y-88403268D01*
X143104306Y-88394028D01*
X143101921Y-88384509D01*
X143100482Y-88374802D01*
X143100000Y-88365000D01*
X143100000Y-88165000D01*
X143100482Y-88155198D01*
X143101921Y-88145491D01*
X143104306Y-88135972D01*
X143107612Y-88126732D01*
X143111808Y-88117860D01*
X143116853Y-88109443D01*
X143122699Y-88101561D01*
X143129289Y-88094289D01*
X143136561Y-88087699D01*
X143144443Y-88081853D01*
X143152860Y-88076808D01*
X143161732Y-88072612D01*
X143170972Y-88069306D01*
X143180491Y-88066921D01*
X143190198Y-88065482D01*
X143200000Y-88065000D01*
X144600000Y-88065000D01*
X144609802Y-88065482D01*
X144609802Y-88065482D01*
G37*
D14*
X143900000Y-88265000D03*
D10*
G36*
X144609802Y-87415482D02*
G01*
X144619509Y-87416921D01*
X144629028Y-87419306D01*
X144638268Y-87422612D01*
X144647140Y-87426808D01*
X144655557Y-87431853D01*
X144663439Y-87437699D01*
X144670711Y-87444289D01*
X144677301Y-87451561D01*
X144683147Y-87459443D01*
X144688192Y-87467860D01*
X144692388Y-87476732D01*
X144695694Y-87485972D01*
X144698079Y-87495491D01*
X144699518Y-87505198D01*
X144700000Y-87515000D01*
X144700000Y-87715000D01*
X144699518Y-87724802D01*
X144698079Y-87734509D01*
X144695694Y-87744028D01*
X144692388Y-87753268D01*
X144688192Y-87762140D01*
X144683147Y-87770557D01*
X144677301Y-87778439D01*
X144670711Y-87785711D01*
X144663439Y-87792301D01*
X144655557Y-87798147D01*
X144647140Y-87803192D01*
X144638268Y-87807388D01*
X144629028Y-87810694D01*
X144619509Y-87813079D01*
X144609802Y-87814518D01*
X144600000Y-87815000D01*
X143200000Y-87815000D01*
X143190198Y-87814518D01*
X143180491Y-87813079D01*
X143170972Y-87810694D01*
X143161732Y-87807388D01*
X143152860Y-87803192D01*
X143144443Y-87798147D01*
X143136561Y-87792301D01*
X143129289Y-87785711D01*
X143122699Y-87778439D01*
X143116853Y-87770557D01*
X143111808Y-87762140D01*
X143107612Y-87753268D01*
X143104306Y-87744028D01*
X143101921Y-87734509D01*
X143100482Y-87724802D01*
X143100000Y-87715000D01*
X143100000Y-87515000D01*
X143100482Y-87505198D01*
X143101921Y-87495491D01*
X143104306Y-87485972D01*
X143107612Y-87476732D01*
X143111808Y-87467860D01*
X143116853Y-87459443D01*
X143122699Y-87451561D01*
X143129289Y-87444289D01*
X143136561Y-87437699D01*
X143144443Y-87431853D01*
X143152860Y-87426808D01*
X143161732Y-87422612D01*
X143170972Y-87419306D01*
X143180491Y-87416921D01*
X143190198Y-87415482D01*
X143200000Y-87415000D01*
X144600000Y-87415000D01*
X144609802Y-87415482D01*
X144609802Y-87415482D01*
G37*
D14*
X143900000Y-87615000D03*
D10*
G36*
X144519603Y-86765962D02*
G01*
X144539018Y-86768842D01*
X144558057Y-86773611D01*
X144576537Y-86780223D01*
X144594279Y-86788615D01*
X144611114Y-86798705D01*
X144626879Y-86810397D01*
X144641421Y-86823578D01*
X144654602Y-86838120D01*
X144666294Y-86853885D01*
X144676384Y-86870720D01*
X144684776Y-86888462D01*
X144691388Y-86906942D01*
X144696157Y-86925981D01*
X144699037Y-86945396D01*
X144700000Y-86964999D01*
X144700000Y-86965001D01*
X144699037Y-86984604D01*
X144696157Y-87004019D01*
X144691388Y-87023058D01*
X144684776Y-87041538D01*
X144676384Y-87059280D01*
X144666294Y-87076115D01*
X144654602Y-87091880D01*
X144641421Y-87106422D01*
X144626879Y-87119603D01*
X144611114Y-87131295D01*
X144594279Y-87141385D01*
X144576537Y-87149777D01*
X144558057Y-87156389D01*
X144539018Y-87161158D01*
X144519603Y-87164038D01*
X144500000Y-87165001D01*
X143300000Y-87165001D01*
X143280397Y-87164038D01*
X143260982Y-87161158D01*
X143241943Y-87156389D01*
X143223463Y-87149777D01*
X143205721Y-87141385D01*
X143188886Y-87131295D01*
X143173121Y-87119603D01*
X143158579Y-87106422D01*
X143145398Y-87091880D01*
X143133706Y-87076115D01*
X143123616Y-87059280D01*
X143115224Y-87041538D01*
X143108612Y-87023058D01*
X143103843Y-87004019D01*
X143100963Y-86984604D01*
X143100000Y-86965001D01*
X143100000Y-86964999D01*
X143100963Y-86945396D01*
X143103843Y-86925981D01*
X143108612Y-86906942D01*
X143115224Y-86888462D01*
X143123616Y-86870720D01*
X143133706Y-86853885D01*
X143145398Y-86838120D01*
X143158579Y-86823578D01*
X143173121Y-86810397D01*
X143188886Y-86798705D01*
X143205721Y-86788615D01*
X143223463Y-86780223D01*
X143241943Y-86773611D01*
X143260982Y-86768842D01*
X143280397Y-86765962D01*
X143300000Y-86764999D01*
X144500000Y-86764999D01*
X144519603Y-86765962D01*
X144519603Y-86765962D01*
G37*
D14*
X143900000Y-86965000D03*
D13*
X140850000Y-84690000D03*
X144300000Y-84690000D03*
D10*
G36*
X154136657Y-81702046D02*
G01*
X154177913Y-81708166D01*
X154218371Y-81718300D01*
X154257640Y-81732351D01*
X154295344Y-81750183D01*
X154331117Y-81771625D01*
X154364617Y-81796471D01*
X154395520Y-81824480D01*
X154423529Y-81855383D01*
X154448375Y-81888883D01*
X154469817Y-81924656D01*
X154487649Y-81962360D01*
X154501700Y-82001629D01*
X154511834Y-82042087D01*
X154517954Y-82083343D01*
X154520000Y-82125000D01*
X154520000Y-82975000D01*
X154517954Y-83016657D01*
X154511834Y-83057913D01*
X154501700Y-83098371D01*
X154487649Y-83137640D01*
X154469817Y-83175344D01*
X154448375Y-83211117D01*
X154423529Y-83244617D01*
X154395520Y-83275520D01*
X154364617Y-83303529D01*
X154331117Y-83328375D01*
X154295344Y-83349817D01*
X154257640Y-83367649D01*
X154218371Y-83381700D01*
X154177913Y-83391834D01*
X154136657Y-83397954D01*
X154095000Y-83400000D01*
X153245000Y-83400000D01*
X153203343Y-83397954D01*
X153162087Y-83391834D01*
X153121629Y-83381700D01*
X153082360Y-83367649D01*
X153044656Y-83349817D01*
X153008883Y-83328375D01*
X152975383Y-83303529D01*
X152944480Y-83275520D01*
X152916471Y-83244617D01*
X152891625Y-83211117D01*
X152870183Y-83175344D01*
X152852351Y-83137640D01*
X152838300Y-83098371D01*
X152828166Y-83057913D01*
X152822046Y-83016657D01*
X152820000Y-82975000D01*
X152820000Y-82125000D01*
X152822046Y-82083343D01*
X152828166Y-82042087D01*
X152838300Y-82001629D01*
X152852351Y-81962360D01*
X152870183Y-81924656D01*
X152891625Y-81888883D01*
X152916471Y-81855383D01*
X152944480Y-81824480D01*
X152975383Y-81796471D01*
X153008883Y-81771625D01*
X153044656Y-81750183D01*
X153082360Y-81732351D01*
X153121629Y-81718300D01*
X153162087Y-81708166D01*
X153203343Y-81702046D01*
X153245000Y-81700000D01*
X154095000Y-81700000D01*
X154136657Y-81702046D01*
X154136657Y-81702046D01*
G37*
D15*
X153670000Y-82550000D03*
D10*
G36*
X151596657Y-81702046D02*
G01*
X151637913Y-81708166D01*
X151678371Y-81718300D01*
X151717640Y-81732351D01*
X151755344Y-81750183D01*
X151791117Y-81771625D01*
X151824617Y-81796471D01*
X151855520Y-81824480D01*
X151883529Y-81855383D01*
X151908375Y-81888883D01*
X151929817Y-81924656D01*
X151947649Y-81962360D01*
X151961700Y-82001629D01*
X151971834Y-82042087D01*
X151977954Y-82083343D01*
X151980000Y-82125000D01*
X151980000Y-82975000D01*
X151977954Y-83016657D01*
X151971834Y-83057913D01*
X151961700Y-83098371D01*
X151947649Y-83137640D01*
X151929817Y-83175344D01*
X151908375Y-83211117D01*
X151883529Y-83244617D01*
X151855520Y-83275520D01*
X151824617Y-83303529D01*
X151791117Y-83328375D01*
X151755344Y-83349817D01*
X151717640Y-83367649D01*
X151678371Y-83381700D01*
X151637913Y-83391834D01*
X151596657Y-83397954D01*
X151555000Y-83400000D01*
X150705000Y-83400000D01*
X150663343Y-83397954D01*
X150622087Y-83391834D01*
X150581629Y-83381700D01*
X150542360Y-83367649D01*
X150504656Y-83349817D01*
X150468883Y-83328375D01*
X150435383Y-83303529D01*
X150404480Y-83275520D01*
X150376471Y-83244617D01*
X150351625Y-83211117D01*
X150330183Y-83175344D01*
X150312351Y-83137640D01*
X150298300Y-83098371D01*
X150288166Y-83057913D01*
X150282046Y-83016657D01*
X150280000Y-82975000D01*
X150280000Y-82125000D01*
X150282046Y-82083343D01*
X150288166Y-82042087D01*
X150298300Y-82001629D01*
X150312351Y-81962360D01*
X150330183Y-81924656D01*
X150351625Y-81888883D01*
X150376471Y-81855383D01*
X150404480Y-81824480D01*
X150435383Y-81796471D01*
X150468883Y-81771625D01*
X150504656Y-81750183D01*
X150542360Y-81732351D01*
X150581629Y-81718300D01*
X150622087Y-81708166D01*
X150663343Y-81702046D01*
X150705000Y-81700000D01*
X151555000Y-81700000D01*
X151596657Y-81702046D01*
X151596657Y-81702046D01*
G37*
D15*
X151130000Y-82550000D03*
D10*
G36*
X159216657Y-81702046D02*
G01*
X159257913Y-81708166D01*
X159298371Y-81718300D01*
X159337640Y-81732351D01*
X159375344Y-81750183D01*
X159411117Y-81771625D01*
X159444617Y-81796471D01*
X159475520Y-81824480D01*
X159503529Y-81855383D01*
X159528375Y-81888883D01*
X159549817Y-81924656D01*
X159567649Y-81962360D01*
X159581700Y-82001629D01*
X159591834Y-82042087D01*
X159597954Y-82083343D01*
X159600000Y-82125000D01*
X159600000Y-82975000D01*
X159597954Y-83016657D01*
X159591834Y-83057913D01*
X159581700Y-83098371D01*
X159567649Y-83137640D01*
X159549817Y-83175344D01*
X159528375Y-83211117D01*
X159503529Y-83244617D01*
X159475520Y-83275520D01*
X159444617Y-83303529D01*
X159411117Y-83328375D01*
X159375344Y-83349817D01*
X159337640Y-83367649D01*
X159298371Y-83381700D01*
X159257913Y-83391834D01*
X159216657Y-83397954D01*
X159175000Y-83400000D01*
X158325000Y-83400000D01*
X158283343Y-83397954D01*
X158242087Y-83391834D01*
X158201629Y-83381700D01*
X158162360Y-83367649D01*
X158124656Y-83349817D01*
X158088883Y-83328375D01*
X158055383Y-83303529D01*
X158024480Y-83275520D01*
X157996471Y-83244617D01*
X157971625Y-83211117D01*
X157950183Y-83175344D01*
X157932351Y-83137640D01*
X157918300Y-83098371D01*
X157908166Y-83057913D01*
X157902046Y-83016657D01*
X157900000Y-82975000D01*
X157900000Y-82125000D01*
X157902046Y-82083343D01*
X157908166Y-82042087D01*
X157918300Y-82001629D01*
X157932351Y-81962360D01*
X157950183Y-81924656D01*
X157971625Y-81888883D01*
X157996471Y-81855383D01*
X158024480Y-81824480D01*
X158055383Y-81796471D01*
X158088883Y-81771625D01*
X158124656Y-81750183D01*
X158162360Y-81732351D01*
X158201629Y-81718300D01*
X158242087Y-81708166D01*
X158283343Y-81702046D01*
X158325000Y-81700000D01*
X159175000Y-81700000D01*
X159216657Y-81702046D01*
X159216657Y-81702046D01*
G37*
D15*
X158750000Y-82550000D03*
D10*
G36*
X156676657Y-81702046D02*
G01*
X156717913Y-81708166D01*
X156758371Y-81718300D01*
X156797640Y-81732351D01*
X156835344Y-81750183D01*
X156871117Y-81771625D01*
X156904617Y-81796471D01*
X156935520Y-81824480D01*
X156963529Y-81855383D01*
X156988375Y-81888883D01*
X157009817Y-81924656D01*
X157027649Y-81962360D01*
X157041700Y-82001629D01*
X157051834Y-82042087D01*
X157057954Y-82083343D01*
X157060000Y-82125000D01*
X157060000Y-82975000D01*
X157057954Y-83016657D01*
X157051834Y-83057913D01*
X157041700Y-83098371D01*
X157027649Y-83137640D01*
X157009817Y-83175344D01*
X156988375Y-83211117D01*
X156963529Y-83244617D01*
X156935520Y-83275520D01*
X156904617Y-83303529D01*
X156871117Y-83328375D01*
X156835344Y-83349817D01*
X156797640Y-83367649D01*
X156758371Y-83381700D01*
X156717913Y-83391834D01*
X156676657Y-83397954D01*
X156635000Y-83400000D01*
X155785000Y-83400000D01*
X155743343Y-83397954D01*
X155702087Y-83391834D01*
X155661629Y-83381700D01*
X155622360Y-83367649D01*
X155584656Y-83349817D01*
X155548883Y-83328375D01*
X155515383Y-83303529D01*
X155484480Y-83275520D01*
X155456471Y-83244617D01*
X155431625Y-83211117D01*
X155410183Y-83175344D01*
X155392351Y-83137640D01*
X155378300Y-83098371D01*
X155368166Y-83057913D01*
X155362046Y-83016657D01*
X155360000Y-82975000D01*
X155360000Y-82125000D01*
X155362046Y-82083343D01*
X155368166Y-82042087D01*
X155378300Y-82001629D01*
X155392351Y-81962360D01*
X155410183Y-81924656D01*
X155431625Y-81888883D01*
X155456471Y-81855383D01*
X155484480Y-81824480D01*
X155515383Y-81796471D01*
X155548883Y-81771625D01*
X155584656Y-81750183D01*
X155622360Y-81732351D01*
X155661629Y-81718300D01*
X155702087Y-81708166D01*
X155743343Y-81702046D01*
X155785000Y-81700000D01*
X156635000Y-81700000D01*
X156676657Y-81702046D01*
X156676657Y-81702046D01*
G37*
D15*
X156210000Y-82550000D03*
D10*
G36*
X154136657Y-94402046D02*
G01*
X154177913Y-94408166D01*
X154218371Y-94418300D01*
X154257640Y-94432351D01*
X154295344Y-94450183D01*
X154331117Y-94471625D01*
X154364617Y-94496471D01*
X154395520Y-94524480D01*
X154423529Y-94555383D01*
X154448375Y-94588883D01*
X154469817Y-94624656D01*
X154487649Y-94662360D01*
X154501700Y-94701629D01*
X154511834Y-94742087D01*
X154517954Y-94783343D01*
X154520000Y-94825000D01*
X154520000Y-95675000D01*
X154517954Y-95716657D01*
X154511834Y-95757913D01*
X154501700Y-95798371D01*
X154487649Y-95837640D01*
X154469817Y-95875344D01*
X154448375Y-95911117D01*
X154423529Y-95944617D01*
X154395520Y-95975520D01*
X154364617Y-96003529D01*
X154331117Y-96028375D01*
X154295344Y-96049817D01*
X154257640Y-96067649D01*
X154218371Y-96081700D01*
X154177913Y-96091834D01*
X154136657Y-96097954D01*
X154095000Y-96100000D01*
X153245000Y-96100000D01*
X153203343Y-96097954D01*
X153162087Y-96091834D01*
X153121629Y-96081700D01*
X153082360Y-96067649D01*
X153044656Y-96049817D01*
X153008883Y-96028375D01*
X152975383Y-96003529D01*
X152944480Y-95975520D01*
X152916471Y-95944617D01*
X152891625Y-95911117D01*
X152870183Y-95875344D01*
X152852351Y-95837640D01*
X152838300Y-95798371D01*
X152828166Y-95757913D01*
X152822046Y-95716657D01*
X152820000Y-95675000D01*
X152820000Y-94825000D01*
X152822046Y-94783343D01*
X152828166Y-94742087D01*
X152838300Y-94701629D01*
X152852351Y-94662360D01*
X152870183Y-94624656D01*
X152891625Y-94588883D01*
X152916471Y-94555383D01*
X152944480Y-94524480D01*
X152975383Y-94496471D01*
X153008883Y-94471625D01*
X153044656Y-94450183D01*
X153082360Y-94432351D01*
X153121629Y-94418300D01*
X153162087Y-94408166D01*
X153203343Y-94402046D01*
X153245000Y-94400000D01*
X154095000Y-94400000D01*
X154136657Y-94402046D01*
X154136657Y-94402046D01*
G37*
D15*
X153670000Y-95250000D03*
D10*
G36*
X151596657Y-94402046D02*
G01*
X151637913Y-94408166D01*
X151678371Y-94418300D01*
X151717640Y-94432351D01*
X151755344Y-94450183D01*
X151791117Y-94471625D01*
X151824617Y-94496471D01*
X151855520Y-94524480D01*
X151883529Y-94555383D01*
X151908375Y-94588883D01*
X151929817Y-94624656D01*
X151947649Y-94662360D01*
X151961700Y-94701629D01*
X151971834Y-94742087D01*
X151977954Y-94783343D01*
X151980000Y-94825000D01*
X151980000Y-95675000D01*
X151977954Y-95716657D01*
X151971834Y-95757913D01*
X151961700Y-95798371D01*
X151947649Y-95837640D01*
X151929817Y-95875344D01*
X151908375Y-95911117D01*
X151883529Y-95944617D01*
X151855520Y-95975520D01*
X151824617Y-96003529D01*
X151791117Y-96028375D01*
X151755344Y-96049817D01*
X151717640Y-96067649D01*
X151678371Y-96081700D01*
X151637913Y-96091834D01*
X151596657Y-96097954D01*
X151555000Y-96100000D01*
X150705000Y-96100000D01*
X150663343Y-96097954D01*
X150622087Y-96091834D01*
X150581629Y-96081700D01*
X150542360Y-96067649D01*
X150504656Y-96049817D01*
X150468883Y-96028375D01*
X150435383Y-96003529D01*
X150404480Y-95975520D01*
X150376471Y-95944617D01*
X150351625Y-95911117D01*
X150330183Y-95875344D01*
X150312351Y-95837640D01*
X150298300Y-95798371D01*
X150288166Y-95757913D01*
X150282046Y-95716657D01*
X150280000Y-95675000D01*
X150280000Y-94825000D01*
X150282046Y-94783343D01*
X150288166Y-94742087D01*
X150298300Y-94701629D01*
X150312351Y-94662360D01*
X150330183Y-94624656D01*
X150351625Y-94588883D01*
X150376471Y-94555383D01*
X150404480Y-94524480D01*
X150435383Y-94496471D01*
X150468883Y-94471625D01*
X150504656Y-94450183D01*
X150542360Y-94432351D01*
X150581629Y-94418300D01*
X150622087Y-94408166D01*
X150663343Y-94402046D01*
X150705000Y-94400000D01*
X151555000Y-94400000D01*
X151596657Y-94402046D01*
X151596657Y-94402046D01*
G37*
D15*
X151130000Y-95250000D03*
D10*
G36*
X159216657Y-94402046D02*
G01*
X159257913Y-94408166D01*
X159298371Y-94418300D01*
X159337640Y-94432351D01*
X159375344Y-94450183D01*
X159411117Y-94471625D01*
X159444617Y-94496471D01*
X159475520Y-94524480D01*
X159503529Y-94555383D01*
X159528375Y-94588883D01*
X159549817Y-94624656D01*
X159567649Y-94662360D01*
X159581700Y-94701629D01*
X159591834Y-94742087D01*
X159597954Y-94783343D01*
X159600000Y-94825000D01*
X159600000Y-95675000D01*
X159597954Y-95716657D01*
X159591834Y-95757913D01*
X159581700Y-95798371D01*
X159567649Y-95837640D01*
X159549817Y-95875344D01*
X159528375Y-95911117D01*
X159503529Y-95944617D01*
X159475520Y-95975520D01*
X159444617Y-96003529D01*
X159411117Y-96028375D01*
X159375344Y-96049817D01*
X159337640Y-96067649D01*
X159298371Y-96081700D01*
X159257913Y-96091834D01*
X159216657Y-96097954D01*
X159175000Y-96100000D01*
X158325000Y-96100000D01*
X158283343Y-96097954D01*
X158242087Y-96091834D01*
X158201629Y-96081700D01*
X158162360Y-96067649D01*
X158124656Y-96049817D01*
X158088883Y-96028375D01*
X158055383Y-96003529D01*
X158024480Y-95975520D01*
X157996471Y-95944617D01*
X157971625Y-95911117D01*
X157950183Y-95875344D01*
X157932351Y-95837640D01*
X157918300Y-95798371D01*
X157908166Y-95757913D01*
X157902046Y-95716657D01*
X157900000Y-95675000D01*
X157900000Y-94825000D01*
X157902046Y-94783343D01*
X157908166Y-94742087D01*
X157918300Y-94701629D01*
X157932351Y-94662360D01*
X157950183Y-94624656D01*
X157971625Y-94588883D01*
X157996471Y-94555383D01*
X158024480Y-94524480D01*
X158055383Y-94496471D01*
X158088883Y-94471625D01*
X158124656Y-94450183D01*
X158162360Y-94432351D01*
X158201629Y-94418300D01*
X158242087Y-94408166D01*
X158283343Y-94402046D01*
X158325000Y-94400000D01*
X159175000Y-94400000D01*
X159216657Y-94402046D01*
X159216657Y-94402046D01*
G37*
D15*
X158750000Y-95250000D03*
D10*
G36*
X156676657Y-94402046D02*
G01*
X156717913Y-94408166D01*
X156758371Y-94418300D01*
X156797640Y-94432351D01*
X156835344Y-94450183D01*
X156871117Y-94471625D01*
X156904617Y-94496471D01*
X156935520Y-94524480D01*
X156963529Y-94555383D01*
X156988375Y-94588883D01*
X157009817Y-94624656D01*
X157027649Y-94662360D01*
X157041700Y-94701629D01*
X157051834Y-94742087D01*
X157057954Y-94783343D01*
X157060000Y-94825000D01*
X157060000Y-95675000D01*
X157057954Y-95716657D01*
X157051834Y-95757913D01*
X157041700Y-95798371D01*
X157027649Y-95837640D01*
X157009817Y-95875344D01*
X156988375Y-95911117D01*
X156963529Y-95944617D01*
X156935520Y-95975520D01*
X156904617Y-96003529D01*
X156871117Y-96028375D01*
X156835344Y-96049817D01*
X156797640Y-96067649D01*
X156758371Y-96081700D01*
X156717913Y-96091834D01*
X156676657Y-96097954D01*
X156635000Y-96100000D01*
X155785000Y-96100000D01*
X155743343Y-96097954D01*
X155702087Y-96091834D01*
X155661629Y-96081700D01*
X155622360Y-96067649D01*
X155584656Y-96049817D01*
X155548883Y-96028375D01*
X155515383Y-96003529D01*
X155484480Y-95975520D01*
X155456471Y-95944617D01*
X155431625Y-95911117D01*
X155410183Y-95875344D01*
X155392351Y-95837640D01*
X155378300Y-95798371D01*
X155368166Y-95757913D01*
X155362046Y-95716657D01*
X155360000Y-95675000D01*
X155360000Y-94825000D01*
X155362046Y-94783343D01*
X155368166Y-94742087D01*
X155378300Y-94701629D01*
X155392351Y-94662360D01*
X155410183Y-94624656D01*
X155431625Y-94588883D01*
X155456471Y-94555383D01*
X155484480Y-94524480D01*
X155515383Y-94496471D01*
X155548883Y-94471625D01*
X155584656Y-94450183D01*
X155622360Y-94432351D01*
X155661629Y-94418300D01*
X155702087Y-94408166D01*
X155743343Y-94402046D01*
X155785000Y-94400000D01*
X156635000Y-94400000D01*
X156676657Y-94402046D01*
X156676657Y-94402046D01*
G37*
D15*
X156210000Y-95250000D03*
D10*
G36*
X169376657Y-81702046D02*
G01*
X169417913Y-81708166D01*
X169458371Y-81718300D01*
X169497640Y-81732351D01*
X169535344Y-81750183D01*
X169571117Y-81771625D01*
X169604617Y-81796471D01*
X169635520Y-81824480D01*
X169663529Y-81855383D01*
X169688375Y-81888883D01*
X169709817Y-81924656D01*
X169727649Y-81962360D01*
X169741700Y-82001629D01*
X169751834Y-82042087D01*
X169757954Y-82083343D01*
X169760000Y-82125000D01*
X169760000Y-82975000D01*
X169757954Y-83016657D01*
X169751834Y-83057913D01*
X169741700Y-83098371D01*
X169727649Y-83137640D01*
X169709817Y-83175344D01*
X169688375Y-83211117D01*
X169663529Y-83244617D01*
X169635520Y-83275520D01*
X169604617Y-83303529D01*
X169571117Y-83328375D01*
X169535344Y-83349817D01*
X169497640Y-83367649D01*
X169458371Y-83381700D01*
X169417913Y-83391834D01*
X169376657Y-83397954D01*
X169335000Y-83400000D01*
X168485000Y-83400000D01*
X168443343Y-83397954D01*
X168402087Y-83391834D01*
X168361629Y-83381700D01*
X168322360Y-83367649D01*
X168284656Y-83349817D01*
X168248883Y-83328375D01*
X168215383Y-83303529D01*
X168184480Y-83275520D01*
X168156471Y-83244617D01*
X168131625Y-83211117D01*
X168110183Y-83175344D01*
X168092351Y-83137640D01*
X168078300Y-83098371D01*
X168068166Y-83057913D01*
X168062046Y-83016657D01*
X168060000Y-82975000D01*
X168060000Y-82125000D01*
X168062046Y-82083343D01*
X168068166Y-82042087D01*
X168078300Y-82001629D01*
X168092351Y-81962360D01*
X168110183Y-81924656D01*
X168131625Y-81888883D01*
X168156471Y-81855383D01*
X168184480Y-81824480D01*
X168215383Y-81796471D01*
X168248883Y-81771625D01*
X168284656Y-81750183D01*
X168322360Y-81732351D01*
X168361629Y-81718300D01*
X168402087Y-81708166D01*
X168443343Y-81702046D01*
X168485000Y-81700000D01*
X169335000Y-81700000D01*
X169376657Y-81702046D01*
X169376657Y-81702046D01*
G37*
D15*
X168910000Y-82550000D03*
D10*
G36*
X166836657Y-81702046D02*
G01*
X166877913Y-81708166D01*
X166918371Y-81718300D01*
X166957640Y-81732351D01*
X166995344Y-81750183D01*
X167031117Y-81771625D01*
X167064617Y-81796471D01*
X167095520Y-81824480D01*
X167123529Y-81855383D01*
X167148375Y-81888883D01*
X167169817Y-81924656D01*
X167187649Y-81962360D01*
X167201700Y-82001629D01*
X167211834Y-82042087D01*
X167217954Y-82083343D01*
X167220000Y-82125000D01*
X167220000Y-82975000D01*
X167217954Y-83016657D01*
X167211834Y-83057913D01*
X167201700Y-83098371D01*
X167187649Y-83137640D01*
X167169817Y-83175344D01*
X167148375Y-83211117D01*
X167123529Y-83244617D01*
X167095520Y-83275520D01*
X167064617Y-83303529D01*
X167031117Y-83328375D01*
X166995344Y-83349817D01*
X166957640Y-83367649D01*
X166918371Y-83381700D01*
X166877913Y-83391834D01*
X166836657Y-83397954D01*
X166795000Y-83400000D01*
X165945000Y-83400000D01*
X165903343Y-83397954D01*
X165862087Y-83391834D01*
X165821629Y-83381700D01*
X165782360Y-83367649D01*
X165744656Y-83349817D01*
X165708883Y-83328375D01*
X165675383Y-83303529D01*
X165644480Y-83275520D01*
X165616471Y-83244617D01*
X165591625Y-83211117D01*
X165570183Y-83175344D01*
X165552351Y-83137640D01*
X165538300Y-83098371D01*
X165528166Y-83057913D01*
X165522046Y-83016657D01*
X165520000Y-82975000D01*
X165520000Y-82125000D01*
X165522046Y-82083343D01*
X165528166Y-82042087D01*
X165538300Y-82001629D01*
X165552351Y-81962360D01*
X165570183Y-81924656D01*
X165591625Y-81888883D01*
X165616471Y-81855383D01*
X165644480Y-81824480D01*
X165675383Y-81796471D01*
X165708883Y-81771625D01*
X165744656Y-81750183D01*
X165782360Y-81732351D01*
X165821629Y-81718300D01*
X165862087Y-81708166D01*
X165903343Y-81702046D01*
X165945000Y-81700000D01*
X166795000Y-81700000D01*
X166836657Y-81702046D01*
X166836657Y-81702046D01*
G37*
D15*
X166370000Y-82550000D03*
D10*
G36*
X164296657Y-81702046D02*
G01*
X164337913Y-81708166D01*
X164378371Y-81718300D01*
X164417640Y-81732351D01*
X164455344Y-81750183D01*
X164491117Y-81771625D01*
X164524617Y-81796471D01*
X164555520Y-81824480D01*
X164583529Y-81855383D01*
X164608375Y-81888883D01*
X164629817Y-81924656D01*
X164647649Y-81962360D01*
X164661700Y-82001629D01*
X164671834Y-82042087D01*
X164677954Y-82083343D01*
X164680000Y-82125000D01*
X164680000Y-82975000D01*
X164677954Y-83016657D01*
X164671834Y-83057913D01*
X164661700Y-83098371D01*
X164647649Y-83137640D01*
X164629817Y-83175344D01*
X164608375Y-83211117D01*
X164583529Y-83244617D01*
X164555520Y-83275520D01*
X164524617Y-83303529D01*
X164491117Y-83328375D01*
X164455344Y-83349817D01*
X164417640Y-83367649D01*
X164378371Y-83381700D01*
X164337913Y-83391834D01*
X164296657Y-83397954D01*
X164255000Y-83400000D01*
X163405000Y-83400000D01*
X163363343Y-83397954D01*
X163322087Y-83391834D01*
X163281629Y-83381700D01*
X163242360Y-83367649D01*
X163204656Y-83349817D01*
X163168883Y-83328375D01*
X163135383Y-83303529D01*
X163104480Y-83275520D01*
X163076471Y-83244617D01*
X163051625Y-83211117D01*
X163030183Y-83175344D01*
X163012351Y-83137640D01*
X162998300Y-83098371D01*
X162988166Y-83057913D01*
X162982046Y-83016657D01*
X162980000Y-82975000D01*
X162980000Y-82125000D01*
X162982046Y-82083343D01*
X162988166Y-82042087D01*
X162998300Y-82001629D01*
X163012351Y-81962360D01*
X163030183Y-81924656D01*
X163051625Y-81888883D01*
X163076471Y-81855383D01*
X163104480Y-81824480D01*
X163135383Y-81796471D01*
X163168883Y-81771625D01*
X163204656Y-81750183D01*
X163242360Y-81732351D01*
X163281629Y-81718300D01*
X163322087Y-81708166D01*
X163363343Y-81702046D01*
X163405000Y-81700000D01*
X164255000Y-81700000D01*
X164296657Y-81702046D01*
X164296657Y-81702046D01*
G37*
D15*
X163830000Y-82550000D03*
D10*
G36*
X161756657Y-81702046D02*
G01*
X161797913Y-81708166D01*
X161838371Y-81718300D01*
X161877640Y-81732351D01*
X161915344Y-81750183D01*
X161951117Y-81771625D01*
X161984617Y-81796471D01*
X162015520Y-81824480D01*
X162043529Y-81855383D01*
X162068375Y-81888883D01*
X162089817Y-81924656D01*
X162107649Y-81962360D01*
X162121700Y-82001629D01*
X162131834Y-82042087D01*
X162137954Y-82083343D01*
X162140000Y-82125000D01*
X162140000Y-82975000D01*
X162137954Y-83016657D01*
X162131834Y-83057913D01*
X162121700Y-83098371D01*
X162107649Y-83137640D01*
X162089817Y-83175344D01*
X162068375Y-83211117D01*
X162043529Y-83244617D01*
X162015520Y-83275520D01*
X161984617Y-83303529D01*
X161951117Y-83328375D01*
X161915344Y-83349817D01*
X161877640Y-83367649D01*
X161838371Y-83381700D01*
X161797913Y-83391834D01*
X161756657Y-83397954D01*
X161715000Y-83400000D01*
X160865000Y-83400000D01*
X160823343Y-83397954D01*
X160782087Y-83391834D01*
X160741629Y-83381700D01*
X160702360Y-83367649D01*
X160664656Y-83349817D01*
X160628883Y-83328375D01*
X160595383Y-83303529D01*
X160564480Y-83275520D01*
X160536471Y-83244617D01*
X160511625Y-83211117D01*
X160490183Y-83175344D01*
X160472351Y-83137640D01*
X160458300Y-83098371D01*
X160448166Y-83057913D01*
X160442046Y-83016657D01*
X160440000Y-82975000D01*
X160440000Y-82125000D01*
X160442046Y-82083343D01*
X160448166Y-82042087D01*
X160458300Y-82001629D01*
X160472351Y-81962360D01*
X160490183Y-81924656D01*
X160511625Y-81888883D01*
X160536471Y-81855383D01*
X160564480Y-81824480D01*
X160595383Y-81796471D01*
X160628883Y-81771625D01*
X160664656Y-81750183D01*
X160702360Y-81732351D01*
X160741629Y-81718300D01*
X160782087Y-81708166D01*
X160823343Y-81702046D01*
X160865000Y-81700000D01*
X161715000Y-81700000D01*
X161756657Y-81702046D01*
X161756657Y-81702046D01*
G37*
D15*
X161290000Y-82550000D03*
D10*
G36*
X161756657Y-94402046D02*
G01*
X161797913Y-94408166D01*
X161838371Y-94418300D01*
X161877640Y-94432351D01*
X161915344Y-94450183D01*
X161951117Y-94471625D01*
X161984617Y-94496471D01*
X162015520Y-94524480D01*
X162043529Y-94555383D01*
X162068375Y-94588883D01*
X162089817Y-94624656D01*
X162107649Y-94662360D01*
X162121700Y-94701629D01*
X162131834Y-94742087D01*
X162137954Y-94783343D01*
X162140000Y-94825000D01*
X162140000Y-95675000D01*
X162137954Y-95716657D01*
X162131834Y-95757913D01*
X162121700Y-95798371D01*
X162107649Y-95837640D01*
X162089817Y-95875344D01*
X162068375Y-95911117D01*
X162043529Y-95944617D01*
X162015520Y-95975520D01*
X161984617Y-96003529D01*
X161951117Y-96028375D01*
X161915344Y-96049817D01*
X161877640Y-96067649D01*
X161838371Y-96081700D01*
X161797913Y-96091834D01*
X161756657Y-96097954D01*
X161715000Y-96100000D01*
X160865000Y-96100000D01*
X160823343Y-96097954D01*
X160782087Y-96091834D01*
X160741629Y-96081700D01*
X160702360Y-96067649D01*
X160664656Y-96049817D01*
X160628883Y-96028375D01*
X160595383Y-96003529D01*
X160564480Y-95975520D01*
X160536471Y-95944617D01*
X160511625Y-95911117D01*
X160490183Y-95875344D01*
X160472351Y-95837640D01*
X160458300Y-95798371D01*
X160448166Y-95757913D01*
X160442046Y-95716657D01*
X160440000Y-95675000D01*
X160440000Y-94825000D01*
X160442046Y-94783343D01*
X160448166Y-94742087D01*
X160458300Y-94701629D01*
X160472351Y-94662360D01*
X160490183Y-94624656D01*
X160511625Y-94588883D01*
X160536471Y-94555383D01*
X160564480Y-94524480D01*
X160595383Y-94496471D01*
X160628883Y-94471625D01*
X160664656Y-94450183D01*
X160702360Y-94432351D01*
X160741629Y-94418300D01*
X160782087Y-94408166D01*
X160823343Y-94402046D01*
X160865000Y-94400000D01*
X161715000Y-94400000D01*
X161756657Y-94402046D01*
X161756657Y-94402046D01*
G37*
D15*
X161290000Y-95250000D03*
D10*
G36*
X164296657Y-94402046D02*
G01*
X164337913Y-94408166D01*
X164378371Y-94418300D01*
X164417640Y-94432351D01*
X164455344Y-94450183D01*
X164491117Y-94471625D01*
X164524617Y-94496471D01*
X164555520Y-94524480D01*
X164583529Y-94555383D01*
X164608375Y-94588883D01*
X164629817Y-94624656D01*
X164647649Y-94662360D01*
X164661700Y-94701629D01*
X164671834Y-94742087D01*
X164677954Y-94783343D01*
X164680000Y-94825000D01*
X164680000Y-95675000D01*
X164677954Y-95716657D01*
X164671834Y-95757913D01*
X164661700Y-95798371D01*
X164647649Y-95837640D01*
X164629817Y-95875344D01*
X164608375Y-95911117D01*
X164583529Y-95944617D01*
X164555520Y-95975520D01*
X164524617Y-96003529D01*
X164491117Y-96028375D01*
X164455344Y-96049817D01*
X164417640Y-96067649D01*
X164378371Y-96081700D01*
X164337913Y-96091834D01*
X164296657Y-96097954D01*
X164255000Y-96100000D01*
X163405000Y-96100000D01*
X163363343Y-96097954D01*
X163322087Y-96091834D01*
X163281629Y-96081700D01*
X163242360Y-96067649D01*
X163204656Y-96049817D01*
X163168883Y-96028375D01*
X163135383Y-96003529D01*
X163104480Y-95975520D01*
X163076471Y-95944617D01*
X163051625Y-95911117D01*
X163030183Y-95875344D01*
X163012351Y-95837640D01*
X162998300Y-95798371D01*
X162988166Y-95757913D01*
X162982046Y-95716657D01*
X162980000Y-95675000D01*
X162980000Y-94825000D01*
X162982046Y-94783343D01*
X162988166Y-94742087D01*
X162998300Y-94701629D01*
X163012351Y-94662360D01*
X163030183Y-94624656D01*
X163051625Y-94588883D01*
X163076471Y-94555383D01*
X163104480Y-94524480D01*
X163135383Y-94496471D01*
X163168883Y-94471625D01*
X163204656Y-94450183D01*
X163242360Y-94432351D01*
X163281629Y-94418300D01*
X163322087Y-94408166D01*
X163363343Y-94402046D01*
X163405000Y-94400000D01*
X164255000Y-94400000D01*
X164296657Y-94402046D01*
X164296657Y-94402046D01*
G37*
D15*
X163830000Y-95250000D03*
D10*
G36*
X166836657Y-94402046D02*
G01*
X166877913Y-94408166D01*
X166918371Y-94418300D01*
X166957640Y-94432351D01*
X166995344Y-94450183D01*
X167031117Y-94471625D01*
X167064617Y-94496471D01*
X167095520Y-94524480D01*
X167123529Y-94555383D01*
X167148375Y-94588883D01*
X167169817Y-94624656D01*
X167187649Y-94662360D01*
X167201700Y-94701629D01*
X167211834Y-94742087D01*
X167217954Y-94783343D01*
X167220000Y-94825000D01*
X167220000Y-95675000D01*
X167217954Y-95716657D01*
X167211834Y-95757913D01*
X167201700Y-95798371D01*
X167187649Y-95837640D01*
X167169817Y-95875344D01*
X167148375Y-95911117D01*
X167123529Y-95944617D01*
X167095520Y-95975520D01*
X167064617Y-96003529D01*
X167031117Y-96028375D01*
X166995344Y-96049817D01*
X166957640Y-96067649D01*
X166918371Y-96081700D01*
X166877913Y-96091834D01*
X166836657Y-96097954D01*
X166795000Y-96100000D01*
X165945000Y-96100000D01*
X165903343Y-96097954D01*
X165862087Y-96091834D01*
X165821629Y-96081700D01*
X165782360Y-96067649D01*
X165744656Y-96049817D01*
X165708883Y-96028375D01*
X165675383Y-96003529D01*
X165644480Y-95975520D01*
X165616471Y-95944617D01*
X165591625Y-95911117D01*
X165570183Y-95875344D01*
X165552351Y-95837640D01*
X165538300Y-95798371D01*
X165528166Y-95757913D01*
X165522046Y-95716657D01*
X165520000Y-95675000D01*
X165520000Y-94825000D01*
X165522046Y-94783343D01*
X165528166Y-94742087D01*
X165538300Y-94701629D01*
X165552351Y-94662360D01*
X165570183Y-94624656D01*
X165591625Y-94588883D01*
X165616471Y-94555383D01*
X165644480Y-94524480D01*
X165675383Y-94496471D01*
X165708883Y-94471625D01*
X165744656Y-94450183D01*
X165782360Y-94432351D01*
X165821629Y-94418300D01*
X165862087Y-94408166D01*
X165903343Y-94402046D01*
X165945000Y-94400000D01*
X166795000Y-94400000D01*
X166836657Y-94402046D01*
X166836657Y-94402046D01*
G37*
D15*
X166370000Y-95250000D03*
D10*
G36*
X169376657Y-94402046D02*
G01*
X169417913Y-94408166D01*
X169458371Y-94418300D01*
X169497640Y-94432351D01*
X169535344Y-94450183D01*
X169571117Y-94471625D01*
X169604617Y-94496471D01*
X169635520Y-94524480D01*
X169663529Y-94555383D01*
X169688375Y-94588883D01*
X169709817Y-94624656D01*
X169727649Y-94662360D01*
X169741700Y-94701629D01*
X169751834Y-94742087D01*
X169757954Y-94783343D01*
X169760000Y-94825000D01*
X169760000Y-95675000D01*
X169757954Y-95716657D01*
X169751834Y-95757913D01*
X169741700Y-95798371D01*
X169727649Y-95837640D01*
X169709817Y-95875344D01*
X169688375Y-95911117D01*
X169663529Y-95944617D01*
X169635520Y-95975520D01*
X169604617Y-96003529D01*
X169571117Y-96028375D01*
X169535344Y-96049817D01*
X169497640Y-96067649D01*
X169458371Y-96081700D01*
X169417913Y-96091834D01*
X169376657Y-96097954D01*
X169335000Y-96100000D01*
X168485000Y-96100000D01*
X168443343Y-96097954D01*
X168402087Y-96091834D01*
X168361629Y-96081700D01*
X168322360Y-96067649D01*
X168284656Y-96049817D01*
X168248883Y-96028375D01*
X168215383Y-96003529D01*
X168184480Y-95975520D01*
X168156471Y-95944617D01*
X168131625Y-95911117D01*
X168110183Y-95875344D01*
X168092351Y-95837640D01*
X168078300Y-95798371D01*
X168068166Y-95757913D01*
X168062046Y-95716657D01*
X168060000Y-95675000D01*
X168060000Y-94825000D01*
X168062046Y-94783343D01*
X168068166Y-94742087D01*
X168078300Y-94701629D01*
X168092351Y-94662360D01*
X168110183Y-94624656D01*
X168131625Y-94588883D01*
X168156471Y-94555383D01*
X168184480Y-94524480D01*
X168215383Y-94496471D01*
X168248883Y-94471625D01*
X168284656Y-94450183D01*
X168322360Y-94432351D01*
X168361629Y-94418300D01*
X168402087Y-94408166D01*
X168443343Y-94402046D01*
X168485000Y-94400000D01*
X169335000Y-94400000D01*
X169376657Y-94402046D01*
X169376657Y-94402046D01*
G37*
D15*
X168910000Y-95250000D03*
D10*
G36*
X147340955Y-84661324D02*
G01*
X147367650Y-84665284D01*
X147393828Y-84671841D01*
X147419238Y-84680933D01*
X147443634Y-84692472D01*
X147466782Y-84706346D01*
X147488458Y-84722422D01*
X147508454Y-84740546D01*
X147526578Y-84760542D01*
X147542654Y-84782218D01*
X147556528Y-84805366D01*
X147568067Y-84829762D01*
X147577159Y-84855172D01*
X147583716Y-84881350D01*
X147587676Y-84908045D01*
X147589000Y-84935000D01*
X147589000Y-85485000D01*
X147587676Y-85511955D01*
X147583716Y-85538650D01*
X147577159Y-85564828D01*
X147568067Y-85590238D01*
X147556528Y-85614634D01*
X147542654Y-85637782D01*
X147526578Y-85659458D01*
X147508454Y-85679454D01*
X147488458Y-85697578D01*
X147466782Y-85713654D01*
X147443634Y-85727528D01*
X147419238Y-85739067D01*
X147393828Y-85748159D01*
X147367650Y-85754716D01*
X147340955Y-85758676D01*
X147314000Y-85760000D01*
X146564000Y-85760000D01*
X146537045Y-85758676D01*
X146510350Y-85754716D01*
X146484172Y-85748159D01*
X146458762Y-85739067D01*
X146434366Y-85727528D01*
X146411218Y-85713654D01*
X146389542Y-85697578D01*
X146369546Y-85679454D01*
X146351422Y-85659458D01*
X146335346Y-85637782D01*
X146321472Y-85614634D01*
X146309933Y-85590238D01*
X146300841Y-85564828D01*
X146294284Y-85538650D01*
X146290324Y-85511955D01*
X146289000Y-85485000D01*
X146289000Y-84935000D01*
X146290324Y-84908045D01*
X146294284Y-84881350D01*
X146300841Y-84855172D01*
X146309933Y-84829762D01*
X146321472Y-84805366D01*
X146335346Y-84782218D01*
X146351422Y-84760542D01*
X146369546Y-84740546D01*
X146389542Y-84722422D01*
X146411218Y-84706346D01*
X146434366Y-84692472D01*
X146458762Y-84680933D01*
X146484172Y-84671841D01*
X146510350Y-84665284D01*
X146537045Y-84661324D01*
X146564000Y-84660000D01*
X147314000Y-84660000D01*
X147340955Y-84661324D01*
X147340955Y-84661324D01*
G37*
D12*
X146939000Y-85210000D03*
D10*
G36*
X147340955Y-86961324D02*
G01*
X147367650Y-86965284D01*
X147393828Y-86971841D01*
X147419238Y-86980933D01*
X147443634Y-86992472D01*
X147466782Y-87006346D01*
X147488458Y-87022422D01*
X147508454Y-87040546D01*
X147526578Y-87060542D01*
X147542654Y-87082218D01*
X147556528Y-87105366D01*
X147568067Y-87129762D01*
X147577159Y-87155172D01*
X147583716Y-87181350D01*
X147587676Y-87208045D01*
X147589000Y-87235000D01*
X147589000Y-87785000D01*
X147587676Y-87811955D01*
X147583716Y-87838650D01*
X147577159Y-87864828D01*
X147568067Y-87890238D01*
X147556528Y-87914634D01*
X147542654Y-87937782D01*
X147526578Y-87959458D01*
X147508454Y-87979454D01*
X147488458Y-87997578D01*
X147466782Y-88013654D01*
X147443634Y-88027528D01*
X147419238Y-88039067D01*
X147393828Y-88048159D01*
X147367650Y-88054716D01*
X147340955Y-88058676D01*
X147314000Y-88060000D01*
X146564000Y-88060000D01*
X146537045Y-88058676D01*
X146510350Y-88054716D01*
X146484172Y-88048159D01*
X146458762Y-88039067D01*
X146434366Y-88027528D01*
X146411218Y-88013654D01*
X146389542Y-87997578D01*
X146369546Y-87979454D01*
X146351422Y-87959458D01*
X146335346Y-87937782D01*
X146321472Y-87914634D01*
X146309933Y-87890238D01*
X146300841Y-87864828D01*
X146294284Y-87838650D01*
X146290324Y-87811955D01*
X146289000Y-87785000D01*
X146289000Y-87235000D01*
X146290324Y-87208045D01*
X146294284Y-87181350D01*
X146300841Y-87155172D01*
X146309933Y-87129762D01*
X146321472Y-87105366D01*
X146335346Y-87082218D01*
X146351422Y-87060542D01*
X146369546Y-87040546D01*
X146389542Y-87022422D01*
X146411218Y-87006346D01*
X146434366Y-86992472D01*
X146458762Y-86980933D01*
X146484172Y-86971841D01*
X146510350Y-86965284D01*
X146537045Y-86961324D01*
X146564000Y-86960000D01*
X147314000Y-86960000D01*
X147340955Y-86961324D01*
X147340955Y-86961324D01*
G37*
D12*
X146939000Y-87510000D03*
D16*
X170180000Y-87916000D03*
D10*
G36*
X170753982Y-89219182D02*
G01*
X170787885Y-89224211D01*
X170821132Y-89232539D01*
X170853402Y-89244085D01*
X170884385Y-89258739D01*
X170913783Y-89276359D01*
X170941312Y-89296776D01*
X170966707Y-89319793D01*
X170989724Y-89345188D01*
X171010141Y-89372717D01*
X171027761Y-89402115D01*
X171042415Y-89433098D01*
X171053961Y-89465368D01*
X171062289Y-89498615D01*
X171067318Y-89532518D01*
X171069000Y-89566750D01*
X171069000Y-90265250D01*
X171067318Y-90299482D01*
X171062289Y-90333385D01*
X171053961Y-90366632D01*
X171042415Y-90398902D01*
X171027761Y-90429885D01*
X171010141Y-90459283D01*
X170989724Y-90486812D01*
X170966707Y-90512207D01*
X170941312Y-90535224D01*
X170913783Y-90555641D01*
X170884385Y-90573261D01*
X170853402Y-90587915D01*
X170821132Y-90599461D01*
X170787885Y-90607789D01*
X170753982Y-90612818D01*
X170719750Y-90614500D01*
X169640250Y-90614500D01*
X169606018Y-90612818D01*
X169572115Y-90607789D01*
X169538868Y-90599461D01*
X169506598Y-90587915D01*
X169475615Y-90573261D01*
X169446217Y-90555641D01*
X169418688Y-90535224D01*
X169393293Y-90512207D01*
X169370276Y-90486812D01*
X169349859Y-90459283D01*
X169332239Y-90429885D01*
X169317585Y-90398902D01*
X169306039Y-90366632D01*
X169297711Y-90333385D01*
X169292682Y-90299482D01*
X169291000Y-90265250D01*
X169291000Y-89566750D01*
X169292682Y-89532518D01*
X169297711Y-89498615D01*
X169306039Y-89465368D01*
X169317585Y-89433098D01*
X169332239Y-89402115D01*
X169349859Y-89372717D01*
X169370276Y-89345188D01*
X169393293Y-89319793D01*
X169418688Y-89296776D01*
X169446217Y-89276359D01*
X169475615Y-89258739D01*
X169506598Y-89244085D01*
X169538868Y-89232539D01*
X169572115Y-89224211D01*
X169606018Y-89219182D01*
X169640250Y-89217500D01*
X170719750Y-89217500D01*
X170753982Y-89219182D01*
X170753982Y-89219182D01*
G37*
D17*
X170180000Y-89916000D03*
D18*
X141605000Y-95250000D03*
X144145000Y-95250000D03*
X146685000Y-95250000D03*
D10*
G36*
X151675703Y-85025722D02*
G01*
X151690264Y-85027882D01*
X151704543Y-85031459D01*
X151718403Y-85036418D01*
X151731710Y-85042712D01*
X151744336Y-85050280D01*
X151756159Y-85059048D01*
X151767066Y-85068934D01*
X151776952Y-85079841D01*
X151785720Y-85091664D01*
X151793288Y-85104290D01*
X151799582Y-85117597D01*
X151804541Y-85131457D01*
X151808118Y-85145736D01*
X151810278Y-85160297D01*
X151811000Y-85175000D01*
X151811000Y-86825000D01*
X151810278Y-86839703D01*
X151808118Y-86854264D01*
X151804541Y-86868543D01*
X151799582Y-86882403D01*
X151793288Y-86895710D01*
X151785720Y-86908336D01*
X151776952Y-86920159D01*
X151767066Y-86931066D01*
X151756159Y-86940952D01*
X151744336Y-86949720D01*
X151731710Y-86957288D01*
X151718403Y-86963582D01*
X151704543Y-86968541D01*
X151690264Y-86972118D01*
X151675703Y-86974278D01*
X151661000Y-86975000D01*
X151361000Y-86975000D01*
X151346297Y-86974278D01*
X151331736Y-86972118D01*
X151317457Y-86968541D01*
X151303597Y-86963582D01*
X151290290Y-86957288D01*
X151277664Y-86949720D01*
X151265841Y-86940952D01*
X151254934Y-86931066D01*
X151245048Y-86920159D01*
X151236280Y-86908336D01*
X151228712Y-86895710D01*
X151222418Y-86882403D01*
X151217459Y-86868543D01*
X151213882Y-86854264D01*
X151211722Y-86839703D01*
X151211000Y-86825000D01*
X151211000Y-85175000D01*
X151211722Y-85160297D01*
X151213882Y-85145736D01*
X151217459Y-85131457D01*
X151222418Y-85117597D01*
X151228712Y-85104290D01*
X151236280Y-85091664D01*
X151245048Y-85079841D01*
X151254934Y-85068934D01*
X151265841Y-85059048D01*
X151277664Y-85050280D01*
X151290290Y-85042712D01*
X151303597Y-85036418D01*
X151317457Y-85031459D01*
X151331736Y-85027882D01*
X151346297Y-85025722D01*
X151361000Y-85025000D01*
X151661000Y-85025000D01*
X151675703Y-85025722D01*
X151675703Y-85025722D01*
G37*
D19*
X151511000Y-86000000D03*
D10*
G36*
X152945703Y-85025722D02*
G01*
X152960264Y-85027882D01*
X152974543Y-85031459D01*
X152988403Y-85036418D01*
X153001710Y-85042712D01*
X153014336Y-85050280D01*
X153026159Y-85059048D01*
X153037066Y-85068934D01*
X153046952Y-85079841D01*
X153055720Y-85091664D01*
X153063288Y-85104290D01*
X153069582Y-85117597D01*
X153074541Y-85131457D01*
X153078118Y-85145736D01*
X153080278Y-85160297D01*
X153081000Y-85175000D01*
X153081000Y-86825000D01*
X153080278Y-86839703D01*
X153078118Y-86854264D01*
X153074541Y-86868543D01*
X153069582Y-86882403D01*
X153063288Y-86895710D01*
X153055720Y-86908336D01*
X153046952Y-86920159D01*
X153037066Y-86931066D01*
X153026159Y-86940952D01*
X153014336Y-86949720D01*
X153001710Y-86957288D01*
X152988403Y-86963582D01*
X152974543Y-86968541D01*
X152960264Y-86972118D01*
X152945703Y-86974278D01*
X152931000Y-86975000D01*
X152631000Y-86975000D01*
X152616297Y-86974278D01*
X152601736Y-86972118D01*
X152587457Y-86968541D01*
X152573597Y-86963582D01*
X152560290Y-86957288D01*
X152547664Y-86949720D01*
X152535841Y-86940952D01*
X152524934Y-86931066D01*
X152515048Y-86920159D01*
X152506280Y-86908336D01*
X152498712Y-86895710D01*
X152492418Y-86882403D01*
X152487459Y-86868543D01*
X152483882Y-86854264D01*
X152481722Y-86839703D01*
X152481000Y-86825000D01*
X152481000Y-85175000D01*
X152481722Y-85160297D01*
X152483882Y-85145736D01*
X152487459Y-85131457D01*
X152492418Y-85117597D01*
X152498712Y-85104290D01*
X152506280Y-85091664D01*
X152515048Y-85079841D01*
X152524934Y-85068934D01*
X152535841Y-85059048D01*
X152547664Y-85050280D01*
X152560290Y-85042712D01*
X152573597Y-85036418D01*
X152587457Y-85031459D01*
X152601736Y-85027882D01*
X152616297Y-85025722D01*
X152631000Y-85025000D01*
X152931000Y-85025000D01*
X152945703Y-85025722D01*
X152945703Y-85025722D01*
G37*
D19*
X152781000Y-86000000D03*
D10*
G36*
X154215703Y-85025722D02*
G01*
X154230264Y-85027882D01*
X154244543Y-85031459D01*
X154258403Y-85036418D01*
X154271710Y-85042712D01*
X154284336Y-85050280D01*
X154296159Y-85059048D01*
X154307066Y-85068934D01*
X154316952Y-85079841D01*
X154325720Y-85091664D01*
X154333288Y-85104290D01*
X154339582Y-85117597D01*
X154344541Y-85131457D01*
X154348118Y-85145736D01*
X154350278Y-85160297D01*
X154351000Y-85175000D01*
X154351000Y-86825000D01*
X154350278Y-86839703D01*
X154348118Y-86854264D01*
X154344541Y-86868543D01*
X154339582Y-86882403D01*
X154333288Y-86895710D01*
X154325720Y-86908336D01*
X154316952Y-86920159D01*
X154307066Y-86931066D01*
X154296159Y-86940952D01*
X154284336Y-86949720D01*
X154271710Y-86957288D01*
X154258403Y-86963582D01*
X154244543Y-86968541D01*
X154230264Y-86972118D01*
X154215703Y-86974278D01*
X154201000Y-86975000D01*
X153901000Y-86975000D01*
X153886297Y-86974278D01*
X153871736Y-86972118D01*
X153857457Y-86968541D01*
X153843597Y-86963582D01*
X153830290Y-86957288D01*
X153817664Y-86949720D01*
X153805841Y-86940952D01*
X153794934Y-86931066D01*
X153785048Y-86920159D01*
X153776280Y-86908336D01*
X153768712Y-86895710D01*
X153762418Y-86882403D01*
X153757459Y-86868543D01*
X153753882Y-86854264D01*
X153751722Y-86839703D01*
X153751000Y-86825000D01*
X153751000Y-85175000D01*
X153751722Y-85160297D01*
X153753882Y-85145736D01*
X153757459Y-85131457D01*
X153762418Y-85117597D01*
X153768712Y-85104290D01*
X153776280Y-85091664D01*
X153785048Y-85079841D01*
X153794934Y-85068934D01*
X153805841Y-85059048D01*
X153817664Y-85050280D01*
X153830290Y-85042712D01*
X153843597Y-85036418D01*
X153857457Y-85031459D01*
X153871736Y-85027882D01*
X153886297Y-85025722D01*
X153901000Y-85025000D01*
X154201000Y-85025000D01*
X154215703Y-85025722D01*
X154215703Y-85025722D01*
G37*
D19*
X154051000Y-86000000D03*
D10*
G36*
X155485703Y-85025722D02*
G01*
X155500264Y-85027882D01*
X155514543Y-85031459D01*
X155528403Y-85036418D01*
X155541710Y-85042712D01*
X155554336Y-85050280D01*
X155566159Y-85059048D01*
X155577066Y-85068934D01*
X155586952Y-85079841D01*
X155595720Y-85091664D01*
X155603288Y-85104290D01*
X155609582Y-85117597D01*
X155614541Y-85131457D01*
X155618118Y-85145736D01*
X155620278Y-85160297D01*
X155621000Y-85175000D01*
X155621000Y-86825000D01*
X155620278Y-86839703D01*
X155618118Y-86854264D01*
X155614541Y-86868543D01*
X155609582Y-86882403D01*
X155603288Y-86895710D01*
X155595720Y-86908336D01*
X155586952Y-86920159D01*
X155577066Y-86931066D01*
X155566159Y-86940952D01*
X155554336Y-86949720D01*
X155541710Y-86957288D01*
X155528403Y-86963582D01*
X155514543Y-86968541D01*
X155500264Y-86972118D01*
X155485703Y-86974278D01*
X155471000Y-86975000D01*
X155171000Y-86975000D01*
X155156297Y-86974278D01*
X155141736Y-86972118D01*
X155127457Y-86968541D01*
X155113597Y-86963582D01*
X155100290Y-86957288D01*
X155087664Y-86949720D01*
X155075841Y-86940952D01*
X155064934Y-86931066D01*
X155055048Y-86920159D01*
X155046280Y-86908336D01*
X155038712Y-86895710D01*
X155032418Y-86882403D01*
X155027459Y-86868543D01*
X155023882Y-86854264D01*
X155021722Y-86839703D01*
X155021000Y-86825000D01*
X155021000Y-85175000D01*
X155021722Y-85160297D01*
X155023882Y-85145736D01*
X155027459Y-85131457D01*
X155032418Y-85117597D01*
X155038712Y-85104290D01*
X155046280Y-85091664D01*
X155055048Y-85079841D01*
X155064934Y-85068934D01*
X155075841Y-85059048D01*
X155087664Y-85050280D01*
X155100290Y-85042712D01*
X155113597Y-85036418D01*
X155127457Y-85031459D01*
X155141736Y-85027882D01*
X155156297Y-85025722D01*
X155171000Y-85025000D01*
X155471000Y-85025000D01*
X155485703Y-85025722D01*
X155485703Y-85025722D01*
G37*
D19*
X155321000Y-86000000D03*
D10*
G36*
X155485703Y-90825722D02*
G01*
X155500264Y-90827882D01*
X155514543Y-90831459D01*
X155528403Y-90836418D01*
X155541710Y-90842712D01*
X155554336Y-90850280D01*
X155566159Y-90859048D01*
X155577066Y-90868934D01*
X155586952Y-90879841D01*
X155595720Y-90891664D01*
X155603288Y-90904290D01*
X155609582Y-90917597D01*
X155614541Y-90931457D01*
X155618118Y-90945736D01*
X155620278Y-90960297D01*
X155621000Y-90975000D01*
X155621000Y-92625000D01*
X155620278Y-92639703D01*
X155618118Y-92654264D01*
X155614541Y-92668543D01*
X155609582Y-92682403D01*
X155603288Y-92695710D01*
X155595720Y-92708336D01*
X155586952Y-92720159D01*
X155577066Y-92731066D01*
X155566159Y-92740952D01*
X155554336Y-92749720D01*
X155541710Y-92757288D01*
X155528403Y-92763582D01*
X155514543Y-92768541D01*
X155500264Y-92772118D01*
X155485703Y-92774278D01*
X155471000Y-92775000D01*
X155171000Y-92775000D01*
X155156297Y-92774278D01*
X155141736Y-92772118D01*
X155127457Y-92768541D01*
X155113597Y-92763582D01*
X155100290Y-92757288D01*
X155087664Y-92749720D01*
X155075841Y-92740952D01*
X155064934Y-92731066D01*
X155055048Y-92720159D01*
X155046280Y-92708336D01*
X155038712Y-92695710D01*
X155032418Y-92682403D01*
X155027459Y-92668543D01*
X155023882Y-92654264D01*
X155021722Y-92639703D01*
X155021000Y-92625000D01*
X155021000Y-90975000D01*
X155021722Y-90960297D01*
X155023882Y-90945736D01*
X155027459Y-90931457D01*
X155032418Y-90917597D01*
X155038712Y-90904290D01*
X155046280Y-90891664D01*
X155055048Y-90879841D01*
X155064934Y-90868934D01*
X155075841Y-90859048D01*
X155087664Y-90850280D01*
X155100290Y-90842712D01*
X155113597Y-90836418D01*
X155127457Y-90831459D01*
X155141736Y-90827882D01*
X155156297Y-90825722D01*
X155171000Y-90825000D01*
X155471000Y-90825000D01*
X155485703Y-90825722D01*
X155485703Y-90825722D01*
G37*
D19*
X155321000Y-91800000D03*
D10*
G36*
X154215703Y-90825722D02*
G01*
X154230264Y-90827882D01*
X154244543Y-90831459D01*
X154258403Y-90836418D01*
X154271710Y-90842712D01*
X154284336Y-90850280D01*
X154296159Y-90859048D01*
X154307066Y-90868934D01*
X154316952Y-90879841D01*
X154325720Y-90891664D01*
X154333288Y-90904290D01*
X154339582Y-90917597D01*
X154344541Y-90931457D01*
X154348118Y-90945736D01*
X154350278Y-90960297D01*
X154351000Y-90975000D01*
X154351000Y-92625000D01*
X154350278Y-92639703D01*
X154348118Y-92654264D01*
X154344541Y-92668543D01*
X154339582Y-92682403D01*
X154333288Y-92695710D01*
X154325720Y-92708336D01*
X154316952Y-92720159D01*
X154307066Y-92731066D01*
X154296159Y-92740952D01*
X154284336Y-92749720D01*
X154271710Y-92757288D01*
X154258403Y-92763582D01*
X154244543Y-92768541D01*
X154230264Y-92772118D01*
X154215703Y-92774278D01*
X154201000Y-92775000D01*
X153901000Y-92775000D01*
X153886297Y-92774278D01*
X153871736Y-92772118D01*
X153857457Y-92768541D01*
X153843597Y-92763582D01*
X153830290Y-92757288D01*
X153817664Y-92749720D01*
X153805841Y-92740952D01*
X153794934Y-92731066D01*
X153785048Y-92720159D01*
X153776280Y-92708336D01*
X153768712Y-92695710D01*
X153762418Y-92682403D01*
X153757459Y-92668543D01*
X153753882Y-92654264D01*
X153751722Y-92639703D01*
X153751000Y-92625000D01*
X153751000Y-90975000D01*
X153751722Y-90960297D01*
X153753882Y-90945736D01*
X153757459Y-90931457D01*
X153762418Y-90917597D01*
X153768712Y-90904290D01*
X153776280Y-90891664D01*
X153785048Y-90879841D01*
X153794934Y-90868934D01*
X153805841Y-90859048D01*
X153817664Y-90850280D01*
X153830290Y-90842712D01*
X153843597Y-90836418D01*
X153857457Y-90831459D01*
X153871736Y-90827882D01*
X153886297Y-90825722D01*
X153901000Y-90825000D01*
X154201000Y-90825000D01*
X154215703Y-90825722D01*
X154215703Y-90825722D01*
G37*
D19*
X154051000Y-91800000D03*
D10*
G36*
X152945703Y-90825722D02*
G01*
X152960264Y-90827882D01*
X152974543Y-90831459D01*
X152988403Y-90836418D01*
X153001710Y-90842712D01*
X153014336Y-90850280D01*
X153026159Y-90859048D01*
X153037066Y-90868934D01*
X153046952Y-90879841D01*
X153055720Y-90891664D01*
X153063288Y-90904290D01*
X153069582Y-90917597D01*
X153074541Y-90931457D01*
X153078118Y-90945736D01*
X153080278Y-90960297D01*
X153081000Y-90975000D01*
X153081000Y-92625000D01*
X153080278Y-92639703D01*
X153078118Y-92654264D01*
X153074541Y-92668543D01*
X153069582Y-92682403D01*
X153063288Y-92695710D01*
X153055720Y-92708336D01*
X153046952Y-92720159D01*
X153037066Y-92731066D01*
X153026159Y-92740952D01*
X153014336Y-92749720D01*
X153001710Y-92757288D01*
X152988403Y-92763582D01*
X152974543Y-92768541D01*
X152960264Y-92772118D01*
X152945703Y-92774278D01*
X152931000Y-92775000D01*
X152631000Y-92775000D01*
X152616297Y-92774278D01*
X152601736Y-92772118D01*
X152587457Y-92768541D01*
X152573597Y-92763582D01*
X152560290Y-92757288D01*
X152547664Y-92749720D01*
X152535841Y-92740952D01*
X152524934Y-92731066D01*
X152515048Y-92720159D01*
X152506280Y-92708336D01*
X152498712Y-92695710D01*
X152492418Y-92682403D01*
X152487459Y-92668543D01*
X152483882Y-92654264D01*
X152481722Y-92639703D01*
X152481000Y-92625000D01*
X152481000Y-90975000D01*
X152481722Y-90960297D01*
X152483882Y-90945736D01*
X152487459Y-90931457D01*
X152492418Y-90917597D01*
X152498712Y-90904290D01*
X152506280Y-90891664D01*
X152515048Y-90879841D01*
X152524934Y-90868934D01*
X152535841Y-90859048D01*
X152547664Y-90850280D01*
X152560290Y-90842712D01*
X152573597Y-90836418D01*
X152587457Y-90831459D01*
X152601736Y-90827882D01*
X152616297Y-90825722D01*
X152631000Y-90825000D01*
X152931000Y-90825000D01*
X152945703Y-90825722D01*
X152945703Y-90825722D01*
G37*
D19*
X152781000Y-91800000D03*
D10*
G36*
X151675703Y-90825722D02*
G01*
X151690264Y-90827882D01*
X151704543Y-90831459D01*
X151718403Y-90836418D01*
X151731710Y-90842712D01*
X151744336Y-90850280D01*
X151756159Y-90859048D01*
X151767066Y-90868934D01*
X151776952Y-90879841D01*
X151785720Y-90891664D01*
X151793288Y-90904290D01*
X151799582Y-90917597D01*
X151804541Y-90931457D01*
X151808118Y-90945736D01*
X151810278Y-90960297D01*
X151811000Y-90975000D01*
X151811000Y-92625000D01*
X151810278Y-92639703D01*
X151808118Y-92654264D01*
X151804541Y-92668543D01*
X151799582Y-92682403D01*
X151793288Y-92695710D01*
X151785720Y-92708336D01*
X151776952Y-92720159D01*
X151767066Y-92731066D01*
X151756159Y-92740952D01*
X151744336Y-92749720D01*
X151731710Y-92757288D01*
X151718403Y-92763582D01*
X151704543Y-92768541D01*
X151690264Y-92772118D01*
X151675703Y-92774278D01*
X151661000Y-92775000D01*
X151361000Y-92775000D01*
X151346297Y-92774278D01*
X151331736Y-92772118D01*
X151317457Y-92768541D01*
X151303597Y-92763582D01*
X151290290Y-92757288D01*
X151277664Y-92749720D01*
X151265841Y-92740952D01*
X151254934Y-92731066D01*
X151245048Y-92720159D01*
X151236280Y-92708336D01*
X151228712Y-92695710D01*
X151222418Y-92682403D01*
X151217459Y-92668543D01*
X151213882Y-92654264D01*
X151211722Y-92639703D01*
X151211000Y-92625000D01*
X151211000Y-90975000D01*
X151211722Y-90960297D01*
X151213882Y-90945736D01*
X151217459Y-90931457D01*
X151222418Y-90917597D01*
X151228712Y-90904290D01*
X151236280Y-90891664D01*
X151245048Y-90879841D01*
X151254934Y-90868934D01*
X151265841Y-90859048D01*
X151277664Y-90850280D01*
X151290290Y-90842712D01*
X151303597Y-90836418D01*
X151317457Y-90831459D01*
X151331736Y-90827882D01*
X151346297Y-90825722D01*
X151361000Y-90825000D01*
X151661000Y-90825000D01*
X151675703Y-90825722D01*
X151675703Y-90825722D01*
G37*
D19*
X151511000Y-91800000D03*
D10*
G36*
X160184703Y-84950722D02*
G01*
X160199264Y-84952882D01*
X160213543Y-84956459D01*
X160227403Y-84961418D01*
X160240710Y-84967712D01*
X160253336Y-84975280D01*
X160265159Y-84984048D01*
X160276066Y-84993934D01*
X160285952Y-85004841D01*
X160294720Y-85016664D01*
X160302288Y-85029290D01*
X160308582Y-85042597D01*
X160313541Y-85056457D01*
X160317118Y-85070736D01*
X160319278Y-85085297D01*
X160320000Y-85100000D01*
X160320000Y-86800000D01*
X160319278Y-86814703D01*
X160317118Y-86829264D01*
X160313541Y-86843543D01*
X160308582Y-86857403D01*
X160302288Y-86870710D01*
X160294720Y-86883336D01*
X160285952Y-86895159D01*
X160276066Y-86906066D01*
X160265159Y-86915952D01*
X160253336Y-86924720D01*
X160240710Y-86932288D01*
X160227403Y-86938582D01*
X160213543Y-86943541D01*
X160199264Y-86947118D01*
X160184703Y-86949278D01*
X160170000Y-86950000D01*
X159870000Y-86950000D01*
X159855297Y-86949278D01*
X159840736Y-86947118D01*
X159826457Y-86943541D01*
X159812597Y-86938582D01*
X159799290Y-86932288D01*
X159786664Y-86924720D01*
X159774841Y-86915952D01*
X159763934Y-86906066D01*
X159754048Y-86895159D01*
X159745280Y-86883336D01*
X159737712Y-86870710D01*
X159731418Y-86857403D01*
X159726459Y-86843543D01*
X159722882Y-86829264D01*
X159720722Y-86814703D01*
X159720000Y-86800000D01*
X159720000Y-85100000D01*
X159720722Y-85085297D01*
X159722882Y-85070736D01*
X159726459Y-85056457D01*
X159731418Y-85042597D01*
X159737712Y-85029290D01*
X159745280Y-85016664D01*
X159754048Y-85004841D01*
X159763934Y-84993934D01*
X159774841Y-84984048D01*
X159786664Y-84975280D01*
X159799290Y-84967712D01*
X159812597Y-84961418D01*
X159826457Y-84956459D01*
X159840736Y-84952882D01*
X159855297Y-84950722D01*
X159870000Y-84950000D01*
X160170000Y-84950000D01*
X160184703Y-84950722D01*
X160184703Y-84950722D01*
G37*
D19*
X160020000Y-85950000D03*
D10*
G36*
X161454703Y-84950722D02*
G01*
X161469264Y-84952882D01*
X161483543Y-84956459D01*
X161497403Y-84961418D01*
X161510710Y-84967712D01*
X161523336Y-84975280D01*
X161535159Y-84984048D01*
X161546066Y-84993934D01*
X161555952Y-85004841D01*
X161564720Y-85016664D01*
X161572288Y-85029290D01*
X161578582Y-85042597D01*
X161583541Y-85056457D01*
X161587118Y-85070736D01*
X161589278Y-85085297D01*
X161590000Y-85100000D01*
X161590000Y-86800000D01*
X161589278Y-86814703D01*
X161587118Y-86829264D01*
X161583541Y-86843543D01*
X161578582Y-86857403D01*
X161572288Y-86870710D01*
X161564720Y-86883336D01*
X161555952Y-86895159D01*
X161546066Y-86906066D01*
X161535159Y-86915952D01*
X161523336Y-86924720D01*
X161510710Y-86932288D01*
X161497403Y-86938582D01*
X161483543Y-86943541D01*
X161469264Y-86947118D01*
X161454703Y-86949278D01*
X161440000Y-86950000D01*
X161140000Y-86950000D01*
X161125297Y-86949278D01*
X161110736Y-86947118D01*
X161096457Y-86943541D01*
X161082597Y-86938582D01*
X161069290Y-86932288D01*
X161056664Y-86924720D01*
X161044841Y-86915952D01*
X161033934Y-86906066D01*
X161024048Y-86895159D01*
X161015280Y-86883336D01*
X161007712Y-86870710D01*
X161001418Y-86857403D01*
X160996459Y-86843543D01*
X160992882Y-86829264D01*
X160990722Y-86814703D01*
X160990000Y-86800000D01*
X160990000Y-85100000D01*
X160990722Y-85085297D01*
X160992882Y-85070736D01*
X160996459Y-85056457D01*
X161001418Y-85042597D01*
X161007712Y-85029290D01*
X161015280Y-85016664D01*
X161024048Y-85004841D01*
X161033934Y-84993934D01*
X161044841Y-84984048D01*
X161056664Y-84975280D01*
X161069290Y-84967712D01*
X161082597Y-84961418D01*
X161096457Y-84956459D01*
X161110736Y-84952882D01*
X161125297Y-84950722D01*
X161140000Y-84950000D01*
X161440000Y-84950000D01*
X161454703Y-84950722D01*
X161454703Y-84950722D01*
G37*
D19*
X161290000Y-85950000D03*
D10*
G36*
X162724703Y-84950722D02*
G01*
X162739264Y-84952882D01*
X162753543Y-84956459D01*
X162767403Y-84961418D01*
X162780710Y-84967712D01*
X162793336Y-84975280D01*
X162805159Y-84984048D01*
X162816066Y-84993934D01*
X162825952Y-85004841D01*
X162834720Y-85016664D01*
X162842288Y-85029290D01*
X162848582Y-85042597D01*
X162853541Y-85056457D01*
X162857118Y-85070736D01*
X162859278Y-85085297D01*
X162860000Y-85100000D01*
X162860000Y-86800000D01*
X162859278Y-86814703D01*
X162857118Y-86829264D01*
X162853541Y-86843543D01*
X162848582Y-86857403D01*
X162842288Y-86870710D01*
X162834720Y-86883336D01*
X162825952Y-86895159D01*
X162816066Y-86906066D01*
X162805159Y-86915952D01*
X162793336Y-86924720D01*
X162780710Y-86932288D01*
X162767403Y-86938582D01*
X162753543Y-86943541D01*
X162739264Y-86947118D01*
X162724703Y-86949278D01*
X162710000Y-86950000D01*
X162410000Y-86950000D01*
X162395297Y-86949278D01*
X162380736Y-86947118D01*
X162366457Y-86943541D01*
X162352597Y-86938582D01*
X162339290Y-86932288D01*
X162326664Y-86924720D01*
X162314841Y-86915952D01*
X162303934Y-86906066D01*
X162294048Y-86895159D01*
X162285280Y-86883336D01*
X162277712Y-86870710D01*
X162271418Y-86857403D01*
X162266459Y-86843543D01*
X162262882Y-86829264D01*
X162260722Y-86814703D01*
X162260000Y-86800000D01*
X162260000Y-85100000D01*
X162260722Y-85085297D01*
X162262882Y-85070736D01*
X162266459Y-85056457D01*
X162271418Y-85042597D01*
X162277712Y-85029290D01*
X162285280Y-85016664D01*
X162294048Y-85004841D01*
X162303934Y-84993934D01*
X162314841Y-84984048D01*
X162326664Y-84975280D01*
X162339290Y-84967712D01*
X162352597Y-84961418D01*
X162366457Y-84956459D01*
X162380736Y-84952882D01*
X162395297Y-84950722D01*
X162410000Y-84950000D01*
X162710000Y-84950000D01*
X162724703Y-84950722D01*
X162724703Y-84950722D01*
G37*
D19*
X162560000Y-85950000D03*
D10*
G36*
X163994703Y-84950722D02*
G01*
X164009264Y-84952882D01*
X164023543Y-84956459D01*
X164037403Y-84961418D01*
X164050710Y-84967712D01*
X164063336Y-84975280D01*
X164075159Y-84984048D01*
X164086066Y-84993934D01*
X164095952Y-85004841D01*
X164104720Y-85016664D01*
X164112288Y-85029290D01*
X164118582Y-85042597D01*
X164123541Y-85056457D01*
X164127118Y-85070736D01*
X164129278Y-85085297D01*
X164130000Y-85100000D01*
X164130000Y-86800000D01*
X164129278Y-86814703D01*
X164127118Y-86829264D01*
X164123541Y-86843543D01*
X164118582Y-86857403D01*
X164112288Y-86870710D01*
X164104720Y-86883336D01*
X164095952Y-86895159D01*
X164086066Y-86906066D01*
X164075159Y-86915952D01*
X164063336Y-86924720D01*
X164050710Y-86932288D01*
X164037403Y-86938582D01*
X164023543Y-86943541D01*
X164009264Y-86947118D01*
X163994703Y-86949278D01*
X163980000Y-86950000D01*
X163680000Y-86950000D01*
X163665297Y-86949278D01*
X163650736Y-86947118D01*
X163636457Y-86943541D01*
X163622597Y-86938582D01*
X163609290Y-86932288D01*
X163596664Y-86924720D01*
X163584841Y-86915952D01*
X163573934Y-86906066D01*
X163564048Y-86895159D01*
X163555280Y-86883336D01*
X163547712Y-86870710D01*
X163541418Y-86857403D01*
X163536459Y-86843543D01*
X163532882Y-86829264D01*
X163530722Y-86814703D01*
X163530000Y-86800000D01*
X163530000Y-85100000D01*
X163530722Y-85085297D01*
X163532882Y-85070736D01*
X163536459Y-85056457D01*
X163541418Y-85042597D01*
X163547712Y-85029290D01*
X163555280Y-85016664D01*
X163564048Y-85004841D01*
X163573934Y-84993934D01*
X163584841Y-84984048D01*
X163596664Y-84975280D01*
X163609290Y-84967712D01*
X163622597Y-84961418D01*
X163636457Y-84956459D01*
X163650736Y-84952882D01*
X163665297Y-84950722D01*
X163680000Y-84950000D01*
X163980000Y-84950000D01*
X163994703Y-84950722D01*
X163994703Y-84950722D01*
G37*
D19*
X163830000Y-85950000D03*
D10*
G36*
X165264703Y-84950722D02*
G01*
X165279264Y-84952882D01*
X165293543Y-84956459D01*
X165307403Y-84961418D01*
X165320710Y-84967712D01*
X165333336Y-84975280D01*
X165345159Y-84984048D01*
X165356066Y-84993934D01*
X165365952Y-85004841D01*
X165374720Y-85016664D01*
X165382288Y-85029290D01*
X165388582Y-85042597D01*
X165393541Y-85056457D01*
X165397118Y-85070736D01*
X165399278Y-85085297D01*
X165400000Y-85100000D01*
X165400000Y-86800000D01*
X165399278Y-86814703D01*
X165397118Y-86829264D01*
X165393541Y-86843543D01*
X165388582Y-86857403D01*
X165382288Y-86870710D01*
X165374720Y-86883336D01*
X165365952Y-86895159D01*
X165356066Y-86906066D01*
X165345159Y-86915952D01*
X165333336Y-86924720D01*
X165320710Y-86932288D01*
X165307403Y-86938582D01*
X165293543Y-86943541D01*
X165279264Y-86947118D01*
X165264703Y-86949278D01*
X165250000Y-86950000D01*
X164950000Y-86950000D01*
X164935297Y-86949278D01*
X164920736Y-86947118D01*
X164906457Y-86943541D01*
X164892597Y-86938582D01*
X164879290Y-86932288D01*
X164866664Y-86924720D01*
X164854841Y-86915952D01*
X164843934Y-86906066D01*
X164834048Y-86895159D01*
X164825280Y-86883336D01*
X164817712Y-86870710D01*
X164811418Y-86857403D01*
X164806459Y-86843543D01*
X164802882Y-86829264D01*
X164800722Y-86814703D01*
X164800000Y-86800000D01*
X164800000Y-85100000D01*
X164800722Y-85085297D01*
X164802882Y-85070736D01*
X164806459Y-85056457D01*
X164811418Y-85042597D01*
X164817712Y-85029290D01*
X164825280Y-85016664D01*
X164834048Y-85004841D01*
X164843934Y-84993934D01*
X164854841Y-84984048D01*
X164866664Y-84975280D01*
X164879290Y-84967712D01*
X164892597Y-84961418D01*
X164906457Y-84956459D01*
X164920736Y-84952882D01*
X164935297Y-84950722D01*
X164950000Y-84950000D01*
X165250000Y-84950000D01*
X165264703Y-84950722D01*
X165264703Y-84950722D01*
G37*
D19*
X165100000Y-85950000D03*
D10*
G36*
X166534703Y-84950722D02*
G01*
X166549264Y-84952882D01*
X166563543Y-84956459D01*
X166577403Y-84961418D01*
X166590710Y-84967712D01*
X166603336Y-84975280D01*
X166615159Y-84984048D01*
X166626066Y-84993934D01*
X166635952Y-85004841D01*
X166644720Y-85016664D01*
X166652288Y-85029290D01*
X166658582Y-85042597D01*
X166663541Y-85056457D01*
X166667118Y-85070736D01*
X166669278Y-85085297D01*
X166670000Y-85100000D01*
X166670000Y-86800000D01*
X166669278Y-86814703D01*
X166667118Y-86829264D01*
X166663541Y-86843543D01*
X166658582Y-86857403D01*
X166652288Y-86870710D01*
X166644720Y-86883336D01*
X166635952Y-86895159D01*
X166626066Y-86906066D01*
X166615159Y-86915952D01*
X166603336Y-86924720D01*
X166590710Y-86932288D01*
X166577403Y-86938582D01*
X166563543Y-86943541D01*
X166549264Y-86947118D01*
X166534703Y-86949278D01*
X166520000Y-86950000D01*
X166220000Y-86950000D01*
X166205297Y-86949278D01*
X166190736Y-86947118D01*
X166176457Y-86943541D01*
X166162597Y-86938582D01*
X166149290Y-86932288D01*
X166136664Y-86924720D01*
X166124841Y-86915952D01*
X166113934Y-86906066D01*
X166104048Y-86895159D01*
X166095280Y-86883336D01*
X166087712Y-86870710D01*
X166081418Y-86857403D01*
X166076459Y-86843543D01*
X166072882Y-86829264D01*
X166070722Y-86814703D01*
X166070000Y-86800000D01*
X166070000Y-85100000D01*
X166070722Y-85085297D01*
X166072882Y-85070736D01*
X166076459Y-85056457D01*
X166081418Y-85042597D01*
X166087712Y-85029290D01*
X166095280Y-85016664D01*
X166104048Y-85004841D01*
X166113934Y-84993934D01*
X166124841Y-84984048D01*
X166136664Y-84975280D01*
X166149290Y-84967712D01*
X166162597Y-84961418D01*
X166176457Y-84956459D01*
X166190736Y-84952882D01*
X166205297Y-84950722D01*
X166220000Y-84950000D01*
X166520000Y-84950000D01*
X166534703Y-84950722D01*
X166534703Y-84950722D01*
G37*
D19*
X166370000Y-85950000D03*
D10*
G36*
X167804703Y-84950722D02*
G01*
X167819264Y-84952882D01*
X167833543Y-84956459D01*
X167847403Y-84961418D01*
X167860710Y-84967712D01*
X167873336Y-84975280D01*
X167885159Y-84984048D01*
X167896066Y-84993934D01*
X167905952Y-85004841D01*
X167914720Y-85016664D01*
X167922288Y-85029290D01*
X167928582Y-85042597D01*
X167933541Y-85056457D01*
X167937118Y-85070736D01*
X167939278Y-85085297D01*
X167940000Y-85100000D01*
X167940000Y-86800000D01*
X167939278Y-86814703D01*
X167937118Y-86829264D01*
X167933541Y-86843543D01*
X167928582Y-86857403D01*
X167922288Y-86870710D01*
X167914720Y-86883336D01*
X167905952Y-86895159D01*
X167896066Y-86906066D01*
X167885159Y-86915952D01*
X167873336Y-86924720D01*
X167860710Y-86932288D01*
X167847403Y-86938582D01*
X167833543Y-86943541D01*
X167819264Y-86947118D01*
X167804703Y-86949278D01*
X167790000Y-86950000D01*
X167490000Y-86950000D01*
X167475297Y-86949278D01*
X167460736Y-86947118D01*
X167446457Y-86943541D01*
X167432597Y-86938582D01*
X167419290Y-86932288D01*
X167406664Y-86924720D01*
X167394841Y-86915952D01*
X167383934Y-86906066D01*
X167374048Y-86895159D01*
X167365280Y-86883336D01*
X167357712Y-86870710D01*
X167351418Y-86857403D01*
X167346459Y-86843543D01*
X167342882Y-86829264D01*
X167340722Y-86814703D01*
X167340000Y-86800000D01*
X167340000Y-85100000D01*
X167340722Y-85085297D01*
X167342882Y-85070736D01*
X167346459Y-85056457D01*
X167351418Y-85042597D01*
X167357712Y-85029290D01*
X167365280Y-85016664D01*
X167374048Y-85004841D01*
X167383934Y-84993934D01*
X167394841Y-84984048D01*
X167406664Y-84975280D01*
X167419290Y-84967712D01*
X167432597Y-84961418D01*
X167446457Y-84956459D01*
X167460736Y-84952882D01*
X167475297Y-84950722D01*
X167490000Y-84950000D01*
X167790000Y-84950000D01*
X167804703Y-84950722D01*
X167804703Y-84950722D01*
G37*
D19*
X167640000Y-85950000D03*
D10*
G36*
X167804703Y-90850722D02*
G01*
X167819264Y-90852882D01*
X167833543Y-90856459D01*
X167847403Y-90861418D01*
X167860710Y-90867712D01*
X167873336Y-90875280D01*
X167885159Y-90884048D01*
X167896066Y-90893934D01*
X167905952Y-90904841D01*
X167914720Y-90916664D01*
X167922288Y-90929290D01*
X167928582Y-90942597D01*
X167933541Y-90956457D01*
X167937118Y-90970736D01*
X167939278Y-90985297D01*
X167940000Y-91000000D01*
X167940000Y-92700000D01*
X167939278Y-92714703D01*
X167937118Y-92729264D01*
X167933541Y-92743543D01*
X167928582Y-92757403D01*
X167922288Y-92770710D01*
X167914720Y-92783336D01*
X167905952Y-92795159D01*
X167896066Y-92806066D01*
X167885159Y-92815952D01*
X167873336Y-92824720D01*
X167860710Y-92832288D01*
X167847403Y-92838582D01*
X167833543Y-92843541D01*
X167819264Y-92847118D01*
X167804703Y-92849278D01*
X167790000Y-92850000D01*
X167490000Y-92850000D01*
X167475297Y-92849278D01*
X167460736Y-92847118D01*
X167446457Y-92843541D01*
X167432597Y-92838582D01*
X167419290Y-92832288D01*
X167406664Y-92824720D01*
X167394841Y-92815952D01*
X167383934Y-92806066D01*
X167374048Y-92795159D01*
X167365280Y-92783336D01*
X167357712Y-92770710D01*
X167351418Y-92757403D01*
X167346459Y-92743543D01*
X167342882Y-92729264D01*
X167340722Y-92714703D01*
X167340000Y-92700000D01*
X167340000Y-91000000D01*
X167340722Y-90985297D01*
X167342882Y-90970736D01*
X167346459Y-90956457D01*
X167351418Y-90942597D01*
X167357712Y-90929290D01*
X167365280Y-90916664D01*
X167374048Y-90904841D01*
X167383934Y-90893934D01*
X167394841Y-90884048D01*
X167406664Y-90875280D01*
X167419290Y-90867712D01*
X167432597Y-90861418D01*
X167446457Y-90856459D01*
X167460736Y-90852882D01*
X167475297Y-90850722D01*
X167490000Y-90850000D01*
X167790000Y-90850000D01*
X167804703Y-90850722D01*
X167804703Y-90850722D01*
G37*
D19*
X167640000Y-91850000D03*
D10*
G36*
X166534703Y-90850722D02*
G01*
X166549264Y-90852882D01*
X166563543Y-90856459D01*
X166577403Y-90861418D01*
X166590710Y-90867712D01*
X166603336Y-90875280D01*
X166615159Y-90884048D01*
X166626066Y-90893934D01*
X166635952Y-90904841D01*
X166644720Y-90916664D01*
X166652288Y-90929290D01*
X166658582Y-90942597D01*
X166663541Y-90956457D01*
X166667118Y-90970736D01*
X166669278Y-90985297D01*
X166670000Y-91000000D01*
X166670000Y-92700000D01*
X166669278Y-92714703D01*
X166667118Y-92729264D01*
X166663541Y-92743543D01*
X166658582Y-92757403D01*
X166652288Y-92770710D01*
X166644720Y-92783336D01*
X166635952Y-92795159D01*
X166626066Y-92806066D01*
X166615159Y-92815952D01*
X166603336Y-92824720D01*
X166590710Y-92832288D01*
X166577403Y-92838582D01*
X166563543Y-92843541D01*
X166549264Y-92847118D01*
X166534703Y-92849278D01*
X166520000Y-92850000D01*
X166220000Y-92850000D01*
X166205297Y-92849278D01*
X166190736Y-92847118D01*
X166176457Y-92843541D01*
X166162597Y-92838582D01*
X166149290Y-92832288D01*
X166136664Y-92824720D01*
X166124841Y-92815952D01*
X166113934Y-92806066D01*
X166104048Y-92795159D01*
X166095280Y-92783336D01*
X166087712Y-92770710D01*
X166081418Y-92757403D01*
X166076459Y-92743543D01*
X166072882Y-92729264D01*
X166070722Y-92714703D01*
X166070000Y-92700000D01*
X166070000Y-91000000D01*
X166070722Y-90985297D01*
X166072882Y-90970736D01*
X166076459Y-90956457D01*
X166081418Y-90942597D01*
X166087712Y-90929290D01*
X166095280Y-90916664D01*
X166104048Y-90904841D01*
X166113934Y-90893934D01*
X166124841Y-90884048D01*
X166136664Y-90875280D01*
X166149290Y-90867712D01*
X166162597Y-90861418D01*
X166176457Y-90856459D01*
X166190736Y-90852882D01*
X166205297Y-90850722D01*
X166220000Y-90850000D01*
X166520000Y-90850000D01*
X166534703Y-90850722D01*
X166534703Y-90850722D01*
G37*
D19*
X166370000Y-91850000D03*
D10*
G36*
X165264703Y-90850722D02*
G01*
X165279264Y-90852882D01*
X165293543Y-90856459D01*
X165307403Y-90861418D01*
X165320710Y-90867712D01*
X165333336Y-90875280D01*
X165345159Y-90884048D01*
X165356066Y-90893934D01*
X165365952Y-90904841D01*
X165374720Y-90916664D01*
X165382288Y-90929290D01*
X165388582Y-90942597D01*
X165393541Y-90956457D01*
X165397118Y-90970736D01*
X165399278Y-90985297D01*
X165400000Y-91000000D01*
X165400000Y-92700000D01*
X165399278Y-92714703D01*
X165397118Y-92729264D01*
X165393541Y-92743543D01*
X165388582Y-92757403D01*
X165382288Y-92770710D01*
X165374720Y-92783336D01*
X165365952Y-92795159D01*
X165356066Y-92806066D01*
X165345159Y-92815952D01*
X165333336Y-92824720D01*
X165320710Y-92832288D01*
X165307403Y-92838582D01*
X165293543Y-92843541D01*
X165279264Y-92847118D01*
X165264703Y-92849278D01*
X165250000Y-92850000D01*
X164950000Y-92850000D01*
X164935297Y-92849278D01*
X164920736Y-92847118D01*
X164906457Y-92843541D01*
X164892597Y-92838582D01*
X164879290Y-92832288D01*
X164866664Y-92824720D01*
X164854841Y-92815952D01*
X164843934Y-92806066D01*
X164834048Y-92795159D01*
X164825280Y-92783336D01*
X164817712Y-92770710D01*
X164811418Y-92757403D01*
X164806459Y-92743543D01*
X164802882Y-92729264D01*
X164800722Y-92714703D01*
X164800000Y-92700000D01*
X164800000Y-91000000D01*
X164800722Y-90985297D01*
X164802882Y-90970736D01*
X164806459Y-90956457D01*
X164811418Y-90942597D01*
X164817712Y-90929290D01*
X164825280Y-90916664D01*
X164834048Y-90904841D01*
X164843934Y-90893934D01*
X164854841Y-90884048D01*
X164866664Y-90875280D01*
X164879290Y-90867712D01*
X164892597Y-90861418D01*
X164906457Y-90856459D01*
X164920736Y-90852882D01*
X164935297Y-90850722D01*
X164950000Y-90850000D01*
X165250000Y-90850000D01*
X165264703Y-90850722D01*
X165264703Y-90850722D01*
G37*
D19*
X165100000Y-91850000D03*
D10*
G36*
X163994703Y-90850722D02*
G01*
X164009264Y-90852882D01*
X164023543Y-90856459D01*
X164037403Y-90861418D01*
X164050710Y-90867712D01*
X164063336Y-90875280D01*
X164075159Y-90884048D01*
X164086066Y-90893934D01*
X164095952Y-90904841D01*
X164104720Y-90916664D01*
X164112288Y-90929290D01*
X164118582Y-90942597D01*
X164123541Y-90956457D01*
X164127118Y-90970736D01*
X164129278Y-90985297D01*
X164130000Y-91000000D01*
X164130000Y-92700000D01*
X164129278Y-92714703D01*
X164127118Y-92729264D01*
X164123541Y-92743543D01*
X164118582Y-92757403D01*
X164112288Y-92770710D01*
X164104720Y-92783336D01*
X164095952Y-92795159D01*
X164086066Y-92806066D01*
X164075159Y-92815952D01*
X164063336Y-92824720D01*
X164050710Y-92832288D01*
X164037403Y-92838582D01*
X164023543Y-92843541D01*
X164009264Y-92847118D01*
X163994703Y-92849278D01*
X163980000Y-92850000D01*
X163680000Y-92850000D01*
X163665297Y-92849278D01*
X163650736Y-92847118D01*
X163636457Y-92843541D01*
X163622597Y-92838582D01*
X163609290Y-92832288D01*
X163596664Y-92824720D01*
X163584841Y-92815952D01*
X163573934Y-92806066D01*
X163564048Y-92795159D01*
X163555280Y-92783336D01*
X163547712Y-92770710D01*
X163541418Y-92757403D01*
X163536459Y-92743543D01*
X163532882Y-92729264D01*
X163530722Y-92714703D01*
X163530000Y-92700000D01*
X163530000Y-91000000D01*
X163530722Y-90985297D01*
X163532882Y-90970736D01*
X163536459Y-90956457D01*
X163541418Y-90942597D01*
X163547712Y-90929290D01*
X163555280Y-90916664D01*
X163564048Y-90904841D01*
X163573934Y-90893934D01*
X163584841Y-90884048D01*
X163596664Y-90875280D01*
X163609290Y-90867712D01*
X163622597Y-90861418D01*
X163636457Y-90856459D01*
X163650736Y-90852882D01*
X163665297Y-90850722D01*
X163680000Y-90850000D01*
X163980000Y-90850000D01*
X163994703Y-90850722D01*
X163994703Y-90850722D01*
G37*
D19*
X163830000Y-91850000D03*
D10*
G36*
X162724703Y-90850722D02*
G01*
X162739264Y-90852882D01*
X162753543Y-90856459D01*
X162767403Y-90861418D01*
X162780710Y-90867712D01*
X162793336Y-90875280D01*
X162805159Y-90884048D01*
X162816066Y-90893934D01*
X162825952Y-90904841D01*
X162834720Y-90916664D01*
X162842288Y-90929290D01*
X162848582Y-90942597D01*
X162853541Y-90956457D01*
X162857118Y-90970736D01*
X162859278Y-90985297D01*
X162860000Y-91000000D01*
X162860000Y-92700000D01*
X162859278Y-92714703D01*
X162857118Y-92729264D01*
X162853541Y-92743543D01*
X162848582Y-92757403D01*
X162842288Y-92770710D01*
X162834720Y-92783336D01*
X162825952Y-92795159D01*
X162816066Y-92806066D01*
X162805159Y-92815952D01*
X162793336Y-92824720D01*
X162780710Y-92832288D01*
X162767403Y-92838582D01*
X162753543Y-92843541D01*
X162739264Y-92847118D01*
X162724703Y-92849278D01*
X162710000Y-92850000D01*
X162410000Y-92850000D01*
X162395297Y-92849278D01*
X162380736Y-92847118D01*
X162366457Y-92843541D01*
X162352597Y-92838582D01*
X162339290Y-92832288D01*
X162326664Y-92824720D01*
X162314841Y-92815952D01*
X162303934Y-92806066D01*
X162294048Y-92795159D01*
X162285280Y-92783336D01*
X162277712Y-92770710D01*
X162271418Y-92757403D01*
X162266459Y-92743543D01*
X162262882Y-92729264D01*
X162260722Y-92714703D01*
X162260000Y-92700000D01*
X162260000Y-91000000D01*
X162260722Y-90985297D01*
X162262882Y-90970736D01*
X162266459Y-90956457D01*
X162271418Y-90942597D01*
X162277712Y-90929290D01*
X162285280Y-90916664D01*
X162294048Y-90904841D01*
X162303934Y-90893934D01*
X162314841Y-90884048D01*
X162326664Y-90875280D01*
X162339290Y-90867712D01*
X162352597Y-90861418D01*
X162366457Y-90856459D01*
X162380736Y-90852882D01*
X162395297Y-90850722D01*
X162410000Y-90850000D01*
X162710000Y-90850000D01*
X162724703Y-90850722D01*
X162724703Y-90850722D01*
G37*
D19*
X162560000Y-91850000D03*
D10*
G36*
X161454703Y-90850722D02*
G01*
X161469264Y-90852882D01*
X161483543Y-90856459D01*
X161497403Y-90861418D01*
X161510710Y-90867712D01*
X161523336Y-90875280D01*
X161535159Y-90884048D01*
X161546066Y-90893934D01*
X161555952Y-90904841D01*
X161564720Y-90916664D01*
X161572288Y-90929290D01*
X161578582Y-90942597D01*
X161583541Y-90956457D01*
X161587118Y-90970736D01*
X161589278Y-90985297D01*
X161590000Y-91000000D01*
X161590000Y-92700000D01*
X161589278Y-92714703D01*
X161587118Y-92729264D01*
X161583541Y-92743543D01*
X161578582Y-92757403D01*
X161572288Y-92770710D01*
X161564720Y-92783336D01*
X161555952Y-92795159D01*
X161546066Y-92806066D01*
X161535159Y-92815952D01*
X161523336Y-92824720D01*
X161510710Y-92832288D01*
X161497403Y-92838582D01*
X161483543Y-92843541D01*
X161469264Y-92847118D01*
X161454703Y-92849278D01*
X161440000Y-92850000D01*
X161140000Y-92850000D01*
X161125297Y-92849278D01*
X161110736Y-92847118D01*
X161096457Y-92843541D01*
X161082597Y-92838582D01*
X161069290Y-92832288D01*
X161056664Y-92824720D01*
X161044841Y-92815952D01*
X161033934Y-92806066D01*
X161024048Y-92795159D01*
X161015280Y-92783336D01*
X161007712Y-92770710D01*
X161001418Y-92757403D01*
X160996459Y-92743543D01*
X160992882Y-92729264D01*
X160990722Y-92714703D01*
X160990000Y-92700000D01*
X160990000Y-91000000D01*
X160990722Y-90985297D01*
X160992882Y-90970736D01*
X160996459Y-90956457D01*
X161001418Y-90942597D01*
X161007712Y-90929290D01*
X161015280Y-90916664D01*
X161024048Y-90904841D01*
X161033934Y-90893934D01*
X161044841Y-90884048D01*
X161056664Y-90875280D01*
X161069290Y-90867712D01*
X161082597Y-90861418D01*
X161096457Y-90856459D01*
X161110736Y-90852882D01*
X161125297Y-90850722D01*
X161140000Y-90850000D01*
X161440000Y-90850000D01*
X161454703Y-90850722D01*
X161454703Y-90850722D01*
G37*
D19*
X161290000Y-91850000D03*
D10*
G36*
X160184703Y-90850722D02*
G01*
X160199264Y-90852882D01*
X160213543Y-90856459D01*
X160227403Y-90861418D01*
X160240710Y-90867712D01*
X160253336Y-90875280D01*
X160265159Y-90884048D01*
X160276066Y-90893934D01*
X160285952Y-90904841D01*
X160294720Y-90916664D01*
X160302288Y-90929290D01*
X160308582Y-90942597D01*
X160313541Y-90956457D01*
X160317118Y-90970736D01*
X160319278Y-90985297D01*
X160320000Y-91000000D01*
X160320000Y-92700000D01*
X160319278Y-92714703D01*
X160317118Y-92729264D01*
X160313541Y-92743543D01*
X160308582Y-92757403D01*
X160302288Y-92770710D01*
X160294720Y-92783336D01*
X160285952Y-92795159D01*
X160276066Y-92806066D01*
X160265159Y-92815952D01*
X160253336Y-92824720D01*
X160240710Y-92832288D01*
X160227403Y-92838582D01*
X160213543Y-92843541D01*
X160199264Y-92847118D01*
X160184703Y-92849278D01*
X160170000Y-92850000D01*
X159870000Y-92850000D01*
X159855297Y-92849278D01*
X159840736Y-92847118D01*
X159826457Y-92843541D01*
X159812597Y-92838582D01*
X159799290Y-92832288D01*
X159786664Y-92824720D01*
X159774841Y-92815952D01*
X159763934Y-92806066D01*
X159754048Y-92795159D01*
X159745280Y-92783336D01*
X159737712Y-92770710D01*
X159731418Y-92757403D01*
X159726459Y-92743543D01*
X159722882Y-92729264D01*
X159720722Y-92714703D01*
X159720000Y-92700000D01*
X159720000Y-91000000D01*
X159720722Y-90985297D01*
X159722882Y-90970736D01*
X159726459Y-90956457D01*
X159731418Y-90942597D01*
X159737712Y-90929290D01*
X159745280Y-90916664D01*
X159754048Y-90904841D01*
X159763934Y-90893934D01*
X159774841Y-90884048D01*
X159786664Y-90875280D01*
X159799290Y-90867712D01*
X159812597Y-90861418D01*
X159826457Y-90856459D01*
X159840736Y-90852882D01*
X159855297Y-90850722D01*
X159870000Y-90850000D01*
X160170000Y-90850000D01*
X160184703Y-90850722D01*
X160184703Y-90850722D01*
G37*
D19*
X160020000Y-91850000D03*
D20*
X168529000Y-91821000D03*
X148082000Y-89789000D03*
X156972000Y-91567000D03*
X158876972Y-91567000D03*
X157099000Y-86233000D03*
X158877000Y-86233000D03*
X150622000Y-88011000D03*
X150622000Y-89027002D03*
X153924006Y-87376000D03*
X152781000Y-87376000D03*
X149352000Y-86868000D03*
X168402000Y-88392000D03*
X145884900Y-93853000D03*
X147574000Y-93853000D03*
X155321000Y-89026987D03*
X155321000Y-87376000D03*
D21*
X149352000Y-88010000D02*
X149352000Y-89790000D01*
X144300000Y-89690000D02*
X144272000Y-89662000D01*
X144300000Y-91840000D02*
X144300000Y-89690000D01*
X152781000Y-86000000D02*
X154051000Y-86000000D01*
D22*
X168500000Y-91850000D02*
X168529000Y-91821000D01*
X167640000Y-91850000D02*
X168500000Y-91850000D01*
D21*
X148083000Y-89790000D02*
X148082000Y-89789000D01*
X149352000Y-89790000D02*
X148083000Y-89790000D01*
X157741000Y-92336000D02*
X156972000Y-91567000D01*
X157988000Y-92336000D02*
X157741000Y-92336000D01*
X158876972Y-91694028D02*
X158876972Y-91567000D01*
X158235000Y-92336000D02*
X158876972Y-91694028D01*
X157988000Y-92336000D02*
X158235000Y-92336000D01*
X157868000Y-85464000D02*
X157099000Y-86233000D01*
X157988000Y-85464000D02*
X157868000Y-85464000D01*
X158108000Y-85464000D02*
X158877000Y-86233000D01*
X157988000Y-85464000D02*
X158108000Y-85464000D01*
X149352000Y-88010000D02*
X150621000Y-88010000D01*
X150621000Y-88010000D02*
X150622000Y-88011000D01*
X150494998Y-89027002D02*
X150622000Y-89027002D01*
X149732000Y-89790000D02*
X150494998Y-89027002D01*
X149352000Y-89790000D02*
X149732000Y-89790000D01*
X154051000Y-86000000D02*
X154051000Y-87249006D01*
X154051000Y-87249006D02*
X153924006Y-87376000D01*
X152781000Y-86000000D02*
X152781000Y-87376000D01*
X149352000Y-88010000D02*
X149352000Y-86868000D01*
X149352000Y-84582000D02*
X149352000Y-84710000D01*
X147700000Y-82930000D02*
X149352000Y-84582000D01*
X147700000Y-82550000D02*
X147700000Y-82930000D01*
X146939000Y-87249000D02*
X149352000Y-84836000D01*
X149352000Y-84836000D02*
X149352000Y-84710000D01*
X146939000Y-87510000D02*
X146939000Y-87249000D01*
X150642000Y-86000000D02*
X149352000Y-84710000D01*
X151511000Y-86000000D02*
X150642000Y-86000000D01*
X146939000Y-88519000D02*
X146939000Y-87510000D01*
X146685000Y-88773000D02*
X146939000Y-88519000D01*
X146685000Y-95250000D02*
X146685000Y-88773000D01*
X151511000Y-82931000D02*
X151130000Y-82550000D01*
X151511000Y-86000000D02*
X151511000Y-82931000D01*
X151130000Y-82550000D02*
X153670000Y-82550000D01*
X157988000Y-87764000D02*
X159632000Y-87764000D01*
X160020000Y-87376000D02*
X160020000Y-85950000D01*
X159632000Y-87764000D02*
X160020000Y-87376000D01*
X157525123Y-88226877D02*
X157988000Y-87764000D01*
X151980877Y-88226877D02*
X157525123Y-88226877D01*
X151511000Y-87757000D02*
X151980877Y-88226877D01*
X151511000Y-86000000D02*
X151511000Y-87757000D01*
D23*
X159766000Y-89916000D02*
X160401000Y-89916000D01*
D21*
X150642000Y-91800000D02*
X149352000Y-93090000D01*
X151511000Y-91800000D02*
X150642000Y-91800000D01*
X151511000Y-94869000D02*
X151130000Y-95250000D01*
X151511000Y-91800000D02*
X151511000Y-94869000D01*
X151130000Y-95250000D02*
X153670000Y-95250000D01*
X151511000Y-91800000D02*
X151511000Y-90424000D01*
X151899000Y-90036000D02*
X157988000Y-90036000D01*
X151511000Y-90424000D02*
X151899000Y-90036000D01*
X160020000Y-90551000D02*
X160020000Y-91850000D01*
X160274000Y-90043000D02*
X170053000Y-90043000D01*
X170053000Y-90043000D02*
X170180000Y-89916000D01*
X160020000Y-90297000D02*
X160274000Y-90043000D01*
X160020000Y-90551000D02*
X160020000Y-90297000D01*
X159759000Y-90036000D02*
X160020000Y-90297000D01*
X157988000Y-90036000D02*
X159759000Y-90036000D01*
D23*
X168402000Y-87376000D02*
X168402000Y-88392000D01*
X167767000Y-86741000D02*
X168402000Y-87376000D01*
X145184000Y-86965000D02*
X146939000Y-85210000D01*
X143900000Y-86965000D02*
X145184000Y-86965000D01*
D21*
X146932000Y-85210000D02*
X146939000Y-85210000D01*
X144400000Y-82678000D02*
X146932000Y-85210000D01*
X144400000Y-82550000D02*
X144400000Y-82678000D01*
D23*
X165100000Y-85950000D02*
X165100000Y-84709000D01*
X165100000Y-84709000D02*
X165608000Y-84201000D01*
X167259000Y-84201000D02*
X168910000Y-82550000D01*
X165608000Y-84201000D02*
X167259000Y-84201000D01*
X164846000Y-84074000D02*
X166370000Y-82550000D01*
X164338000Y-84074000D02*
X164846000Y-84074000D01*
X163830000Y-84582000D02*
X164338000Y-84074000D01*
X163830000Y-85950000D02*
X163830000Y-84582000D01*
X162560000Y-83820000D02*
X163830000Y-82550000D01*
X162560000Y-85950000D02*
X162560000Y-83820000D01*
X161290000Y-85950000D02*
X161290000Y-82550000D01*
X161290000Y-91850000D02*
X161290000Y-95250000D01*
X162560000Y-93980000D02*
X163830000Y-95250000D01*
X162560000Y-91850000D02*
X162560000Y-93980000D01*
X164846000Y-93726000D02*
X166370000Y-95250000D01*
X164338000Y-93726000D02*
X164846000Y-93726000D01*
X163830000Y-93218000D02*
X164338000Y-93726000D01*
X163830000Y-91850000D02*
X163830000Y-93218000D01*
X167132000Y-93472000D02*
X168910000Y-95250000D01*
X165481000Y-93472000D02*
X167132000Y-93472000D01*
X165100000Y-93091000D02*
X165481000Y-93472000D01*
X165100000Y-91850000D02*
X165100000Y-93091000D01*
X144145000Y-95250000D02*
X145415000Y-93980000D01*
X145542000Y-93853000D02*
X145884900Y-93853000D01*
X145415000Y-93980000D02*
X145542000Y-93853000D01*
X155321000Y-86000000D02*
X155321000Y-87376000D01*
X150749000Y-90043000D02*
X151765013Y-89026987D01*
X150749000Y-90551000D02*
X150749000Y-90043000D01*
X148971000Y-91186000D02*
X150114000Y-91186000D01*
X150114000Y-91186000D02*
X150749000Y-90551000D01*
X151765013Y-89026987D02*
X155321000Y-89026987D01*
X147955000Y-92202000D02*
X148971000Y-91186000D01*
X147955000Y-93472000D02*
X147955000Y-92202000D01*
X147574000Y-93853000D02*
X147955000Y-93472000D01*
D10*
G36*
X146963293Y-85513253D02*
G01*
X146957096Y-85674619D01*
X145377886Y-87028227D01*
X145158727Y-87109300D01*
X143901051Y-87109300D01*
X143892261Y-87072068D01*
X145180088Y-86428155D01*
X145181834Y-86427099D01*
X145385229Y-86280500D01*
X145386783Y-86279177D01*
X146473457Y-85192503D01*
X146642543Y-85192503D01*
X146963293Y-85513253D01*
X146963293Y-85513253D01*
G37*
X146963293Y-85513253D02*
X146957096Y-85674619D01*
X145377886Y-87028227D01*
X145158727Y-87109300D01*
X143901051Y-87109300D01*
X143892261Y-87072068D01*
X145180088Y-86428155D01*
X145181834Y-86427099D01*
X145385229Y-86280500D01*
X145386783Y-86279177D01*
X146473457Y-85192503D01*
X146642543Y-85192503D01*
X146963293Y-85513253D01*
M02*
